
<svg width="37" height="37" viewBox="0 0 37 37" fill="none" xmlns="http://www.w3.org/2000/svg">
<g clip-path="url(#clip0_6131_7902)">
<mask id="mask0_6131_7902" style="mask-type:luminance" maskUnits="userSpaceOnUse" x="0" y="0" width="36" height="36">
<path d="M35.5 18C35.5 8.33502 27.665 0.5 18 0.5C8.33502 0.5 0.5 8.33502 0.5 18C0.5 27.665 8.33502 35.5 18 35.5C27.665 35.5 35.5 27.665 35.5 18Z" fill="white"/>
</mask>
<g mask="url(#mask0_6131_7902)">
<path d="M35.5 18C35.5 8.33502 27.665 0.5 18 0.5C8.33502 0.5 0.5 8.33502 0.5 18C0.5 27.665 8.33502 35.5 18 35.5C27.665 35.5 35.5 27.665 35.5 18Z" fill="#FF2E00"/>
<g opacity="0.8">
<path d="M12.7347 9.17593V8.98056H12.9301V8.78516H13.1255V8.98056H13.3209V9.17593H13.1255V9.3713H12.9301V9.17593H12.7347Z" fill="#F3F3F3"/>
<path d="M14.7261 9.17593V8.98056H14.9214V8.78516H15.1168V8.98056H15.3122V9.17593H15.1168V9.3713H14.9214V9.17593H14.7261Z" fill="#F3F3F3"/>
<path d="M16.7173 9.17628V8.98091H16.9127V8.7855H17.108V8.98091H17.3034V9.17628H17.108V9.37165H16.9127V9.17628H16.7173ZM16.7173 8.00402V7.80865H16.9127V7.61328H17.108V7.80865H17.3034V8.00402H17.108V8.19939H16.9127V8.00402H16.7173Z" fill="#F3F3F3"/>
<path d="M18.7085 9.17628V8.98091H18.9039V8.7855H19.0993V8.98091H19.2946V9.17628H19.0993V9.37165H18.9039V9.17628H18.7085ZM18.7085 8.00402V7.80865H18.9039V7.61328H19.0993V7.80865H19.2946V8.00402H19.0993V8.19939H18.9039V8.00402H18.7085Z" fill="#F3F3F3"/>
<path d="M21.6768 8.97999H21.4814V8.78458H21.6768V8.97999ZM21.6768 7.61236V7.80773H21.4814V7.61236H21.6768ZM20.3091 8.97999V8.78458H20.5045V8.97999H20.3091ZM20.3091 7.80773V7.61236H20.5045V7.80773H20.3091ZM20.6999 8.58921V8.39384H20.1138V8.19847H20.6999V8.0031H20.8953V7.41699H21.0907V8.0031H21.286V8.19847H21.8721V8.39384H21.286V8.58921H21.0907V9.17536H20.8953V8.58921H20.6999ZM20.6999 8.78458H20.5045V8.58921H20.6999V8.78458ZM20.6999 8.0031H20.5045V7.80773H20.6999V8.0031ZM21.4814 8.58921V8.78458H21.286V8.58921H21.4814ZM21.4814 8.0031H21.286V7.80773H21.4814V8.0031Z" fill="#F3F3F3"/>
<path d="M23.668 8.97999H23.4726V8.78458H23.668V8.97999ZM23.668 7.61236V7.80773H23.4726V7.61236H23.668ZM22.3004 8.97999V8.78458H22.4957V8.97999H22.3004ZM22.3004 7.80773V7.61236H22.4957V7.80773H22.3004ZM22.6911 8.58921V8.39384H22.105V8.19847H22.6911V8.0031H22.8865V7.41699H23.0819V8.0031H23.2772V8.19847H23.8633V8.39384H23.2772V8.58921H23.0819V9.17536H22.8865V8.58921H22.6911ZM22.6911 8.78458H22.4957V8.58921H22.6911V8.78458ZM22.6911 8.0031H22.4957V7.80773H22.6911V8.0031ZM23.4726 8.58921V8.78458H23.2772V8.58921H23.4726ZM23.4726 8.0031H23.2772V7.80773H23.4726V8.0031Z" fill="#F3F3F3"/>
<path d="M25.6593 8.97999H25.4639V8.78458H25.6593V8.97999ZM25.6593 7.61236V7.80773H25.4639V7.61236H25.6593ZM24.2917 8.97999V8.78458H24.4871V8.97999H24.2917ZM24.2917 7.80773V7.61236H24.4871V7.80773H24.2917ZM24.6824 8.58921V8.39384H24.0963V8.19847H24.6824V8.0031H24.8778V7.41699H25.0732V8.0031H25.2686V8.19847H25.8547V8.39384H25.2686V8.58921H25.0732V9.17536H24.8778V8.58921H24.6824ZM24.6824 8.78458H24.4871V8.58921H24.6824V8.78458ZM24.6824 8.0031H24.4871V7.80773H24.6824V8.0031ZM25.4639 8.58921V8.78458H25.2686V8.58921H25.4639ZM25.4639 8.0031H25.2686V7.80773H25.4639V8.0031Z" fill="#F3F3F3"/>
<path d="M27.6506 8.97999H27.4553V8.78458H27.6506V8.97999ZM27.6506 7.61236V7.80773H27.4553V7.61236H27.6506ZM26.283 8.97999V8.78458H26.4784V8.97999H26.283ZM26.283 7.80773V7.61236H26.4784V7.80773H26.283ZM26.6738 8.58921V8.39384H26.0876V8.19847H26.6738V8.0031H26.8691V7.41699H27.0645V8.0031H27.2599V8.19847H27.846V8.39384H27.2599V8.58921H27.0645V9.17536H26.8691V8.58921H26.6738ZM26.6738 8.78458H26.4784V8.58921H26.6738V8.78458ZM26.6738 8.0031H26.4784V7.80773H26.6738V8.0031ZM27.4553 8.58921V8.78458H27.2599V8.58921H27.4553ZM27.4553 8.0031H27.2599V7.80773H27.4553V8.0031Z" fill="#F3F3F3"/>
<path d="M29.642 8.97999H29.4466V8.78458H29.642V8.97999ZM29.642 7.61236V7.80773H29.4466V7.61236H29.642ZM28.2744 8.97999V8.78458H28.4697V8.97999H28.2744ZM28.2744 7.80773V7.61236H28.4697V7.80773H28.2744ZM28.6651 8.58921V8.39384H28.079V8.19847H28.6651V8.0031H28.8605V7.41699H29.0558V8.0031H29.2512V8.19847H29.8373V8.39384H29.2512V8.58921H29.0558V9.17536H28.8605V8.58921H28.6651ZM28.6651 8.78458H28.4697V8.58921H28.6651V8.78458ZM28.6651 8.0031H28.4697V7.80773H28.6651V8.0031ZM29.4466 8.58921V8.78458H29.2512V8.58921H29.4466ZM29.4466 8.0031H29.2512V7.80773H29.4466V8.0031Z" fill="#F3F3F3"/>
<path d="M31.6332 8.97999H31.4378V8.78458H31.6332V8.97999ZM31.6332 7.61236V7.80773H31.4378V7.61236H31.6332ZM30.2656 8.97999V8.78458H30.461V8.97999H30.2656ZM30.2656 7.80773V7.61236H30.461V7.80773H30.2656ZM30.6563 8.58921V8.39384H30.0702V8.19847H30.6563V8.0031H30.8517V7.41699H31.0471V8.0031H31.2424V8.19847H31.8286V8.39384H31.2424V8.58921H31.0471V9.17536H30.8517V8.58921H30.6563ZM30.6563 8.78458H30.461V8.58921H30.6563V8.78458ZM30.6563 8.0031H30.461V7.80773H30.6563V8.0031ZM31.4378 8.58921V8.78458H31.2424V8.58921H31.4378ZM31.4378 8.0031H31.2424V7.80773H31.4378V8.0031Z" fill="#F3F3F3"/>
<path d="M33.6245 8.97999H33.4291V8.78458H33.6245V8.97999ZM33.6245 7.61236V7.80773H33.4291V7.61236H33.6245ZM32.2569 8.97999V8.78458H32.4523V8.97999H32.2569ZM32.2569 7.80773V7.61236H32.4523V7.80773H32.2569ZM32.6477 8.58921V8.39384H32.0615V8.19847H32.6477V8.0031H32.843V7.41699H33.0384V8.0031H33.2338V8.19847H33.8199V8.39384H33.2338V8.58921H33.0384V9.17536H32.843V8.58921H32.6477ZM32.6477 8.78458H32.4523V8.58921H32.6477V8.78458ZM32.6477 8.0031H32.4523V7.80773H32.6477V8.0031ZM33.4291 8.58921V8.78458H33.2338V8.58921H33.4291ZM33.4291 8.0031H33.2338V7.80773H33.4291V8.0031Z" fill="#F3F3F3"/>
<path d="M4.76953 13.0841V12.8887H4.9649V12.6934H5.16027V12.8887H5.35568V13.0841H5.16027V13.2795H4.9649V13.0841H4.76953Z" fill="#F3F3F3"/>
<path d="M6.76086 13.0835V12.8881H6.95623V12.6928H7.1516V12.8881H7.34697V13.0835H7.1516V13.2789H6.95623V13.0835H6.76086ZM6.76086 11.9112V11.7159H6.95623V11.5205H7.1516V11.7159H7.34697V11.9112H7.1516V12.1066H6.95623V11.9112H6.76086Z" fill="#F3F3F3"/>
<path d="M8.7522 13.0835V12.8881H8.94757V12.6928H9.14294V12.8881H9.33831V13.0835H9.14294V13.2789H8.94757V13.0835H8.7522ZM8.7522 11.9112V11.7159H8.94757V11.5205H9.14294V11.7159H9.33831V11.9112H9.14294V12.1066H8.94757V11.9112H8.7522Z" fill="#F3F3F3"/>
<path d="M11.7203 12.8882H11.5249V12.6928H11.7203V12.8882ZM11.7203 11.5206V11.7159H11.5249V11.5206H11.7203ZM10.3527 12.8882V12.6928H10.5481V12.8882H10.3527ZM10.3527 11.7159V11.5206H10.5481V11.7159H10.3527ZM10.7435 12.4974V12.302H10.1573V12.1067H10.7435V11.9113H10.9388V11.3252H11.1342V11.9113H11.3296V12.1067H11.9157V12.302H11.3296V12.4974H11.1342V13.0836H10.9388V12.4974H10.7435ZM10.7435 12.6928H10.5481V12.4974H10.7435V12.6928ZM10.7435 11.9113H10.5481V11.7159H10.7435V11.9113ZM11.5249 12.4974V12.6928H11.3296V12.4974H11.5249ZM11.5249 11.9113H11.3296V11.7159H11.5249V11.9113Z" fill="#F3F3F3"/>
<path d="M13.7116 12.8882H13.5162V12.6928H13.7116V12.8882ZM13.7116 11.5206V11.7159H13.5162V11.5206H13.7116ZM12.3439 12.8882V12.6928H12.5393V12.8882H12.3439ZM12.3439 11.7159V11.5206H12.5393V11.7159H12.3439ZM12.7347 12.4974V12.302H12.1486V12.1067H12.7347V11.9113H12.9301V11.3252H13.1254V11.9113H13.3208V12.1067H13.9069V12.302H13.3208V12.4974H13.1254V13.0836H12.9301V12.4974H12.7347ZM12.7347 12.6928H12.5393V12.4974H12.7347V12.6928ZM12.7347 11.9113H12.5393V11.7159H12.7347V11.9113ZM13.5162 12.4974V12.6928H13.3208V12.4974H13.5162ZM13.5162 11.9113H13.3208V11.7159H13.5162V11.9113Z" fill="#F3F3F3"/>
<path d="M15.7029 12.8882H15.5075V12.6928H15.7029V12.8882ZM15.7029 11.5206V11.7159H15.5075V11.5206H15.7029ZM14.3353 12.8882V12.6928H14.5307V12.8882H14.3353ZM14.3353 11.7159V11.5206H14.5307V11.7159H14.3353ZM14.726 12.4974V12.302H14.1399V12.1067H14.726V11.9113H14.9214V11.3252H15.1168V11.9113H15.3121V12.1067H15.8983V12.302H15.3121V12.4974H15.1168V13.0836H14.9214V12.4974H14.726ZM14.726 12.6928H14.5307V12.4974H14.726V12.6928ZM14.726 11.9113H14.5307V11.7159H14.726V11.9113ZM15.5075 12.4974V12.6928H15.3121V12.4974H15.5075ZM15.5075 11.9113H15.3121V11.7159H15.5075V11.9113Z" fill="#F3F3F3"/>
<path d="M17.6942 12.8882H17.4988V12.6928H17.6942V12.8882ZM17.6942 11.5206V11.7159H17.4988V11.5206H17.6942ZM16.3266 12.8882V12.6928H16.522V12.8882H16.3266ZM16.3266 11.7159V11.5206H16.522V11.7159H16.3266ZM16.7174 12.4974V12.302H16.1312V12.1067H16.7174V11.9113H16.9127V11.3252H17.1081V11.9113H17.3035V12.1067H17.8896V12.302H17.3035V12.4974H17.1081V13.0836H16.9127V12.4974H16.7174ZM16.7174 12.6928H16.522V12.4974H16.7174V12.6928ZM16.7174 11.9113H16.522V11.7159H16.7174V11.9113ZM17.4988 12.4974V12.6928H17.3035V12.4974H17.4988ZM17.4988 11.9113H17.3035V11.7159H17.4988V11.9113Z" fill="#F3F3F3"/>
<path d="M19.6856 12.8882H19.4902V12.6928H19.6856V12.8882ZM19.6856 11.5206V11.7159H19.4902V11.5206H19.6856ZM18.3179 12.8882V12.6928H18.5133V12.8882H18.3179ZM18.3179 11.7159V11.5206H18.5133V11.7159H18.3179ZM18.7087 12.4974V12.302H18.1226V12.1067H18.7087V11.9113H18.9041V11.3252H19.0994V11.9113H19.2948V12.1067H19.8809V12.302H19.2948V12.4974H19.0994V13.0836H18.9041V12.4974H18.7087ZM18.7087 12.6928H18.5133V12.4974H18.7087V12.6928ZM18.7087 11.9113H18.5133V11.7159H18.7087V11.9113ZM19.4902 12.4974V12.6928H19.2948V12.4974H19.4902ZM19.4902 11.9113H19.2948V11.7159H19.4902V11.9113Z" fill="#F3F3F3"/>
<path d="M21.6768 12.8882H21.4814V12.6928H21.6768V12.8882ZM21.6768 11.5206V11.7159H21.4814V11.5206H21.6768ZM20.3091 12.8882V12.6928H20.5045V12.8882H20.3091ZM20.3091 11.7159V11.5206H20.5045V11.7159H20.3091ZM20.6999 12.4974V12.302H20.1138V12.1067H20.6999V11.9113H20.8953V11.3252H21.0907V11.9113H21.286V12.1067H21.8721V12.302H21.286V12.4974H21.0907V13.0836H20.8953V12.4974H20.6999ZM20.6999 12.6928H20.5045V12.4974H20.6999V12.6928ZM20.6999 11.9113H20.5045V11.7159H20.6999V11.9113ZM21.4814 12.4974V12.6928H21.286V12.4974H21.4814ZM21.4814 11.9113H21.286V11.7159H21.4814V11.9113Z" fill="#F3F3F3"/>
<path d="M23.668 12.8882H23.4726V12.6928H23.668V12.8882ZM23.668 11.5206V11.7159H23.4726V11.5206H23.668ZM22.3004 12.8882V12.6928H22.4957V12.8882H22.3004ZM22.3004 11.7159V11.5206H22.4957V11.7159H22.3004ZM22.6911 12.4974V12.302H22.105V12.1067H22.6911V11.9113H22.8865V11.3252H23.0819V11.9113H23.2772V12.1067H23.8633V12.302H23.2772V12.4974H23.0819V13.0836H22.8865V12.4974H22.6911ZM22.6911 12.6928H22.4957V12.4974H22.6911V12.6928ZM22.6911 11.9113H22.4957V11.7159H22.6911V11.9113ZM23.4726 12.4974V12.6928H23.2772V12.4974H23.4726ZM23.4726 11.9113H23.2772V11.7159H23.4726V11.9113Z" fill="#F3F3F3"/>
<path d="M25.6593 12.8882H25.4639V12.6928H25.6593V12.8882ZM25.6593 11.5206V11.7159H25.4639V11.5206H25.6593ZM24.2917 12.8882V12.6928H24.4871V12.8882H24.2917ZM24.2917 11.7159V11.5206H24.4871V11.7159H24.2917ZM24.6824 12.4974V12.302H24.0963V12.1067H24.6824V11.9113H24.8778V11.3252H25.0732V11.9113H25.2686V12.1067H25.8547V12.302H25.2686V12.4974H25.0732V13.0836H24.8778V12.4974H24.6824ZM24.6824 12.6928H24.4871V12.4974H24.6824V12.6928ZM24.6824 11.9113H24.4871V11.7159H24.6824V11.9113ZM25.4639 12.4974V12.6928H25.2686V12.4974H25.4639ZM25.4639 11.9113H25.2686V11.7159H25.4639V11.9113Z" fill="#F3F3F3"/>
<path d="M27.6506 12.8882H27.4553V12.6928H27.6506V12.8882ZM27.6506 11.5206V11.7159H27.4553V11.5206H27.6506ZM26.283 12.8882V12.6928H26.4784V12.8882H26.283ZM26.283 11.7159V11.5206H26.4784V11.7159H26.283ZM26.6738 12.4974V12.302H26.0876V12.1067H26.6738V11.9113H26.8691V11.3252H27.0645V11.9113H27.2599V12.1067H27.846V12.302H27.2599V12.4974H27.0645V13.0836H26.8691V12.4974H26.6738ZM26.6738 12.6928H26.4784V12.4974H26.6738V12.6928ZM26.6738 11.9113H26.4784V11.7159H26.6738V11.9113ZM27.4553 12.4974V12.6928H27.2599V12.4974H27.4553ZM27.4553 11.9113H27.2599V11.7159H27.4553V11.9113Z" fill="#F3F3F3"/>
<path d="M28.079 11.129V10.9336H28.8605V11.129H28.6651V13.0827H29.642V12.8873H29.8373V12.692H30.0327V13.0827H29.8373V13.2781H28.079V13.0827H28.2744V11.129H28.079Z" fill="#F3F3F3"/>
<path d="M30.0702 11.129V10.9336H30.8517V11.129H30.6563V13.0827H31.6332V12.8873H31.8286V12.692H32.0239V13.0827H31.8286V13.2781H30.0702V13.0827H30.2656V11.129H30.0702Z" fill="#F3F3F3"/>
<path d="M32.0615 11.129V10.9336H32.843V11.129H32.6477V13.0827H33.6245V12.8873H33.8199V12.692H34.0153V13.0827H33.8199V13.2781H32.0615V13.0827H32.2569V11.129H32.0615Z" fill="#F3F3F3"/>
<path d="M34.0527 11.129V10.9336H34.8342V11.129H34.6389V13.0827H35.6158V12.8873H35.8111V12.692H36.0064V13.0827H35.8111V13.2781H34.0527V13.0827H34.2481V11.129H34.0527Z" fill="#F3F3F3"/>
<path d="M0.787109 16.9907V16.7954H0.982483V16.6H1.17786V16.7954H1.37323V16.9907H1.17786V17.1861H0.982483V16.9907H0.787109ZM0.787109 15.8185V15.6231H0.982483V15.4277H1.17786V15.6231H1.37323V15.8185H1.17786V16.0138H0.982483V15.8185H0.787109Z" fill="#F3F3F3"/>
<path d="M3.75513 16.7954H3.55976V16.6H3.75513V16.7954ZM3.75513 15.4278V15.6232H3.55976V15.4278H3.75513ZM2.38751 16.7954V16.6H2.58289V16.7954H2.38751ZM2.38751 15.6232V15.4278H2.58289V15.6232H2.38751ZM2.77826 16.4047V16.2093H2.19214V16.0139H2.77826V15.8185H2.97363V15.2324H3.16901V15.8185H3.36438V16.0139H3.9505V16.2093H3.36438V16.4047H3.16901V16.9908H2.97363V16.4047H2.77826ZM2.77826 16.6H2.58289V16.4047H2.77826V16.6ZM2.77826 15.8185H2.58289V15.6232H2.77826V15.8185ZM3.55976 16.4047V16.6H3.36438V16.4047H3.55976ZM3.55976 15.8185H3.36438V15.6232H3.55976V15.8185Z" fill="#F3F3F3"/>
<path d="M5.74647 16.7954H5.5511V16.6H5.74647V16.7954ZM5.74647 15.4278V15.6232H5.5511V15.4278H5.74647ZM4.37884 16.7954V16.6H4.57421V16.7954H4.37884ZM4.37884 15.6232V15.4278H4.57421V15.6232H4.37884ZM4.76958 16.4047V16.2093H4.18347V16.0139H4.76958V15.8185H4.96495V15.2324H5.16032V15.8185H5.35573V16.0139H5.94184V16.2093H5.35573V16.4047H5.16032V16.9908H4.96495V16.4047H4.76958ZM4.76958 16.6H4.57421V16.4047H4.76958V16.6ZM4.76958 15.8185H4.57421V15.6232H4.76958V15.8185ZM5.5511 16.4047V16.6H5.35573V16.4047H5.5511ZM5.5511 15.8185H5.35573V15.6232H5.5511V15.8185Z" fill="#F3F3F3"/>
<path d="M7.7378 16.7954H7.54243V16.6H7.7378V16.7954ZM7.7378 15.4278V15.6232H7.54243V15.4278H7.7378ZM6.37017 16.7954V16.6H6.56554V16.7954H6.37017ZM6.37017 15.6232V15.4278H6.56554V15.6232H6.37017ZM6.76091 16.4047V16.2093H6.1748V16.0139H6.76091V15.8185H6.95628V15.2324H7.15165V15.8185H7.34702V16.0139H7.93317V16.2093H7.34702V16.4047H7.15165V16.9908H6.95628V16.4047H6.76091ZM6.76091 16.6H6.56554V16.4047H6.76091V16.6ZM6.76091 15.8185H6.56554V15.6232H6.76091V15.8185ZM7.54243 16.4047V16.6H7.34702V16.4047H7.54243ZM7.54243 15.8185H7.34702V15.6232H7.54243V15.8185Z" fill="#F3F3F3"/>
<path d="M9.72898 16.7954H9.53361V16.6H9.72898V16.7954ZM9.72898 15.4278V15.6232H9.53361V15.4278H9.72898ZM8.36139 16.7954V16.6H8.55676V16.7954H8.36139ZM8.36139 15.6232V15.4278H8.55676V15.6232H8.36139ZM8.75213 16.4047V16.2093H8.16602V16.0139H8.75213V15.8185H8.9475V15.2324H9.14287V15.8185H9.33824V16.0139H9.92438V16.2093H9.33824V16.4047H9.14287V16.9908H8.9475V16.4047H8.75213ZM8.75213 16.6H8.55676V16.4047H8.75213V16.6ZM8.75213 15.8185H8.55676V15.6232H8.75213V15.8185ZM9.53361 16.4047V16.6H9.33824V16.4047H9.53361ZM9.53361 15.8185H9.33824V15.6232H9.53361V15.8185Z" fill="#F3F3F3"/>
<path d="M11.7203 16.7954H11.5249V16.6H11.7203V16.7954ZM11.7203 15.4278V15.6232H11.5249V15.4278H11.7203ZM10.3527 16.7954V16.6H10.5481V16.7954H10.3527ZM10.3527 15.6232V15.4278H10.5481V15.6232H10.3527ZM10.7435 16.4047V16.2093H10.1573V16.0139H10.7435V15.8185H10.9388V15.2324H11.1342V15.8185H11.3296V16.0139H11.9157V16.2093H11.3296V16.4047H11.1342V16.9908H10.9388V16.4047H10.7435ZM10.7435 16.6H10.5481V16.4047H10.7435V16.6ZM10.7435 15.8185H10.5481V15.6232H10.7435V15.8185ZM11.5249 16.4047V16.6H11.3296V16.4047H11.5249ZM11.5249 15.8185H11.3296V15.6232H11.5249V15.8185Z" fill="#F3F3F3"/>
<path d="M13.7116 16.7954H13.5162V16.6H13.7116V16.7954ZM13.7116 15.4278V15.6232H13.5162V15.4278H13.7116ZM12.3439 16.7954V16.6H12.5393V16.7954H12.3439ZM12.3439 15.6232V15.4278H12.5393V15.6232H12.3439ZM12.7347 16.4047V16.2093H12.1486V16.0139H12.7347V15.8185H12.9301V15.2324H13.1254V15.8185H13.3208V16.0139H13.9069V16.2093H13.3208V16.4047H13.1254V16.9908H12.9301V16.4047H12.7347ZM12.7347 16.6H12.5393V16.4047H12.7347V16.6ZM12.7347 15.8185H12.5393V15.6232H12.7347V15.8185ZM13.5162 16.4047V16.6H13.3208V16.4047H13.5162ZM13.5162 15.8185H13.3208V15.6232H13.5162V15.8185Z" fill="#F3F3F3"/>
<path d="M15.7029 16.7954H15.5075V16.6H15.7029V16.7954ZM15.7029 15.4278V15.6232H15.5075V15.4278H15.7029ZM14.3353 16.7954V16.6H14.5307V16.7954H14.3353ZM14.3353 15.6232V15.4278H14.5307V15.6232H14.3353ZM14.726 16.4047V16.2093H14.1399V16.0139H14.726V15.8185H14.9214V15.2324H15.1168V15.8185H15.3121V16.0139H15.8983V16.2093H15.3121V16.4047H15.1168V16.9908H14.9214V16.4047H14.726ZM14.726 16.6H14.5307V16.4047H14.726V16.6ZM14.726 15.8185H14.5307V15.6232H14.726V15.8185ZM15.5075 16.4047V16.6H15.3121V16.4047H15.5075ZM15.5075 15.8185H15.3121V15.6232H15.5075V15.8185Z" fill="#F3F3F3"/>
<path d="M17.6942 16.7954H17.4988V16.6H17.6942V16.7954ZM17.6942 15.4278V15.6232H17.4988V15.4278H17.6942ZM16.3266 16.7954V16.6H16.522V16.7954H16.3266ZM16.3266 15.6232V15.4278H16.522V15.6232H16.3266ZM16.7174 16.4047V16.2093H16.1312V16.0139H16.7174V15.8185H16.9127V15.2324H17.1081V15.8185H17.3035V16.0139H17.8896V16.2093H17.3035V16.4047H17.1081V16.9908H16.9127V16.4047H16.7174ZM16.7174 16.6H16.522V16.4047H16.7174V16.6ZM16.7174 15.8185H16.522V15.6232H16.7174V15.8185ZM17.4988 16.4047V16.6H17.3035V16.4047H17.4988ZM17.4988 15.8185H17.3035V15.6232H17.4988V15.8185Z" fill="#F3F3F3"/>
<path d="M19.6856 16.7954H19.4902V16.6H19.6856V16.7954ZM19.6856 15.4278V15.6232H19.4902V15.4278H19.6856ZM18.3179 16.7954V16.6H18.5133V16.7954H18.3179ZM18.3179 15.6232V15.4278H18.5133V15.6232H18.3179ZM18.7087 16.4047V16.2093H18.1226V16.0139H18.7087V15.8185H18.9041V15.2324H19.0994V15.8185H19.2948V16.0139H19.8809V16.2093H19.2948V16.4047H19.0994V16.9908H18.9041V16.4047H18.7087ZM18.7087 16.6H18.5133V16.4047H18.7087V16.6ZM18.7087 15.8185H18.5133V15.6232H18.7087V15.8185ZM19.4902 16.4047V16.6H19.2948V16.4047H19.4902ZM19.4902 15.8185H19.2948V15.6232H19.4902V15.8185Z" fill="#F3F3F3"/>
<path d="M21.6768 16.7954H21.4814V16.6H21.6768V16.7954ZM21.6768 15.4278V15.6232H21.4814V15.4278H21.6768ZM20.3091 16.7954V16.6H20.5045V16.7954H20.3091ZM20.3091 15.6232V15.4278H20.5045V15.6232H20.3091ZM20.6999 16.4047V16.2093H20.1138V16.0139H20.6999V15.8185H20.8953V15.2324H21.0907V15.8185H21.286V16.0139H21.8721V16.2093H21.286V16.4047H21.0907V16.9908H20.8953V16.4047H20.6999ZM20.6999 16.6H20.5045V16.4047H20.6999V16.6ZM20.6999 15.8185H20.5045V15.6232H20.6999V15.8185ZM21.4814 16.4047V16.6H21.286V16.4047H21.4814ZM21.4814 15.8185H21.286V15.6232H21.4814V15.8185Z" fill="#F3F3F3"/>
<path d="M23.668 16.7954H23.4726V16.6H23.668V16.7954ZM23.668 15.4278V15.6232H23.4726V15.4278H23.668ZM22.3004 16.7954V16.6H22.4957V16.7954H22.3004ZM22.3004 15.6232V15.4278H22.4957V15.6232H22.3004ZM22.6911 16.4047V16.2093H22.105V16.0139H22.6911V15.8185H22.8865V15.2324H23.0819V15.8185H23.2772V16.0139H23.8633V16.2093H23.2772V16.4047H23.0819V16.9908H22.8865V16.4047H22.6911ZM22.6911 16.6H22.4957V16.4047H22.6911V16.6ZM22.6911 15.8185H22.4957V15.6232H22.6911V15.8185ZM23.4726 16.4047V16.6H23.2772V16.4047H23.4726ZM23.4726 15.8185H23.2772V15.6232H23.4726V15.8185Z" fill="#F3F3F3"/>
<path d="M24.0963 15.0372V14.8418H24.8778V15.0372H24.6824V16.9909H25.6593V16.7955H25.8547V16.6002H26.05V16.9909H25.8547V17.1863H24.0963V16.9909H24.2917V15.0372H24.0963Z" fill="#F3F3F3"/>
<path d="M26.0876 15.0372V14.8418H26.8691V15.0372H26.6738V16.9909H27.6506V16.7955H27.846V16.6002H28.0414V16.9909H27.846V17.1863H26.0876V16.9909H26.283V15.0372H26.0876Z" fill="#F3F3F3"/>
<path d="M28.079 15.0372V14.8418H28.8605V15.0372H28.6651V16.9909H29.642V16.7955H29.8373V16.6002H30.0327V16.9909H29.8373V17.1863H28.079V16.9909H28.2744V15.0372H28.079Z" fill="#F3F3F3"/>
<path d="M30.0702 15.0372V14.8418H30.8517V15.0372H30.6563V16.9909H31.6332V16.7955H31.8286V16.6002H32.0239V16.9909H31.8286V17.1863H30.0702V16.9909H30.2656V15.0372H30.0702Z" fill="#F3F3F3"/>
<path d="M32.0615 15.0372V14.8418H32.843V15.0372H32.6477V16.9909H33.6245V16.7955H33.8199V16.6002H34.0153V16.9909H33.8199V17.1863H32.0615V16.9909H32.2569V15.0372H32.0615Z" fill="#F3F3F3"/>
<path d="M34.0527 15.0372V14.8418H34.8342V15.0372H34.6389V16.9909H35.6158V16.7955H35.8111V16.6002H36.0064V16.9909H35.8111V17.1863H34.0527V16.9909H34.2481V15.0372H34.0527Z" fill="#F3F3F3"/>
<path d="M1.76392 20.7026H1.56854V20.5073H1.76392V20.7026ZM1.76392 19.335V19.5304H1.56854V19.335H1.76392ZM0.396301 20.7026V20.5073H0.591675V20.7026H0.396301ZM0.396301 19.5304V19.335H0.591675V19.5304H0.396301ZM0.787048 20.3119V20.1165H0.200928V19.9212H0.787048V19.7258H0.982422V19.1396H1.1778V19.7258H1.37317V19.9212H1.95929V20.1165H1.37317V20.3119H1.1778V20.898H0.982422V20.3119H0.787048ZM0.787048 20.5073H0.591675V20.3119H0.787048V20.5073ZM0.787048 19.7258H0.591675V19.5304H0.787048V19.7258ZM1.56854 20.3119V20.5073H1.37317V20.3119H1.56854ZM1.56854 19.7258H1.37317V19.5304H1.56854V19.7258Z" fill="#F3F3F3"/>
<path d="M3.75513 20.7026H3.55976V20.5073H3.75513V20.7026ZM3.75513 19.335V19.5304H3.55976V19.335H3.75513ZM2.38751 20.7026V20.5073H2.58289V20.7026H2.38751ZM2.38751 19.5304V19.335H2.58289V19.5304H2.38751ZM2.77826 20.3119V20.1165H2.19214V19.9212H2.77826V19.7258H2.97363V19.1396H3.16901V19.7258H3.36438V19.9212H3.9505V20.1165H3.36438V20.3119H3.16901V20.898H2.97363V20.3119H2.77826ZM2.77826 20.5073H2.58289V20.3119H2.77826V20.5073ZM2.77826 19.7258H2.58289V19.5304H2.77826V19.7258ZM3.55976 20.3119V20.5073H3.36438V20.3119H3.55976ZM3.55976 19.7258H3.36438V19.5304H3.55976V19.7258Z" fill="#F3F3F3"/>
<path d="M5.74647 20.7026H5.5511V20.5073H5.74647V20.7026ZM5.74647 19.335V19.5304H5.5511V19.335H5.74647ZM4.37884 20.7026V20.5073H4.57421V20.7026H4.37884ZM4.37884 19.5304V19.335H4.57421V19.5304H4.37884ZM4.76958 20.3119V20.1165H4.18347V19.9212H4.76958V19.7258H4.96495V19.1396H5.16032V19.7258H5.35573V19.9212H5.94184V20.1165H5.35573V20.3119H5.16032V20.898H4.96495V20.3119H4.76958ZM4.76958 20.5073H4.57421V20.3119H4.76958V20.5073ZM4.76958 19.7258H4.57421V19.5304H4.76958V19.7258ZM5.5511 20.3119V20.5073H5.35573V20.3119H5.5511ZM5.5511 19.7258H5.35573V19.5304H5.5511V19.7258Z" fill="#F3F3F3"/>
<path d="M7.7378 20.7026H7.54243V20.5073H7.7378V20.7026ZM7.7378 19.335V19.5304H7.54243V19.335H7.7378ZM6.37017 20.7026V20.5073H6.56554V20.7026H6.37017ZM6.37017 19.5304V19.335H6.56554V19.5304H6.37017ZM6.76091 20.3119V20.1165H6.1748V19.9212H6.76091V19.7258H6.95628V19.1396H7.15165V19.7258H7.34702V19.9212H7.93317V20.1165H7.34702V20.3119H7.15165V20.898H6.95628V20.3119H6.76091ZM6.76091 20.5073H6.56554V20.3119H6.76091V20.5073ZM6.76091 19.7258H6.56554V19.5304H6.76091V19.7258ZM7.54243 20.3119V20.5073H7.34702V20.3119H7.54243ZM7.54243 19.7258H7.34702V19.5304H7.54243V19.7258Z" fill="#F3F3F3"/>
<path d="M9.72898 20.7026H9.53361V20.5073H9.72898V20.7026ZM9.72898 19.335V19.5304H9.53361V19.335H9.72898ZM8.36139 20.7026V20.5073H8.55676V20.7026H8.36139ZM8.36139 19.5304V19.335H8.55676V19.5304H8.36139ZM8.75213 20.3119V20.1165H8.16602V19.9212H8.75213V19.7258H8.9475V19.1396H9.14287V19.7258H9.33824V19.9212H9.92438V20.1165H9.33824V20.3119H9.14287V20.898H8.9475V20.3119H8.75213ZM8.75213 20.5073H8.55676V20.3119H8.75213V20.5073ZM8.75213 19.7258H8.55676V19.5304H8.75213V19.7258ZM9.53361 20.3119V20.5073H9.33824V20.3119H9.53361ZM9.53361 19.7258H9.33824V19.5304H9.53361V19.7258Z" fill="#F3F3F3"/>
<path d="M11.7203 20.7026H11.5249V20.5073H11.7203V20.7026ZM11.7203 19.335V19.5304H11.5249V19.335H11.7203ZM10.3527 20.7026V20.5073H10.5481V20.7026H10.3527ZM10.3527 19.5304V19.335H10.5481V19.5304H10.3527ZM10.7435 20.3119V20.1165H10.1573V19.9212H10.7435V19.7258H10.9388V19.1396H11.1342V19.7258H11.3296V19.9212H11.9157V20.1165H11.3296V20.3119H11.1342V20.898H10.9388V20.3119H10.7435ZM10.7435 20.5073H10.5481V20.3119H10.7435V20.5073ZM10.7435 19.7258H10.5481V19.5304H10.7435V19.7258ZM11.5249 20.3119V20.5073H11.3296V20.3119H11.5249ZM11.5249 19.7258H11.3296V19.5304H11.5249V19.7258Z" fill="#F3F3F3"/>
<path d="M13.7116 20.7026H13.5162V20.5073H13.7116V20.7026ZM13.7116 19.335V19.5304H13.5162V19.335H13.7116ZM12.3439 20.7026V20.5073H12.5393V20.7026H12.3439ZM12.3439 19.5304V19.335H12.5393V19.5304H12.3439ZM12.7347 20.3119V20.1165H12.1486V19.9212H12.7347V19.7258H12.9301V19.1396H13.1254V19.7258H13.3208V19.9212H13.9069V20.1165H13.3208V20.3119H13.1254V20.898H12.9301V20.3119H12.7347ZM12.7347 20.5073H12.5393V20.3119H12.7347V20.5073ZM12.7347 19.7258H12.5393V19.5304H12.7347V19.7258ZM13.5162 20.3119V20.5073H13.3208V20.3119H13.5162ZM13.5162 19.7258H13.3208V19.5304H13.5162V19.7258Z" fill="#F3F3F3"/>
<path d="M15.7029 20.7026H15.5075V20.5073H15.7029V20.7026ZM15.7029 19.335V19.5304H15.5075V19.335H15.7029ZM14.3353 20.7026V20.5073H14.5307V20.7026H14.3353ZM14.3353 19.5304V19.335H14.5307V19.5304H14.3353ZM14.726 20.3119V20.1165H14.1399V19.9212H14.726V19.7258H14.9214V19.1396H15.1168V19.7258H15.3121V19.9212H15.8983V20.1165H15.3121V20.3119H15.1168V20.898H14.9214V20.3119H14.726ZM14.726 20.5073H14.5307V20.3119H14.726V20.5073ZM14.726 19.7258H14.5307V19.5304H14.726V19.7258ZM15.5075 20.3119V20.5073H15.3121V20.3119H15.5075ZM15.5075 19.7258H15.3121V19.5304H15.5075V19.7258Z" fill="#F3F3F3"/>
<path d="M17.6942 20.7026H17.4988V20.5073H17.6942V20.7026ZM17.6942 19.335V19.5304H17.4988V19.335H17.6942ZM16.3266 20.7026V20.5073H16.522V20.7026H16.3266ZM16.3266 19.5304V19.335H16.522V19.5304H16.3266ZM16.7174 20.3119V20.1165H16.1312V19.9212H16.7174V19.7258H16.9127V19.1396H17.1081V19.7258H17.3035V19.9212H17.8896V20.1165H17.3035V20.3119H17.1081V20.898H16.9127V20.3119H16.7174ZM16.7174 20.5073H16.522V20.3119H16.7174V20.5073ZM16.7174 19.7258H16.522V19.5304H16.7174V19.7258ZM17.4988 20.3119V20.5073H17.3035V20.3119H17.4988ZM17.4988 19.7258H17.3035V19.5304H17.4988V19.7258Z" fill="#F3F3F3"/>
<path d="M19.6856 20.7026H19.4902V20.5073H19.6856V20.7026ZM19.6856 19.335V19.5304H19.4902V19.335H19.6856ZM18.3179 20.7026V20.5073H18.5133V20.7026H18.3179ZM18.3179 19.5304V19.335H18.5133V19.5304H18.3179ZM18.7087 20.3119V20.1165H18.1226V19.9212H18.7087V19.7258H18.9041V19.1396H19.0994V19.7258H19.2948V19.9212H19.8809V20.1165H19.2948V20.3119H19.0994V20.898H18.9041V20.3119H18.7087ZM18.7087 20.5073H18.5133V20.3119H18.7087V20.5073ZM18.7087 19.7258H18.5133V19.5304H18.7087V19.7258ZM19.4902 20.3119V20.5073H19.2948V20.3119H19.4902ZM19.4902 19.7258H19.2948V19.5304H19.4902V19.7258Z" fill="#F3F3F3"/>
<path d="M20.1138 18.9444V18.749H20.8953V18.9444H20.6999V20.8981H21.6768V20.7028H21.8721V20.5074H22.0675V20.8981H21.8721V21.0935H20.1138V20.8981H20.3091V18.9444H20.1138Z" fill="#F3F3F3"/>
<path d="M22.105 18.9444V18.749H22.8865V18.9444H22.6911V20.8981H23.668V20.7028H23.8633V20.5074H24.0587V20.8981H23.8633V21.0935H22.105V20.8981H22.3004V18.9444H22.105Z" fill="#F3F3F3"/>
<path d="M24.0963 18.9444V18.749H24.8778V18.9444H24.6824V20.8981H25.6593V20.7028H25.8547V20.5074H26.05V20.8981H25.8547V21.0935H24.0963V20.8981H24.2917V18.9444H24.0963Z" fill="#F3F3F3"/>
<path d="M26.0876 18.9444V18.749H26.8691V18.9444H26.6738V20.8981H27.6506V20.7028H27.846V20.5074H28.0414V20.8981H27.846V21.0935H26.0876V20.8981H26.283V18.9444H26.0876Z" fill="#F3F3F3"/>
<path d="M28.079 18.9444V18.749H28.8605V18.9444H28.6651V20.8981H29.642V20.7028H29.8373V20.5074H30.0327V20.8981H29.8373V21.0935H28.079V20.8981H28.2744V18.9444H28.079Z" fill="#F3F3F3"/>
<path d="M30.0702 18.9444V18.749H30.8517V18.9444H30.6563V20.8981H31.6332V20.7028H31.8286V20.5074H32.0239V20.8981H31.8286V21.0935H30.0702V20.8981H30.2656V18.9444H30.0702Z" fill="#F3F3F3"/>
<path d="M32.0615 18.9444V18.749H32.843V18.9444H32.6477V20.8981H33.6245V20.7028H33.8199V20.5074H34.0153V20.8981H33.8199V21.0935H32.0615V20.8981H32.2569V18.9444H32.0615Z" fill="#F3F3F3"/>
<path d="M34.0527 18.9444V18.749H34.8342V18.9444H34.6389V20.8981H35.6158V20.7028H35.8111V20.5074H36.0064V20.8981H35.8111V21.0935H34.0527V20.8981H34.2481V18.9444H34.0527Z" fill="#F3F3F3"/>
<path d="M1.76392 24.6108H1.56854V24.4155H1.76392V24.6108ZM1.76392 23.2432V23.4386H1.56854V23.2432H1.76392ZM0.396301 24.6108V24.4155H0.591675V24.6108H0.396301ZM0.396301 23.4386V23.2432H0.591675V23.4386H0.396301ZM0.787048 24.2201V24.0247H0.200928V23.8294H0.787048V23.634H0.982422V23.0479H1.1778V23.634H1.37317V23.8294H1.95929V24.0247H1.37317V24.2201H1.1778V24.8062H0.982422V24.2201H0.787048ZM0.787048 24.4155H0.591675V24.2201H0.787048V24.4155ZM0.787048 23.634H0.591675V23.4386H0.787048V23.634ZM1.56854 24.2201V24.4155H1.37317V24.2201H1.56854ZM1.56854 23.634H1.37317V23.4386H1.56854V23.634Z" fill="#F3F3F3"/>
<path d="M3.75513 24.6108H3.55976V24.4155H3.75513V24.6108ZM3.75513 23.2432V23.4386H3.55976V23.2432H3.75513ZM2.38751 24.6108V24.4155H2.58289V24.6108H2.38751ZM2.38751 23.4386V23.2432H2.58289V23.4386H2.38751ZM2.77826 24.2201V24.0247H2.19214V23.8294H2.77826V23.634H2.97363V23.0479H3.16901V23.634H3.36438V23.8294H3.9505V24.0247H3.36438V24.2201H3.16901V24.8062H2.97363V24.2201H2.77826ZM2.77826 24.4155H2.58289V24.2201H2.77826V24.4155ZM2.77826 23.634H2.58289V23.4386H2.77826V23.634ZM3.55976 24.2201V24.4155H3.36438V24.2201H3.55976ZM3.55976 23.634H3.36438V23.4386H3.55976V23.634Z" fill="#F3F3F3"/>
<path d="M5.74647 24.6108H5.5511V24.4155H5.74647V24.6108ZM5.74647 23.2432V23.4386H5.5511V23.2432H5.74647ZM4.37884 24.6108V24.4155H4.57421V24.6108H4.37884ZM4.37884 23.4386V23.2432H4.57421V23.4386H4.37884ZM4.76958 24.2201V24.0247H4.18347V23.8294H4.76958V23.634H4.96495V23.0479H5.16032V23.634H5.35573V23.8294H5.94184V24.0247H5.35573V24.2201H5.16032V24.8062H4.96495V24.2201H4.76958ZM4.76958 24.4155H4.57421V24.2201H4.76958V24.4155ZM4.76958 23.634H4.57421V23.4386H4.76958V23.634ZM5.5511 24.2201V24.4155H5.35573V24.2201H5.5511ZM5.5511 23.634H5.35573V23.4386H5.5511V23.634Z" fill="#F3F3F3"/>
<path d="M7.7378 24.6108H7.54243V24.4155H7.7378V24.6108ZM7.7378 23.2432V23.4386H7.54243V23.2432H7.7378ZM6.37017 24.6108V24.4155H6.56554V24.6108H6.37017ZM6.37017 23.4386V23.2432H6.56554V23.4386H6.37017ZM6.76091 24.2201V24.0247H6.1748V23.8294H6.76091V23.634H6.95628V23.0479H7.15165V23.634H7.34702V23.8294H7.93317V24.0247H7.34702V24.2201H7.15165V24.8062H6.95628V24.2201H6.76091ZM6.76091 24.4155H6.56554V24.2201H6.76091V24.4155ZM6.76091 23.634H6.56554V23.4386H6.76091V23.634ZM7.54243 24.2201V24.4155H7.34702V24.2201H7.54243ZM7.54243 23.634H7.34702V23.4386H7.54243V23.634Z" fill="#F3F3F3"/>
<path d="M9.72898 24.6108H9.53361V24.4155H9.72898V24.6108ZM9.72898 23.2432V23.4386H9.53361V23.2432H9.72898ZM8.36139 24.6108V24.4155H8.55676V24.6108H8.36139ZM8.36139 23.4386V23.2432H8.55676V23.4386H8.36139ZM8.75213 24.2201V24.0247H8.16602V23.8294H8.75213V23.634H8.9475V23.0479H9.14287V23.634H9.33824V23.8294H9.92438V24.0247H9.33824V24.2201H9.14287V24.8062H8.9475V24.2201H8.75213ZM8.75213 24.4155H8.55676V24.2201H8.75213V24.4155ZM8.75213 23.634H8.55676V23.4386H8.75213V23.634ZM9.53361 24.2201V24.4155H9.33824V24.2201H9.53361ZM9.53361 23.634H9.33824V23.4386H9.53361V23.634Z" fill="#F3F3F3"/>
<path d="M11.7203 24.6108H11.5249V24.4155H11.7203V24.6108ZM11.7203 23.2432V23.4386H11.5249V23.2432H11.7203ZM10.3527 24.6108V24.4155H10.5481V24.6108H10.3527ZM10.3527 23.4386V23.2432H10.5481V23.4386H10.3527ZM10.7435 24.2201V24.0247H10.1573V23.8294H10.7435V23.634H10.9388V23.0479H11.1342V23.634H11.3296V23.8294H11.9157V24.0247H11.3296V24.2201H11.1342V24.8062H10.9388V24.2201H10.7435ZM10.7435 24.4155H10.5481V24.2201H10.7435V24.4155ZM10.7435 23.634H10.5481V23.4386H10.7435V23.634ZM11.5249 24.2201V24.4155H11.3296V24.2201H11.5249ZM11.5249 23.634H11.3296V23.4386H11.5249V23.634Z" fill="#F3F3F3"/>
<path d="M13.7116 24.6108H13.5162V24.4155H13.7116V24.6108ZM13.7116 23.2432V23.4386H13.5162V23.2432H13.7116ZM12.3439 24.6108V24.4155H12.5393V24.6108H12.3439ZM12.3439 23.4386V23.2432H12.5393V23.4386H12.3439ZM12.7347 24.2201V24.0247H12.1486V23.8294H12.7347V23.634H12.9301V23.0479H13.1254V23.634H13.3208V23.8294H13.9069V24.0247H13.3208V24.2201H13.1254V24.8062H12.9301V24.2201H12.7347ZM12.7347 24.4155H12.5393V24.2201H12.7347V24.4155ZM12.7347 23.634H12.5393V23.4386H12.7347V23.634ZM13.5162 24.2201V24.4155H13.3208V24.2201H13.5162ZM13.5162 23.634H13.3208V23.4386H13.5162V23.634Z" fill="#F3F3F3"/>
<path d="M15.7029 24.6108H15.5075V24.4155H15.7029V24.6108ZM15.7029 23.2432V23.4386H15.5075V23.2432H15.7029ZM14.3353 24.6108V24.4155H14.5307V24.6108H14.3353ZM14.3353 23.4386V23.2432H14.5307V23.4386H14.3353ZM14.726 24.2201V24.0247H14.1399V23.8294H14.726V23.634H14.9214V23.0479H15.1168V23.634H15.3121V23.8294H15.8983V24.0247H15.3121V24.2201H15.1168V24.8062H14.9214V24.2201H14.726ZM14.726 24.4155H14.5307V24.2201H14.726V24.4155ZM14.726 23.634H14.5307V23.4386H14.726V23.634ZM15.5075 24.2201V24.4155H15.3121V24.2201H15.5075ZM15.5075 23.634H15.3121V23.4386H15.5075V23.634Z" fill="#F3F3F3"/>
<path d="M16.1312 22.8526V22.6572H16.9127V22.8526H16.7174V24.8063H17.6942V24.611H17.8896V24.4156H18.085V24.8063H17.8896V25.0017H16.1312V24.8063H16.3266V22.8526H16.1312Z" fill="#F3F3F3"/>
<path d="M18.1226 22.8526V22.6572H18.9041V22.8526H18.7087V24.8063H19.6856V24.611H19.8809V24.4156H20.0763V24.8063H19.8809V25.0017H18.1226V24.8063H18.3179V22.8526H18.1226Z" fill="#F3F3F3"/>
<path d="M20.1138 22.8526V22.6572H20.8953V22.8526H20.6999V24.8063H21.6768V24.611H21.8721V24.4156H22.0675V24.8063H21.8721V25.0017H20.1138V24.8063H20.3091V22.8526H20.1138Z" fill="#F3F3F3"/>
<path d="M22.105 22.8526V22.6572H22.8865V22.8526H22.6911V24.8063H23.668V24.611H23.8633V24.4156H24.0587V24.8063H23.8633V25.0017H22.105V24.8063H22.3004V22.8526H22.105Z" fill="#F3F3F3"/>
<path d="M24.0963 22.8526V22.6572H24.8778V22.8526H24.6824V24.8063H25.6593V24.611H25.8547V24.4156H26.05V24.8063H25.8547V25.0017H24.0963V24.8063H24.2917V22.8526H24.0963Z" fill="#F3F3F3"/>
<path d="M26.0876 22.8526V22.6572H26.8691V22.8526H26.6738V24.8063H27.6506V24.611H27.846V24.4156H28.0414V24.8063H27.846V25.0017H26.0876V24.8063H26.283V22.8526H26.0876Z" fill="#F3F3F3"/>
<path d="M28.079 22.8526V22.6572H28.8605V22.8526H28.6651V24.8063H29.642V24.611H29.8373V24.4156H30.0327V24.8063H29.8373V25.0017H28.079V24.8063H28.2744V22.8526H28.079Z" fill="#F3F3F3"/>
<path d="M30.0702 22.8526V22.6572H30.8517V22.8526H30.6563V24.8063H31.6332V24.611H31.8286V24.4156H32.0239V24.8063H31.8286V25.0017H30.0702V24.8063H30.2656V22.8526H30.0702Z" fill="#F3F3F3"/>
<path d="M32.0615 22.8526V22.6572H32.843V22.8526H32.6477V24.8063H33.6245V24.611H33.8199V24.4156H34.0153V24.8063H33.8199V25.0017H32.0615V24.8063H32.2569V22.8526H32.0615Z" fill="#F3F3F3"/>
<path d="M34.0527 22.8526V22.6572H34.8342V22.8526H34.6389V24.8063H35.6158V24.611H35.8111V24.4156H36.0064V24.8063H35.8111V25.0017H34.0527V24.8063H34.2481V22.8526H34.0527Z" fill="#F3F3F3"/>
<path d="M3.75513 28.518H3.55976V28.3227H3.75513V28.518ZM3.75513 27.1504V27.3458H3.55976V27.1504H3.75513ZM2.38751 28.518V28.3227H2.58289V28.518H2.38751ZM2.38751 27.3458V27.1504H2.58289V27.3458H2.38751ZM2.77826 28.1273V27.9319H2.19214V27.7366H2.77826V27.5412H2.97363V26.9551H3.16901V27.5412H3.36438V27.7366H3.9505V27.9319H3.36438V28.1273H3.16901V28.7134H2.97363V28.1273H2.77826ZM2.77826 28.3227H2.58289V28.1273H2.77826V28.3227ZM2.77826 27.5412H2.58289V27.3458H2.77826V27.5412ZM3.55976 28.1273V28.3227H3.36438V28.1273H3.55976ZM3.55976 27.5412H3.36438V27.3458H3.55976V27.5412Z" fill="#F3F3F3"/>
<path d="M5.74647 28.518H5.5511V28.3227H5.74647V28.518ZM5.74647 27.1504V27.3458H5.5511V27.1504H5.74647ZM4.37884 28.518V28.3227H4.57421V28.518H4.37884ZM4.37884 27.3458V27.1504H4.57421V27.3458H4.37884ZM4.76958 28.1273V27.9319H4.18347V27.7366H4.76958V27.5412H4.96495V26.9551H5.16032V27.5412H5.35573V27.7366H5.94184V27.9319H5.35573V28.1273H5.16032V28.7134H4.96495V28.1273H4.76958ZM4.76958 28.3227H4.57421V28.1273H4.76958V28.3227ZM4.76958 27.5412H4.57421V27.3458H4.76958V27.5412ZM5.5511 28.1273V28.3227H5.35573V28.1273H5.5511ZM5.5511 27.5412H5.35573V27.3458H5.5511V27.5412Z" fill="#F3F3F3"/>
<path d="M7.7378 28.518H7.54243V28.3227H7.7378V28.518ZM7.7378 27.1504V27.3458H7.54243V27.1504H7.7378ZM6.37017 28.518V28.3227H6.56554V28.518H6.37017ZM6.37017 27.3458V27.1504H6.56554V27.3458H6.37017ZM6.76091 28.1273V27.9319H6.1748V27.7366H6.76091V27.5412H6.95628V26.9551H7.15165V27.5412H7.34702V27.7366H7.93317V27.9319H7.34702V28.1273H7.15165V28.7134H6.95628V28.1273H6.76091ZM6.76091 28.3227H6.56554V28.1273H6.76091V28.3227ZM6.76091 27.5412H6.56554V27.3458H6.76091V27.5412ZM7.54243 28.1273V28.3227H7.34702V28.1273H7.54243ZM7.54243 27.5412H7.34702V27.3458H7.54243V27.5412Z" fill="#F3F3F3"/>
<path d="M9.72898 28.518H9.53361V28.3227H9.72898V28.518ZM9.72898 27.1504V27.3458H9.53361V27.1504H9.72898ZM8.36139 28.518V28.3227H8.55676V28.518H8.36139ZM8.36139 27.3458V27.1504H8.55676V27.3458H8.36139ZM8.75213 28.1273V27.9319H8.16602V27.7366H8.75213V27.5412H8.9475V26.9551H9.14287V27.5412H9.33824V27.7366H9.92438V27.9319H9.33824V28.1273H9.14287V28.7134H8.9475V28.1273H8.75213ZM8.75213 28.3227H8.55676V28.1273H8.75213V28.3227ZM8.75213 27.5412H8.55676V27.3458H8.75213V27.5412ZM9.53361 28.1273V28.3227H9.33824V28.1273H9.53361ZM9.53361 27.5412H9.33824V27.3458H9.53361V27.5412Z" fill="#F3F3F3"/>
<path d="M11.7203 28.518H11.5249V28.3227H11.7203V28.518ZM11.7203 27.1504V27.3458H11.5249V27.1504H11.7203ZM10.3527 28.518V28.3227H10.5481V28.518H10.3527ZM10.3527 27.3458V27.1504H10.5481V27.3458H10.3527ZM10.7435 28.1273V27.9319H10.1573V27.7366H10.7435V27.5412H10.9388V26.9551H11.1342V27.5412H11.3296V27.7366H11.9157V27.9319H11.3296V28.1273H11.1342V28.7134H10.9388V28.1273H10.7435ZM10.7435 28.3227H10.5481V28.1273H10.7435V28.3227ZM10.7435 27.5412H10.5481V27.3458H10.7435V27.5412ZM11.5249 28.1273V28.3227H11.3296V28.1273H11.5249ZM11.5249 27.5412H11.3296V27.3458H11.5249V27.5412Z" fill="#F3F3F3"/>
<path d="M12.1486 26.7598V26.5645H12.9301V26.7598H12.7347V28.7136H13.7116V28.5182H13.9069V28.3228H14.1023V28.7136H13.9069V28.909H12.1486V28.7136H12.3439V26.7598H12.1486Z" fill="#F3F3F3"/>
<path d="M14.1399 26.7598V26.5645H14.9214V26.7598H14.726V28.7136H15.7029V28.5182H15.8983V28.3228H16.0937V28.7136H15.8983V28.909H14.1399V28.7136H14.3353V26.7598H14.1399Z" fill="#F3F3F3"/>
<path d="M16.1312 26.7598V26.5645H16.9127V26.7598H16.7174V28.7136H17.6942V28.5182H17.8896V28.3228H18.085V28.7136H17.8896V28.909H16.1312V28.7136H16.3266V26.7598H16.1312Z" fill="#F3F3F3"/>
<path d="M18.1226 26.7598V26.5645H18.9041V26.7598H18.7087V28.7136H19.6856V28.5182H19.8809V28.3228H20.0763V28.7136H19.8809V28.909H18.1226V28.7136H18.3179V26.7598H18.1226Z" fill="#F3F3F3"/>
<path d="M20.1138 26.7598V26.5645H20.8953V26.7598H20.6999V28.7136H21.6768V28.5182H21.8721V28.3228H22.0675V28.7136H21.8721V28.909H20.1138V28.7136H20.3091V26.7598H20.1138Z" fill="#F3F3F3"/>
<path d="M22.105 26.7598V26.5645H22.8865V26.7598H22.6911V28.7136H23.668V28.5182H23.8633V28.3228H24.0587V28.7136H23.8633V28.909H22.105V28.7136H22.3004V26.7598H22.105Z" fill="#F3F3F3"/>
<path d="M24.0963 26.7598V26.5645H24.8778V26.7598H24.6824V28.7136H25.6593V28.5182H25.8547V28.3228H26.05V28.7136H25.8547V28.909H24.0963V28.7136H24.2917V26.7598H24.0963Z" fill="#F3F3F3"/>
<path d="M26.0876 26.7598V26.5645H26.8691V26.7598H26.6738V28.7136H27.6506V28.5182H27.846V28.3228H28.0414V28.7136H27.846V28.909H26.0876V28.7136H26.283V26.7598H26.0876Z" fill="#F3F3F3"/>
<path d="M28.079 26.7598V26.5645H28.8605V26.7598H28.6651V28.7136H29.642V28.5182H29.8373V28.3228H30.0327V28.7136H29.8373V28.909H28.079V28.7136H28.2744V26.7598H28.079Z" fill="#F3F3F3"/>
<path d="M30.0702 26.7598V26.5645H30.8517V26.7598H30.6563V28.7136H31.6332V28.5182H31.8286V28.3228H32.0239V28.7136H31.8286V28.909H30.0702V28.7136H30.2656V26.7598H30.0702Z" fill="#F3F3F3"/>
<path d="M32.0615 26.7598V26.5645H32.843V26.7598H32.6477V28.7136H33.6245V28.5182H33.8199V28.3228H34.0153V28.7136H33.8199V28.909H32.0615V28.7136H32.2569V26.7598H32.0615Z" fill="#F3F3F3"/>
<path d="M7.7378 32.4253H7.54243V32.2299H7.7378V32.4253ZM7.7378 31.0577V31.253H7.54243V31.0577H7.7378ZM6.37017 32.4253V32.2299H6.56554V32.4253H6.37017ZM6.37017 31.253V31.0577H6.56554V31.253H6.37017ZM6.76091 32.0345V31.8392H6.1748V31.6438H6.76091V31.4484H6.95628V30.8623H7.15165V31.4484H7.34702V31.6438H7.93317V31.8392H7.34702V32.0345H7.15165V32.6207H6.95628V32.0345H6.76091ZM6.76091 32.2299H6.56554V32.0345H6.76091V32.2299ZM6.76091 31.4484H6.56554V31.253H6.76091V31.4484ZM7.54243 32.0345V32.2299H7.34702V32.0345H7.54243ZM7.54243 31.4484H7.34702V31.253H7.54243V31.4484Z" fill="#F3F3F3"/>
<path d="M8.16602 30.6671V30.4717H8.9475V30.6671H8.75213V32.6208H9.72898V32.4255H9.92438V32.23H10.1198V32.6208H9.92438V32.8162H8.16602V32.6208H8.36139V30.6671H8.16602Z" fill="#F3F3F3"/>
<path d="M10.1573 30.6671V30.4717H10.9388V30.6671H10.7435V32.6208H11.7203V32.4255H11.9157V32.23H12.1111V32.6208H11.9157V32.8162H10.1573V32.6208H10.3527V30.6671H10.1573Z" fill="#F3F3F3"/>
<path d="M12.1486 30.6671V30.4717H12.9301V30.6671H12.7347V32.6208H13.7116V32.4255H13.9069V32.23H14.1023V32.6208H13.9069V32.8162H12.1486V32.6208H12.3439V30.6671H12.1486Z" fill="#F3F3F3"/>
<path d="M14.1399 30.6671V30.4717H14.9214V30.6671H14.726V32.6208H15.7029V32.4255H15.8983V32.23H16.0937V32.6208H15.8983V32.8162H14.1399V32.6208H14.3353V30.6671H14.1399Z" fill="#F3F3F3"/>
<path d="M16.1312 30.6671V30.4717H16.9127V30.6671H16.7174V32.6208H17.6942V32.4255H17.8896V32.23H18.085V32.6208H17.8896V32.8162H16.1312V32.6208H16.3266V30.6671H16.1312Z" fill="#F3F3F3"/>
<path d="M18.1226 30.6671V30.4717H18.9041V30.6671H18.7087V32.6208H19.6856V32.4255H19.8809V32.23H20.0763V32.6208H19.8809V32.8162H18.1226V32.6208H18.3179V30.6671H18.1226Z" fill="#F3F3F3"/>
<path d="M20.1138 30.6671V30.4717H20.8953V30.6671H20.6999V32.6208H21.6768V32.4255H21.8721V32.23H22.0675V32.6208H21.8721V32.8162H20.1138V32.6208H20.3091V30.6671H20.1138Z" fill="#F3F3F3"/>
<path d="M22.105 30.6671V30.4717H22.8865V30.6671H22.6911V32.6208H23.668V32.4255H23.8633V32.23H24.0587V32.6208H23.8633V32.8162H22.105V32.6208H22.3004V30.6671H22.105Z" fill="#F3F3F3"/>
<path d="M24.0963 30.6671V30.4717H24.8778V30.6671H24.6824V32.6208H25.6593V32.4255H25.8547V32.23H26.05V32.6208H25.8547V32.8162H24.0963V32.6208H24.2917V30.6671H24.0963Z" fill="#F3F3F3"/>
<path d="M26.0876 30.6671V30.4717H26.8691V30.6671H26.6738V32.6208H27.6506V32.4255H27.846V32.23H28.0414V32.6208H27.846V32.8162H26.0876V32.6208H26.283V30.6671H26.0876Z" fill="#F3F3F3"/>
<path d="M28.079 30.6671V30.4717H28.8605V30.6671H28.6651V32.6208H29.642V32.4255H29.8373V32.23H30.0327V32.6208H29.8373V32.8162H28.079V32.6208H28.2744V30.6671H28.079Z" fill="#F3F3F3"/>
<path d="M30.0702 30.6671V30.4717H30.8517V30.6671H30.6563V32.6208H31.6332V32.4255H31.8286V32.23H32.0239V32.6208H31.8286V32.8162H30.0702V32.6208H30.2656V30.6671H30.0702Z" fill="#F3F3F3"/>
<path d="M12.1486 34.5743V34.3789H12.9301V34.5743H12.7347V36.5279H13.7116V36.3326H13.9069V36.1373H14.1023V36.5279H13.9069V36.7235H12.1486V36.5279H12.3439V34.5743H12.1486Z" fill="#F3F3F3"/>
<path d="M14.1399 34.5743V34.3789H14.9214V34.5743H14.726V36.5279H15.7029V36.3326H15.8983V36.1373H16.0937V36.5279H15.8983V36.7235H14.1399V36.5279H14.3353V34.5743H14.1399Z" fill="#F3F3F3"/>
<path d="M16.1312 34.5743V34.3789H16.9127V34.5743H16.7174V36.5279H17.6942V36.3326H17.8896V36.1373H18.085V36.5279H17.8896V36.7235H16.1312V36.5279H16.3266V34.5743H16.1312Z" fill="#F3F3F3"/>
<path d="M18.1226 34.5743V34.3789H18.9041V34.5743H18.7087V36.5279H19.6856V36.3326H19.8809V36.1373H20.0763V36.5279H19.8809V36.7235H18.1226V36.5279H18.3179V34.5743H18.1226Z" fill="#F3F3F3"/>
<path d="M20.1138 34.5743V34.3789H20.8953V34.5743H20.6999V36.5279H21.6768V36.3326H21.8721V36.1373H22.0675V36.5279H21.8721V36.7235H20.1138V36.5279H20.3091V34.5743H20.1138Z" fill="#F3F3F3"/>
<path d="M22.105 34.5743V34.3789H22.8865V34.5743H22.6911V36.5279H23.668V36.3326H23.8633V36.1373H24.0587V36.5279H23.8633V36.7235H22.105V36.5279H22.3004V34.5743H22.105Z" fill="#F3F3F3"/>
</g>
<g filter="url(#filter0_f_6131_7902)">
<path d="M18 26.7615C22.8389 26.7615 26.7616 22.8388 26.7616 17.9999C26.7616 13.161 22.8389 9.23828 18 9.23828C13.1611 9.23828 9.2384 13.161 9.2384 17.9999C9.2384 22.8388 13.1611 26.7615 18 26.7615Z" fill="#FF2E00"/>
</g>
<path d="M17.2051 6.87305H18.7946V10.0522H22.7685V13.2314H13.2313V10.0522H17.2051V6.87305Z" fill="#F3F3F3"/>
<path d="M13.2313 16.4106H10.0521V13.2314H13.2313V16.4106Z" fill="#F3F3F3"/>
<path d="M22.7685 19.5893V16.4102H13.2313V19.5893H22.7685Z" fill="#F3F3F3"/>
<path d="M22.7686 22.769V19.5898H25.9477V22.769H22.7686Z" fill="#F3F3F3"/>
<path d="M13.2313 22.7686V25.9477H17.2051V29.1269H18.7946V25.9477H22.7685V22.7686H13.2313Z" fill="#F3F3F3"/>
<path d="M13.2313 22.7682V21.1787H10.0521V22.7682H13.2313Z" fill="#F3F3F3"/>
<path d="M22.7686 13.2314H25.9477V14.8209H22.7686V13.2314Z" fill="#F3F3F3"/>
</g>
</g>
<defs>
<filter id="filter0_f_6131_7902" x="8.25438" y="8.25426" width="19.4912" height="19.4915" filterUnits="userSpaceOnUse" color-interpolation-filters="sRGB">
<feFlood flood-opacity="0" result="BackgroundImageFix"/>
<feBlend mode="normal" in="SourceGraphic" in2="BackgroundImageFix" result="shape"/>
<feGaussianBlur stdDeviation="0.492012" result="effect1_foregroundBlur_6131_7902"/>
</filter>
<clipPath id="clip0_6131_7902">
<rect width="35" height="35" fill="white" transform="translate(0.5 0.5)"/>
</clipPath>
</defs>
</svg>
