<svg width="40" height="25" viewBox="0 0 40 25" fill="none" xmlns="http://www.w3.org/2000/svg">
<path d="M14.8104 11.9803L6.85023 1.07117C6.68042 0.839893 6.44338 0.708984 6.1922 0.708984H0.885452C0.7146 0.709213 0.547433 0.770275 0.404032 0.884836C0.260631 0.999398 0.147094 1.16259 0.0770579 1.3548C-0.0644553 1.74971 -0.006081 2.21008 0.227416 2.52862L7.65509 12.709L0.227416 22.8872C-0.006081 23.2079 -0.0662242 23.6683 0.0770579 24.061C0.22034 24.4559 0.536976 24.709 0.885452 24.709H6.1922C6.44338 24.709 6.68042 24.5759 6.85023 24.349L14.8104 13.4399C15.1128 13.0253 15.1128 12.3926 14.8104 11.9803Z" fill="#1F1F1F"/>
<path d="M26.8072 11.9803L18.8471 1.07117C18.6773 0.839893 18.4403 0.708984 18.1891 0.708984H12.8823C12.7115 0.709213 12.5443 0.770275 12.4009 0.884836C12.2575 0.999398 12.144 1.16259 12.0739 1.3548C11.9324 1.74971 11.9908 2.21008 12.2243 2.52862L19.652 12.709L12.2243 22.8872C11.9908 23.2079 11.9307 23.6683 12.0739 24.061C12.2172 24.4559 12.5339 24.709 12.8823 24.709H18.1891C18.4403 24.709 18.6773 24.5759 18.8471 24.349L26.8072 13.4399C27.1097 13.0253 27.1097 12.3926 26.8072 11.9803Z" fill="#5B5B5B"/>
<path d="M38.8041 11.9803L30.844 1.07117C30.6742 0.839893 30.4372 0.708984 30.186 0.708984H24.8792C24.7084 0.709213 24.5412 0.770275 24.3978 0.884836C24.2544 0.999398 24.1409 1.16259 24.0708 1.3548C23.9293 1.74971 23.9877 2.21008 24.2212 2.52862L31.6489 12.709L24.2212 22.8872C23.9877 23.2079 23.9276 23.6683 24.0708 24.061C24.2141 24.4559 24.5308 24.709 24.8792 24.709H30.186C30.4372 24.709 30.6742 24.5759 30.844 24.349L38.8041 13.4399C39.1066 13.0253 39.1066 12.3926 38.8041 11.9803Z" fill="white"/>
</svg>
