<svg width="24" height="25" viewBox="0 0 24 25" fill="none" xmlns="http://www.w3.org/2000/svg">
<path d="M19.4995 17.1275V12.5C19.4993 11.3425 19.1643 10.2097 18.5348 9.23823C17.9054 8.26678 17.0084 7.49815 15.952 7.025L17.167 4.5875C17.2245 4.47333 17.2519 4.34634 17.2465 4.21861C17.2412 4.09087 17.2033 3.96662 17.1364 3.85766C17.0695 3.7487 16.9759 3.65865 16.8644 3.59605C16.7529 3.53345 16.6273 3.50039 16.4995 3.5H7.49945C7.3716 3.50039 7.24598 3.53345 7.1345 3.59605C7.02303 3.65865 6.9294 3.7487 6.86252 3.85766C6.79564 3.96662 6.75773 4.09087 6.75238 4.21861C6.74703 4.34634 6.77442 4.47333 6.83195 4.5875L8.04695 7.025C6.99052 7.49815 6.09351 8.26678 5.46407 9.23823C4.83462 10.2097 4.49962 11.3425 4.49945 12.5V17.1275C3.9982 17.3038 3.57553 17.6519 3.3063 18.11C3.03707 18.5681 2.93865 19.1067 3.02848 19.6304C3.11831 20.1541 3.39059 20.6291 3.7971 20.9713C4.2036 21.3135 4.71809 21.5008 5.24945 21.5H18.7495C19.2808 21.5008 19.7953 21.3135 20.2018 20.9713C20.6083 20.6291 20.8806 20.1541 20.9704 19.6304C21.0602 19.1067 20.9618 18.5681 20.6926 18.11C20.4234 17.6519 20.0007 17.3038 19.4995 17.1275ZM8.99945 12.5C8.99945 12.3011 9.07847 12.1103 9.21912 11.9697C9.35977 11.829 9.55054 11.75 9.74945 11.75C9.89779 11.75 10.0428 11.794 10.1661 11.8764C10.2895 11.9588 10.3856 12.0759 10.4424 12.213C10.4991 12.35 10.514 12.5008 10.485 12.6463C10.4561 12.7918 10.3847 12.9254 10.2798 13.0303C10.1749 13.1352 10.0413 13.2067 9.89577 13.2356C9.75028 13.2645 9.59948 13.2497 9.46244 13.1929C9.32539 13.1361 9.20826 13.04 9.12585 12.9167C9.04344 12.7933 8.99945 12.6483 8.99945 12.5ZM10.4995 17C10.352 17.0017 10.2077 16.9571 10.087 16.8725C9.92254 16.7625 9.80823 16.5921 9.7689 16.3982C9.72957 16.2044 9.7684 16.0029 9.87695 15.8375L12.877 11.3375C12.9263 11.2455 12.9943 11.1649 13.0765 11.1007C13.1588 11.0365 13.2536 10.9902 13.3548 10.9647C13.456 10.9392 13.5614 10.9352 13.6642 10.9527C13.7671 10.9703 13.8652 11.0092 13.9522 11.0668C14.0391 11.1245 14.1131 11.1996 14.1694 11.2875C14.2257 11.3754 14.263 11.474 14.279 11.5772C14.295 11.6803 14.2893 11.7856 14.2622 11.8864C14.2352 11.9872 14.1874 12.0812 14.122 12.1625L11.122 16.6625C11.054 16.7657 10.9616 16.8505 10.853 16.9093C10.7444 16.9682 10.623 16.9994 10.4995 17ZM14.2495 16.25C14.0505 16.25 13.8598 16.171 13.7191 16.0303C13.5785 15.8897 13.4995 15.6989 13.4995 15.5C13.4995 15.3011 13.5785 15.1103 13.7191 14.9697C13.8598 14.829 14.0505 14.75 14.2495 14.75C14.4484 14.75 14.6391 14.829 14.7798 14.9697C14.9204 15.1103 14.9995 15.3011 14.9995 15.5C14.9995 15.6989 14.9204 15.8897 14.7798 16.0303C14.6391 16.171 14.4484 16.25 14.2495 16.25Z" fill="white"/>
</svg>
