<svg width="40" height="38" viewBox="0 0 40 38" fill="none" xmlns="http://www.w3.org/2000/svg">
<path d="M22.9395 26.5601L23.6113 28.0537L26.1865 33.7823H13.8137L16.3889 28.0537L17.0608 26.5601C17.9006 27.2152 18.9351 27.571 20.0002 27.571C21.0653 27.571 22.0999 27.2152 22.9397 26.5601H22.9395ZM15.2207 22.7919C15.2208 22.2861 15.3008 21.7836 15.4575 21.3028H0.985859V24.281H15.4577C15.3005 23.8002 15.2206 23.2976 15.2209 22.7919H15.2207ZM20 26.4462C20.7228 26.4462 21.4293 26.2319 22.0303 25.8304C22.6312 25.4288 23.0996 24.8581 23.3762 24.1903C23.6528 23.5226 23.7252 22.7878 23.5842 22.0789C23.4432 21.37 23.0951 20.7189 22.584 20.2078C22.073 19.6968 21.4218 19.3487 20.7129 19.2077C20.0041 19.0667 19.2693 19.1391 18.6015 19.4157C17.9338 19.6922 17.363 20.1606 16.9615 20.7616C16.5599 21.3626 16.3456 22.0691 16.3456 22.7919C16.3456 23.2718 16.4401 23.747 16.6237 24.1904C16.8073 24.6338 17.0765 25.0366 17.4159 25.376C17.7552 25.7153 18.1581 25.9845 18.6015 26.1681C19.0449 26.3518 19.5201 26.4463 20 26.4462ZM27.9713 34.9072H12.0287C11.6338 34.908 11.2553 35.0651 10.9759 35.3441C10.6964 35.6231 10.5388 36.0014 10.5373 36.3962V37.8853H29.4604V36.3962C29.4595 36.0016 29.3023 35.6234 29.0233 35.3443C28.7442 35.0652 28.366 34.9081 27.9713 34.9072ZM24.7791 22.7919C24.7797 23.2979 24.699 23.8007 24.5401 24.281H39.0141V21.3029H24.5401C24.6987 21.7833 24.7794 22.286 24.7791 22.7919V22.7919ZM27.8255 12.2865C26.9179 11.3786 26.3531 10.1842 26.2274 8.90669C26.1017 7.62915 26.4228 6.34754 27.136 5.2802C27.8492 4.21286 28.9104 3.42581 30.1389 3.05316C31.3673 2.6805 32.6869 2.74529 33.8729 3.23648C35.059 3.72767 36.038 4.61488 36.6432 5.74695C37.2485 6.87902 37.4425 8.18592 37.1922 9.44499C36.942 10.7041 36.2629 11.8374 35.2707 12.652C34.2785 13.4665 33.0346 13.9119 31.7509 13.9122C31.0218 13.9134 30.2995 13.7704 29.6258 13.4914C28.9521 13.2124 28.3403 12.8029 27.8255 12.2864V12.2865ZM29.6038 6.77647C29.6038 7.34612 29.83 7.89247 30.2326 8.29548C30.6352 8.6985 31.1813 8.92522 31.7509 8.92584C31.9388 8.92537 32.1232 8.97659 32.284 9.07389C32.4447 9.1712 32.5756 9.31084 32.6623 9.47753C32.749 9.64423 32.7882 9.83157 32.7756 10.019C32.7629 10.2065 32.699 10.3869 32.5907 10.5405C32.4825 10.694 32.334 10.8149 32.1617 10.8897C31.9894 10.9646 31.7998 10.9907 31.6136 10.965C31.4275 10.9393 31.252 10.863 31.1063 10.7443C30.9607 10.6256 30.8505 10.4691 30.7878 10.2919C30.7634 10.222 30.7253 10.1575 30.6758 10.1023C30.6264 10.0471 30.5665 10.0022 30.4996 9.97024C30.4327 9.93827 30.3601 9.91985 30.2861 9.91604C30.2121 9.91222 30.138 9.92309 30.0682 9.94802C29.9984 9.97294 29.9342 10.0114 29.8793 10.0613C29.8244 10.1111 29.7799 10.1713 29.7484 10.2384C29.7169 10.3055 29.699 10.3782 29.6956 10.4522C29.6923 10.5263 29.7037 10.6003 29.7291 10.6699C29.8797 11.087 30.1547 11.4478 30.5169 11.7036C30.7207 11.8474 30.9481 11.9545 31.1888 12.0201V12.7282C31.1887 12.8021 31.2033 12.8752 31.2316 12.9434C31.2598 13.0117 31.3013 13.0737 31.3535 13.1259C31.4057 13.1782 31.4677 13.2196 31.536 13.2479C31.6042 13.2761 31.6774 13.2907 31.7512 13.2907C31.8251 13.2907 31.8983 13.2761 31.9665 13.2479C32.0348 13.2196 32.0968 13.1782 32.149 13.1259C32.2012 13.0737 32.2427 13.0117 32.2709 12.9434C32.2992 12.8752 32.3138 12.8021 32.3138 12.7282V12.0201C32.8158 11.8838 33.2513 11.5698 33.5393 11.1365C33.8272 10.7032 33.948 10.1801 33.8793 9.66445C33.8105 9.14877 33.5569 8.67561 33.1655 8.33291C32.774 7.99022 32.2715 7.80131 31.7512 7.80131C31.6168 7.80132 31.4837 7.77481 31.3595 7.7233C31.2353 7.67178 31.1225 7.59627 31.0275 7.5011C30.9326 7.40592 30.8573 7.29295 30.8061 7.16864C30.7548 7.04434 30.7286 6.91115 30.7289 6.7767C30.7286 6.64268 30.7548 6.50992 30.806 6.38605C30.8572 6.26219 30.9323 6.14968 31.0272 6.05498C31.2194 5.86308 31.4797 5.75501 31.7512 5.75436C31.9625 5.75402 32.1687 5.81935 32.3413 5.94131C32.5138 6.06328 32.6442 6.23584 32.7144 6.43514C32.7655 6.57419 32.8695 6.68743 33.0036 6.75024C33.1378 6.81305 33.2914 6.82035 33.4309 6.77055C33.5704 6.72074 33.6847 6.61787 33.7487 6.4843C33.8128 6.35072 33.8216 6.19725 33.7731 6.05725C33.6237 5.63936 33.3483 5.27809 32.985 5.02319C32.7818 4.87779 32.5543 4.76984 32.3131 4.70444V3.99631C32.3131 3.84713 32.2539 3.70405 32.1484 3.59856C32.0429 3.49307 31.8998 3.43381 31.7506 3.43381C31.6014 3.43381 31.4584 3.49307 31.3529 3.59856C31.2474 3.70405 31.1881 3.84713 31.1881 3.99631V4.70444C30.8265 4.80331 30.4969 4.9948 30.2319 5.25998C30.0322 5.45869 29.8738 5.69502 29.766 5.95531C29.6582 6.21559 29.6031 6.49474 29.6038 6.77647ZM0 8.36334C1.1568e-05 6.78904 0.450513 5.24761 1.29831 3.92108C2.1461 2.59455 3.35578 1.53832 4.78449 0.877113C6.21321 0.215903 7.8013 -0.0226682 9.36124 0.189569C10.9212 0.401806 12.3878 1.05599 13.5879 2.07487C14.7881 3.09375 15.6716 4.43477 16.1342 5.93958C16.5967 7.44439 16.619 9.05015 16.1984 10.5672C15.7779 12.0843 14.9319 13.4494 13.7606 14.5012C12.5892 15.553 11.1413 16.2477 9.58789 16.5032L9.51047 16.6352L8.24906 18.8233L6.98547 16.6352L6.90805 16.5032C4.97873 16.1851 3.22511 15.1921 1.95988 13.7013C0.694645 12.2105 6.70501e-05 10.3187 0 8.36334ZM1.57328 8.36334C1.57283 9.90836 2.10814 11.4057 3.08798 12.6003C4.06782 13.7948 5.43156 14.6127 6.94682 14.9144C8.46208 15.2162 10.0351 14.9832 11.3978 14.2551C12.7605 13.527 13.8286 12.349 14.4201 10.9216C15.0115 9.49432 15.0898 7.90607 14.6414 6.42754C14.1931 4.94901 13.2459 3.67168 11.9614 2.81322C10.6768 1.95477 9.1343 1.5683 7.59672 1.71969C6.05914 1.87107 4.62163 2.55093 3.52914 3.64342C2.90827 4.26252 2.41587 4.99821 2.08022 5.80821C1.74457 6.61821 1.57229 7.48655 1.57328 8.36334ZM4.32375 12.2864C3.41613 11.3786 2.85135 10.1841 2.72561 8.9066C2.59988 7.62906 2.92098 6.34745 3.63421 5.28011C4.34743 4.21276 5.40866 3.42572 6.6371 3.05307C7.86553 2.68042 9.18517 2.74522 10.3712 3.23642C11.5572 3.72762 12.5362 4.61483 13.1415 5.74691C13.7467 6.87899 13.9407 8.1859 13.6904 9.44497C13.4401 10.7041 12.7611 11.8374 11.7689 12.6519C10.7767 13.4665 9.53277 13.9118 8.24906 13.9121C7.51991 13.9133 6.79773 13.7702 6.12407 13.4912C5.45041 13.2122 4.83857 12.8027 4.32375 12.2864ZM6.10203 6.77639C6.10203 7.34603 6.32816 7.89238 6.73074 8.2954C7.13332 8.69842 7.67942 8.92514 8.24906 8.92577C8.40946 8.92636 8.56746 8.96469 8.7103 9.03765C8.85314 9.11062 8.9768 9.21616 9.07131 9.34576C9.16581 9.47536 9.22849 9.62538 9.25428 9.78368C9.28008 9.94199 9.26826 10.1041 9.21979 10.257C9.17132 10.4099 9.08756 10.5493 8.97527 10.6638C8.86298 10.7784 8.72532 10.8649 8.57342 10.9163C8.42151 10.9678 8.25962 10.9829 8.10083 10.9602C7.94205 10.9375 7.79082 10.8778 7.65938 10.7859C7.48682 10.6633 7.35576 10.4909 7.28367 10.2919C7.25921 10.2219 7.22115 10.1574 7.17168 10.1022C7.12221 10.047 7.06231 10.0021 6.99543 9.97016C6.92854 9.93819 6.85599 9.91977 6.78196 9.91596C6.70792 9.91214 6.63387 9.92301 6.56405 9.94794C6.49424 9.97286 6.43004 10.0113 6.37516 10.0612C6.32028 10.111 6.2758 10.1712 6.24428 10.2383C6.21275 10.3054 6.19482 10.3781 6.1915 10.4521C6.18817 10.5262 6.19953 10.6002 6.22492 10.6698C6.34193 10.9959 6.53593 11.2889 6.79042 11.524C7.04491 11.759 7.35239 11.9292 7.68672 12.02V12.7281C7.68672 12.8773 7.74598 13.0204 7.85147 13.1259C7.95696 13.2313 8.10003 13.2906 8.24922 13.2906C8.3984 13.2906 8.54148 13.2313 8.64697 13.1259C8.75246 13.0204 8.81172 12.8773 8.81172 12.7281V12.02C9.31332 11.8832 9.74826 11.5691 10.0358 11.1359C10.3233 10.7028 10.4439 10.18 10.3752 9.66464C10.3065 9.14929 10.0532 8.67637 9.66217 8.33368C9.27118 7.99099 8.76913 7.8018 8.24922 7.80123C7.97779 7.80123 7.71747 7.69341 7.52554 7.50148C7.33361 7.30954 7.22578 7.04923 7.22578 6.7778C7.22578 6.50636 7.33361 6.24605 7.52554 6.05412C7.71747 5.86218 7.97779 5.75436 8.24922 5.75436C8.45979 5.7534 8.66533 5.81873 8.83672 5.94108C9.00969 6.06329 9.14084 6.23579 9.21234 6.43514C9.26347 6.57419 9.36743 6.68743 9.50161 6.75024C9.63579 6.81305 9.78934 6.82035 9.92887 6.77055C10.0684 6.72074 10.1826 6.61787 10.2467 6.4843C10.3108 6.35072 10.3196 6.19725 10.2711 6.05725C10.1217 5.63936 9.84642 5.27807 9.48313 5.02319C9.27968 4.8782 9.05223 4.77029 8.81125 4.70444V3.99631C8.81125 3.84713 8.75199 3.70405 8.6465 3.59856C8.54101 3.49307 8.39793 3.43381 8.24875 3.43381C8.09957 3.43381 7.95649 3.49307 7.851 3.59856C7.74551 3.70405 7.68625 3.84713 7.68625 3.99631V4.70444C7.23164 4.82849 6.83037 5.09845 6.54414 5.4728C6.25791 5.84715 6.10258 6.30516 6.10203 6.77639ZM23.5018 8.36334C23.5018 6.78904 23.9523 5.24761 24.8001 3.92108C25.6479 2.59455 26.8576 1.53832 28.2863 0.877113C29.715 0.215903 31.3031 -0.0226682 32.863 0.189569C34.423 0.401806 35.8896 1.05599 37.0897 2.07487C38.2899 3.09375 39.1734 4.43477 39.6359 5.93958C40.0985 7.44439 40.1208 9.05015 39.7002 10.5672C39.2797 12.0843 38.4337 13.4494 37.2624 14.5012C36.091 15.553 34.6431 16.2477 33.0897 16.5032L33.0145 16.6352L31.7509 18.8233L30.4873 16.6352L30.4121 16.5032C28.4826 16.1852 26.7286 15.1923 25.463 13.7015C24.1974 12.2107 23.5024 10.3189 23.5018 8.36334ZM25.0774 8.36334C25.078 9.90734 25.6139 11.4034 26.5938 12.5965C27.5738 13.7897 28.9371 14.6062 30.4515 14.9069C31.966 15.2076 33.5378 14.9738 34.8992 14.2455C36.2607 13.5172 37.3274 12.3394 37.9178 10.9127C38.5082 9.48601 38.5856 7.89877 38.1369 6.42141C37.6882 4.94405 36.7411 3.66798 35.457 2.81062C34.1729 1.95326 32.6313 1.56765 31.0948 1.71951C29.5583 1.87137 28.122 2.55129 27.0305 3.64342C26.4101 4.26268 25.9181 4.99846 25.5829 5.80846C25.2478 6.61847 25.076 7.48673 25.0774 8.36334Z" fill="white"/>
</svg>
