<svg width="24" height="25" viewBox="0 0 24 25" fill="none" xmlns="http://www.w3.org/2000/svg">
<g id="call">
<path id="Vector" d="M9.80585 10.8178C9.55568 10.9965 9.4795 11.3365 9.64504 11.5955C10.4686 12.8843 11.5659 13.9816 12.8547 14.8051C13.1137 14.9707 13.4537 14.8945 13.6324 14.6443L14.2024 13.8463C14.4965 13.4347 15.0516 13.3075 15.4956 13.55C16.9024 14.3185 18.4571 14.7855 20.0789 14.9139C20.599 14.9551 21 15.3891 21 15.9108V20.3736C21 20.8863 20.6122 21.3159 20.1022 21.3683C19.5723 21.4228 19.0377 21.4502 18.5 21.4502C9.93959 21.4502 3 14.5106 3 5.9502C3 5.41247 3.02742 4.87791 3.08189 4.34796C3.1343 3.83795 3.56394 3.4502 4.07665 3.4502H8.53942C9.0611 3.4502 9.49513 3.85124 9.5363 4.37129C9.66467 5.99308 10.1317 7.54784 10.9002 8.95464C11.1427 9.3986 11.0155 9.95374 10.6039 10.2478L9.80585 10.8178ZM7.02119 10.9067C6.91235 10.6549 7.00043 10.3638 7.22361 10.2044L8.33945 9.4074C8.57419 9.23972 8.65501 8.92926 8.54353 8.66318C8.17933 7.79393 7.90779 6.88877 7.73314 5.96042C7.67817 5.66824 7.42716 5.4502 7.12985 5.4502H5.50918C5.23009 5.4502 5 5.6711 5 5.9502C5 13.406 11.0442 19.4502 18.5 19.4502C18.7791 19.4502 19 19.2201 19 18.941V17.3203C19 17.023 18.782 16.772 18.4898 16.717C17.5614 16.5424 16.6563 16.2708 15.787 15.9066C15.5209 15.7952 15.2105 15.876 15.0428 16.1107L14.2458 17.2266C14.0864 17.4498 13.7953 17.5379 13.5435 17.429C13.1471 17.2576 12.7613 17.0663 12.3874 16.8563L12.3293 16.8232C10.3697 15.7089 8.74134 14.0805 7.627 12.1209L7.59394 12.0628C7.38393 11.6889 7.1926 11.3031 7.02119 10.9067Z" fill="#CFCECD" fill-opacity="0.6"/>
</g>
</svg>
