<svg width="25" height="25" viewBox="0 0 25 25" fill="none" xmlns="http://www.w3.org/2000/svg">
<path d="M12.8333 3.22461C10.9049 3.22461 9.01989 3.79644 7.41651 4.86778C5.81313 5.93912 4.56345 7.46187 3.82549 9.24345C3.08754 11.025 2.89445 12.9854 3.27066 14.8767C3.64687 16.7681 4.57546 18.5053 5.93903 19.8689C7.30259 21.2325 9.03987 22.1611 10.9312 22.5373C12.8225 22.9135 14.7829 22.7204 16.5645 21.9824C18.3461 21.2445 19.8688 19.9948 20.9401 18.3914C22.0115 16.788 22.5833 14.903 22.5833 12.9746C22.5806 10.3896 21.5525 7.91122 19.7246 6.08333C17.8967 4.25544 15.4183 3.22734 12.8333 3.22461ZM17.1139 11.2552L11.8639 16.5052C11.7943 16.575 11.7116 16.6303 11.6205 16.668C11.5295 16.7058 11.4319 16.7252 11.3333 16.7252C11.2348 16.7252 11.1372 16.7058 11.0461 16.668C10.9551 16.6303 10.8723 16.575 10.8027 16.5052L8.55269 14.2552C8.41196 14.1145 8.3329 13.9236 8.3329 13.7246C8.3329 13.5256 8.41196 13.3347 8.55269 13.194C8.69342 13.0533 8.88429 12.9742 9.08332 12.9742C9.28234 12.9742 9.47321 13.0533 9.61394 13.194L11.3333 14.9143L16.0527 10.194C16.1224 10.1243 16.2051 10.069 16.2961 10.0313C16.3872 9.9936 16.4848 9.97419 16.5833 9.97419C16.6819 9.97419 16.7794 9.9936 16.8705 10.0313C16.9615 10.069 17.0443 10.1243 17.1139 10.194C17.1836 10.2637 17.2389 10.3464 17.2766 10.4374C17.3143 10.5285 17.3337 10.6261 17.3337 10.7246C17.3337 10.8232 17.3143 10.9207 17.2766 11.0118C17.2389 11.1028 17.1836 11.1856 17.1139 11.2552Z" fill="#5E55CC"/>
</svg>
