<svg width="32" height="32" viewBox="0 0 32 32" fill="none" xmlns="http://www.w3.org/2000/svg">
<path d="M15.9928 1.3335C13.0921 1.3335 10.2564 2.19368 7.84448 3.80527C5.43256 5.41687 3.5527 7.70749 2.44261 10.3875C1.33253 13.0675 1.04208 16.0164 1.60799 18.8615C2.17391 21.7065 3.57078 24.3199 5.62195 26.3711C7.67312 28.4222 10.2865 29.8191 13.1315 30.385C15.9766 30.9509 18.9256 30.6605 21.6055 29.5504C24.2855 28.4403 26.5761 26.5604 28.1877 24.1485C29.7993 21.7366 30.6595 18.901 30.6595 16.0002C30.6549 12.1117 29.1082 8.38387 26.3587 5.63433C23.6091 2.88479 19.8813 1.33808 15.9928 1.3335ZM20.9355 20.9428C20.6855 21.1928 20.3464 21.3332 19.9928 21.3332C19.6393 21.3332 19.3002 21.1928 19.0502 20.9428L15.0502 16.9428C14.8001 16.6928 14.6596 16.3538 14.6595 16.0002V8.00016C14.6595 7.64654 14.8 7.3074 15.05 7.05735C15.3001 6.80731 15.6392 6.66683 15.9928 6.66683C16.3465 6.66683 16.6856 6.80731 16.9357 7.05735C17.1857 7.3074 17.3262 7.64654 17.3262 8.00016V15.4482L20.9355 19.0575C21.1855 19.3075 21.3259 19.6466 21.3259 20.0002C21.3259 20.3537 21.1855 20.6928 20.9355 20.9428Z" fill="url(#paint0_linear_444_12384)"/>
<defs>
<linearGradient id="paint0_linear_444_12384" x1="15.9928" y1="1.3335" x2="15.9928" y2="30.6668" gradientUnits="userSpaceOnUse">
<stop stop-color="#8779FF"/>
<stop offset="1" stop-color="#2B176D"/>
</linearGradient>
</defs>
</svg>
