<svg width="40" height="40" viewBox="0 0 40 40" fill="none" xmlns="http://www.w3.org/2000/svg">
<path d="M27.1094 14.2188C20.0015 14.2188 14.2188 20.0015 14.2188 27.1094C14.2188 34.2173 20.0015 40 27.1094 40C34.2173 40 40 34.2173 40 27.1094C40 20.0015 34.2173 14.2188 27.1094 14.2188ZM27.1094 25.9375C29.048 25.9375 30.625 27.5145 30.625 29.4531C30.625 30.9789 29.6423 32.2675 28.2812 32.7529V35.3125H25.9375V32.7529C24.5764 32.2675 23.5938 30.9789 23.5938 29.4531H25.9375C25.9375 30.0997 26.4628 30.625 27.1094 30.625C27.7559 30.625 28.2812 30.0997 28.2812 29.4531C28.2812 28.8066 27.7559 28.2812 27.1094 28.2812C25.1708 28.2812 23.5938 26.7042 23.5938 24.7656C23.5938 23.2398 24.5764 21.9513 25.9375 21.4659V18.9062H28.2812V21.4659C29.6423 21.9513 30.625 23.2398 30.625 24.7656H28.2812C28.2812 24.1191 27.7559 23.5938 27.1094 23.5938C26.4628 23.5938 25.9375 24.1191 25.9375 24.7656C25.9375 25.4122 26.4628 25.9375 27.1094 25.9375ZM13.0469 14.2188C20.275 14.2188 25.9375 11.13 25.9375 7.1875C25.9375 3.245 20.275 0 13.0469 0C5.81875 0 0 3.245 0 7.1875C0 11.13 5.81875 14.2188 13.0469 14.2188ZM0 26.3718V28.2812C0 32.2238 5.81875 35.3125 13.0469 35.3125C13.4569 35.3125 13.8541 35.2748 14.2578 35.255C13.3466 33.8234 12.6827 32.2487 12.2937 30.5968C7.0668 30.4525 2.52828 28.8463 0 26.3718ZM11.9313 28.2216C11.9045 27.853 11.875 27.4848 11.875 27.1094C11.875 25.8877 12.0351 24.7054 12.308 23.5662C7.07461 23.4244 2.53055 21.8173 0 19.3405V21.25C0 24.9834 5.25484 27.9173 11.9313 28.2216ZM13.0469 21.25L13.0505 21.2498C13.8181 19.4155 14.9362 17.7485 16.3421 16.3423C15.2838 16.4761 14.19 16.5625 13.0469 16.5625C7.48305 16.5625 2.65047 14.9034 0 12.3093V14.2188C0 18.1612 5.81875 21.25 13.0469 21.25Z" fill="white"/>
</svg>
