<svg width="24" height="25" viewBox="0 0 24 25" fill="none" xmlns="http://www.w3.org/2000/svg">
<g clip-path="url(#clip0_51_7449)">
<path d="M11.9996 24.1542C18.1742 24.1542 23.1797 19.1487 23.1797 12.9741C23.1797 6.79946 18.1742 1.79395 11.9996 1.79395C5.82497 1.79395 0.819458 6.79946 0.819458 12.9741C0.819458 19.1487 5.82497 24.1542 11.9996 24.1542Z" fill="url(#paint0_linear_51_7449)"/>
<path d="M6.49673 16.3283V11.0662L10.4873 14.0696V16.3283H11.5058V13.8575C11.5054 13.6715 11.4177 13.4961 11.2691 13.3842L6.42965 9.74062C6.32686 9.66426 6.20217 9.62305 6.07412 9.62305C5.74807 9.62305 5.47937 9.89048 5.47784 10.2165V16.3283H6.49673ZM17.533 16.3283V11.0662L13.5424 14.0696V16.3283H12.5239V13.8575C12.5243 13.6715 12.612 13.4961 12.7606 13.3842L17.6001 9.74212C17.7029 9.66576 17.8276 9.6245 17.9556 9.6245C18.2811 9.6245 18.5496 9.89103 18.5519 10.2165V16.3283H17.533Z" fill="white"/>
</g>
<defs>
<linearGradient id="paint0_linear_51_7449" x1="11.9996" y1="1.79395" x2="11.9996" y2="24.1542" gradientUnits="userSpaceOnUse">
<stop stop-color="#4FA89B"/>
<stop offset="1" stop-color="#6ACEBB"/>
</linearGradient>
<clipPath id="clip0_51_7449">
<rect width="24" height="24" fill="white" transform="translate(0 0.974609)"/>
</clipPath>
</defs>
</svg>
