<svg width="120" height="121" viewBox="0 0 120 121" fill="none" xmlns="http://www.w3.org/2000/svg">
<g clip-path="url(#clip0_51_7374)">
<path d="M26.7515 60.0262C26.7515 59.5213 27.1059 59.3167 27.5431 59.5691L59.9999 78.308L59.9999 115.786C59.9999 116.291 59.6455 116.495 59.2083 116.243L27.5431 97.9611C27.1059 97.7087 26.7515 97.0948 26.7515 96.5899L26.7515 60.0262Z" fill="url(#paint0_linear_51_7374)"/>
<rect width="31.2321" height="31.2321" rx="0.914095" transform="matrix(0.866025 0.5 -2.20305e-08 1 29.8513 64.4827)" fill="#2B176D"/>
<circle cx="6.02776" cy="6.02776" r="6.02776" transform="matrix(0.866025 0.5 -2.20305e-08 1 38.1541 78.8665)" stroke="#685FAF" stroke-width="0.457047"/>
<path d="M43.3837 87.9585L38.9111 88.3899" stroke="#685FAF" stroke-width="0.457047"/>
<path d="M43.3837 87.9585L47.8563 93.5544" stroke="#685FAF" stroke-width="0.457047"/>
<line y1="-0.228524" x2="6.1755" y2="-0.228524" transform="matrix(-5.98856e-08 1 -0.866025 -0.5 43.3746 81.8811)" stroke="#685FAF" stroke-width="0.457047"/>
<circle cx="1.86033" cy="1.86033" r="1.86033" transform="matrix(0.866025 0.5 -2.20305e-08 1 41.7632 85.1177)" fill="#685FAF"/>
<path d="M55.598 87.0888L56.9691 88.7945L58.3402 88.7943L58.3402 102.87L56.9691 102.87L55.598 101.164L55.598 87.0888Z" fill="#210D63"/>
</g>
<path d="M59.2083 40.3733C59.6455 40.1209 60.3544 40.1209 60.7916 40.3733L92.4574 58.6556C92.8943 58.9078 92.8943 59.3167 92.4574 59.5689L60.7909 77.8516C60.354 78.1038 59.6458 78.1038 59.209 77.8516L27.5424 59.5689C27.1056 59.3167 27.1056 58.9078 27.5424 58.6556L59.2083 40.3733Z" fill="url(#paint1_linear_51_7374)"/>
<path d="M51.1655 55.4114C50.7283 55.159 50.7283 54.7497 51.1655 54.4973L52.4264 53.7693C52.8636 53.5169 53.5725 53.5169 54.0097 53.7693L69.6759 62.8142C70.1131 63.0666 70.1131 63.4759 69.6759 63.7283L68.415 64.4563C67.9778 64.7087 67.2689 64.7087 66.8317 64.4563L51.1655 55.4114Z" fill="#2B176D"/>
<path d="M59.9999 78.1448L92.4567 59.4058C92.8939 59.1534 93.2484 59.358 93.2484 59.8629L93.2484 96.4267C93.2484 96.9315 92.8939 97.5454 92.4567 97.7978L60.7916 116.08C60.3544 116.332 59.9999 116.127 59.9999 115.623L59.9999 78.1448Z" fill="url(#paint2_linear_51_7374)"/>
<path d="M76.6244 30.6149C76.6244 35.7762 71.5001 38.7188 67.7106 38.5997C66.2623 38.5542 67.1461 38.0599 65.4377 37.0735C59.2594 33.5065 54.2509 24.8316 54.2509 17.6976C54.2509 13.5141 53.3668 10.7544 56.0373 9.93561C57.9208 9.35809 62.8824 9.76361 65.4377 11.2389C71.6159 14.8059 76.6244 23.4808 76.6244 30.6149Z" fill="#2B176D"/>
<circle cx="12.9173" cy="12.9173" r="12.9173" transform="matrix(0.866025 0.5 -2.20305e-08 1 50.7285 4.69922)" fill="url(#paint3_linear_51_7374)"/>
<path d="M76.6244 30.6149C76.6244 35.7762 71.5001 38.7188 67.7106 38.5997C66.2623 38.5542 67.1461 38.0599 65.4377 37.0735C59.2594 33.5065 54.2509 24.8316 54.2509 17.6976C54.2509 13.5141 53.3668 10.7544 56.0373 9.93561C57.9208 9.35809 62.8824 9.76361 65.4377 11.2389C71.6159 14.8059 76.6244 23.4808 76.6244 30.6149Z" fill="#2B176D"/>
<circle cx="12.9173" cy="12.9173" r="12.9173" transform="matrix(0.866025 0.5 -2.20305e-08 1 50.7285 4.69922)" fill="url(#paint4_linear_51_7374)"/>
<defs>
<linearGradient id="paint0_linear_51_7374" x1="43.3757" y1="69.7119" x2="26.3243" y2="99.2457" gradientUnits="userSpaceOnUse">
<stop stop-color="#8779FF"/>
<stop offset="1" stop-color="#2B176D"/>
</linearGradient>
<linearGradient id="paint1_linear_51_7374" x1="75.7565" y1="50.0152" x2="55.4101" y2="85.2563" gradientUnits="userSpaceOnUse">
<stop stop-color="#8779FF"/>
<stop offset="1" stop-color="#2B176D"/>
</linearGradient>
<linearGradient id="paint2_linear_51_7374" x1="76.6242" y1="69.5486" x2="92.606" y2="97.23" gradientUnits="userSpaceOnUse">
<stop stop-color="#8779FF"/>
<stop offset="1" stop-color="#2B176D"/>
</linearGradient>
<linearGradient id="paint3_linear_51_7374" x1="12.9173" y1="0.674148" x2="12.9173" y2="32.2933" gradientUnits="userSpaceOnUse">
<stop stop-color="#8779FF"/>
<stop offset="1" stop-color="#2B176D"/>
</linearGradient>
<linearGradient id="paint4_linear_51_7374" x1="12.9173" y1="0.674148" x2="12.9173" y2="32.2933" gradientUnits="userSpaceOnUse">
<stop stop-color="#8779FF"/>
<stop offset="1" stop-color="#2B176D"/>
</linearGradient>
<clipPath id="clip0_51_7374">
<path d="M26.7515 60.0262C26.7515 59.5213 27.1059 59.3167 27.5431 59.5691L59.9999 78.308L59.9999 115.786C59.9999 116.291 59.6455 116.495 59.2083 116.243L27.5431 97.9611C27.1059 97.7087 26.7515 97.0948 26.7515 96.5899L26.7515 60.0262Z" fill="white"/>
</clipPath>
</defs>
</svg>
