<svg width="25" height="25" viewBox="0 0 25 25" fill="none" xmlns="http://www.w3.org/2000/svg">
<g clip-path="url(#clip0_51_7470)">
<path d="M12.1671 1.19043C18.6745 1.19043 23.9518 6.46772 23.9518 12.9752C23.9518 19.4826 18.6745 24.7599 12.1671 24.7599C5.65968 24.7599 0.382385 19.4826 0.382385 12.9752C0.382385 6.46772 5.65968 1.19043 12.1671 1.19043Z" fill="#111111" stroke="#111111" stroke-width="0.43406"/>
<path d="M12.1671 0.975098C5.53667 0.975098 0.167114 6.34465 0.167114 12.9751C0.167114 19.5994 5.53667 24.9751 12.1671 24.9751C18.7914 24.9751 24.1671 19.6055 24.1671 12.9751C24.1671 6.34465 18.7914 0.975098 12.1671 0.975098Z" fill="url(#paint0_radial_51_7470)" fill-opacity="0.7"/>
<path d="M12.1671 1.19629C18.6745 1.19629 23.9456 6.46743 23.9456 12.9749C23.9456 19.4823 18.6745 24.7534 12.1671 24.7534C5.65963 24.7534 0.388489 19.4823 0.388489 12.9749C0.388489 6.46743 5.65963 1.19629 12.1671 1.19629Z" stroke="url(#paint1_linear_51_7470)" stroke-width="0.439553"/>
<path fill-rule="evenodd" clip-rule="evenodd" d="M9.54072 7.39648H9.28239L9.11632 7.59331L4.84159 12.6184L4.53406 12.9752L4.84159 13.3319L9.12247 18.357L9.28854 18.5538H9.54687H17.2537H17.8073V18.0003V14.8019H16.7001V17.4467H10.7586L14.3137 13.3381L14.6273 12.9752L14.3137 12.6123L10.7586 8.50361H16.7001V11.1484H17.8073V7.95005V7.39648H17.2537H9.54072ZM9.54687 8.79884L5.99177 12.9752L9.54687 17.1515L13.1573 12.9752L9.54687 8.79884Z" fill="white"/>
</g>
<defs>
<radialGradient id="paint0_radial_51_7470" cx="0" cy="0" r="1" gradientUnits="userSpaceOnUse" gradientTransform="translate(12.194 4.47857) rotate(90) scale(25.301 17.8093)">
<stop offset="0.03125" stop-color="#3A3A3A"/>
<stop offset="1" stop-color="#1C1C1C"/>
</radialGradient>
<linearGradient id="paint1_linear_51_7470" x1="12.1669" y1="0.748451" x2="12.1669" y2="25.2011" gradientUnits="userSpaceOnUse">
<stop stop-color="white"/>
<stop offset="1" stop-color="#111111"/>
</linearGradient>
<clipPath id="clip0_51_7470">
<rect width="24" height="24" fill="white" transform="translate(0.166687 0.974609)"/>
</clipPath>
</defs>
</svg>
