<svg width="16" height="17" viewBox="0 0 16 17" fill="none" xmlns="http://www.w3.org/2000/svg">
<g id="Facebook">
<path id="Vector" d="M9.33333 13.1169H12.6667V3.78353H3.33333V13.1169H8V9.78353H6.66667V8.4502H8V7.3474C8 6.4559 8.0928 6.13261 8.26713 5.80668C8.44147 5.48076 8.6972 5.22497 9.02313 5.05066C9.27827 4.91422 9.5948 4.83188 10.1478 4.79656C10.3673 4.78254 10.6514 4.80042 11 4.8502V6.11686H10.6667C10.0551 6.11686 9.8028 6.14574 9.65193 6.22642C9.5584 6.27646 9.49293 6.34192 9.44287 6.43548C9.3622 6.58632 9.33333 6.73588 9.33333 7.3474V8.4502H11L10.6667 9.78353H9.33333V13.1169ZM2.66667 2.4502H13.3333C13.7015 2.4502 14 2.74868 14 3.11686V13.7835C14 14.1517 13.7015 14.4502 13.3333 14.4502H2.66667C2.29848 14.4502 2 14.1517 2 13.7835V3.11686C2 2.74868 2.29848 2.4502 2.66667 2.4502Z" fill="white"/>
</g>
</svg>
