<svg width="153" height="155" viewBox="0 0 153 155" fill="none" xmlns="http://www.w3.org/2000/svg">
<g id="Frame">
<g id="Group">
<g id="Group_2">
<g id="Vector">
<mask id="path-1-inside-1_2586_1966" fill="white">
<path d="M148.219 105.359H129.691C125.197 102.549 118.742 100.757 111.379 100.563V98.7227C112.981 99.0133 115.085 99.2798 117.427 99.2798C121.324 99.2798 125.819 98.529 129.548 95.8891C137.987 89.9071 138.752 76.9258 138.8 76.3688C138.848 75.2547 138.154 74.2376 137.102 73.9227C136.576 73.7532 124.265 70.0719 115.85 76.054C112.503 78.4274 110.375 81.9149 108.989 85.2813C107.626 81.9149 105.498 78.4274 102.151 76.054C93.7364 70.0719 81.4247 73.7774 80.8988 73.9227C79.8469 74.2376 79.1536 75.2547 79.2014 76.3688C79.2253 76.9258 80.0142 89.8829 88.4053 95.8649C92.1347 98.529 96.6291 99.2798 100.526 99.2798C102.869 99.2798 104.972 99.0133 106.574 98.7227V100.66C99.952 101.096 94.2384 102.816 90.1505 105.383H69.3042V95.6954C69.3042 87.8001 58.4747 81.6001 44.4178 81.2126V79.3719C46.0195 79.6626 48.1233 79.929 50.4661 79.929C54.3628 79.929 58.8572 79.1782 62.5866 76.5383C71.0255 70.5563 71.7905 57.5751 71.8383 57.018C71.8861 55.904 71.1928 54.8868 70.1409 54.5719C69.615 54.4024 57.3033 50.7212 48.8883 56.7032C45.5414 59.0766 43.4137 62.5641 42.0272 65.9305C40.6645 62.5641 38.5369 59.0766 35.19 56.7032C26.775 50.7212 14.4633 54.4266 13.9373 54.5719C12.8855 54.8868 12.1922 55.904 12.24 57.018C12.2639 57.5751 13.0528 70.5321 21.4439 76.5141C25.1733 79.1782 29.6677 79.929 33.5644 79.929C35.9072 79.929 38.0109 79.6626 39.6127 79.3719V81.3094C26.3925 82.1813 16.6866 88.1633 16.6866 95.7196V105.407H4.78125C3.46641 105.407 2.39062 106.497 2.39062 107.829C2.39062 109.161 3.46641 110.251 4.78125 110.251H17.1169C17.6189 111.995 18.623 113.617 20.1291 115.095H9.5625C8.24766 115.095 7.17188 116.184 7.17188 117.516C7.17188 118.849 8.24766 119.938 9.5625 119.938H76.5C77.8148 119.938 78.8906 118.849 78.8906 117.516C78.8906 116.184 77.8148 115.095 76.5 115.095H65.9334C67.4634 113.593 68.4914 111.946 68.9695 110.178C69.0891 110.178 69.2086 110.251 69.3281 110.251H85.1302C84.1978 111.752 83.6719 113.375 83.6719 115.095V127.204C83.6719 128.899 84.15 130.522 85.0823 132.048H76.5C75.1852 132.048 74.1094 133.138 74.1094 134.47C74.1094 135.802 75.1852 136.891 76.5 136.891H143.438C144.752 136.891 145.828 135.802 145.828 134.47C145.828 133.138 144.752 132.048 143.438 132.048H134.855C135.788 130.522 136.266 128.899 136.266 127.204V115.095C136.266 113.375 135.74 111.752 134.783 110.251H148.219C149.534 110.251 150.609 109.161 150.609 107.829C150.609 106.497 149.534 105.407 148.219 105.407V105.359ZM51.6375 60.6266C56.4666 57.1876 63.495 58.0352 66.8419 58.7133C66.3159 62.1282 64.7142 69.079 59.8613 72.518C55.0322 75.9571 48.0037 75.1094 44.6569 74.4313C45.1828 71.0165 46.8084 64.0415 51.6375 60.6266ZM24.217 72.518C19.4119 69.1032 17.7862 62.1282 17.2603 58.6891C20.6072 58.011 27.6117 57.1633 32.4408 60.6024C37.2698 64.0173 38.8955 70.9922 39.4214 74.4313C36.0745 75.1094 29.07 75.9571 24.217 72.518ZM39.6605 86.129V93.2493C39.6605 94.5813 40.7363 95.6712 42.0511 95.6712C43.3659 95.6712 44.4417 94.5813 44.4417 93.2493V86.0079C56.347 86.3712 64.5469 91.2633 64.5469 95.6712C64.5469 100.079 55.7016 105.359 43.0312 105.359C30.3609 105.359 21.5156 100.249 21.5156 95.6712C21.5156 91.6024 28.807 86.9766 39.6605 86.129ZM29.1656 115.046C24.4322 113.157 21.5156 110.396 21.5156 107.781V104.099C26.2252 107.805 34.0186 110.202 43.0312 110.202C52.0439 110.202 59.8373 107.805 64.5469 104.099V107.781C64.5469 110.42 61.6064 113.157 56.8969 115.046H29.1656ZM118.575 80.0016C123.404 76.5626 130.432 77.4102 133.779 78.0883C133.253 81.5032 131.652 88.454 126.799 91.893C121.97 95.3321 114.941 94.4844 111.594 93.8063C112.12 90.3915 113.746 83.4165 118.575 80.0016ZM91.1545 91.893C86.3494 88.4782 84.7238 81.5032 84.1978 78.0641C87.5447 77.386 94.5492 76.5383 99.3783 79.9774C104.207 83.3923 105.833 90.3673 106.359 93.8063C103.012 94.4844 96.0075 95.3321 91.1545 91.893ZM108.989 115.046C110.303 115.046 111.379 113.956 111.379 112.624V105.383C123.285 105.746 131.484 110.638 131.484 115.046C131.484 119.454 122.639 124.734 109.969 124.734C97.2984 124.734 88.4531 119.624 88.4531 115.046C88.4531 110.977 95.7445 106.352 106.598 105.504V112.624C106.598 113.956 107.674 115.046 108.989 115.046ZM91.6087 131.999C90.2461 130.958 88.4531 129.238 88.4531 127.156V123.474C93.1627 127.18 100.956 129.577 109.969 129.577C118.981 129.577 126.775 127.18 131.484 123.474V127.156C131.484 129.238 129.715 130.958 128.329 131.999H91.5848H91.6087Z"/>
</mask>
<path d="M148.219 105.359H129.691C125.197 102.549 118.742 100.757 111.379 100.563V98.7227C112.981 99.0133 115.085 99.2798 117.427 99.2798C121.324 99.2798 125.819 98.529 129.548 95.8891C137.987 89.9071 138.752 76.9258 138.8 76.3688C138.848 75.2547 138.154 74.2376 137.102 73.9227C136.576 73.7532 124.265 70.0719 115.85 76.054C112.503 78.4274 110.375 81.9149 108.989 85.2813C107.626 81.9149 105.498 78.4274 102.151 76.054C93.7364 70.0719 81.4247 73.7774 80.8988 73.9227C79.8469 74.2376 79.1536 75.2547 79.2014 76.3688C79.2253 76.9258 80.0142 89.8829 88.4053 95.8649C92.1347 98.529 96.6291 99.2798 100.526 99.2798C102.869 99.2798 104.972 99.0133 106.574 98.7227V100.66C99.952 101.096 94.2384 102.816 90.1505 105.383H69.3042V95.6954C69.3042 87.8001 58.4747 81.6001 44.4178 81.2126V79.3719C46.0195 79.6626 48.1233 79.929 50.4661 79.929C54.3628 79.929 58.8572 79.1782 62.5866 76.5383C71.0255 70.5563 71.7905 57.5751 71.8383 57.018C71.8861 55.904 71.1928 54.8868 70.1409 54.5719C69.615 54.4024 57.3033 50.7212 48.8883 56.7032C45.5414 59.0766 43.4137 62.5641 42.0272 65.9305C40.6645 62.5641 38.5369 59.0766 35.19 56.7032C26.775 50.7212 14.4633 54.4266 13.9373 54.5719C12.8855 54.8868 12.1922 55.904 12.24 57.018C12.2639 57.5751 13.0528 70.5321 21.4439 76.5141C25.1733 79.1782 29.6677 79.929 33.5644 79.929C35.9072 79.929 38.0109 79.6626 39.6127 79.3719V81.3094C26.3925 82.1813 16.6866 88.1633 16.6866 95.7196V105.407H4.78125C3.46641 105.407 2.39062 106.497 2.39062 107.829C2.39062 109.161 3.46641 110.251 4.78125 110.251H17.1169C17.6189 111.995 18.623 113.617 20.1291 115.095H9.5625C8.24766 115.095 7.17188 116.184 7.17188 117.516C7.17188 118.849 8.24766 119.938 9.5625 119.938H76.5C77.8148 119.938 78.8906 118.849 78.8906 117.516C78.8906 116.184 77.8148 115.095 76.5 115.095H65.9334C67.4634 113.593 68.4914 111.946 68.9695 110.178C69.0891 110.178 69.2086 110.251 69.3281 110.251H85.1302C84.1978 111.752 83.6719 113.375 83.6719 115.095V127.204C83.6719 128.899 84.15 130.522 85.0823 132.048H76.5C75.1852 132.048 74.1094 133.138 74.1094 134.47C74.1094 135.802 75.1852 136.891 76.5 136.891H143.438C144.752 136.891 145.828 135.802 145.828 134.47C145.828 133.138 144.752 132.048 143.438 132.048H134.855C135.788 130.522 136.266 128.899 136.266 127.204V115.095C136.266 113.375 135.74 111.752 134.783 110.251H148.219C149.534 110.251 150.609 109.161 150.609 107.829C150.609 106.497 149.534 105.407 148.219 105.407V105.359ZM51.6375 60.6266C56.4666 57.1876 63.495 58.0352 66.8419 58.7133C66.3159 62.1282 64.7142 69.079 59.8613 72.518C55.0322 75.9571 48.0037 75.1094 44.6569 74.4313C45.1828 71.0165 46.8084 64.0415 51.6375 60.6266ZM24.217 72.518C19.4119 69.1032 17.7862 62.1282 17.2603 58.6891C20.6072 58.011 27.6117 57.1633 32.4408 60.6024C37.2698 64.0173 38.8955 70.9922 39.4214 74.4313C36.0745 75.1094 29.07 75.9571 24.217 72.518ZM39.6605 86.129V93.2493C39.6605 94.5813 40.7363 95.6712 42.0511 95.6712C43.3659 95.6712 44.4417 94.5813 44.4417 93.2493V86.0079C56.347 86.3712 64.5469 91.2633 64.5469 95.6712C64.5469 100.079 55.7016 105.359 43.0312 105.359C30.3609 105.359 21.5156 100.249 21.5156 95.6712C21.5156 91.6024 28.807 86.9766 39.6605 86.129ZM29.1656 115.046C24.4322 113.157 21.5156 110.396 21.5156 107.781V104.099C26.2252 107.805 34.0186 110.202 43.0312 110.202C52.0439 110.202 59.8373 107.805 64.5469 104.099V107.781C64.5469 110.42 61.6064 113.157 56.8969 115.046H29.1656ZM118.575 80.0016C123.404 76.5626 130.432 77.4102 133.779 78.0883C133.253 81.5032 131.652 88.454 126.799 91.893C121.97 95.3321 114.941 94.4844 111.594 93.8063C112.12 90.3915 113.746 83.4165 118.575 80.0016ZM91.1545 91.893C86.3494 88.4782 84.7238 81.5032 84.1978 78.0641C87.5447 77.386 94.5492 76.5383 99.3783 79.9774C104.207 83.3923 105.833 90.3673 106.359 93.8063C103.012 94.4844 96.0075 95.3321 91.1545 91.893ZM108.989 115.046C110.303 115.046 111.379 113.956 111.379 112.624V105.383C123.285 105.746 131.484 110.638 131.484 115.046C131.484 119.454 122.639 124.734 109.969 124.734C97.2984 124.734 88.4531 119.624 88.4531 115.046C88.4531 110.977 95.7445 106.352 106.598 105.504V112.624C106.598 113.956 107.674 115.046 108.989 115.046ZM91.6087 131.999C90.2461 130.958 88.4531 129.238 88.4531 127.156V123.474C93.1627 127.18 100.956 129.577 109.969 129.577C118.981 129.577 126.775 127.18 131.484 123.474V127.156C131.484 129.238 129.715 130.958 128.329 131.999H91.5848H91.6087Z" stroke="url(#paint0_linear_2586_1966)" stroke-width="6" stroke-linecap="round" mask="url(#path-1-inside-1_2586_1966)"/>
</g>
<path id="Vector_2" d="M88.0389 48.0572L87.9696 46.6299H87.9451C87.9474 45.7788 88.0123 44.9355 88.1027 44.0856C88.2629 42.768 88.4879 41.597 88.7925 40.5608L88.7965 40.5474L88.8002 40.5338C91.4691 30.7865 100.351 23.958 110.351 23.958C115.228 23.958 119.861 25.5414 123.816 28.5236L123.816 28.5237C124.772 29.2448 125.622 30.0137 126.458 30.8842L126.459 30.8852C127.352 31.8123 128.179 32.8302 128.941 33.9635C129.754 35.2244 130.45 36.5219 131.008 37.8561C132.174 40.6748 132.757 43.6515 132.757 46.6768C132.757 47.4948 132.692 48.306 132.599 49.1817L132.598 49.1904L132.597 49.1991C132.487 50.3524 132.244 51.5481 131.927 52.6951L131.924 52.7065C131.496 54.3043 130.914 55.8184 130.185 57.1835L130.18 57.1928L130.175 57.2023C126.292 64.7284 118.697 69.3955 110.351 69.3955C107.081 69.3955 103.908 68.693 100.936 67.2666L100.929 67.2634C99.5424 66.6064 98.1526 65.7664 96.829 64.7437L96.8284 64.7432C95.889 64.0182 95.037 63.2467 94.2018 62.3781C91.5753 59.5871 89.6861 56.1671 88.7118 52.4351C88.3264 50.8713 88.1051 49.4211 88.0389 48.0572ZM19.125 126.234H66.9375C67.4056 126.234 67.8281 126.634 67.8281 127.156C67.8281 127.678 67.4056 128.078 66.9375 128.078H19.125C18.6569 128.078 18.2344 127.678 18.2344 127.156C18.2344 126.634 18.6569 126.234 19.125 126.234Z" stroke="url(#paint1_linear_2586_1966)" stroke-width="3" stroke-linecap="round"/>
<path id="Vector_3" d="M21.7945 27.5681L21.7067 25.7587C21.7511 23.8367 22.0355 21.9277 22.5536 20.0773L22.5536 20.0773L22.5565 20.0666C24.5504 12.736 30.0385 7.08214 36.8942 4.69623C36.9465 4.67883 37.0115 4.66096 37.1302 4.62931L37.1445 4.62551C37.2457 4.59856 37.3937 4.55912 37.5435 4.50922C37.7116 4.45586 37.8498 4.40931 37.9726 4.36793C38.2027 4.29042 38.379 4.23102 38.5977 4.17889L38.6102 4.17593L38.6226 4.17275C40.397 3.71764 42.2322 3.46899 44.1069 3.46899C48.9832 3.46899 53.6166 5.05243 57.5715 8.03463L57.5716 8.03471C58.5281 8.75581 59.3774 9.52466 60.214 10.3951L60.2151 10.3962C61.1079 11.3233 61.9347 12.3412 62.6964 13.4746C63.5101 14.7354 64.2054 16.0329 64.7636 17.3671C65.93 20.1858 66.5132 23.1625 66.5132 26.1877C66.5132 27.0058 66.4477 27.817 66.3543 28.6926L66.3532 28.7027L66.3523 28.7127C66.243 29.8862 66.0007 31.056 65.6829 32.2061L65.6806 32.2144L65.6784 32.2226C65.2507 33.8418 64.6694 35.3543 63.9408 36.7187L63.9352 36.7291L63.9298 36.7397C62.5205 39.482 60.5723 41.9015 58.2064 43.8494C55.8415 45.7965 53.1093 47.2314 50.1784 48.0667C48.2256 48.6121 46.187 48.9065 44.1069 48.9065C40.8362 48.9065 37.6638 48.204 34.6914 46.7776L34.6847 46.7744C33.2981 46.1174 31.9083 45.2774 30.5847 44.2547L30.5841 44.2542C29.6447 43.5291 28.7926 42.7576 27.9574 41.8891C25.3303 39.0974 23.441 35.6766 22.4668 31.9437C22.083 30.4093 21.8609 28.9354 21.7945 27.5681ZM86.0624 143.187H133.875C134.343 143.187 134.766 143.587 134.766 144.109C134.766 144.631 134.343 145.031 133.875 145.031H86.0624C85.5943 145.031 85.1718 144.631 85.1718 144.109C85.1718 143.587 85.5943 143.187 86.0624 143.187Z" stroke="url(#paint2_linear_2586_1966)" stroke-width="3" stroke-linecap="round"/>
</g>
</g>
</g>
<defs>
<linearGradient id="paint0_linear_2586_1966" x1="72.1901" y1="22.2091" x2="71.0965" y2="145.475" gradientUnits="userSpaceOnUse">
<stop stop-color="#2375DE"/>
<stop offset="1" stop-color="#050E24"/>
</linearGradient>
<linearGradient id="paint1_linear_2586_1966" x1="73.3279" y1="47.8926" x2="73.5282" y2="126.064" gradientUnits="userSpaceOnUse">
<stop stop-color="#2375DE"/>
<stop offset="1" stop-color="#050E24"/>
</linearGradient>
<linearGradient id="paint2_linear_2586_1966" x1="76.092" y1="36.2938" x2="76.4613" y2="141.788" gradientUnits="userSpaceOnUse">
<stop stop-color="#2375DE"/>
<stop offset="1" stop-color="#050E24"/>
</linearGradient>
</defs>
</svg>
