<svg width="165" height="165" viewBox="0 0 165 165" fill="none" xmlns="http://www.w3.org/2000/svg">
<g id="Frame">
<g id="Group">
<path id="Vector" d="M128.899 91.6213C116.562 79.3678 99.8671 72.5108 82.4794 72.5561C46.9786 71.8677 15.6982 103.112 16.4278 138.628C16.4278 139.312 16.6994 139.968 17.1829 140.451C17.6664 140.935 18.3222 141.206 19.0059 141.206C27.1657 141.199 62.8908 141.209 71.7801 141.206C74.8069 158.995 100.531 159.011 103.558 141.206C112.136 141.201 137.767 141.206 145.994 141.206C146.678 141.206 147.334 140.935 147.817 140.451C148.301 139.968 148.572 139.312 148.572 138.628C148.6 129.876 146.874 121.207 143.495 113.133C140.116 105.059 135.153 97.7444 128.899 91.6213ZM99.0309 127.132L72.8062 101.078C72.1813 100.477 71.3841 100.086 70.5263 99.9609C69.6685 99.8353 68.7928 99.981 68.0219 100.378C67.2509 100.774 66.6232 101.402 66.2264 102.173C65.8297 102.943 65.6838 103.819 65.8092 104.677L70.9345 136.05H34.2787C34.9301 123.701 40.2946 112.072 49.2664 103.561C58.2382 95.0499 70.1335 90.3053 82.5 90.3053C94.8665 90.3053 106.762 95.0499 115.734 103.561C124.705 112.072 130.07 123.701 130.721 136.05H103.579C103.059 132.667 101.464 129.539 99.0309 127.132ZM79.9219 85.2559C67.7402 85.8308 56.1256 90.5728 47.0224 98.688L41.7785 93.4441C52.2659 83.9238 65.769 78.3975 79.9219 77.8335V85.2559ZM117.978 98.688C108.875 90.5718 97.2601 85.829 85.0781 85.2534V77.8335C99.2304 78.3959 112.733 83.9203 123.221 93.4389L117.978 98.688ZM38.0944 97.0509L43.3357 102.295C34.7537 111.512 29.7177 123.473 29.1225 136.053H21.6382C22.2252 121.49 28.0718 107.633 38.0944 97.0509ZM98.4998 140.242C96.6565 152.413 78.803 152.491 76.8616 140.332L71.4089 106.959L95.3958 130.793C96.6296 132.006 97.5553 133.497 98.0953 135.141C98.6353 136.785 98.774 138.534 98.4998 140.242ZM135.877 136.053C135.282 123.473 130.246 111.512 121.664 102.295L126.906 97.0509C136.929 107.632 142.775 121.489 143.362 136.053H135.877Z" fill="url(#paint0_linear_2586_1976)"/>
<path id="Vector_2" d="M87.3829 129.67C85.1737 129.67 83.0549 130.547 81.4928 132.109C79.9306 133.671 79.053 135.79 79.053 137.999C79.053 140.209 79.9306 142.327 81.4928 143.89C83.0549 145.452 85.1737 146.329 87.3829 146.329C89.5921 146.329 91.7109 145.452 93.273 143.89C94.8352 142.327 95.7128 140.209 95.7128 137.999C95.7128 135.79 94.8352 133.671 93.273 132.109C91.7109 130.547 89.5921 129.67 87.3829 129.67ZM87.3829 141.173C86.5412 141.173 85.734 140.839 85.1388 140.244C84.5436 139.648 84.2092 138.841 84.2092 137.999C84.2092 137.158 84.5436 136.35 85.1388 135.755C85.734 135.16 86.5412 134.826 87.3829 134.826C88.2246 134.826 89.0319 135.16 89.627 135.755C90.2222 136.35 90.5566 137.158 90.5566 137.999C90.5566 138.841 90.2222 139.648 89.627 140.244C89.0319 140.839 88.2246 141.173 87.3829 141.173ZM118.104 68.5808C125.828 68.572 133.233 65.4998 138.694 60.0382C144.156 54.5767 147.228 47.1718 147.237 39.448C145.633 0.794199 90.5591 0.809669 88.9659 39.4455C88.9747 47.1692 92.0469 54.5741 97.5085 60.0357C102.97 65.4972 110.375 68.5694 118.099 68.5783L118.104 68.5808ZM118.104 15.4689C124.461 15.4757 130.555 18.004 135.05 22.499C139.545 26.994 142.074 33.0886 142.08 39.4455C140.786 71.2492 95.4112 71.2363 94.1247 39.4455C94.1322 33.0888 96.6607 26.9946 101.156 22.4998C105.65 18.0049 111.745 15.4764 118.101 15.4689H118.104Z" fill="url(#paint1_linear_2586_1976)"/>
<path id="Vector_3" d="M118.094 49.4457C117.607 49.445 117.125 49.3484 116.675 49.1615C116.226 48.9746 115.817 48.7009 115.474 48.3562C115.13 48.0114 114.857 47.6024 114.672 47.1523C114.486 46.7023 114.391 46.22 114.391 45.7332C114.391 45.3946 114.323 45.0595 114.193 44.747C114.063 44.4344 113.872 44.1506 113.633 43.9117C113.393 43.6728 113.108 43.4834 112.795 43.3545C112.482 43.2256 112.147 43.1595 111.808 43.1602C111.47 43.1609 111.134 43.2283 110.822 43.3584C110.509 43.4886 110.226 43.6791 109.987 43.919C109.748 44.1589 109.558 44.4435 109.429 44.7565C109.3 45.0696 109.234 45.4049 109.235 45.7435C109.242 47.6374 109.857 49.479 110.989 50.9969C112.122 52.5148 113.712 53.6285 115.526 54.174V57.6802C115.526 58.364 115.797 59.0197 116.281 59.5032C116.764 59.9867 117.42 60.2583 118.104 60.2583C118.788 60.2583 119.443 59.9867 119.927 59.5032C120.41 59.0197 120.682 58.364 120.682 57.6802V54.174C122.712 53.5574 124.453 52.2314 125.587 50.4378C126.721 48.6443 127.172 46.5029 126.858 44.4043C126.544 42.3058 125.486 40.3901 123.877 39.0069C122.268 37.6236 120.215 36.8651 118.094 36.8696C117.36 36.8681 116.644 36.6493 116.035 36.2408C115.426 35.8323 114.951 35.2525 114.672 34.5746C114.392 33.8968 114.32 33.1512 114.463 32.4321C114.607 31.713 114.961 31.0527 115.48 30.5346C115.999 30.0164 116.66 29.6636 117.379 29.5208C118.098 29.378 118.844 29.4515 119.521 29.7322C120.199 30.0128 120.778 30.4879 121.185 31.0975C121.593 31.7071 121.811 32.4238 121.811 33.1571C121.811 33.8409 122.083 34.4966 122.566 34.9801C123.05 35.4636 123.706 35.7352 124.389 35.7352C125.073 35.7352 125.729 35.4636 126.212 34.9801C126.696 34.4966 126.967 33.8409 126.967 33.1571C126.961 31.2643 126.346 29.4238 125.215 27.9065C124.083 26.3892 122.494 25.2754 120.682 24.7292V21.2126C120.682 20.5289 120.41 19.8731 119.927 19.3896C119.443 18.9061 118.788 18.6345 118.104 18.6345C114.77 18.766 115.619 22.5017 115.526 24.7266C113.493 25.3396 111.749 26.664 110.612 28.4574C109.476 30.2508 109.023 32.3934 109.336 34.4934C109.65 36.5933 110.709 38.5101 112.32 39.8933C113.931 41.2765 115.986 42.0335 118.109 42.0258C119.069 42.0636 119.977 42.472 120.642 43.1652C121.307 43.8584 121.678 44.7825 121.676 45.7432C121.674 46.7039 121.299 47.6264 120.631 48.3169C119.963 49.0073 119.054 49.412 118.094 49.4457Z" fill="url(#paint2_linear_2586_1976)"/>
</g>
</g>
<defs>
<linearGradient id="paint0_linear_2586_1976" x1="78.5956" y1="75.9436" x2="77.7459" y2="162.992" gradientUnits="userSpaceOnUse">
<stop stop-color="#2375DE"/>
<stop offset="1" stop-color="#050E24"/>
</linearGradient>
<linearGradient id="paint1_linear_2586_1976" x1="111.192" y1="16.0957" x2="105.545" y2="196.255" gradientUnits="userSpaceOnUse">
<stop stop-color="#2375DE"/>
<stop offset="1" stop-color="#050E24"/>
</linearGradient>
<linearGradient id="paint2_linear_2586_1976" x1="117.515" y1="20.3572" x2="113.899" y2="118.283" gradientUnits="userSpaceOnUse">
<stop stop-color="#2375DE"/>
<stop offset="1" stop-color="#050E24"/>
</linearGradient>
</defs>
</svg>
