<svg width="130" height="131" viewBox="0 0 130 131" fill="none" xmlns="http://www.w3.org/2000/svg">
<g id="Frame">
<g id="Group">
<path id="Vector" d="M107.177 45.6371L107.177 45.6356C107.514 22.7094 88.3311 1.79492 63.2302 1.79492C38.9943 1.79492 19.281 21.4639 19.281 45.6295C19.281 45.6322 19.281 45.6361 19.2809 45.641C19.2935 45.6597 19.3081 45.681 19.3249 45.7049C19.6618 46.1828 20.4698 47.1408 22.4013 49.3035C24.4601 51.6087 27.7215 55.2025 32.8893 60.897C37.303 65.7605 43.1073 72.1563 50.7409 80.5906L51.9587 81.9362L50.4079 82.8789C43.1649 87.2818 38.5779 95.1608 38.5779 103.881C38.5779 117.433 49.6347 128.467 63.2302 128.467C76.8257 128.467 87.8826 117.433 87.8826 103.881C87.8826 95.1169 83.2572 87.2586 76.0526 82.8789L74.5018 81.9362L75.7196 80.5906C83.8399 71.6185 89.893 64.9499 94.4049 59.9793C99.2837 54.6046 102.36 51.2152 104.3 49.0456C106.126 47.002 106.875 46.1149 107.177 45.6888C107.177 45.6718 107.177 45.6546 107.177 45.6371ZM107.277 45.5364C107.277 45.5365 107.276 45.5379 107.274 45.5408C107.276 45.5378 107.277 45.5364 107.277 45.5364ZM107.196 45.9918C107.196 45.9918 107.196 45.9896 107.196 45.9848C107.196 45.9893 107.196 45.9917 107.196 45.9918ZM66.7631 78.3151L66.4132 79.4701L65.2101 79.3756C63.8922 79.2721 62.5681 79.272 61.2502 79.3754L60.0472 79.4697L59.6974 78.3148L49.8758 45.8919L49.6022 44.9887L50.298 44.3511C57.1879 38.0381 68.2931 37.2985 76.1487 44.3483L76.8592 44.9859L76.5824 45.8995L66.7631 78.3151ZM104.884 44.5776L105.975 45.5851L104.979 46.6862L74.1807 80.7151L73.4769 81.4927L72.505 81.0986C71.3749 80.6404 70.2121 80.2673 69.0262 79.9822L67.4803 79.6106L67.9412 78.0889L77.8113 45.5054L77.9238 45.1341L78.2022 44.8639C85.4802 37.8 96.9387 37.2421 104.884 44.5776ZM53.956 81.0986L52.984 81.4927L52.2802 80.7151L21.4794 46.6829L20.4844 45.5835L21.5722 44.5759C29.4954 37.2373 41.0008 37.7932 48.2599 44.8635L48.5368 45.1332L48.6489 45.5032L58.5198 78.0889L58.9807 79.6106L57.4348 79.9822C56.2488 80.2673 55.086 80.6404 53.956 81.0986Z" stroke="url(#paint0_linear_2586_1959)" stroke-width="3" stroke-linecap="round"/>
</g>
</g>
<defs>
<linearGradient id="paint0_linear_2586_1959" x1="64.9115" y1="31.0844" x2="64.5321" y2="125.712" gradientUnits="userSpaceOnUse">
<stop stop-color="#2375DE"/>
<stop offset="1" stop-color="#050E24"/>
</linearGradient>
</defs>
</svg>
