<svg width="223" height="58" viewBox="0 0 223 58" fill="none" xmlns="http://www.w3.org/2000/svg">
<path d="M114.46 38.8838L114.238 38.7571C114.163 38.6463 114.143 38.5038 114.056 38.3969C113.34 37.5141 112.647 36.5719 111.95 35.6495C111.689 35.3011 111.55 34.5331 110.945 35.1705C110.406 35.7406 109.623 36.9361 109.124 37.6051C108.823 38.0089 108.589 38.7849 108.019 38.8759C107.121 39.0145 105.818 38.8324 104.856 38.8759C104.29 38.8997 103.791 39.0936 103.174 39.0818C102.659 39.0699 101.511 38.959 101.008 38.872C100.153 38.7255 99.7454 37.8704 99.4168 37.1934L97.9758 38.3256C94.3298 39.9092 88.3204 38.575 89.7377 33.4524C90.2563 31.5759 92.2634 30.4239 94.1002 30.1943C94.888 30.0954 98.5261 30.3091 98.8349 30.0795C99.0566 29.9133 98.7755 28.7256 98.6172 28.4921C98.5697 28.4208 98.0273 27.8983 97.9561 27.8666C97.0337 27.4747 95.0939 27.6013 94.3655 28.3812C93.9775 28.7969 94.1596 29.2403 93.5539 29.3511C92.9126 29.4659 92.299 29.2917 91.7091 29.2838C91.052 29.2759 89.9316 29.7985 89.9752 28.7454C89.9989 28.1279 90.5928 26.9798 91.0163 26.5127C93.2372 24.0582 99.5396 23.8445 101.848 26.2514C103.803 28.2862 102.75 32.4627 103.051 35.0438C103.194 35.5228 104.247 35.4239 104.373 35.602L104.433 37.3241L104.567 37.4864L104.868 37.3953L108.878 31.5997L104.171 25.0163C104.053 24.9094 104.171 24.6204 104.27 24.6204H108.625C108.649 24.6204 109.037 24.8223 109.049 24.8421C109.104 24.9252 109.056 25.1152 109.163 25.2696C109.235 25.3726 109.385 25.4438 109.468 25.5626C110.086 26.4335 110.668 27.3361 111.261 28.2229C111.376 28.4287 111.634 28.4564 111.792 28.2823L114.223 24.7748C114.46 24.6877 114.706 24.6402 114.959 24.6204C115.529 24.5729 118.075 24.5254 118.506 24.6441C118.601 24.6719 118.672 24.7471 118.732 24.8223L114.025 31.6947L119.025 38.48C119.143 38.5869 119.025 38.8759 118.926 38.8759H114.472L114.46 38.8838ZM95.2601 32.9457C92.9561 33.7058 93.4827 35.99 95.854 35.9939C97.3227 35.9939 98.8824 34.8301 98.8784 33.2861C98.8784 33.1753 98.827 32.9457 98.7241 32.9457H95.2601Z" fill="white"/>
<path d="M171.7 37.2118C171.482 37.0851 170.52 38.0827 170.263 38.2688C166.965 39.8681 160.948 38.7913 161.764 34.0289C162.179 31.5903 164.479 30.3473 166.811 30.1691C167.583 30.1098 170.501 30.3275 170.924 30.1256C171.372 29.9079 171.019 28.8865 170.809 28.554C170.746 28.451 170.608 28.4154 170.52 28.3204C170.465 28.2571 170.481 28.0868 170.402 28.0235C170.323 27.9602 169.543 27.7187 169.388 27.7028C168.49 27.6039 167.132 27.687 166.498 28.4273C166.273 28.6925 166.265 29.1478 165.924 29.2903C165.584 29.4328 162.27 29.4407 162.116 29.2824C162.001 28.1502 162.821 26.8398 163.648 26.1233C166.039 24.0568 171.989 23.9183 174.143 26.4123C175.627 28.1343 175.168 32.0654 175.267 34.3734C175.279 34.6901 174.95 35.0384 175.437 35.3116C175.79 35.5095 176.288 35.3433 176.474 35.7589C176.605 36.0479 176.625 38.3757 176.518 38.6963C176.403 39.0447 175.944 39.0645 175.627 39.0882C175.188 39.1199 173.339 38.9299 172.955 38.7834C172.888 38.7597 172.1 38.2292 172.064 38.1896C171.946 38.0471 171.859 37.3028 171.704 37.2157L171.7 37.2118ZM170.995 32.968C170.786 32.7542 170.433 32.9482 170.184 32.9482C168.826 32.9561 166.063 32.5246 166 34.504C165.968 35.4858 167.068 35.9767 167.92 36.0044C168.121 36.0123 169.226 35.747 169.44 35.6639C169.531 35.6283 170.39 35.0899 170.429 35.0424C170.473 34.987 170.833 34.3259 170.877 34.2269C171.003 33.93 171.245 33.2095 170.999 32.964L170.995 32.968Z" fill="white"/>
<path d="M67.4499 38.883C67.4182 38.8751 67.2757 38.7286 67.252 38.6851V19.683L67.4934 19.5325L79.9952 19.5088L80.3396 19.8453L80.2525 22.9885C80.1852 23.1865 79.631 23.234 79.4291 23.2538C77.4022 23.428 74.6826 23.2894 72.5923 23.2538C72.4181 23.2538 71.6541 23.0202 71.6541 23.3963V26.8602C71.6541 26.9156 71.5037 26.9829 71.5987 27.2007C71.6501 27.3194 71.86 27.4778 72.0025 27.5015L78.5819 27.557C78.6294 27.5807 78.7799 27.7351 78.7799 27.7549V30.8229L78.6294 30.9734H71.8995C71.8481 30.9734 71.5947 31.1515 71.5591 31.2386C71.5195 31.3772 71.6501 31.4801 71.6501 31.5197V38.7444L71.4997 38.8949H67.442L67.4499 38.883Z" fill="white"/>
<path d="M212.241 32.8464C211.889 32.9573 212.261 34.1132 212.404 34.3666C213.176 35.7324 215.163 36.1837 216.6 35.6215C216.687 35.5859 217.471 35.1306 217.507 35.0911C217.534 35.0633 217.843 34.5764 217.918 34.4616C218.199 34.042 217.966 33.8995 218.765 33.8282C219.45 33.7649 220.97 33.753 221.643 33.8282C222.562 33.9351 222.095 34.9208 221.829 35.5028C221.323 36.6073 219.965 37.783 218.872 38.2858C216.315 39.4655 211.378 39.1409 209.593 36.825C209.526 36.7379 209.332 36.7617 209.249 36.6706C206.885 34.0499 207.182 28.8995 209.728 26.4649C211.988 24.3034 216.271 23.9907 218.987 25.4C221.56 26.7341 222.57 29.1094 222.396 31.9122C222.376 32.2328 222.542 32.8385 221.936 32.8385H212.237L212.241 32.8464ZM218.227 30.0753C218.358 29.8892 217.534 28.6501 217.328 28.4522C216.267 27.4427 214.066 27.4823 212.986 28.4522C212.693 28.7174 211.691 30.0357 212.435 30.1782L218.223 30.0793L218.227 30.0753Z" fill="white"/>
<path d="M139.251 19.5834V22.9008C139.251 22.9365 139.152 23.0631 139.136 23.1304C136.357 23.3561 133.53 23.2373 130.739 23.1938C130.593 23.3284 130.561 23.5026 130.541 23.6886C130.494 24.1003 130.498 26.9863 130.593 27.2C130.616 27.2515 130.866 27.497 130.89 27.497H137.521L137.671 27.6474V30.4185C137.671 30.4541 137.857 30.9648 137.521 30.9648H130.89C130.862 30.9648 130.62 31.1192 130.593 31.1628L130.616 38.625C130.605 38.6963 130.419 38.8824 130.395 38.8824H126.436C126.392 38.8824 126.123 38.7042 126.107 38.625L126.135 19.6823L126.729 19.4804C130.62 19.7219 134.864 19.1756 138.712 19.4804C138.902 19.4963 139.072 19.5398 139.251 19.5834Z" fill="white"/>
<path d="M177.254 24.8771C177.262 24.8455 177.408 24.7029 177.452 24.6792C177.67 24.5802 180.191 24.5881 180.544 24.6515C180.682 24.6752 180.848 24.798 180.995 24.8415C181.038 25.2334 180.94 25.7045 181.264 26.0093C181.521 26.0687 182.095 25.4036 182.305 25.277C183.928 24.3071 187.246 24.3625 188.865 25.3324C192.048 27.2405 191.311 31.9396 191.3 35.067C191.296 36.1002 191.545 37.3829 191.41 38.4359C191.391 38.5943 191.371 38.7486 191.209 38.8278C191.046 38.907 187.954 38.9268 187.59 38.8832C187.42 38.8635 187.289 38.8476 187.198 38.6813C187.099 36.7534 187.167 34.8176 187.147 32.8857C187.139 32.2761 187.214 31.6743 187.147 31.0093C187.032 29.7741 186.787 28.5509 185.464 28.1392C183.22 27.4424 181.411 29.0418 181.411 31.3022V38.7764H177.254V24.8732V24.8771Z" fill="white"/>
<path d="M149.793 24.632C149.864 24.6439 150.268 24.7903 150.299 24.826C150.284 25.0239 150.303 25.9859 150.497 26.0255C150.921 26.1165 151.238 25.495 151.499 25.3208C152.833 24.4301 155.913 24.3786 157.366 24.9804C162.231 26.9914 160.2 34.2914 160.64 38.4441C160.679 38.5708 160.469 38.8835 160.386 38.8835H156.625L156.475 38.7331V30.8156C156.475 30.7404 156.17 29.4815 156.123 29.3865C156.044 29.24 155.477 28.5076 155.359 28.4205C154.587 27.8505 152.797 27.8623 152.037 28.4482C150.925 29.3033 150.715 30.4712 150.64 31.8013C150.525 33.8163 150.656 35.9976 150.632 38.0403C150.632 38.2224 150.818 38.8756 150.489 38.8756H146.729C146.701 38.8756 146.519 38.6856 146.507 38.6183V24.9843C146.515 24.8893 146.681 24.6241 146.729 24.6241C147.607 24.6241 148.993 24.5053 149.797 24.6241L149.793 24.632Z" fill="white"/>
<path d="M205.235 26.4409C205.334 26.5399 205.836 27.2129 205.939 27.3712C206.173 27.7354 207.016 29.5842 206.933 29.9048C206.897 29.9959 206.834 30.083 206.751 30.1265C206.181 30.4036 203.556 30.0355 202.76 30.1582C202.475 30.0711 202.258 29.3269 202.083 29.0537C201.719 28.4955 201.122 28.1234 200.441 28.0244C195.73 27.3396 195.425 35.0275 199.399 35.5936C200.27 35.7163 201.502 35.3323 202.036 34.6158C202.277 34.2951 202.448 33.4994 202.784 33.3846C203.148 33.2619 205.789 33.2896 206.308 33.3371C206.501 33.3529 206.874 33.3846 206.933 33.6063C207.06 34.0774 206.038 36.0607 205.702 36.5041C203.426 39.5167 197.602 39.7028 194.736 37.3829C191.66 34.8889 191.636 28.8083 194.673 26.2667C197.345 24.03 202.709 23.9231 205.235 26.4449V26.4409Z" fill="white"/>
<path d="M84.8173 38.784H80.6606V25.1737C80.6606 25.1223 80.4904 25.0075 80.6052 24.8254C80.72 24.7145 80.8586 24.6591 81.0169 24.6353C81.5514 24.5522 83.6297 24.5562 84.1523 24.6551C84.2987 24.6828 84.4611 24.7264 84.5759 24.8254C84.7065 25.0233 84.4571 26.2189 84.9598 26.112C85.0588 26.0922 85.5537 25.3915 85.7199 25.2846C85.8031 25.2292 86.5354 24.8808 86.6582 24.8372C87.1332 24.6631 89.3818 24.4255 89.6233 24.8293V27.9963C89.2432 28.3368 88.7009 28.1388 88.2377 28.1943C86.7928 28.3645 85.5933 28.6535 85.0707 30.1737C84.9559 30.5102 84.8213 31.2782 84.8213 31.6067V38.78L84.8173 38.784Z" fill="white"/>
<path d="M144.595 38.7833H140.339V24.8801C140.489 24.7059 140.66 24.6584 140.881 24.6307C141.558 24.5515 143.375 24.5515 144.052 24.6307C144.298 24.6584 144.492 24.7296 144.646 24.9276C144.678 25.0068 144.595 25.0582 144.595 25.078V38.7833Z" fill="white"/>
<path d="M144.04 19.1489C144.547 19.5646 144.832 19.9446 144.883 20.6374C144.907 20.9897 144.796 21.928 144.602 22.213C144.574 22.2526 143.941 22.8702 143.901 22.8979C143.296 23.2937 141.752 23.2977 141.138 22.8979C139.717 21.9715 139.725 19.8734 141.138 18.947C141.7 18.5789 143.26 18.5986 143.838 18.9114C143.957 18.9747 143.973 19.0935 144.04 19.1489Z" fill="white"/>
<path d="M47.1807 7.04465C57.461 15.0842 60.6532 29.6968 54.8121 41.4325C48.6445 53.8212 34.7019 59.8959 21.2575 55.8761C12.2524 53.185 5.01508 45.6803 2.48442 36.647C-2.82464 17.674 12.3228 -0.721885 31.9235 0.947398C37.9419 1.45973 42.505 3.3908 47.1807 7.04746V7.04465ZM46.6205 8.52251C28.2725 -6.83884 0.592748 8.04678 3.09808 31.7433C4.95315 49.2975 23.0873 60.3801 39.5577 53.6917C58.2436 46.1025 62.1029 21.4827 46.6233 8.52251H46.6205Z" fill="white"/>
<path d="M37.8944 16.7371C39.0655 15.6421 40.1436 14.4654 41.3231 13.3732C41.4695 13.2381 41.4526 13.0466 41.7059 13.0438C42.0212 13.0438 44.9854 16.267 45.4583 16.6892L45.4724 16.9538L41.3878 21.1059C41.3315 21.1679 41.3118 21.2411 41.3147 21.3227C41.3147 21.4634 42.162 22.8006 42.2999 23.0905C44.0508 26.764 44.017 31.2708 42.2915 34.9585C42.1676 35.2203 41.309 36.6277 41.3203 36.7319C41.385 36.8726 41.5061 37.0387 41.6074 37.157C42.7221 38.4462 44.2507 39.6088 45.4076 40.8868L45.5343 41.1092C45.5568 41.3372 45.0417 41.6722 44.8784 41.8355C43.8904 42.8263 42.8798 43.8031 41.9396 44.8419C41.7425 45.0276 41.416 44.7715 41.2527 44.6195C40.9825 44.3661 40.6813 43.9664 40.4139 43.699C39.392 42.68 38.3674 41.6637 37.3399 40.6504C36.6896 40.9572 36.09 41.3794 35.4398 41.6863C31.7662 43.4175 27.3129 43.4287 23.645 41.6778C23.0285 41.3823 22.4515 40.9319 21.8125 40.7207C21.697 40.7376 21.2016 41.1852 21.0834 41.2978C20.0221 42.3056 18.7835 43.9214 17.6829 44.7574C17.5675 44.8447 17.4155 44.9995 17.2606 44.901L13.6631 41.0979L17.8602 36.7066C17.8912 36.5714 17.0664 35.2343 16.9313 34.9528C14.8932 30.7135 15.1184 25.4072 17.787 21.4944C17.8377 21.3987 17.8433 21.2889 17.8264 21.1819C17.773 20.8836 16.7117 19.9996 16.4499 19.7379C15.5463 18.8342 14.6511 17.925 13.7391 17.0298L13.7081 16.6386L17.5084 13.041L21.8828 17.255C22.4599 16.9595 22.9976 16.5851 23.5831 16.3064C27.372 14.4964 31.8085 14.4879 35.6059 16.2726C36.152 16.5288 36.7037 16.8807 37.216 17.1987C37.6327 17.2719 37.689 16.9341 37.9057 16.7315L37.8944 16.7371ZM23.6028 34.9866C26.7499 38.2858 32.4306 38.1619 35.5749 34.9303C42.7784 27.5213 33.0245 16.2811 24.8667 21.9898C20.4106 25.106 19.8476 31.0513 23.6028 34.9866Z" fill="white"/>
</svg>
