<svg width="32" height="32" viewBox="0 0 32 32" fill="none" xmlns="http://www.w3.org/2000/svg">
<path d="M5.96694 10.5949C5.74294 10.8189 5.35894 10.8189 5.10294 10.5949L3.59894 9.0909C3.37494 8.8349 3.37494 8.4509 3.59894 8.2301L7.37174 4.4573C7.59574 4.2333 7.97974 4.2333 8.23574 4.4573L9.73654 5.9581C9.96054 6.1821 9.96054 6.5661 9.73654 6.8221L9.53334 7.02562L10.2655 7.75746L11.7849 6.2461C12.1689 5.8621 12.6777 5.6701 13.1897 5.6701H14.1177V3.8813C14.1177 2.1885 15.4905 0.8125 17.1865 0.8125H22.6521C24.3481 0.8125 25.7209 2.1885 25.7209 3.8813V5.6701H26.5849C27.7017 5.6701 28.5977 6.5661 28.5977 7.6861V29.1997C28.5977 30.3165 27.7017 31.2125 26.5849 31.2125H6.95606C5.83926 31.2125 4.94326 30.3165 4.94326 29.1997V13.8877C4.94326 13.3437 5.16726 12.8317 5.51926 12.4797L6.89206 11.1133L6.17046 10.3914L5.96694 10.5949ZM16.5461 5.6701H23.2277V3.8813C23.2277 3.5613 22.9717 3.2733 22.6197 3.2733H17.1541C16.8341 3.2733 16.5461 3.5293 16.5461 3.8813V5.6701Z" fill="url(#paint0_linear_444_12391)"/>
<defs>
<linearGradient id="paint0_linear_444_12391" x1="16.0143" y1="0.8125" x2="16.0143" y2="31.2125" gradientUnits="userSpaceOnUse">
<stop stop-color="#8779FF"/>
<stop offset="1" stop-color="#2B176D"/>
</linearGradient>
</defs>
</svg>
