<svg width="32" height="32" viewBox="0 0 32 32" fill="none" xmlns="http://www.w3.org/2000/svg">
<path d="M31.0691 30.125H30.0691V11.6252C30.0691 11.1074 29.6494 10.6877 29.1316 10.6877H25.3816C24.8639 10.6877 24.4441 11.1074 24.4441 11.6252V30.125H22.5692V17.8751C22.5692 17.3574 22.1494 16.9376 21.6317 16.9376H17.8817C17.3639 16.9376 16.9442 17.3574 16.9442 17.8751V30.125H15.0692V21.3126C15.0692 20.7948 14.6495 20.3751 14.1317 20.3751H10.3818C9.86401 20.3751 9.44426 20.7948 9.44426 21.3126V30.125H7.56928V23.5626C7.56928 23.0448 7.14953 22.6251 6.63178 22.6251H2.88181C2.36407 22.6251 1.94432 23.0448 1.94432 23.5626V30.125H0.944328C0.426583 30.125 0.00683594 30.5448 0.00683594 31.0625C0.00683594 31.5803 0.426583 32 0.944328 32H31.0691C31.5868 32 32.0066 31.5803 32.0066 31.0625C32.0066 30.5448 31.5868 30.125 31.0691 30.125Z" fill="url(#paint0_linear_444_12057)"/>
<path d="M0.944334 20.144C6.79541 20.144 13.1405 18.0427 18.8108 14.227C23.2517 11.2386 26.9536 7.42095 29.2531 3.51179L30.1636 6.9097C30.2758 7.32857 30.8178 7.69045 31.3118 7.57257C31.8154 7.45245 32.1086 6.92451 31.9746 6.42439L30.4395 0.695064C30.3054 0.195005 29.7916 -0.101867 29.2913 0.0321942L23.562 1.56737C23.0618 1.70137 22.7651 2.21543 22.8991 2.71555C23.0332 3.21567 23.547 3.51254 24.0473 3.37842L27.7382 2.38943C25.5929 6.11727 22.0474 9.78899 17.764 12.6714C12.3998 16.2811 6.42648 18.269 0.944334 18.269C0.426588 18.269 0.00684163 18.6888 0.00684163 19.2065C0.00684163 19.7243 0.426588 20.144 0.944334 20.144Z" fill="url(#paint1_linear_444_12057)"/>
<defs>
<linearGradient id="paint0_linear_444_12057" x1="16.0069" y1="0" x2="16.0069" y2="32" gradientUnits="userSpaceOnUse">
<stop stop-color="#8779FF"/>
<stop offset="1" stop-color="#2B176D"/>
</linearGradient>
<linearGradient id="paint1_linear_444_12057" x1="16.0069" y1="0" x2="16.0069" y2="32" gradientUnits="userSpaceOnUse">
<stop stop-color="#8779FF"/>
<stop offset="1" stop-color="#2B176D"/>
</linearGradient>
</defs>
</svg>
