<svg width="40" height="40" viewBox="0 0 40 40" fill="none" xmlns="http://www.w3.org/2000/svg">
<path d="M38.8275 37.6563H37.5776V14.5315C37.5776 13.8843 37.0529 13.3596 36.4057 13.3596H31.7183C31.0711 13.3596 30.5464 13.8843 30.5464 14.5315V37.6563H28.2027V22.3439C28.2027 21.6967 27.678 21.172 27.0308 21.172H22.3434C21.6962 21.172 21.1716 21.6967 21.1716 22.3439V37.6563H18.8278V26.6407C18.8278 25.9935 18.3032 25.4689 17.656 25.4689H12.9686C12.3214 25.4689 11.7967 25.9935 11.7967 26.6407V37.6563H9.45298V29.4532C9.45298 28.806 8.9283 28.2813 8.28113 28.2813H3.5937C2.94652 28.2813 2.42184 28.806 2.42184 29.4532V37.6563H1.17186C0.52468 37.6563 0 38.181 0 38.8281C0 39.4753 0.52468 40 1.17186 40H38.8275C39.4747 40 39.9994 39.4753 39.9994 38.8281C39.9994 38.181 39.4747 37.6563 38.8275 37.6563Z" fill="white"/>
<path d="M1.17186 25.18C8.48566 25.18 16.4169 22.5533 23.5048 17.7838C29.0559 14.0483 33.6833 9.27619 36.5576 4.38974L37.6957 8.63713C37.836 9.16072 38.5134 9.61306 39.1309 9.46571C39.7604 9.31556 40.127 8.65564 39.9595 8.03049L38.0405 0.86883C37.873 0.243757 37.2307 -0.127334 36.6053 0.0402427L29.4437 1.95921C28.8186 2.12671 28.4476 2.76928 28.6151 3.39444C28.7827 4.01959 29.425 4.39068 30.0503 4.22302L34.6639 2.98678C31.9823 7.64659 27.5505 12.2362 22.1963 15.8393C15.4911 20.3514 8.0245 22.8363 1.17186 22.8363C0.524687 22.8363 7.1119e-06 23.361 7.1119e-06 24.0082C7.1119e-06 24.6554 0.524687 25.18 1.17186 25.18Z" fill="white"/>
</svg>
