<svg width="24" height="25" viewBox="0 0 24 25" fill="none" xmlns="http://www.w3.org/2000/svg">
<path d="M17.5388 17.75C16.6627 17.743 15.7975 17.5553 14.9974 17.1984C14.1972 16.8416 13.4794 16.3234 12.8888 15.6763L12.0001 14.7117L11.1098 15.6763C10.5193 16.3231 9.80169 16.8411 9.00184 17.1979C8.20199 17.5548 7.33711 17.7427 6.46131 17.75C5.10813 17.709 3.82631 17.1335 2.89647 16.1496C1.96663 15.1656 1.46452 13.8533 1.50006 12.5C1.46452 11.1467 1.96663 9.83438 2.89647 8.85042C3.82631 7.86646 5.10813 7.291 6.46131 7.25C7.33736 7.25709 8.20253 7.44493 9.00265 7.80176C9.80278 8.15859 10.5206 8.67673 11.1113 9.32375L12.0001 10.2882L12.8911 9.32375C13.4814 8.6769 14.1989 8.15885 14.9986 7.80202C15.7983 7.44519 16.6631 7.25726 17.5388 7.25C18.892 7.291 20.1738 7.86646 21.1036 8.85042C22.0335 9.83438 22.5356 11.1467 22.5001 12.5C22.5356 13.8533 22.0335 15.1656 21.1036 16.1496C20.1738 17.1335 18.892 17.709 17.5388 17.75ZM14.0416 12.5L15.0916 13.6415C15.3993 13.9871 15.7761 14.2644 16.1976 14.4553C16.6192 14.6462 17.0761 14.7466 17.5388 14.75C18.096 14.7085 18.6144 14.449 18.9815 14.0278C19.3486 13.6066 19.535 13.0576 19.5001 12.5C19.535 11.9424 19.3486 11.3934 18.9815 10.9722C18.6144 10.551 18.096 10.2915 17.5388 10.25C17.0767 10.2539 16.6205 10.3545 16.1997 10.5455C15.7788 10.7364 15.4026 11.0133 15.0953 11.3585L14.0416 12.5ZM6.46131 10.25C5.90411 10.2915 5.38575 10.551 5.01861 10.9722C4.65147 11.3934 4.46516 11.9424 4.50006 12.5C4.46516 13.0576 4.65147 13.6066 5.01861 14.0278C5.38575 14.449 5.90411 14.7085 6.46131 14.75C6.92342 14.7461 7.3796 14.6455 7.80045 14.4545C8.22131 14.2636 8.5975 13.9867 8.90481 13.6415L9.95856 12.5L8.90481 11.3585C8.5975 11.0133 8.22131 10.7364 7.80045 10.5455C7.3796 10.3545 6.92342 10.2539 6.46131 10.25Z" fill="white"/>
</svg>
