<svg width="16" height="17" viewBox="0 0 16 17" fill="none" xmlns="http://www.w3.org/2000/svg">
<g id="Instagram Line">
<path id="Vector" d="M8.00067 6.45036C6.89573 6.45036 6.00065 7.34576 6.00065 8.45036C6.00065 9.55522 6.89607 10.4504 8.00067 10.4504C9.10553 10.4504 10.0007 9.55496 10.0007 8.45036C10.0007 7.34549 9.10527 6.45036 8.00067 6.45036ZM8.00067 5.11702C9.84093 5.11702 11.334 6.60842 11.334 8.45036C11.334 10.2907 9.8426 11.7837 8.00067 11.7837C6.16034 11.7837 4.66732 10.2923 4.66732 8.45036C4.66732 6.61004 6.15872 5.11702 8.00067 5.11702ZM12.334 4.94979C12.334 5.40986 11.9601 5.78314 11.5007 5.78314C11.0406 5.78314 10.6673 5.40929 10.6673 4.94979C10.6673 4.49029 11.0411 4.11702 11.5007 4.11702C11.9595 4.11644 12.334 4.49029 12.334 4.94979ZM8.00067 3.11702C6.351 3.11702 6.08212 3.12139 5.31484 3.15556C4.7921 3.1801 4.44168 3.2504 4.1161 3.3768C3.82677 3.48902 3.61806 3.62301 3.39568 3.84539C3.17244 4.06862 3.03869 4.27678 2.92693 4.56624C2.80024 4.89257 2.72995 5.24243 2.70585 5.76446C2.67135 6.50049 2.66732 6.75772 2.66732 8.45036C2.66732 10.1 2.67168 10.3689 2.70584 11.1361C2.7304 11.6586 2.8008 12.0096 2.92689 12.3344C3.0394 12.6241 3.17366 12.8333 3.39497 13.0546C3.61908 13.2784 3.82786 13.4126 4.11458 13.5233C4.44412 13.6507 4.79432 13.7211 5.31474 13.7452C6.05078 13.7796 6.30802 13.7837 8.00067 13.7837C9.65033 13.7837 9.9192 13.7793 10.6864 13.7452C11.2078 13.7207 11.559 13.6501 11.8847 13.5241C12.1736 13.4119 12.3835 13.2772 12.6049 13.056C12.8291 12.8316 12.963 12.6233 13.0738 12.3359C13.2009 12.0076 13.2714 11.6569 13.2955 11.1363C13.3299 10.4002 13.334 10.143 13.334 8.45036C13.334 6.8007 13.3296 6.53183 13.2955 5.76461C13.2709 5.24306 13.2003 4.89135 13.0742 4.56581C12.9623 4.27728 12.8278 4.06792 12.6056 3.84539C12.382 3.62179 12.1744 3.48831 11.8847 3.37664C11.5587 3.25005 11.2083 3.17966 10.6865 3.15556C9.95053 3.12106 9.69326 3.11702 8.00067 3.11702ZM8.00067 1.78369C9.81173 1.78369 10.0379 1.79036 10.749 1.82369C11.4584 1.85647 11.9423 1.96869 12.3673 2.13369C12.8067 2.30314 13.1779 2.53202 13.5484 2.90258C13.9184 3.27314 14.1473 3.64536 14.3173 4.08369C14.4817 4.50814 14.594 4.99258 14.6273 5.70202C14.659 6.41314 14.6673 6.63925 14.6673 8.45036C14.6673 10.2615 14.6607 10.4876 14.6273 11.1987C14.5945 11.9082 14.4817 12.392 14.3173 12.817C14.1479 13.2565 13.9184 13.6276 13.5484 13.9982C13.1779 14.3682 12.8051 14.597 12.3673 14.767C11.9423 14.9315 11.4584 15.0437 10.749 15.077C10.0379 15.1087 9.81173 15.117 8.00067 15.117C6.18954 15.117 5.96342 15.1104 5.25232 15.077C4.54287 15.0442 4.05954 14.9315 3.63398 14.767C3.19509 14.5976 2.82342 14.3682 2.45287 13.9982C2.08232 13.6276 1.85398 13.2548 1.68398 12.817C1.51898 12.392 1.40732 11.9082 1.37398 11.1987C1.34232 10.4876 1.33398 10.2615 1.33398 8.45036C1.33398 6.63925 1.34065 6.41314 1.37398 5.70202C1.40676 4.99202 1.51898 4.50869 1.68398 4.08369C1.85342 3.6448 2.08232 3.27314 2.45287 2.90258C2.82342 2.53202 3.19565 2.30369 3.63398 2.13369C4.05898 1.96869 4.54232 1.85702 5.25232 1.82369C5.96342 1.79202 6.18954 1.78369 8.00067 1.78369Z" fill="white"/>
</g>
</svg>
