<svg width="564" height="489" viewBox="0 0 564 489" fill="none" xmlns="http://www.w3.org/2000/svg">
<rect width="564" height="489" rx="16" fill="black" fill-opacity="0.3"/>
<path d="M346.122 232.361C346.122 266.33 318.631 293.821 284.661 293.821C250.692 293.821 223.201 266.33 223.201 232.361C223.201 198.391 250.692 170.9 284.661 170.9C318.631 170.9 346.122 198.391 346.122 232.361Z" fill="#2375DE" fill-opacity="0.18"/>
<path fill-rule="evenodd" clip-rule="evenodd" d="M284.66 301.7C246.488 301.7 215.32 270.707 215.32 232.36C215.32 194.188 246.488 163.021 284.66 163.021C322.832 163.021 354 194.188 354 232.36C354 270.707 322.832 301.7 284.66 301.7ZM284.66 166.523C248.414 166.523 218.822 196.115 218.822 232.36C218.822 268.781 248.414 298.198 284.66 298.198C320.906 298.198 350.498 268.781 350.498 232.36C350.498 196.115 320.906 166.523 284.66 166.523Z" fill="#2375DE" fill-opacity="0.66"/>
<path d="M251.28 224.66L260.25 215.284C260.882 214.607 261.39 214.009 261.773 213.49C262.179 212.949 262.473 212.441 262.653 211.967C262.834 211.471 262.924 210.974 262.924 210.478C262.924 209.485 262.597 208.706 261.942 208.142C261.311 207.578 260.487 207.296 259.472 207.296C258.434 207.296 257.508 207.567 256.696 208.108C255.906 208.65 255.161 209.507 254.462 210.681L251.314 208.007C252.262 206.405 253.435 205.197 254.834 204.385C256.256 203.55 257.881 203.133 259.708 203.133C261.265 203.133 262.619 203.437 263.77 204.046C264.944 204.656 265.846 205.502 266.478 206.585C267.11 207.668 267.426 208.932 267.426 210.376C267.426 211.346 267.302 212.226 267.054 213.016C266.828 213.806 266.433 214.596 265.869 215.386C265.327 216.153 264.571 217.022 263.601 217.992L257.068 224.66H251.28ZM251.28 227.3V224.66L255.207 223.306H267.934V227.3H251.28ZM279.67 227.639C277.797 227.639 276.105 227.131 274.593 226.116C273.081 225.1 271.874 223.667 270.971 221.817C270.091 219.966 269.651 217.811 269.651 215.352C269.651 212.892 270.091 210.748 270.971 208.921C271.851 207.093 273.036 205.671 274.525 204.656C276.037 203.64 277.718 203.133 279.568 203.133C281.464 203.133 283.156 203.64 284.646 204.656C286.158 205.671 287.354 207.104 288.234 208.954C289.114 210.782 289.554 212.937 289.554 215.42C289.554 217.879 289.114 220.034 288.234 221.885C287.354 223.712 286.169 225.134 284.68 226.149C283.19 227.142 281.52 227.639 279.67 227.639ZM279.602 223.475C280.685 223.475 281.622 223.171 282.412 222.562C283.202 221.952 283.811 221.05 284.24 219.854C284.691 218.658 284.917 217.168 284.917 215.386C284.917 213.603 284.691 212.114 284.24 210.918C283.811 209.722 283.19 208.83 282.378 208.244C281.588 207.634 280.652 207.33 279.568 207.33C278.508 207.33 277.583 207.634 276.793 208.244C276.003 208.83 275.383 209.722 274.931 210.918C274.503 212.091 274.288 213.569 274.288 215.352C274.288 217.157 274.503 218.658 274.931 219.854C275.383 221.05 276.003 221.952 276.793 222.562C277.583 223.171 278.519 223.475 279.602 223.475Z" fill="white"/>
<path d="M295.109 227.3V222.646H295.991V227.3H295.109ZM295.991 224.645L295.658 224.498C295.658 223.904 295.795 223.43 296.069 223.077C296.343 222.725 296.739 222.548 297.255 222.548C297.49 222.548 297.702 222.591 297.892 222.676C298.081 222.754 298.257 222.888 298.421 223.077L297.843 223.675C297.745 223.57 297.637 223.495 297.519 223.45C297.402 223.404 297.264 223.381 297.108 223.381C296.781 223.381 296.513 223.486 296.304 223.695C296.095 223.904 295.991 224.22 295.991 224.645ZM298.27 226.82L301.033 223.126H302.072L299.309 226.82H298.27ZM298.27 227.3V226.82L299.054 226.497H302.013V227.3H298.27ZM298.437 223.45V222.646H302.072V223.126L301.258 223.45H298.437ZM302.888 227.3V220.5H303.809V227.3H302.888ZM303.515 227.3V226.458H307.414V227.3H303.515ZM303.515 224.224V223.42H307.091V224.224H303.515ZM303.515 221.343V220.5H307.365V221.343H303.515ZM309.918 227.3V220.696H310.839V227.3H309.918ZM307.605 221.343V220.5H313.141V221.343H307.605ZM313.945 227.3V220.5H314.866V227.3H313.945ZM318.334 227.3V220.5H319.255V227.3H318.334ZM314.572 224.204V223.361H318.56V224.204H314.572Z" fill="white"/>
<path d="M262.903 246.384C262.274 246.384 261.69 246.273 261.151 246.053C260.612 245.824 260.139 245.51 259.73 245.11C259.33 244.702 259.02 244.228 258.8 243.689C258.587 243.15 258.481 242.571 258.481 241.95C258.481 241.329 258.587 240.75 258.8 240.211C259.02 239.672 259.33 239.202 259.73 238.802C260.139 238.402 260.608 238.088 261.139 237.859C261.678 237.631 262.266 237.516 262.903 237.516C263.588 237.516 264.193 237.631 264.715 237.859C265.238 238.08 265.699 238.386 266.099 238.778L264.972 239.905C264.736 239.643 264.446 239.439 264.103 239.292C263.76 239.145 263.36 239.072 262.903 239.072C262.502 239.072 262.135 239.141 261.8 239.28C261.474 239.411 261.188 239.607 260.943 239.868C260.698 240.121 260.51 240.427 260.38 240.786C260.249 241.138 260.184 241.525 260.184 241.95C260.184 242.383 260.249 242.775 260.38 243.126C260.51 243.477 260.698 243.783 260.943 244.044C261.188 244.298 261.474 244.493 261.8 244.632C262.135 244.771 262.502 244.84 262.903 244.84C263.384 244.84 263.797 244.767 264.14 244.62C264.491 244.473 264.785 244.265 265.021 243.995L266.148 245.122C265.748 245.522 265.283 245.833 264.752 246.053C264.221 246.273 263.605 246.384 262.903 246.384ZM269.515 246.384C268.918 246.384 268.38 246.249 267.898 245.98C267.424 245.702 267.045 245.33 266.759 244.865C266.481 244.391 266.342 243.865 266.342 243.285C266.342 242.705 266.481 242.187 266.759 241.73C267.036 241.264 267.416 240.897 267.898 240.627C268.38 240.35 268.914 240.211 269.502 240.211C270.107 240.211 270.645 240.35 271.119 240.627C271.601 240.897 271.98 241.264 272.258 241.73C272.536 242.187 272.674 242.705 272.674 243.285C272.674 243.865 272.536 244.391 272.258 244.865C271.98 245.33 271.601 245.702 271.119 245.98C270.645 246.249 270.111 246.384 269.515 246.384ZM269.502 244.889C269.804 244.889 270.07 244.824 270.298 244.694C270.535 244.555 270.715 244.367 270.837 244.13C270.968 243.885 271.033 243.608 271.033 243.297C271.033 242.987 270.968 242.713 270.837 242.477C270.707 242.24 270.527 242.056 270.298 241.926C270.07 241.787 269.804 241.717 269.502 241.717C269.208 241.717 268.947 241.787 268.718 241.926C268.49 242.056 268.31 242.24 268.18 242.477C268.049 242.713 267.984 242.987 267.984 243.297C267.984 243.608 268.049 243.885 268.18 244.13C268.31 244.367 268.49 244.555 268.718 244.694C268.947 244.824 269.208 244.889 269.502 244.889ZM273.462 246.261V237.406H275.067V246.261H273.462ZM276.244 246.261V237.406H277.848V246.261H276.244ZM281.499 246.384C280.96 246.384 280.474 246.249 280.041 245.98C279.608 245.71 279.27 245.343 279.025 244.877C278.78 244.412 278.657 243.889 278.657 243.31C278.657 242.722 278.78 242.195 279.025 241.73C279.27 241.264 279.608 240.897 280.041 240.627C280.474 240.358 280.96 240.223 281.499 240.223C281.923 240.223 282.303 240.309 282.638 240.48C282.973 240.652 283.238 240.893 283.434 241.203C283.638 241.505 283.748 241.848 283.765 242.232V244.363C283.748 244.755 283.638 245.102 283.434 245.404C283.238 245.706 282.973 245.947 282.638 246.127C282.303 246.298 281.923 246.384 281.499 246.384ZM281.793 244.902C282.242 244.902 282.605 244.755 282.883 244.461C283.16 244.159 283.299 243.771 283.299 243.297C283.299 242.987 283.234 242.713 283.103 242.477C282.981 242.232 282.805 242.044 282.577 241.913C282.356 241.774 282.095 241.705 281.793 241.705C281.499 241.705 281.237 241.774 281.009 241.913C280.788 242.044 280.613 242.232 280.482 242.477C280.36 242.713 280.298 242.987 280.298 243.297C280.298 243.616 280.36 243.897 280.482 244.142C280.613 244.379 280.788 244.567 281.009 244.706C281.237 244.836 281.499 244.902 281.793 244.902ZM283.213 246.261V244.669L283.471 243.224L283.213 241.803V240.346H284.806V246.261H283.213ZM286.85 246.261V237.884H288.454V246.261H286.85ZM285.466 241.754V240.346H289.838V241.754H285.466ZM293.181 246.384C292.561 246.384 292.009 246.253 291.528 245.992C291.046 245.722 290.662 245.355 290.376 244.889C290.099 244.424 289.96 243.893 289.96 243.297C289.96 242.709 290.095 242.187 290.364 241.73C290.642 241.264 291.017 240.897 291.491 240.627C291.965 240.35 292.491 240.211 293.071 240.211C293.643 240.211 294.145 240.341 294.577 240.603C295.018 240.856 295.361 241.207 295.606 241.656C295.859 242.097 295.986 242.599 295.986 243.163C295.986 243.269 295.978 243.379 295.961 243.493C295.953 243.599 295.933 243.722 295.9 243.861L290.928 243.873V242.673L295.153 242.66L294.504 243.163C294.488 242.811 294.422 242.517 294.308 242.281C294.202 242.044 294.043 241.864 293.83 241.742C293.626 241.611 293.373 241.546 293.071 241.546C292.753 241.546 292.475 241.619 292.238 241.766C292.001 241.905 291.818 242.105 291.687 242.366C291.564 242.62 291.503 242.922 291.503 243.273C291.503 243.632 291.569 243.946 291.699 244.216C291.838 244.477 292.034 244.681 292.287 244.828C292.54 244.967 292.834 245.036 293.169 245.036C293.471 245.036 293.745 244.987 293.99 244.889C294.234 244.783 294.447 244.628 294.626 244.424L295.569 245.367C295.284 245.702 294.933 245.955 294.516 246.127C294.108 246.298 293.663 246.384 293.181 246.384ZM296.733 246.261V240.346H298.338V246.261H296.733ZM298.338 242.991L297.713 242.575C297.787 241.848 297.999 241.276 298.35 240.86C298.701 240.435 299.207 240.223 299.869 240.223C300.154 240.223 300.412 240.272 300.64 240.37C300.869 240.46 301.077 240.611 301.265 240.823L300.261 241.975C300.171 241.877 300.061 241.803 299.93 241.754C299.807 241.705 299.665 241.681 299.501 241.681C299.158 241.681 298.877 241.791 298.656 242.011C298.444 242.224 298.338 242.55 298.338 242.991ZM303.89 246.384C303.351 246.384 302.865 246.249 302.433 245.98C302 245.71 301.661 245.343 301.416 244.877C301.171 244.412 301.049 243.889 301.049 243.31C301.049 242.722 301.171 242.195 301.416 241.73C301.661 241.264 302 240.897 302.433 240.627C302.865 240.358 303.351 240.223 303.89 240.223C304.315 240.223 304.694 240.309 305.029 240.48C305.364 240.652 305.629 240.893 305.825 241.203C306.029 241.505 306.14 241.848 306.156 242.232V244.363C306.14 244.755 306.029 245.102 305.825 245.404C305.629 245.706 305.364 245.947 305.029 246.127C304.694 246.298 304.315 246.384 303.89 246.384ZM304.184 244.902C304.633 244.902 304.997 244.755 305.274 244.461C305.552 244.159 305.691 243.771 305.691 243.297C305.691 242.987 305.625 242.713 305.495 242.477C305.372 242.232 305.197 242.044 304.968 241.913C304.747 241.774 304.486 241.705 304.184 241.705C303.89 241.705 303.629 241.774 303.4 241.913C303.18 242.044 303.004 242.232 302.874 242.477C302.751 242.713 302.69 242.987 302.69 243.297C302.69 243.616 302.751 243.897 302.874 244.142C303.004 244.379 303.18 244.567 303.4 244.706C303.629 244.836 303.89 244.902 304.184 244.902ZM305.605 246.261V244.669L305.862 243.224L305.605 241.803V240.346H307.197V246.261H305.605ZM308.371 246.261V237.406H309.976V246.261H308.371ZM270.018 261.384C269.324 261.384 268.728 261.265 268.229 261.029C267.74 260.792 267.295 260.437 266.894 259.963L267.997 258.861C268.25 259.195 268.544 259.457 268.879 259.645C269.213 259.824 269.622 259.914 270.103 259.914C270.536 259.914 270.879 259.828 271.132 259.657C271.393 259.485 271.524 259.249 271.524 258.946C271.524 258.685 271.451 258.473 271.304 258.31C271.157 258.146 270.961 258.007 270.716 257.893C270.479 257.779 270.214 257.677 269.92 257.587C269.634 257.489 269.344 257.379 269.05 257.256C268.764 257.134 268.499 256.983 268.254 256.803C268.017 256.615 267.825 256.378 267.678 256.093C267.531 255.799 267.458 255.431 267.458 254.99C267.458 254.468 267.584 254.023 267.838 253.655C268.091 253.288 268.438 253.006 268.879 252.81C269.32 252.614 269.818 252.516 270.373 252.516C270.961 252.516 271.491 252.627 271.965 252.847C272.439 253.067 272.826 253.353 273.129 253.704L272.026 254.807C271.773 254.529 271.512 254.325 271.242 254.194C270.981 254.064 270.683 253.998 270.348 253.998C269.965 253.998 269.662 254.072 269.442 254.219C269.222 254.366 269.111 254.578 269.111 254.856C269.111 255.092 269.185 255.284 269.332 255.431C269.479 255.578 269.671 255.705 269.907 255.811C270.152 255.917 270.418 256.019 270.704 256.117C270.997 256.215 271.287 256.325 271.573 256.448C271.867 256.57 272.132 256.73 272.369 256.926C272.614 257.121 272.81 257.375 272.957 257.685C273.104 257.987 273.178 258.363 273.178 258.812C273.178 259.612 272.896 260.241 272.332 260.698C271.769 261.155 270.997 261.384 270.018 261.384ZM274.945 261.261V252.884H276.55V261.261H274.945ZM273.561 256.754V255.346H277.934V256.754H273.561ZM280.922 261.384C280.383 261.384 279.897 261.249 279.464 260.98C279.031 260.71 278.693 260.343 278.448 259.877C278.203 259.412 278.08 258.889 278.08 258.31C278.08 257.722 278.203 257.195 278.448 256.73C278.693 256.264 279.031 255.897 279.464 255.627C279.897 255.358 280.383 255.223 280.922 255.223C281.346 255.223 281.726 255.309 282.061 255.48C282.396 255.652 282.661 255.893 282.857 256.203C283.061 256.505 283.171 256.848 283.188 257.232V259.363C283.171 259.755 283.061 260.102 282.857 260.404C282.661 260.706 282.396 260.947 282.061 261.127C281.726 261.298 281.346 261.384 280.922 261.384ZM281.216 259.902C281.665 259.902 282.028 259.755 282.306 259.461C282.583 259.159 282.722 258.771 282.722 258.297C282.722 257.987 282.657 257.713 282.526 257.477C282.404 257.232 282.228 257.044 282 256.913C281.779 256.774 281.518 256.705 281.216 256.705C280.922 256.705 280.66 256.774 280.432 256.913C280.211 257.044 280.036 257.232 279.905 257.477C279.783 257.713 279.721 257.987 279.721 258.297C279.721 258.616 279.783 258.897 279.905 259.142C280.036 259.379 280.211 259.567 280.432 259.706C280.66 259.836 280.922 259.902 281.216 259.902ZM282.636 261.261V259.669L282.894 258.224L282.636 256.803V255.346H284.229V261.261H282.636ZM289.175 261.261L286.885 258.212L289.163 255.346H291.013L288.343 258.579L288.404 257.795L291.135 261.261H289.175ZM285.403 261.261V252.406H287.008V261.261H285.403ZM294.183 261.384C293.562 261.384 293.011 261.253 292.53 260.992C292.048 260.722 291.664 260.355 291.378 259.889C291.101 259.424 290.962 258.893 290.962 258.297C290.962 257.709 291.097 257.187 291.366 256.73C291.644 256.264 292.019 255.897 292.493 255.627C292.966 255.35 293.493 255.211 294.073 255.211C294.644 255.211 295.146 255.341 295.579 255.603C296.02 255.856 296.363 256.207 296.608 256.656C296.861 257.097 296.988 257.599 296.988 258.163C296.988 258.269 296.98 258.379 296.963 258.493C296.955 258.599 296.935 258.722 296.902 258.861L291.929 258.873V257.673L296.155 257.66L295.506 258.163C295.489 257.811 295.424 257.517 295.31 257.281C295.204 257.044 295.044 256.864 294.832 256.742C294.628 256.611 294.375 256.546 294.073 256.546C293.754 256.546 293.477 256.619 293.24 256.766C293.003 256.905 292.819 257.105 292.689 257.366C292.566 257.62 292.505 257.922 292.505 258.273C292.505 258.632 292.57 258.946 292.701 259.216C292.84 259.477 293.036 259.681 293.289 259.828C293.542 259.967 293.836 260.036 294.171 260.036C294.473 260.036 294.746 259.987 294.991 259.889C295.236 259.783 295.449 259.628 295.628 259.424L296.571 260.367C296.286 260.702 295.934 260.955 295.518 261.127C295.11 261.298 294.665 261.384 294.183 261.384ZM300.234 261.384C299.687 261.384 299.197 261.249 298.764 260.98C298.331 260.71 297.988 260.343 297.735 259.877C297.49 259.412 297.368 258.889 297.368 258.31C297.368 257.722 297.49 257.195 297.735 256.73C297.988 256.264 298.327 255.897 298.752 255.627C299.184 255.358 299.678 255.223 300.234 255.223C300.658 255.223 301.038 255.309 301.373 255.48C301.716 255.652 301.989 255.893 302.193 256.203C302.406 256.505 302.52 256.848 302.536 257.232V259.338C302.52 259.722 302.41 260.069 302.205 260.379C302.001 260.69 301.728 260.935 301.385 261.114C301.042 261.294 300.658 261.384 300.234 261.384ZM300.503 259.902C300.805 259.902 301.066 259.836 301.287 259.706C301.516 259.567 301.691 259.379 301.814 259.142C301.944 258.897 302.01 258.616 302.01 258.297C302.01 257.987 301.944 257.713 301.814 257.477C301.691 257.232 301.516 257.044 301.287 256.913C301.066 256.774 300.809 256.705 300.515 256.705C300.213 256.705 299.948 256.774 299.719 256.913C299.499 257.052 299.323 257.24 299.193 257.477C299.07 257.713 299.009 257.987 299.009 258.297C299.009 258.616 299.07 258.897 299.193 259.142C299.323 259.379 299.503 259.567 299.731 259.706C299.96 259.836 300.217 259.902 300.503 259.902ZM303.516 261.261H301.924V259.669L302.181 258.224L301.912 256.803V252.406H303.516V261.261Z" fill="white"/>
<path d="M408.199 107.716C408.199 113.397 403.556 117.992 397.924 117.992C392.243 117.992 387.648 113.397 387.648 107.716C387.648 102.084 392.243 97.4404 397.924 97.4404C403.556 97.4404 408.199 102.084 408.199 107.716Z" fill="#43B3CD"/>
<path d="M398.022 112.31C399.109 112.31 399.9 111.618 400.493 110.581C400.987 109.741 401.283 108.704 401.332 107.864C400.74 106.728 400.394 105.295 400.295 104.85C400.229 104.784 400.163 104.735 400.097 104.702C397.627 104.752 395.701 105.937 394.713 106.678C394.647 106.876 394.614 107.09 394.614 107.32C394.614 108.259 394.91 109.593 395.503 110.581C396.096 111.618 396.936 112.31 398.022 112.31Z" fill="white"/>
<path d="M391.108 115.324C394.912 118.584 401.087 118.584 404.941 115.324C404.644 114.484 403.953 114.039 403.063 113.792C402.125 113.496 401.087 113.446 400.396 113.199C400.149 113.1 399.951 112.853 399.852 112.656C399.852 112.623 399.836 112.606 399.803 112.606C399.309 112.952 398.716 113.15 398.024 113.15C397.333 113.15 396.74 112.952 396.197 112.606C396.197 112.639 396.197 112.656 396.197 112.656C396.048 112.903 395.851 113.1 395.604 113.199C394.912 113.446 393.924 113.496 392.936 113.792C392.096 114.039 391.355 114.484 391.108 115.324Z" fill="#E6E6E6"/>
<path fill-rule="evenodd" clip-rule="evenodd" d="M405.68 115.768C404.247 117.102 402.469 117.942 400.592 118.337C400.46 118.403 400.328 118.436 400.197 118.436C396.738 119.078 392.984 118.189 390.316 115.768C390.217 115.67 390.168 115.571 390.168 115.423C390.168 115.423 390.168 115.077 390.464 114.632C390.662 114.187 390.958 113.891 391.304 113.644C391.337 113.644 391.354 113.628 391.354 113.595C391.584 113.43 391.831 113.298 392.095 113.199C392.045 112.854 391.354 109.544 392.687 105.344C394.12 100.898 398.023 101.145 398.023 101.145C398.023 101.145 400.592 101.046 402.469 103.615C404.346 106.135 404.247 109.395 403.902 113.15C404.791 113.545 405.581 114.237 405.828 115.373C405.878 115.521 405.828 115.67 405.68 115.768ZM394.614 107.321C394.614 108.259 394.911 109.593 395.503 110.581C396.096 111.619 396.936 112.31 398.023 112.31C399.11 112.31 399.9 111.619 400.493 110.581C400.987 109.741 401.283 108.704 401.333 107.864C400.74 106.728 400.394 105.295 400.295 104.85C400.229 104.785 400.164 104.735 400.098 104.702C397.628 104.752 395.701 105.937 394.713 106.678C394.647 106.876 394.614 107.09 394.614 107.321ZM400.691 112.36C400.756 112.393 400.839 112.425 400.938 112.458C400.839 112.425 400.74 112.376 400.641 112.31C400.691 112.36 400.691 112.36 400.691 112.36ZM395.602 113.199C394.911 113.446 393.923 113.496 392.934 113.792C392.095 114.039 391.354 114.484 391.107 115.324C394.911 118.584 401.086 118.584 404.939 115.324C404.643 114.484 403.951 114.039 403.062 113.792C402.123 113.496 401.086 113.446 400.394 113.199C400.147 113.101 399.95 112.854 399.851 112.656C399.851 112.623 399.834 112.607 399.801 112.607C399.307 112.952 398.714 113.15 398.023 113.15C397.331 113.15 396.738 112.952 396.195 112.607C396.195 112.64 396.195 112.656 396.195 112.656C396.047 112.903 395.849 113.101 395.602 113.199Z" fill="#5059AB"/>
<path d="M383.309 133.282C382.817 133.282 382.378 133.196 381.991 133.023C381.61 132.843 381.288 132.584 381.025 132.245L381.69 131.58C381.849 131.823 382.067 132.016 382.344 132.162C382.627 132.3 382.942 132.369 383.288 132.369C383.613 132.369 383.897 132.307 384.139 132.182C384.388 132.058 384.582 131.885 384.72 131.663C384.865 131.435 384.938 131.165 384.938 130.854C384.938 130.536 384.869 130.266 384.731 130.044C384.592 129.823 384.405 129.657 384.17 129.546C383.942 129.429 383.689 129.37 383.412 129.37C383.129 129.37 382.869 129.404 382.634 129.474C382.406 129.543 382.188 129.66 381.98 129.826L381.991 129.204C382.108 129.058 382.243 128.941 382.395 128.851C382.548 128.761 382.721 128.692 382.914 128.643C383.108 128.595 383.333 128.571 383.589 128.571C384.087 128.571 384.509 128.674 384.855 128.882C385.201 129.09 385.464 129.37 385.644 129.723C385.831 130.076 385.924 130.47 385.924 130.906C385.924 131.362 385.81 131.771 385.582 132.13C385.36 132.49 385.052 132.774 384.658 132.982C384.264 133.182 383.814 133.282 383.309 133.282ZM381.98 129.826L381.451 129.297L381.773 125.976H382.665L382.302 129.391L381.98 129.826ZM381.97 126.848L381.773 125.976H385.561V126.848H381.97ZM388.571 133.179V128.249H389.505V133.179H388.571ZM389.505 130.366L389.152 130.21C389.152 129.581 389.297 129.079 389.588 128.706C389.878 128.332 390.297 128.145 390.844 128.145C391.093 128.145 391.318 128.19 391.518 128.28C391.719 128.363 391.906 128.505 392.079 128.706L391.466 129.339C391.363 129.228 391.248 129.148 391.124 129.1C390.999 129.052 390.854 129.027 390.688 129.027C390.342 129.027 390.058 129.138 389.837 129.359C389.616 129.581 389.505 129.916 389.505 130.366ZM391.919 132.67L394.846 128.758H395.946L393.019 132.67H391.919ZM391.919 133.179V132.67L392.749 132.328H395.884V133.179H391.919ZM392.096 129.1V128.249H395.946V128.758L395.085 129.1H392.096ZM396.81 133.179V125.976H397.786V133.179H396.81ZM397.474 133.179V132.286H401.605V133.179H397.474ZM397.474 129.92V129.069H401.262V129.92H397.474ZM397.474 126.869V125.976H401.553V126.869H397.474ZM404.256 133.179V126.184H405.232V133.179H404.256ZM401.807 126.869V125.976H407.671V126.869H401.807ZM408.522 133.179V125.976H409.497V133.179H408.522ZM413.171 133.179V125.976H414.147V133.179H413.171ZM409.186 129.899V129.007H413.41V129.899H409.186Z" fill="white" fill-opacity="0.7"/>
<rect x="374" y="93.2999" width="47.2" height="47.2" rx="4.78919" stroke="#D9D9D9" stroke-opacity="0.5" stroke-width="0.799999"/>
<path d="M176.703 107.502C176.703 113.065 172.062 117.564 166.324 117.564C160.586 117.564 155.946 113.065 155.946 107.502C155.946 101.939 160.586 97.4404 166.324 97.4404C172.062 97.4404 176.703 101.939 176.703 107.502Z" fill="#3AA6B2"/>
<path d="M166.425 111.952C167.522 111.952 168.321 111.275 168.919 110.308C169.418 109.485 169.718 108.469 169.818 107.599C169.219 106.486 168.82 105.083 168.72 104.648C168.653 104.616 168.603 104.567 168.57 104.503C166.025 104.599 164.08 105.712 163.082 106.486C163.048 106.68 163.032 106.889 163.032 107.115C163.032 108.034 163.331 109.292 163.93 110.308C164.479 111.275 165.327 111.952 166.425 111.952Z" fill="white"/>
<path d="M159.44 114.903C163.332 118.144 169.519 118.144 173.411 114.903C173.111 114.081 172.413 113.694 171.515 113.403C170.567 113.113 169.519 113.113 168.82 112.823C168.571 112.726 168.371 112.533 168.272 112.291C168.272 112.291 168.272 112.275 168.272 112.242C167.723 112.581 167.124 112.823 166.425 112.823C165.727 112.823 165.128 112.581 164.629 112.291C164.596 112.291 164.579 112.307 164.579 112.339C164.479 112.533 164.28 112.726 164.03 112.823C163.332 113.113 162.284 113.113 161.336 113.403C160.438 113.694 159.739 114.081 159.44 114.903Z" fill="#E6E6E6"/>
<path fill-rule="evenodd" clip-rule="evenodd" d="M174.208 115.387C172.711 116.645 170.965 117.515 169.069 117.902C168.936 117.935 168.786 117.967 168.62 117.999C165.127 118.628 161.335 117.757 158.641 115.387C158.541 115.29 158.491 115.145 158.491 115.048C158.491 115.048 158.491 114.661 158.79 114.226C158.99 113.839 159.339 113.5 159.688 113.258C159.955 113.097 160.204 112.952 160.437 112.823C160.387 112.484 159.688 109.243 161.036 105.132C162.483 100.826 166.424 101.068 166.424 101.068C166.424 101.068 169.069 100.971 170.965 103.438C172.861 105.906 172.711 109.147 172.362 112.823C173.26 113.21 174.059 113.839 174.308 114.951C174.358 115.097 174.308 115.29 174.208 115.387ZM163.032 107.115C163.032 108.034 163.331 109.292 163.93 110.308C164.479 111.275 165.327 111.952 166.424 111.952C167.522 111.952 168.321 111.275 168.919 110.308C169.418 109.485 169.718 108.469 169.817 107.599C169.219 106.486 168.819 105.083 168.72 104.648C168.653 104.616 168.603 104.567 168.57 104.503C166.025 104.599 164.079 105.712 163.081 106.486C163.048 106.68 163.032 106.889 163.032 107.115ZM169.119 112.049C169.185 112.049 169.269 112.065 169.368 112.097C169.269 112.065 169.185 112.033 169.119 112.001C169.119 112.049 169.119 112.049 169.119 112.049ZM164.029 112.823C163.331 113.113 162.283 113.113 161.335 113.404C160.437 113.694 159.738 114.081 159.439 114.903C163.331 118.144 169.518 118.144 173.41 114.903C173.111 114.081 172.412 113.694 171.514 113.404C170.566 113.113 169.518 113.113 168.819 112.823C168.57 112.726 168.37 112.533 168.271 112.291C168.271 112.291 168.271 112.275 168.271 112.243C167.722 112.581 167.123 112.823 166.424 112.823C165.726 112.823 165.127 112.581 164.628 112.291C164.595 112.291 164.578 112.307 164.578 112.339C164.478 112.533 164.279 112.726 164.029 112.823Z" fill="#5059AB"/>
<path d="M151.709 132.841C151.218 132.841 150.778 132.755 150.391 132.582C150.01 132.402 149.689 132.142 149.426 131.803L150.09 131.139C150.249 131.381 150.467 131.575 150.744 131.72C151.027 131.859 151.342 131.928 151.688 131.928C152.013 131.928 152.297 131.866 152.539 131.741C152.788 131.616 152.982 131.443 153.12 131.222C153.266 130.994 153.338 130.724 153.338 130.413C153.338 130.094 153.269 129.824 153.131 129.603C152.992 129.382 152.805 129.216 152.57 129.105C152.342 128.987 152.089 128.928 151.813 128.928C151.529 128.928 151.269 128.963 151.034 129.032C150.806 129.101 150.588 129.219 150.38 129.385L150.391 128.762C150.508 128.617 150.643 128.499 150.796 128.41C150.948 128.32 151.121 128.25 151.314 128.202C151.508 128.154 151.733 128.129 151.989 128.129C152.487 128.129 152.909 128.233 153.255 128.441C153.601 128.648 153.864 128.928 154.044 129.281C154.231 129.634 154.324 130.029 154.324 130.464C154.324 130.921 154.21 131.329 153.982 131.689C153.76 132.049 153.452 132.333 153.058 132.54C152.664 132.741 152.214 132.841 151.709 132.841ZM150.38 129.385L149.851 128.856L150.173 125.535H151.065L150.702 128.949L150.38 129.385ZM150.37 126.406L150.173 125.535H153.961V126.406H150.37ZM156.971 132.737V127.808H157.905V132.737H156.971ZM157.905 129.925L157.552 129.769C157.552 129.139 157.697 128.638 157.988 128.264C158.279 127.891 158.697 127.704 159.244 127.704C159.493 127.704 159.718 127.749 159.918 127.839C160.119 127.922 160.306 128.064 160.479 128.264L159.866 128.897C159.763 128.787 159.649 128.707 159.524 128.659C159.399 128.61 159.254 128.586 159.088 128.586C158.742 128.586 158.458 128.697 158.237 128.918C158.016 129.139 157.905 129.475 157.905 129.925ZM160.319 132.229L163.246 128.316H164.346L161.419 132.229H160.319ZM160.319 132.737V132.229L161.15 131.886H164.284V132.737H160.319ZM160.496 128.659V127.808H164.346V128.316L163.485 128.659H160.496ZM165.21 132.737V125.535H166.186V132.737H165.21ZM165.874 132.737V131.845H170.005V132.737H165.874ZM165.874 129.478V128.627H169.663V129.478H165.874ZM165.874 126.427V125.535H169.953V126.427H165.874ZM172.656 132.737V125.742H173.632V132.737H172.656ZM170.207 126.427V125.535H176.071V126.427H170.207ZM176.922 132.737V125.535H177.898V132.737H176.922ZM181.571 132.737V125.535H182.547V132.737H181.571ZM177.586 129.458V128.565H181.81V129.458H177.586Z" fill="white" fill-opacity="0.7"/>
<rect x="142.4" y="93.3001" width="47.2" height="47.2" rx="4.78919" stroke="#D9D9D9" stroke-opacity="0.5" stroke-width="0.799999"/>
<path d="M206 116.9L206.474 116.533L206.294 116.3H206V116.9ZM235.324 155.495C235.653 155.537 235.953 155.305 235.995 154.976L236.678 149.619C236.72 149.291 236.488 148.99 236.159 148.948C235.831 148.906 235.53 149.139 235.488 149.467L234.881 154.229L230.119 153.621C229.791 153.579 229.49 153.812 229.448 154.14C229.406 154.469 229.639 154.77 229.967 154.812L235.324 155.495ZM193.6 117.5H206V116.3H193.6V117.5ZM205.525 117.267L234.925 155.267L235.874 154.533L206.474 116.533L205.525 117.267Z" fill="url(#paint0_linear_2586_2027)"/>
<path d="M357.6 116.9L357.125 116.533L357.306 116.3H357.6V116.9ZM328.276 155.495C327.947 155.537 327.647 155.305 327.605 154.976L326.921 149.619C326.879 149.291 327.112 148.99 327.441 148.948C327.769 148.906 328.07 149.139 328.112 149.467L328.719 154.229L333.481 153.621C333.809 153.579 334.11 153.812 334.152 154.14C334.194 154.469 333.961 154.77 333.633 154.812L328.276 155.495ZM370 117.5H357.6V116.3H370V117.5ZM358.075 117.267L328.675 155.267L327.725 154.533L357.125 116.533L358.075 117.267Z" fill="url(#paint1_linear_2586_2027)"/>
<path d="M408.703 338.28C408.703 343.847 404.03 348.32 398.324 348.32C392.619 348.32 387.946 343.847 387.946 338.28C387.946 332.761 392.619 328.241 398.324 328.241C404.03 328.241 408.703 332.761 408.703 338.28Z" fill="#34D6AF"/>
<path d="M395.816 341.135C396.406 342.134 397.242 342.801 398.325 342.801C399.407 342.801 400.243 342.134 400.833 341.135C401.423 340.136 401.718 338.899 401.718 337.947C401.718 336.758 401.079 335.711 400.095 335.14C398.177 336.901 396.062 337.043 395.078 336.996C394.98 337.313 394.931 337.63 394.931 337.947C394.931 338.899 395.226 340.136 395.816 341.135Z" fill="white"/>
<path d="M391.34 345.75C395.226 348.938 401.424 348.938 405.309 345.75C405.014 344.942 404.326 344.513 403.44 344.275C402.457 343.99 401.424 343.942 400.735 343.657C400.489 343.562 400.292 343.371 400.194 343.134C400.194 343.134 400.178 343.118 400.145 343.086C399.653 343.419 399.013 343.657 398.325 343.657C397.636 343.657 397.046 343.467 396.505 343.134C396.505 343.134 396.489 343.149 396.456 343.181C396.357 343.371 396.161 343.562 395.915 343.657C395.226 343.942 394.193 343.99 393.209 344.275C392.324 344.513 391.635 344.942 391.34 345.75Z" fill="#E6E6E6"/>
<path fill-rule="evenodd" clip-rule="evenodd" d="M406.096 346.226C404.62 347.511 402.801 348.367 400.882 348.748C400.849 348.748 400.817 348.748 400.784 348.748C397.242 349.462 393.308 348.653 390.553 346.226C390.455 346.131 390.406 345.988 390.406 345.893C390.406 345.893 390.406 345.512 390.701 345.084C390.947 344.608 391.291 344.275 391.684 344.037C392.078 343.752 392.521 343.562 392.963 343.466C394.045 343.133 395.226 343.038 395.619 342.896C395.619 342.848 395.668 342.848 395.718 342.8C395.75 342.737 395.767 342.642 395.767 342.515C395.472 342.198 395.209 341.833 394.98 341.421L394.586 340.659C394.554 340.532 394.521 340.421 394.488 340.326C394.439 340.326 393.062 340.231 392.914 338.946C392.766 337.662 393.603 337.376 393.603 337.376C393.406 333.713 396.406 331.905 398.521 331.952C400.587 331.952 401.374 333.522 401.374 333.522C401.374 333.522 402.259 333.665 402.751 334.807C403.243 335.949 402.801 337.471 402.801 337.471C402.801 337.471 403.489 337.757 403.292 338.946C403.096 340.136 402.21 340.326 402.21 340.326H402.161C402.03 340.739 401.833 341.151 401.571 341.563C401.374 341.88 401.145 342.182 400.882 342.467C400.915 342.626 400.948 342.737 400.981 342.8C401.03 342.896 401.03 342.896 401.03 342.896C401.423 343.038 402.604 343.133 403.686 343.466C404.768 343.8 405.948 344.466 406.244 345.798C406.244 345.941 406.194 346.083 406.096 346.226ZM395.078 336.996C394.98 337.313 394.931 337.63 394.931 337.947C394.931 338.899 395.226 340.136 395.816 341.135C396.406 342.134 397.242 342.8 398.325 342.8C399.407 342.8 400.243 342.134 400.833 341.135C401.423 340.136 401.718 338.899 401.718 337.947C401.718 336.758 401.079 335.711 400.095 335.14C398.177 336.9 396.062 337.043 395.078 336.996ZM395.914 343.657C395.226 343.942 394.193 343.99 393.209 344.275C392.324 344.513 391.635 344.941 391.34 345.75C395.226 348.938 401.423 348.938 405.309 345.75C405.014 344.941 404.325 344.513 403.44 344.275C402.456 343.99 401.423 343.942 400.735 343.657C400.489 343.562 400.292 343.371 400.194 343.133C400.194 343.133 400.177 343.118 400.144 343.086C399.653 343.419 399.013 343.657 398.325 343.657C397.636 343.657 397.046 343.466 396.505 343.133C396.505 343.133 396.488 343.149 396.455 343.181C396.357 343.371 396.16 343.562 395.914 343.657Z" fill="#5059AB"/>
<path d="M383.709 363.642C383.218 363.642 382.778 363.555 382.391 363.382C382.01 363.203 381.689 362.943 381.426 362.604L382.09 361.94C382.249 362.182 382.467 362.376 382.744 362.521C383.028 362.659 383.342 362.729 383.688 362.729C384.014 362.729 384.297 362.666 384.539 362.542C384.788 362.417 384.982 362.244 385.121 362.023C385.266 361.795 385.338 361.525 385.338 361.213C385.338 360.895 385.269 360.625 385.131 360.404C384.993 360.182 384.806 360.016 384.57 359.906C384.342 359.788 384.09 359.729 383.813 359.729C383.529 359.729 383.27 359.764 383.034 359.833C382.806 359.902 382.588 360.02 382.381 360.186L382.391 359.563C382.509 359.418 382.644 359.3 382.796 359.21C382.948 359.12 383.121 359.051 383.315 359.003C383.508 358.954 383.733 358.93 383.989 358.93C384.487 358.93 384.91 359.034 385.255 359.241C385.601 359.449 385.864 359.729 386.044 360.082C386.231 360.435 386.324 360.829 386.324 361.265C386.324 361.722 386.21 362.13 385.982 362.49C385.761 362.85 385.453 363.133 385.058 363.341C384.664 363.542 384.214 363.642 383.709 363.642ZM382.381 360.186L381.851 359.657L382.173 356.335H383.066L382.702 359.75L382.381 360.186ZM382.37 357.207L382.173 356.335H385.961V357.207H382.37ZM388.971 363.538V358.608H389.905V363.538H388.971ZM389.905 360.726L389.552 360.57C389.552 359.94 389.698 359.439 389.988 359.065C390.279 358.691 390.697 358.505 391.244 358.505C391.493 358.505 391.718 358.55 391.919 358.639C392.119 358.723 392.306 358.864 392.479 359.065L391.867 359.698C391.763 359.587 391.649 359.508 391.524 359.459C391.4 359.411 391.254 359.387 391.088 359.387C390.742 359.387 390.459 359.497 390.237 359.719C390.016 359.94 389.905 360.276 389.905 360.726ZM392.319 363.03L395.246 359.117H396.346L393.42 363.03H392.319ZM392.319 363.538V363.03L393.15 362.687H396.284V363.538H392.319ZM392.496 359.459V358.608H396.346V359.117L395.485 359.459H392.496ZM397.21 363.538V356.335H398.186V363.538H397.21ZM397.875 363.538V362.646H402.005V363.538H397.875ZM397.875 360.279V359.428H401.663V360.279H397.875ZM397.875 357.228V356.335H401.953V357.228H397.875ZM404.657 363.538V356.543H405.632V363.538H404.657ZM402.207 357.228V356.335H408.071V357.228H402.207ZM408.922 363.538V356.335H409.898V363.538H408.922ZM413.572 363.538V356.335H414.547V363.538H413.572ZM409.586 360.259V359.366H413.81V360.259H409.586Z" fill="white" fill-opacity="0.7"/>
<rect x="374.4" y="324.1" width="47.2" height="47.2" rx="4.78919" stroke="#D9D9D9" stroke-opacity="0.5" stroke-width="0.799999"/>
<path d="M176.703 339.432C176.703 344.956 172.012 349.424 166.324 349.424C160.586 349.424 155.946 344.956 155.946 339.432C155.946 333.956 160.586 329.441 166.324 329.441C172.012 329.441 176.703 333.956 176.703 339.432Z" fill="#7295BD"/>
<path d="M163.831 342.218C164.429 343.227 165.277 343.899 166.375 343.899C167.523 343.899 168.321 343.227 168.92 342.218C169.519 341.257 169.868 339.96 169.868 339C169.868 337.799 169.169 336.742 168.171 336.166C166.226 337.943 164.08 338.087 163.082 338.039C162.982 338.359 162.932 338.679 162.932 339C162.932 339.96 163.232 341.257 163.831 342.218Z" fill="white"/>
<path d="M159.291 346.877C163.233 350.144 169.52 350.144 173.461 346.877C173.162 346.061 172.464 345.676 171.565 345.388C170.568 345.1 169.52 345.052 168.821 344.812C168.572 344.716 168.372 344.476 168.272 344.235C167.723 344.572 167.075 344.764 166.376 344.764C165.678 344.764 165.079 344.572 164.53 344.235C164.53 344.267 164.53 344.283 164.53 344.283C164.38 344.524 164.181 344.716 163.931 344.812C163.233 345.052 162.185 345.1 161.187 345.388C160.339 345.676 159.59 346.061 159.291 346.877Z" fill="#CCCCCC"/>
<path fill-rule="evenodd" clip-rule="evenodd" d="M174.259 347.358C172.762 348.655 170.916 349.52 168.97 349.904C168.937 349.936 168.903 349.952 168.87 349.952C165.278 350.673 161.336 349.808 158.492 347.358C158.392 347.262 158.342 347.166 158.342 347.022C158.342 347.022 158.342 346.638 158.641 346.205C158.891 345.773 159.24 345.437 159.639 345.149C160.038 344.909 160.488 344.716 160.937 344.572C162.034 344.236 163.232 344.14 163.631 343.996C163.681 343.996 163.681 343.996 163.731 343.9C163.764 343.836 163.781 343.74 163.781 343.612C163.481 343.291 163.215 342.939 162.982 342.555L162.583 341.738C162.55 341.642 162.517 341.546 162.483 341.45C162.483 341.45 161.086 341.354 160.887 340.009C160.737 338.712 161.635 338.424 161.635 338.424C161.386 334.725 164.479 332.9 166.575 332.948C168.671 332.948 169.469 334.533 169.469 334.533C169.469 334.533 170.367 334.677 170.916 335.83C171.415 337.031 170.916 338.568 170.916 338.568C170.916 338.568 171.614 338.856 171.415 340.009C171.215 341.21 170.317 341.45 170.317 341.45V341.402C170.151 341.85 169.951 342.267 169.718 342.651C169.519 343.003 169.286 343.323 169.02 343.612C169.02 343.74 169.036 343.836 169.07 343.9C169.12 343.996 169.12 343.996 169.169 343.996C169.569 344.14 170.716 344.236 171.814 344.572C172.962 344.909 174.109 345.581 174.409 346.926C174.458 347.118 174.409 347.262 174.259 347.358ZM163.082 338.039C162.982 338.36 162.932 338.68 162.932 339C162.932 339.961 163.232 341.258 163.831 342.219C164.429 343.227 165.278 343.9 166.375 343.9C167.523 343.9 168.321 343.227 168.92 342.219C169.519 341.258 169.868 339.961 169.868 339C169.868 337.799 169.169 336.743 168.172 336.166C166.226 337.943 164.08 338.087 163.082 338.039ZM163.93 344.812C163.232 345.053 162.184 345.101 161.186 345.389C160.338 345.677 159.589 346.061 159.29 346.878C163.232 350.144 169.519 350.144 173.461 346.878C173.161 346.061 172.463 345.677 171.564 345.389C170.567 345.101 169.519 345.053 168.82 344.812C168.571 344.716 168.371 344.476 168.271 344.236C167.722 344.572 167.074 344.764 166.375 344.764C165.677 344.764 165.078 344.572 164.529 344.236C164.529 344.268 164.529 344.284 164.529 344.284C164.379 344.524 164.18 344.716 163.93 344.812Z" fill="#5059AB"/>
<path d="M151.709 364.842C151.218 364.842 150.778 364.756 150.391 364.583C150.01 364.403 149.689 364.143 149.426 363.804L150.09 363.14C150.249 363.382 150.467 363.576 150.744 363.721C151.027 363.86 151.342 363.929 151.688 363.929C152.013 363.929 152.297 363.866 152.539 363.742C152.788 363.617 152.982 363.444 153.12 363.223C153.266 362.995 153.338 362.725 153.338 362.414C153.338 362.095 153.269 361.825 153.131 361.604C152.992 361.383 152.805 361.217 152.57 361.106C152.342 360.988 152.089 360.929 151.813 360.929C151.529 360.929 151.269 360.964 151.034 361.033C150.806 361.102 150.588 361.22 150.38 361.386L150.391 360.763C150.508 360.618 150.643 360.5 150.796 360.41C150.948 360.321 151.121 360.251 151.314 360.203C151.508 360.154 151.733 360.13 151.989 360.13C152.487 360.13 152.909 360.234 153.255 360.442C153.601 360.649 153.864 360.929 154.044 361.282C154.231 361.635 154.324 362.03 154.324 362.465C154.324 362.922 154.21 363.33 153.982 363.69C153.76 364.05 153.452 364.334 153.058 364.541C152.664 364.742 152.214 364.842 151.709 364.842ZM150.38 361.386L149.851 360.857L150.173 357.536H151.065L150.702 360.95L150.38 361.386ZM150.37 358.407L150.173 357.536H153.961V358.407H150.37ZM156.971 364.738V359.809H157.905V364.738H156.971ZM157.905 361.926L157.552 361.77C157.552 361.14 157.697 360.639 157.988 360.265C158.279 359.892 158.697 359.705 159.244 359.705C159.493 359.705 159.718 359.75 159.918 359.84C160.119 359.923 160.306 360.065 160.479 360.265L159.866 360.898C159.763 360.788 159.649 360.708 159.524 360.66C159.399 360.611 159.254 360.587 159.088 360.587C158.742 360.587 158.458 360.698 158.237 360.919C158.016 361.14 157.905 361.476 157.905 361.926ZM160.319 364.23L163.246 360.317H164.346L161.419 364.23H160.319ZM160.319 364.738V364.23L161.15 363.887H164.284V364.738H160.319ZM160.496 360.66V359.809H164.346V360.317L163.485 360.66H160.496ZM165.21 364.738V357.536H166.186V364.738H165.21ZM165.874 364.738V363.846H170.005V364.738H165.874ZM165.874 361.479V360.628H169.663V361.479H165.874ZM165.874 358.428V357.536H169.953V358.428H165.874ZM172.656 364.738V357.743H173.632V364.738H172.656ZM170.207 358.428V357.536H176.071V358.428H170.207ZM176.922 364.738V357.536H177.898V364.738H176.922ZM181.571 364.738V357.536H182.547V364.738H181.571ZM177.586 361.459V360.566H181.81V361.459H177.586Z" fill="white" fill-opacity="0.7"/>
<rect x="142.4" y="325.3" width="47.2" height="47.2" rx="4.78919" stroke="#D9D9D9" stroke-opacity="0.5" stroke-width="0.799999"/>
<path d="M206 347.7L206.474 348.067L206.294 348.3H206V347.7ZM235.324 309.105C235.653 309.063 235.953 309.296 235.995 309.624L236.678 314.981C236.72 315.31 236.488 315.61 236.159 315.652C235.831 315.694 235.53 315.461 235.488 315.133L234.881 310.371L230.119 310.979C229.791 311.021 229.49 310.788 229.448 310.46C229.406 310.131 229.639 309.83 229.967 309.789L235.324 309.105ZM193.6 347.1H206V348.3H193.6V347.1ZM205.525 347.333L234.925 309.333L235.874 310.067L206.474 348.067L205.525 347.333Z" fill="url(#paint2_linear_2586_2027)"/>
<path d="M357.6 347.7L357.125 348.067L357.306 348.3H357.6V347.7ZM328.276 309.105C327.947 309.063 327.647 309.296 327.605 309.624L326.921 314.981C326.879 315.31 327.112 315.61 327.441 315.652C327.769 315.694 328.07 315.461 328.112 315.133L328.719 310.371L333.481 310.979C333.809 311.021 334.11 310.788 334.152 310.46C334.194 310.131 333.961 309.83 333.633 309.789L328.276 309.105ZM370 347.1H357.6V348.3H370V347.1ZM358.075 347.333L328.675 309.333L327.725 310.067L357.125 348.067L358.075 347.333Z" fill="url(#paint3_linear_2586_2027)"/>
<path d="M151.283 158.996C150.79 158.996 150.349 158.888 149.958 158.67C149.574 158.446 149.27 158.142 149.046 157.758C148.822 157.368 148.71 156.926 148.71 156.433V152.238H149.613V156.414C149.613 156.766 149.686 157.07 149.834 157.326C149.981 157.582 150.179 157.78 150.429 157.921C150.685 158.062 150.97 158.132 151.283 158.132C151.61 158.132 151.894 158.062 152.138 157.921C152.387 157.78 152.582 157.582 152.723 157.326C152.87 157.07 152.944 156.769 152.944 156.424V152.238H153.856V156.443C153.856 156.936 153.744 157.374 153.52 157.758C153.296 158.142 152.992 158.446 152.608 158.67C152.224 158.888 151.782 158.996 151.283 158.996ZM156.444 158.996C156.188 158.996 155.945 158.964 155.715 158.9C155.491 158.83 155.283 158.734 155.091 158.612C154.899 158.484 154.732 158.334 154.592 158.161L155.148 157.604C155.315 157.809 155.507 157.963 155.724 158.065C155.942 158.161 156.185 158.209 156.454 158.209C156.723 158.209 156.931 158.164 157.078 158.075C157.225 157.979 157.299 157.848 157.299 157.681C157.299 157.515 157.238 157.387 157.116 157.297C157.001 157.201 156.851 157.124 156.665 157.067C156.48 157.003 156.281 156.942 156.07 156.884C155.865 156.82 155.67 156.74 155.484 156.644C155.299 156.548 155.145 156.417 155.024 156.251C154.908 156.084 154.851 155.864 154.851 155.588C154.851 155.313 154.918 155.076 155.052 154.878C155.187 154.673 155.372 154.516 155.609 154.408C155.852 154.299 156.144 154.244 156.483 154.244C156.841 154.244 157.158 154.308 157.433 154.436C157.715 154.558 157.945 154.744 158.124 154.993L157.568 155.55C157.44 155.384 157.28 155.256 157.088 155.166C156.902 155.076 156.691 155.032 156.454 155.032C156.204 155.032 156.012 155.076 155.878 155.166C155.75 155.249 155.686 155.368 155.686 155.521C155.686 155.675 155.744 155.793 155.859 155.876C155.974 155.96 156.124 156.03 156.31 156.088C156.502 156.145 156.7 156.206 156.905 156.27C157.11 156.328 157.305 156.408 157.491 156.51C157.676 156.612 157.827 156.75 157.942 156.923C158.064 157.096 158.124 157.323 158.124 157.604C158.124 158.033 157.971 158.372 157.664 158.622C157.363 158.872 156.956 158.996 156.444 158.996ZM161.012 158.996C160.557 158.996 160.148 158.894 159.783 158.689C159.418 158.478 159.13 158.193 158.919 157.835C158.708 157.476 158.602 157.07 158.602 156.616C158.602 156.168 158.704 155.764 158.909 155.406C159.12 155.048 159.402 154.766 159.754 154.561C160.112 154.35 160.512 154.244 160.954 154.244C161.376 154.244 161.748 154.34 162.068 154.532C162.394 154.724 162.647 154.99 162.826 155.329C163.012 155.668 163.104 156.052 163.104 156.481C163.104 156.545 163.101 156.616 163.095 156.692C163.088 156.763 163.076 156.846 163.056 156.942H159.207V156.222H162.596L162.279 156.5C162.279 156.193 162.224 155.934 162.116 155.723C162.007 155.505 161.853 155.339 161.655 155.224C161.456 155.102 161.216 155.041 160.935 155.041C160.64 155.041 160.381 155.105 160.157 155.233C159.933 155.361 159.76 155.54 159.639 155.771C159.517 156.001 159.456 156.273 159.456 156.587C159.456 156.907 159.52 157.188 159.648 157.432C159.776 157.668 159.959 157.854 160.196 157.988C160.432 158.116 160.704 158.18 161.012 158.18C161.268 158.18 161.501 158.136 161.712 158.046C161.93 157.956 162.116 157.822 162.269 157.643L162.826 158.209C162.608 158.465 162.34 158.66 162.02 158.795C161.706 158.929 161.37 158.996 161.012 158.996ZM163.854 158.9V154.34H164.718V158.9H163.854ZM164.718 156.299L164.392 156.155C164.392 155.572 164.526 155.108 164.795 154.763C165.064 154.417 165.451 154.244 165.957 154.244C166.187 154.244 166.395 154.286 166.581 154.369C166.766 154.446 166.939 154.577 167.099 154.763L166.533 155.348C166.437 155.246 166.331 155.172 166.216 155.128C166.101 155.083 165.966 155.06 165.813 155.06C165.493 155.06 165.23 155.163 165.026 155.368C164.821 155.572 164.718 155.883 164.718 156.299ZM172.024 158.996C171.524 158.996 171.067 158.856 170.651 158.574C170.241 158.292 169.915 157.896 169.672 157.384C169.428 156.865 169.307 156.257 169.307 155.56C169.307 154.862 169.425 154.257 169.662 153.745C169.905 153.233 170.232 152.84 170.641 152.564C171.051 152.283 171.502 152.142 171.995 152.142C172.5 152.142 172.958 152.283 173.368 152.564C173.777 152.84 174.1 153.233 174.337 153.745C174.58 154.257 174.702 154.865 174.702 155.569C174.702 156.267 174.58 156.875 174.337 157.393C174.1 157.905 173.777 158.302 173.368 158.584C172.964 158.859 172.516 158.996 172.024 158.996ZM172.004 158.142C172.356 158.142 172.664 158.046 172.926 157.854C173.195 157.656 173.406 157.364 173.56 156.98C173.713 156.596 173.79 156.123 173.79 155.56C173.79 154.996 173.713 154.526 173.56 154.148C173.406 153.764 173.195 153.476 172.926 153.284C172.657 153.086 172.347 152.987 171.995 152.987C171.649 152.987 171.342 153.086 171.073 153.284C170.804 153.476 170.593 153.764 170.44 154.148C170.292 154.526 170.219 154.996 170.219 155.56C170.219 156.123 170.292 156.596 170.44 156.98C170.593 157.364 170.804 157.656 171.073 157.854C171.342 158.046 171.652 158.142 172.004 158.142ZM176.624 158.9V152.238H177.517V158.9H176.624ZM175.261 153.044V152.238H177.421V153.044H175.261Z" fill="white" fill-opacity="0.6"/>
<path d="M150.083 390.196C149.591 390.196 149.149 390.087 148.759 389.869C148.375 389.645 148.071 389.341 147.847 388.957C147.623 388.567 147.511 388.125 147.511 387.632V383.437H148.413V387.613C148.413 387.965 148.487 388.269 148.634 388.525C148.781 388.781 148.979 388.98 149.229 389.12C149.485 389.261 149.77 389.332 150.083 389.332C150.41 389.332 150.695 389.261 150.938 389.12C151.187 388.98 151.383 388.781 151.523 388.525C151.671 388.269 151.744 387.968 151.744 387.623V383.437H152.656V387.642C152.656 388.135 152.544 388.573 152.32 388.957C152.096 389.341 151.792 389.645 151.408 389.869C151.024 390.087 150.583 390.196 150.083 390.196ZM155.245 390.196C154.989 390.196 154.745 390.164 154.515 390.1C154.291 390.029 154.083 389.933 153.891 389.812C153.699 389.684 153.533 389.533 153.392 389.36L153.949 388.804C154.115 389.008 154.307 389.162 154.525 389.264C154.742 389.36 154.985 389.408 155.254 389.408C155.523 389.408 155.731 389.364 155.878 389.274C156.025 389.178 156.099 389.047 156.099 388.88C156.099 388.714 156.038 388.586 155.917 388.496C155.801 388.4 155.651 388.324 155.465 388.266C155.28 388.202 155.081 388.141 154.87 388.084C154.665 388.02 154.47 387.94 154.285 387.844C154.099 387.748 153.945 387.616 153.824 387.45C153.709 387.284 153.651 387.063 153.651 386.788C153.651 386.512 153.718 386.276 153.853 386.077C153.987 385.872 154.173 385.716 154.409 385.607C154.653 385.498 154.944 385.444 155.283 385.444C155.641 385.444 155.958 385.508 156.233 385.636C156.515 385.757 156.745 385.943 156.925 386.192L156.368 386.749C156.24 386.583 156.08 386.455 155.888 386.365C155.702 386.276 155.491 386.231 155.254 386.231C155.005 386.231 154.813 386.276 154.678 386.365C154.55 386.448 154.486 386.567 154.486 386.72C154.486 386.874 154.544 386.992 154.659 387.076C154.774 387.159 154.925 387.229 155.11 387.287C155.302 387.344 155.501 387.405 155.705 387.469C155.91 387.527 156.105 387.607 156.291 387.709C156.477 387.812 156.627 387.949 156.742 388.122C156.864 388.295 156.925 388.522 156.925 388.804C156.925 389.232 156.771 389.572 156.464 389.821C156.163 390.071 155.757 390.196 155.245 390.196ZM159.812 390.196C159.357 390.196 158.948 390.093 158.583 389.888C158.218 389.677 157.93 389.392 157.719 389.034C157.508 388.676 157.402 388.269 157.402 387.815C157.402 387.367 157.505 386.964 157.709 386.605C157.921 386.247 158.202 385.965 158.554 385.76C158.913 385.549 159.313 385.444 159.754 385.444C160.177 385.444 160.548 385.54 160.868 385.732C161.194 385.924 161.447 386.189 161.626 386.528C161.812 386.868 161.905 387.252 161.905 387.68C161.905 387.744 161.901 387.815 161.895 387.892C161.889 387.962 161.876 388.045 161.857 388.141H158.007V387.421H161.396L161.079 387.7C161.079 387.392 161.025 387.133 160.916 386.922C160.807 386.704 160.653 386.538 160.455 386.423C160.257 386.301 160.017 386.24 159.735 386.24C159.441 386.24 159.181 386.304 158.957 386.432C158.733 386.56 158.561 386.74 158.439 386.97C158.317 387.2 158.257 387.472 158.257 387.786C158.257 388.106 158.321 388.388 158.449 388.631C158.577 388.868 158.759 389.053 158.996 389.188C159.233 389.316 159.505 389.38 159.812 389.38C160.068 389.38 160.301 389.335 160.513 389.245C160.73 389.156 160.916 389.021 161.069 388.842L161.626 389.408C161.409 389.664 161.14 389.86 160.82 389.994C160.506 390.128 160.17 390.196 159.812 390.196ZM162.655 390.1V385.54H163.519V390.1H162.655ZM163.519 387.498L163.192 387.354C163.192 386.772 163.327 386.308 163.596 385.962C163.864 385.616 164.252 385.444 164.757 385.444C164.988 385.444 165.196 385.485 165.381 385.568C165.567 385.645 165.74 385.776 165.9 385.962L165.333 386.548C165.237 386.445 165.132 386.372 165.016 386.327C164.901 386.282 164.767 386.26 164.613 386.26C164.293 386.26 164.031 386.362 163.826 386.567C163.621 386.772 163.519 387.082 163.519 387.498ZM170.824 390.196C170.325 390.196 169.867 390.055 169.451 389.773C169.042 389.492 168.715 389.095 168.472 388.583C168.229 388.064 168.107 387.456 168.107 386.759C168.107 386.061 168.226 385.456 168.462 384.944C168.706 384.432 169.032 384.039 169.442 383.764C169.851 383.482 170.302 383.341 170.795 383.341C171.301 383.341 171.758 383.482 172.168 383.764C172.578 384.039 172.901 384.432 173.138 384.944C173.381 385.456 173.502 386.064 173.502 386.768C173.502 387.466 173.381 388.074 173.138 388.592C172.901 389.104 172.578 389.501 172.168 389.783C171.765 390.058 171.317 390.196 170.824 390.196ZM170.805 389.341C171.157 389.341 171.464 389.245 171.726 389.053C171.995 388.855 172.206 388.564 172.36 388.18C172.514 387.796 172.59 387.322 172.59 386.759C172.59 386.196 172.514 385.725 172.36 385.348C172.206 384.964 171.995 384.676 171.726 384.484C171.458 384.285 171.147 384.186 170.795 384.186C170.45 384.186 170.142 384.285 169.874 384.484C169.605 384.676 169.394 384.964 169.24 385.348C169.093 385.725 169.019 386.196 169.019 386.759C169.019 387.322 169.093 387.796 169.24 388.18C169.394 388.564 169.605 388.855 169.874 389.053C170.142 389.245 170.453 389.341 170.805 389.341ZM176.135 390.196C175.7 390.196 175.303 390.116 174.945 389.956C174.593 389.789 174.295 389.549 174.052 389.236L174.666 388.621C174.814 388.845 175.015 389.024 175.271 389.159C175.527 389.287 175.812 389.351 176.126 389.351C176.42 389.351 176.673 389.296 176.884 389.188C177.102 389.072 177.271 388.912 177.393 388.708C177.521 388.503 177.585 388.266 177.585 387.997C177.585 387.722 177.521 387.485 177.393 387.287C177.271 387.082 177.098 386.925 176.874 386.816C176.65 386.708 176.385 386.653 176.078 386.653C175.962 386.653 175.847 386.663 175.732 386.682C175.617 386.695 175.505 386.717 175.396 386.749L175.78 386.231C175.902 386.173 176.033 386.128 176.174 386.096C176.314 386.064 176.455 386.048 176.596 386.048C176.954 386.048 177.274 386.132 177.556 386.298C177.844 386.464 178.071 386.698 178.238 386.999C178.41 387.3 178.497 387.648 178.497 388.045C178.497 388.468 178.394 388.842 178.19 389.168C177.991 389.488 177.716 389.741 177.364 389.927C177.012 390.106 176.602 390.196 176.135 390.196ZM175.396 386.749V386.202L177.345 383.984L178.42 383.975L176.414 386.25L175.396 386.749ZM174.369 384.244V383.437H178.42V383.975L177.633 384.244H174.369Z" fill="white" fill-opacity="0.6"/>
<path d="M384.483 158.996C383.991 158.996 383.549 158.888 383.159 158.67C382.775 158.446 382.471 158.142 382.247 157.758C382.023 157.368 381.911 156.926 381.911 156.433V152.238H382.813V156.414C382.813 156.766 382.887 157.07 383.034 157.326C383.181 157.582 383.379 157.78 383.629 157.921C383.885 158.062 384.17 158.132 384.483 158.132C384.81 158.132 385.095 158.062 385.338 157.921C385.587 157.78 385.783 157.582 385.923 157.326C386.071 157.07 386.144 156.769 386.144 156.424V152.238H387.056V156.443C387.056 156.936 386.944 157.374 386.72 157.758C386.496 158.142 386.192 158.446 385.808 158.67C385.424 158.888 384.983 158.996 384.483 158.996ZM389.645 158.996C389.389 158.996 389.145 158.964 388.915 158.9C388.691 158.83 388.483 158.734 388.291 158.612C388.099 158.484 387.933 158.334 387.792 158.161L388.349 157.604C388.515 157.809 388.707 157.963 388.925 158.065C389.142 158.161 389.385 158.209 389.654 158.209C389.923 158.209 390.131 158.164 390.278 158.075C390.425 157.979 390.499 157.848 390.499 157.681C390.499 157.515 390.438 157.387 390.317 157.297C390.201 157.201 390.051 157.124 389.865 157.067C389.68 157.003 389.481 156.942 389.27 156.884C389.065 156.82 388.87 156.74 388.685 156.644C388.499 156.548 388.345 156.417 388.224 156.251C388.109 156.084 388.051 155.864 388.051 155.588C388.051 155.313 388.118 155.076 388.253 154.878C388.387 154.673 388.573 154.516 388.809 154.408C389.053 154.299 389.344 154.244 389.683 154.244C390.041 154.244 390.358 154.308 390.633 154.436C390.915 154.558 391.145 154.744 391.325 154.993L390.768 155.55C390.64 155.384 390.48 155.256 390.288 155.166C390.102 155.076 389.891 155.032 389.654 155.032C389.405 155.032 389.213 155.076 389.078 155.166C388.95 155.249 388.886 155.368 388.886 155.521C388.886 155.675 388.944 155.793 389.059 155.876C389.174 155.96 389.325 156.03 389.51 156.088C389.702 156.145 389.901 156.206 390.105 156.27C390.31 156.328 390.505 156.408 390.691 156.51C390.877 156.612 391.027 156.75 391.142 156.923C391.264 157.096 391.325 157.323 391.325 157.604C391.325 158.033 391.171 158.372 390.864 158.622C390.563 158.872 390.157 158.996 389.645 158.996ZM394.212 158.996C393.757 158.996 393.348 158.894 392.983 158.689C392.618 158.478 392.33 158.193 392.119 157.835C391.908 157.476 391.802 157.07 391.802 156.616C391.802 156.168 391.905 155.764 392.109 155.406C392.321 155.048 392.602 154.766 392.954 154.561C393.313 154.35 393.713 154.244 394.154 154.244C394.577 154.244 394.948 154.34 395.268 154.532C395.594 154.724 395.847 154.99 396.026 155.329C396.212 155.668 396.305 156.052 396.305 156.481C396.305 156.545 396.301 156.616 396.295 156.692C396.289 156.763 396.276 156.846 396.257 156.942H392.407V156.222H395.796L395.479 156.5C395.479 156.193 395.425 155.934 395.316 155.723C395.207 155.505 395.053 155.339 394.855 155.224C394.657 155.102 394.417 155.041 394.135 155.041C393.841 155.041 393.581 155.105 393.357 155.233C393.133 155.361 392.961 155.54 392.839 155.771C392.717 156.001 392.657 156.273 392.657 156.587C392.657 156.907 392.721 157.188 392.849 157.432C392.977 157.668 393.159 157.854 393.396 157.988C393.633 158.116 393.905 158.18 394.212 158.18C394.468 158.18 394.701 158.136 394.913 158.046C395.13 157.956 395.316 157.822 395.469 157.643L396.026 158.209C395.809 158.465 395.54 158.66 395.22 158.795C394.906 158.929 394.57 158.996 394.212 158.996ZM397.055 158.9V154.34H397.919V158.9H397.055ZM397.919 156.299L397.592 156.155C397.592 155.572 397.727 155.108 397.995 154.763C398.264 154.417 398.651 154.244 399.157 154.244C399.387 154.244 399.595 154.286 399.781 154.369C399.967 154.446 400.139 154.577 400.299 154.763L399.733 155.348C399.637 155.246 399.531 155.172 399.416 155.128C399.301 155.083 399.167 155.06 399.013 155.06C398.693 155.06 398.431 155.163 398.226 155.368C398.021 155.572 397.919 155.883 397.919 156.299ZM405.224 158.996C404.725 158.996 404.267 158.856 403.851 158.574C403.441 158.292 403.115 157.896 402.872 157.384C402.629 156.865 402.507 156.257 402.507 155.56C402.507 154.862 402.625 154.257 402.862 153.745C403.105 153.233 403.432 152.84 403.841 152.564C404.251 152.283 404.702 152.142 405.195 152.142C405.701 152.142 406.158 152.283 406.568 152.564C406.977 152.84 407.301 153.233 407.537 153.745C407.781 154.257 407.902 154.865 407.902 155.569C407.902 156.267 407.781 156.875 407.537 157.393C407.301 157.905 406.977 158.302 406.568 158.584C406.165 158.859 405.717 158.996 405.224 158.996ZM405.205 158.142C405.557 158.142 405.864 158.046 406.126 157.854C406.395 157.656 406.606 157.364 406.76 156.98C406.913 156.596 406.99 156.123 406.99 155.56C406.99 154.996 406.913 154.526 406.76 154.148C406.606 153.764 406.395 153.476 406.126 153.284C405.857 153.086 405.547 152.987 405.195 152.987C404.849 152.987 404.542 153.086 404.273 153.284C404.005 153.476 403.793 153.764 403.64 154.148C403.493 154.526 403.419 154.996 403.419 155.56C403.419 156.123 403.493 156.596 403.64 156.98C403.793 157.364 404.005 157.656 404.273 157.854C404.542 158.046 404.853 158.142 405.205 158.142ZM408.462 158.353L410.919 155.761C411.169 155.505 411.364 155.284 411.505 155.099C411.646 154.907 411.745 154.731 411.803 154.571C411.867 154.411 411.899 154.244 411.899 154.072C411.899 153.732 411.79 153.467 411.572 153.275C411.355 153.083 411.073 152.987 410.727 152.987C410.388 152.987 410.091 153.07 409.835 153.236C409.579 153.396 409.351 153.646 409.153 153.985L408.519 153.457C408.782 153.022 409.099 152.696 409.47 152.478C409.841 152.254 410.27 152.142 410.756 152.142C411.166 152.142 411.521 152.222 411.822 152.382C412.129 152.542 412.366 152.766 412.532 153.054C412.699 153.342 412.782 153.678 412.782 154.062C412.782 154.337 412.747 154.584 412.676 154.801C412.612 155.019 412.494 155.243 412.321 155.473C412.155 155.697 411.921 155.966 411.62 156.28L409.633 158.324L408.462 158.353ZM408.462 158.9V158.353L409.23 158.094H412.935V158.9H408.462Z" fill="white" fill-opacity="0.6"/>
<path d="M381.683 390.196C381.191 390.196 380.749 390.087 380.359 389.869C379.975 389.645 379.671 389.341 379.447 388.957C379.223 388.567 379.111 388.125 379.111 387.632V383.437H380.013V387.613C380.013 387.965 380.087 388.269 380.234 388.525C380.381 388.781 380.579 388.98 380.829 389.12C381.085 389.261 381.37 389.332 381.683 389.332C382.01 389.332 382.295 389.261 382.538 389.12C382.787 388.98 382.983 388.781 383.123 388.525C383.271 388.269 383.344 387.968 383.344 387.623V383.437H384.256V387.642C384.256 388.135 384.144 388.573 383.92 388.957C383.696 389.341 383.392 389.645 383.008 389.869C382.624 390.087 382.183 390.196 381.683 390.196ZM386.844 390.196C386.588 390.196 386.345 390.164 386.115 390.1C385.891 390.029 385.683 389.933 385.491 389.812C385.299 389.684 385.132 389.533 384.992 389.36L385.548 388.804C385.715 389.008 385.907 389.162 386.124 389.264C386.342 389.36 386.585 389.408 386.854 389.408C387.123 389.408 387.331 389.364 387.478 389.274C387.625 389.178 387.699 389.047 387.699 388.88C387.699 388.714 387.638 388.586 387.516 388.496C387.401 388.4 387.251 388.324 387.065 388.266C386.88 388.202 386.681 388.141 386.47 388.084C386.265 388.02 386.07 387.94 385.884 387.844C385.699 387.748 385.545 387.616 385.424 387.45C385.308 387.284 385.251 387.063 385.251 386.788C385.251 386.512 385.318 386.276 385.452 386.077C385.587 385.872 385.772 385.716 386.009 385.607C386.252 385.498 386.544 385.444 386.883 385.444C387.241 385.444 387.558 385.508 387.833 385.636C388.115 385.757 388.345 385.943 388.524 386.192L387.968 386.749C387.84 386.583 387.68 386.455 387.488 386.365C387.302 386.276 387.091 386.231 386.854 386.231C386.604 386.231 386.412 386.276 386.278 386.365C386.15 386.448 386.086 386.567 386.086 386.72C386.086 386.874 386.144 386.992 386.259 387.076C386.374 387.159 386.524 387.229 386.71 387.287C386.902 387.344 387.1 387.405 387.305 387.469C387.51 387.527 387.705 387.607 387.891 387.709C388.076 387.812 388.227 387.949 388.342 388.122C388.464 388.295 388.524 388.522 388.524 388.804C388.524 389.232 388.371 389.572 388.064 389.821C387.763 390.071 387.356 390.196 386.844 390.196ZM391.412 390.196C390.957 390.196 390.548 390.093 390.183 389.888C389.818 389.677 389.53 389.392 389.319 389.034C389.108 388.676 389.002 388.269 389.002 387.815C389.002 387.367 389.105 386.964 389.309 386.605C389.521 386.247 389.802 385.965 390.154 385.76C390.513 385.549 390.913 385.444 391.354 385.444C391.777 385.444 392.148 385.54 392.468 385.732C392.794 385.924 393.047 386.189 393.226 386.528C393.412 386.868 393.505 387.252 393.505 387.68C393.505 387.744 393.501 387.815 393.495 387.892C393.489 387.962 393.476 388.045 393.457 388.141H389.607V387.421H392.996L392.679 387.7C392.679 387.392 392.625 387.133 392.516 386.922C392.407 386.704 392.253 386.538 392.055 386.423C391.857 386.301 391.617 386.24 391.335 386.24C391.041 386.24 390.781 386.304 390.557 386.432C390.333 386.56 390.161 386.74 390.039 386.97C389.917 387.2 389.857 387.472 389.857 387.786C389.857 388.106 389.921 388.388 390.049 388.631C390.177 388.868 390.359 389.053 390.596 389.188C390.833 389.316 391.105 389.38 391.412 389.38C391.668 389.38 391.901 389.335 392.113 389.245C392.33 389.156 392.516 389.021 392.669 388.842L393.226 389.408C393.009 389.664 392.74 389.86 392.42 389.994C392.106 390.128 391.77 390.196 391.412 390.196ZM394.255 390.1V385.54H395.119V390.1H394.255ZM395.119 387.498L394.792 387.354C394.792 386.772 394.927 386.308 395.195 385.962C395.464 385.616 395.851 385.444 396.357 385.444C396.587 385.444 396.795 385.485 396.981 385.568C397.167 385.645 397.339 385.776 397.499 385.962L396.933 386.548C396.837 386.445 396.731 386.372 396.616 386.327C396.501 386.282 396.367 386.26 396.213 386.26C395.893 386.26 395.631 386.362 395.426 386.567C395.221 386.772 395.119 387.082 395.119 387.498ZM402.424 390.196C401.925 390.196 401.467 390.055 401.051 389.773C400.641 389.492 400.315 389.095 400.072 388.583C399.829 388.064 399.707 387.456 399.707 386.759C399.707 386.061 399.825 385.456 400.062 384.944C400.305 384.432 400.632 384.039 401.041 383.764C401.451 383.482 401.902 383.341 402.395 383.341C402.901 383.341 403.358 383.482 403.768 383.764C404.177 384.039 404.501 384.432 404.737 384.944C404.981 385.456 405.102 386.064 405.102 386.768C405.102 387.466 404.981 388.074 404.737 388.592C404.501 389.104 404.177 389.501 403.768 389.783C403.365 390.058 402.917 390.196 402.424 390.196ZM402.405 389.341C402.757 389.341 403.064 389.245 403.326 389.053C403.595 388.855 403.806 388.564 403.96 388.18C404.113 387.796 404.19 387.322 404.19 386.759C404.19 386.196 404.113 385.725 403.96 385.348C403.806 384.964 403.595 384.676 403.326 384.484C403.057 384.285 402.747 384.186 402.395 384.186C402.049 384.186 401.742 384.285 401.473 384.484C401.205 384.676 400.993 384.964 400.84 385.348C400.693 385.725 400.619 386.196 400.619 386.759C400.619 387.322 400.693 387.796 400.84 388.18C400.993 388.564 401.205 388.855 401.473 389.053C401.742 389.245 402.053 389.341 402.405 389.341ZM405.681 387.805L408.109 383.437H409.127L406.65 387.805H405.681ZM405.681 388.362V387.805L406.065 387.556H410.788V388.362H405.681ZM408.935 390.1V385.693H409.828V390.1H408.935Z" fill="white" fill-opacity="0.6"/>
<defs>
<linearGradient id="paint0_linear_2586_2027" x1="195.2" y1="116.9" x2="233.8" y2="152.1" gradientUnits="userSpaceOnUse">
<stop stop-color="#021225"/>
<stop offset="1" stop-color="white"/>
</linearGradient>
<linearGradient id="paint1_linear_2586_2027" x1="368.4" y1="116.9" x2="329.8" y2="152.1" gradientUnits="userSpaceOnUse">
<stop stop-color="#021225"/>
<stop offset="1" stop-color="white"/>
</linearGradient>
<linearGradient id="paint2_linear_2586_2027" x1="195.2" y1="347.7" x2="233.8" y2="312.5" gradientUnits="userSpaceOnUse">
<stop stop-color="#021225"/>
<stop offset="1" stop-color="white"/>
</linearGradient>
<linearGradient id="paint3_linear_2586_2027" x1="368.4" y1="347.7" x2="329.8" y2="312.5" gradientUnits="userSpaceOnUse">
<stop stop-color="#021225"/>
<stop offset="1" stop-color="white"/>
</linearGradient>
</defs>
</svg>
