<svg width="25" height="25" viewBox="0 0 25 25" fill="none" xmlns="http://www.w3.org/2000/svg">
<path d="M12.8789 15.2278C9.9685 16.7686 6.38065 16.2405 4.0661 13.9039C1.04599 10.8354 1.29884 5.88921 4.58584 3.12888C6.65075 1.40543 9.55848 0.943044 12.0588 1.90986C12.3585 2.03129 12.6535 2.16673 12.9438 2.31619C12.6816 2.18541 12.41 2.07334 12.129 1.97992C10.1625 1.27934 7.90089 1.55957 6.14501 2.69453C3.02658 4.6842 1.95901 8.73361 3.61655 12.0124C5.31918 15.4091 9.43443 16.911 12.8765 15.2264C12.8773 15.2269 12.8781 15.2273 12.8789 15.2278Z" fill="url(#paint0_linear_51_7431)"/>
<path d="M12.8831 15.2303C11.2214 16.2372 9.14225 16.5322 7.26881 16.0478C4.79654 15.4452 2.73163 13.4976 1.95904 11.0876C0.596485 6.87003 3.15304 2.37225 7.50761 1.41944C7.98521 1.30735 8.47686 1.2513 8.96851 1.23729C8.97234 1.23721 8.97618 1.23714 8.98002 1.23707C8.93155 1.23625 8.88299 1.23584 8.83432 1.23584C4.41553 1.23584 0.833313 4.62291 0.833313 8.80107C0.833313 12.9792 4.41553 16.3663 8.83432 16.3663C10.347 16.3663 11.7618 15.9694 12.9682 15.2796C12.9397 15.2633 12.9113 15.2469 12.8831 15.2303Z" fill="url(#paint1_linear_51_7431)"/>
<path d="M12.7827 2.21967C12.845 2.25319 12.9069 2.28748 12.9682 2.32253C12.8642 2.38199 12.7617 2.44364 12.6608 2.5074C12.7536 2.44165 12.8479 2.37789 12.9438 2.31619C12.8906 2.2833 12.8368 2.25113 12.7827 2.21967Z" fill="url(#paint2_linear_51_7431)"/>
<path d="M11.7446 14.42C10.5778 13.4834 9.6996 12.1677 9.30563 10.7233C8.37853 7.47253 9.89561 3.84347 12.9438 2.31619C11.0615 1.5035 8.85609 1.57358 7.04403 2.49836C3.30752 4.38995 2.05734 9.11193 4.33296 12.6009C6.1729 15.4234 9.76952 16.5212 12.8718 15.2236C12.8703 15.2228 12.8689 15.2219 12.8675 15.2211C10.0082 16.2515 6.87493 15.1004 5.2181 12.5728C3.5465 10.0367 3.72911 6.61779 5.69569 4.29183C6.67898 3.11484 8.09773 2.27413 9.61481 2.02192C10.7245 1.82576 11.9043 1.92386 12.9438 2.31619C11.6796 1.93787 10.3312 1.96587 9.08103 2.34419C8.35058 2.58239 7.64823 2.9467 7.04421 3.40909C3.19533 6.40761 3.70102 12.4327 8.01345 14.7306C9.49109 15.502 11.2537 15.6776 12.8611 15.2173C12.8584 15.2157 12.8557 15.2141 12.853 15.2125C10.62 15.6744 8.33054 14.8189 6.87533 13.0632C5.06327 10.9054 4.81042 7.75277 6.25726 5.32873C6.36964 5.14658 6.52416 4.90838 6.65058 4.74023C6.79105 4.54407 6.94557 4.36192 7.11413 4.17976C7.1527 4.13168 7.22435 4.06379 7.28821 4.00328C7.31739 3.97564 7.34495 3.94952 7.36698 3.92755C7.40912 3.88552 7.46881 3.83298 7.5285 3.78044C7.5882 3.72789 7.64792 3.67534 7.69006 3.6333C7.71344 3.61465 7.73837 3.59444 7.76331 3.57423C7.81325 3.53375 7.86331 3.49318 7.90076 3.46516L8.05528 3.35307L8.12552 3.29702C8.28004 3.18493 8.47669 3.05882 8.64525 2.96074C9.93758 2.24614 11.511 1.99392 12.9438 2.31619C11.497 2.12002 10.0078 2.41428 8.77168 3.17091C8.61716 3.269 8.43455 3.3951 8.28003 3.5072C8.23789 3.53522 8.11147 3.6333 8.06933 3.67534C7.99909 3.73138 7.88672 3.82947 7.81648 3.89953C4.9228 6.51973 4.97898 11.1857 7.9429 13.7358C9.26599 14.8906 11.0896 15.4249 12.8428 15.2065C12.8368 15.2029 12.8308 15.1993 12.8248 15.1957C10.2604 15.2275 7.98487 13.6151 7.04421 11.2417C6.07496 8.85971 6.5947 6.00131 8.42081 4.16576C8.99674 3.56326 9.71313 3.07284 10.4998 2.76459C11.2724 2.45633 12.115 2.28816 12.9438 2.31619C9.54444 2.48433 6.88968 5.3988 6.91778 8.76163C6.90392 12.1071 9.44693 14.948 12.8067 15.1848C12.788 15.1736 12.7694 15.1622 12.7508 15.1508C11.6432 14.8897 10.6071 14.3211 9.79711 13.5396C9.7339 13.4766 9.67068 13.4065 9.60747 13.3365C9.54426 13.2664 9.48105 13.1964 9.41784 13.1333C9.39488 13.1058 9.36592 13.0694 9.33487 13.0303L9.33469 13.03C9.27083 12.9496 9.19816 12.8581 9.15095 12.811C9.11041 12.7382 9.0605 12.6701 9.01205 12.604C8.97656 12.5555 8.94184 12.5081 8.91215 12.4607C8.88406 12.4187 8.84194 12.3522 8.79981 12.2857C8.75767 12.2191 8.71549 12.1525 8.6874 12.1104C8.66633 12.0684 8.6277 11.9948 8.58907 11.9213C8.55044 11.8477 8.51181 11.7742 8.49074 11.7321C8.46967 11.6901 8.43806 11.6165 8.40645 11.543C8.37485 11.4694 8.34324 11.3958 8.32217 11.3538C8.30812 11.3118 8.27652 11.2347 8.24491 11.1576C8.21332 11.0806 8.1817 11.0035 8.16766 10.9615C7.83053 9.99466 7.7322 8.94378 7.85862 7.92092C7.91481 7.45853 8.02719 6.99614 8.16766 6.54776C8.17327 6.53376 8.18169 6.51304 8.19179 6.48818C8.23225 6.38864 8.29969 6.22269 8.32217 6.15543C8.35026 6.07136 8.4486 5.86118 8.49074 5.77711C8.51181 5.74208 8.55044 5.66852 8.58907 5.59496C8.6277 5.5214 8.66633 5.44783 8.6874 5.4128C8.71549 5.36376 8.75763 5.29721 8.79977 5.23065C8.84191 5.1641 8.88405 5.09754 8.91215 5.0485C8.94726 4.99246 8.98939 4.93642 9.03153 4.88038C9.07366 4.82434 9.11584 4.76825 9.15095 4.71221C9.18598 4.67028 9.235 4.61091 9.28405 4.55149L9.28439 4.55108L9.28481 4.55058L9.28502 4.55032C9.33397 4.49103 9.38287 4.4318 9.41784 4.38994C9.46821 4.32294 9.52863 4.26094 9.58709 4.20096L9.58729 4.20075C9.62655 4.16046 9.66493 4.12107 9.69878 4.08168C9.74091 4.03966 9.79708 3.98713 9.85326 3.93459C9.90945 3.88205 9.96567 3.82947 10.0078 3.78744C10.0288 3.77172 10.0695 3.73641 10.1158 3.69617C10.1934 3.62878 10.2869 3.54753 10.3309 3.52121C10.654 3.269 11.0192 3.04481 11.3844 2.86266C11.8761 2.61045 12.41 2.42828 12.9438 2.31619C12.0869 2.59642 11.258 3.0308 10.5697 3.60528L10.4573 3.68935L10.359 3.77342L10.1623 3.95558L9.97972 4.15174C9.85329 4.27785 9.74092 4.41797 9.62854 4.55808C9.55831 4.64216 9.44594 4.79629 9.38975 4.88036C9.35463 4.93641 9.316 4.99245 9.27737 5.0485C9.23874 5.10455 9.20011 5.16059 9.16499 5.21664L9.02452 5.44083C8.99643 5.51089 8.94024 5.60897 8.8981 5.67903L8.78572 5.91723C8.76465 5.95926 8.73305 6.02932 8.70144 6.09938C8.66984 6.16944 8.63823 6.2395 8.61716 6.28154C8.4486 6.74393 8.30813 7.22033 8.23789 7.69673C8.23789 7.73016 8.23149 7.77316 8.2248 7.81813C8.21748 7.86738 8.2098 7.919 8.2098 7.96295L8.1817 8.22917C8.17468 8.30624 8.17116 8.40082 8.16765 8.4954C8.16414 8.58998 8.16063 8.68456 8.1536 8.76162C8.16063 8.83869 8.16414 8.93327 8.16765 9.02785C8.17116 9.12243 8.17468 9.21701 8.1817 9.29407C8.1817 9.31509 8.18872 9.38515 8.19575 9.45521C8.20277 9.52526 8.2098 9.59533 8.2098 9.61634C8.22384 9.65838 8.23789 9.77047 8.23789 9.81251C8.29408 10.1768 8.39241 10.5131 8.49074 10.8494C8.51883 10.9194 8.55044 11.0105 8.58204 11.1016C8.61365 11.1927 8.64525 11.2837 8.67335 11.3538L8.8981 11.8302C8.9262 11.9003 8.98238 12.0124 9.02452 12.0684L9.16499 12.3066C9.23523 12.4187 9.30547 12.5308 9.38975 12.6429C9.44594 12.727 9.55831 12.8811 9.62854 12.9652L9.88139 13.2594C9.92536 13.3033 9.9808 13.3624 10.0338 13.4188L10.0341 13.4192L10.0343 13.4194C10.0826 13.471 10.1289 13.5203 10.1623 13.5537C10.2185 13.5957 10.415 13.7917 10.4573 13.8338C11.1163 14.3901 11.867 14.8209 12.6781 15.1057C12.349 14.8988 12.037 14.6694 11.7446 14.42Z" fill="url(#paint3_linear_51_7431)"/>
<path d="M12.7878 10.7219C15.6982 9.18112 19.286 9.70919 21.6006 12.0458C24.6207 15.1143 24.3679 20.0605 21.0809 22.8208C19.0159 24.5443 16.1082 25.0067 13.6078 24.0398C13.3082 23.9184 13.0132 23.783 12.7229 23.6335C12.9851 23.7643 13.2567 23.8764 13.5376 23.9698C15.5042 24.6704 17.7658 24.3901 19.5217 23.2552C22.6401 21.2655 23.7077 17.2161 22.0501 13.9373C20.3475 10.5406 16.2323 9.03875 12.7902 10.7233C12.7894 10.7228 12.7886 10.7224 12.7878 10.7219Z" fill="url(#paint4_linear_51_7431)"/>
<path d="M12.7836 10.7194C14.4453 9.71248 16.5244 9.41746 18.3979 9.90195C20.8701 10.5045 22.9351 12.4521 23.7076 14.8621C25.0702 19.0797 22.5136 23.5775 18.1591 24.5303C17.6815 24.6424 17.1898 24.6984 16.6982 24.7124C16.6943 24.7125 16.6905 24.7126 16.6867 24.7126C16.7351 24.7135 16.7837 24.7139 16.8324 24.7139C21.2512 24.7139 24.8334 21.3268 24.8334 17.1486C24.8334 12.9705 21.2512 9.5834 16.8324 9.5834C15.3197 9.5834 13.9049 9.98034 12.6985 10.6701C12.727 10.6864 12.7554 10.7028 12.7836 10.7194Z" fill="url(#paint5_linear_51_7431)"/>
<path d="M12.884 23.73C12.8216 23.6965 12.7598 23.6622 12.6985 23.6272C12.8025 23.5677 12.905 23.5061 13.0059 23.4423C12.9131 23.5081 12.8187 23.5718 12.7229 23.6335C12.7761 23.6664 12.8299 23.6986 12.884 23.73Z" fill="url(#paint6_linear_51_7431)"/>
<path d="M13.9221 11.5297C15.0889 12.4663 15.9671 13.782 16.3611 15.2264C17.2882 18.4772 15.7711 22.1062 12.7229 23.6335C14.6052 24.4462 16.8106 24.3761 18.6227 23.4513C22.3592 21.5598 23.6093 16.8378 21.3337 13.3488C19.4938 10.5263 15.8972 9.42847 12.7949 10.7261C12.7964 10.7269 12.7978 10.7278 12.7992 10.7286C15.6585 9.69818 18.7918 10.8493 20.4486 13.3769C22.1202 15.913 21.9376 19.3319 19.971 21.6579C18.9877 22.8349 17.569 23.6756 16.0519 23.9278C14.9422 24.124 13.7624 24.0258 12.7229 23.6335C13.9871 24.0118 15.3355 23.9838 16.5857 23.6055C17.3161 23.3673 18.0185 23.003 18.6225 22.5406C22.4714 19.5421 21.9657 13.517 17.6532 11.2191C16.1756 10.4477 14.413 10.2721 12.8056 10.7324C12.8083 10.734 12.811 10.7356 12.8137 10.7372C15.0467 10.2753 17.3361 11.1308 18.7914 12.8865C20.6034 15.0443 20.8563 18.1969 19.4094 20.621C19.297 20.8031 19.1425 21.0413 19.0161 21.2095C18.8756 21.4056 18.7211 21.5878 18.5526 21.7699C18.514 21.818 18.4423 21.8859 18.3785 21.9464C18.3493 21.9741 18.3217 22.0002 18.2997 22.0222C18.2576 22.0642 18.1979 22.1167 18.1382 22.1693C18.0785 22.2218 18.0188 22.2744 17.9766 22.3164C17.9533 22.3351 17.9283 22.3553 17.9034 22.3755C17.8534 22.416 17.8034 22.4565 17.7659 22.4845L17.6114 22.5966L17.5412 22.6527C17.3867 22.7648 17.19 22.8909 17.0214 22.989C15.7291 23.7036 14.1557 23.9558 12.7229 23.6335C14.1697 23.8297 15.6589 23.5354 16.895 22.7788C17.0495 22.6807 17.2321 22.5546 17.3867 22.4425C17.4288 22.4145 17.5552 22.3164 17.5974 22.2744C17.6676 22.2183 17.78 22.1202 17.8502 22.0502C20.7439 19.43 20.6877 14.764 17.7238 12.2139C16.4007 11.0591 14.5771 10.5248 12.8239 10.7433C12.8299 10.7468 12.8359 10.7504 12.8419 10.754C15.4062 10.7222 17.6818 12.3346 18.6225 14.708C19.5917 17.09 19.072 19.9484 17.2459 21.7839C16.6699 22.3865 15.9536 22.8769 15.1669 23.1851C14.3943 23.4934 13.5516 23.6615 12.7229 23.6335C16.1223 23.4654 18.777 20.5509 18.7489 17.1881C18.7628 13.8426 16.2198 11.0018 12.86 10.7649C12.8787 10.7762 12.8973 10.7875 12.9159 10.7989C14.0235 11.06 15.0596 11.6286 15.8696 12.4101C15.9328 12.4731 15.996 12.5432 16.0592 12.6132C16.1224 12.6833 16.1856 12.7534 16.2489 12.8164C16.2718 12.8439 16.3008 12.8804 16.3318 12.9194L16.332 12.9197C16.3959 13.0001 16.4685 13.0916 16.5157 13.1387C16.5563 13.2115 16.6062 13.2796 16.6546 13.3457C16.6901 13.3942 16.7248 13.4416 16.7545 13.489C16.7826 13.531 16.8247 13.5975 16.8669 13.6641C16.909 13.7306 16.9512 13.7972 16.9793 13.8393C17.0004 13.8813 17.039 13.9549 17.0776 14.0284C17.1163 14.102 17.1549 14.1755 17.176 14.2176C17.197 14.2596 17.2286 14.3332 17.2602 14.4067C17.2918 14.4803 17.3234 14.5539 17.3445 14.5959C17.3586 14.6379 17.3902 14.715 17.4218 14.7921C17.4534 14.8691 17.485 14.9462 17.499 14.9882C17.8362 15.955 17.9345 17.0059 17.8081 18.0288C17.7519 18.4912 17.6395 18.9536 17.499 19.4019C17.4934 19.4159 17.485 19.4367 17.4749 19.4615C17.4344 19.5611 17.367 19.727 17.3445 19.7943C17.3164 19.8783 17.2181 20.0885 17.176 20.1726C17.1549 20.2076 17.1163 20.2812 17.0776 20.3547C17.039 20.4283 17.0004 20.5019 16.9793 20.5369C16.9512 20.5859 16.9091 20.6525 16.8669 20.7191C16.8248 20.7856 16.7826 20.8522 16.7545 20.9012C16.7194 20.9572 16.6773 21.0133 16.6352 21.0693C16.593 21.1254 16.5509 21.1815 16.5157 21.2375C16.4807 21.2794 16.4317 21.3388 16.3826 21.3982L16.3823 21.3986L16.3819 21.3991L16.3817 21.3994C16.3327 21.4587 16.2838 21.5179 16.2489 21.5598C16.1985 21.6268 16.1381 21.6888 16.0796 21.7488L16.0794 21.749C16.0401 21.7892 16.0018 21.8286 15.9679 21.868C15.9258 21.91 15.8696 21.9626 15.8134 22.0151C15.7572 22.0677 15.701 22.1202 15.6589 22.1623C15.6379 22.178 15.5972 22.2133 15.5509 22.2535C15.4733 22.3209 15.3798 22.4022 15.3358 22.4285C15.0127 22.6807 14.6475 22.9049 14.2823 23.087C13.7906 23.3393 13.2567 23.5214 12.7229 23.6335C13.5797 23.3533 14.4087 22.9189 15.097 22.3444L15.2094 22.2604L15.3077 22.1763L15.5044 21.9941L15.687 21.798C15.8134 21.6719 15.9258 21.5317 16.0381 21.3916C16.1084 21.3076 16.2208 21.1534 16.2769 21.0694C16.3121 21.0133 16.3507 20.9573 16.3893 20.9012C16.4279 20.8452 16.4666 20.7891 16.5017 20.7331L16.6422 20.5089C16.6703 20.4388 16.7264 20.3407 16.7686 20.2707L16.881 20.0325C16.902 19.9904 16.9336 19.9204 16.9652 19.8503C16.9968 19.7803 17.0285 19.7102 17.0495 19.6682C17.2181 19.2058 17.3586 18.7294 17.4288 18.253C17.4288 18.2195 17.4352 18.1765 17.4419 18.1316C17.4492 18.0823 17.4569 18.0307 17.4569 17.9868L17.485 17.7205C17.492 17.6435 17.4955 17.5489 17.499 17.4543C17.5025 17.3597 17.5061 17.2651 17.5131 17.1881C17.5061 17.111 17.5025 17.0164 17.499 16.9219C17.4955 16.8273 17.492 16.7327 17.485 16.6556C17.485 16.6346 17.478 16.5646 17.4709 16.4945C17.4639 16.4244 17.4569 16.3544 17.4569 16.3334C17.4428 16.2913 17.4288 16.1792 17.4288 16.1372C17.3726 15.7729 17.2743 15.4366 17.176 15.1003C17.1479 15.0303 17.1163 14.9392 17.0846 14.8481C17.053 14.757 17.0214 14.666 16.9933 14.5959L16.7686 14.1195C16.7405 14.0494 16.6843 13.9373 16.6422 13.8813L16.5017 13.6431C16.4315 13.531 16.3612 13.4189 16.2769 13.3068C16.2208 13.2227 16.1084 13.0686 16.0381 12.9845L15.7853 12.6903C15.7413 12.6464 15.6859 12.5873 15.6329 12.5309L15.6326 12.5305L15.6324 12.5303C15.584 12.4787 15.5378 12.4294 15.5044 12.3961C15.4482 12.354 15.2517 12.158 15.2094 12.1159C14.5504 11.5596 13.7997 11.1288 12.9886 10.8441C13.3177 11.0509 13.6297 11.2803 13.9221 11.5297Z" fill="url(#paint7_linear_51_7431)"/>
<path d="M10.6842 12.8863C9.1261 10.0083 9.6601 6.46031 12.0229 4.17147C15.126 1.18492 20.1277 1.43496 22.9191 4.68544C24.6619 6.7274 25.1295 9.60283 24.1518 12.0754C24.029 12.3718 23.892 12.6635 23.7409 12.9505C23.8731 12.6913 23.9865 12.4227 24.0809 12.1448C24.7894 10.2001 24.506 7.96366 23.3583 6.22729C21.3463 3.1435 17.2514 2.08779 13.9358 3.72692C10.5009 5.41063 8.98213 9.48015 10.6856 12.884C10.6851 12.8848 10.6847 12.8855 10.6842 12.8863Z" fill="url(#paint8_linear_51_7431)"/>
<path d="M10.6817 12.8905C9.66343 11.2472 9.3651 9.19123 9.85503 7.3386C10.4643 4.8938 12.4338 2.85183 14.8709 2.08783C19.1359 0.740412 23.6842 3.26856 24.6477 7.57475C24.7611 8.04704 24.8177 8.53323 24.8319 9.01941C24.832 9.0232 24.8321 9.027 24.8321 9.03079C24.833 8.98287 24.8334 8.93484 24.8334 8.88672C24.8334 4.51703 21.4082 0.974609 17.1831 0.974609C12.958 0.974609 9.5329 4.51703 9.5329 8.88671C9.5329 10.3826 9.93431 11.7816 10.6318 12.9746C10.6483 12.9465 10.6649 12.9184 10.6817 12.8905Z" fill="url(#paint9_linear_51_7431)"/>
<path d="M23.8385 12.7912C23.8046 12.8529 23.7699 12.914 23.7345 12.9746C23.6743 12.8718 23.612 12.7704 23.5475 12.6707C23.614 12.7624 23.6785 12.8557 23.7409 12.9505C23.7741 12.8979 23.8067 12.8448 23.8385 12.7912Z" fill="url(#paint10_linear_51_7431)"/>
<path d="M11.5011 11.7646C12.4482 10.6109 13.7787 9.74238 15.2393 9.35279C18.5266 8.43599 22.1964 9.93622 23.7409 12.9505C24.5627 11.0892 24.4918 8.90824 23.5567 7.11631C21.6438 3.42133 16.8688 2.18504 13.3407 4.43537C10.4864 6.25487 9.37623 9.81152 10.6884 12.8793C10.6893 12.8779 10.6901 12.8765 10.691 12.875C9.64897 10.0476 10.813 6.9491 13.369 5.31067C15.9337 3.65765 19.391 3.83823 21.743 5.78296C22.9333 6.75533 23.7834 8.15831 24.0385 9.65853C24.2368 10.7559 24.1376 11.9226 23.7409 12.9505C24.1235 11.7004 24.0951 10.367 23.7126 9.13068C23.4717 8.40835 23.1033 7.7138 22.6357 7.11649C19.6035 3.31038 13.5107 3.81045 11.187 8.07496C10.4069 9.53618 10.2294 11.2792 10.6948 12.8687C10.6964 12.8661 10.698 12.8634 10.6996 12.8608C10.2326 10.6526 11.0977 8.38853 12.8731 6.94949C15.0551 5.15756 18.2432 4.90752 20.6945 6.33829C20.8787 6.44942 21.1196 6.60222 21.2896 6.72724C21.488 6.86615 21.6722 7.01895 21.8564 7.18564C21.905 7.22378 21.9737 7.29463 22.0348 7.35779C22.0628 7.38664 22.0892 7.4139 22.1114 7.43568C22.1539 7.47735 22.2071 7.53638 22.2602 7.59541C22.3133 7.65445 22.3665 7.71349 22.409 7.75517C22.4278 7.77828 22.4483 7.80294 22.4687 7.8276C22.5096 7.87699 22.5507 7.92649 22.579 7.96353L22.6924 8.11634L22.749 8.18579C22.8624 8.33859 22.9899 8.53306 23.0891 8.69975C23.8117 9.97771 24.0668 11.5337 23.7409 12.9505C23.9393 11.5198 23.6417 10.0472 22.8766 8.82477C22.7774 8.67197 22.6498 8.49139 22.5365 8.33859C22.5082 8.29691 22.409 8.1719 22.3665 8.13022C22.3098 8.06077 22.2106 7.94964 22.1398 7.88019C19.4901 5.01866 14.7718 5.07421 12.193 8.0052C11.0252 9.31359 10.4849 11.1169 10.7058 12.8507C10.7094 12.8447 10.713 12.8388 10.7167 12.8328C10.6845 10.297 12.315 8.0467 14.7151 7.11649C17.1238 6.15802 20.0144 6.67198 21.8705 8.4778C22.4798 9.04733 22.9757 9.75576 23.2875 10.5337C23.5992 11.2977 23.7692 12.131 23.7409 12.9505C23.5709 9.58894 20.6236 6.96369 17.223 6.99147C13.8399 6.97776 10.9672 9.49251 10.7277 12.815C10.7391 12.7965 10.7505 12.778 10.7621 12.7597C11.0261 11.6643 11.6011 10.6398 12.3913 9.8388C12.4551 9.7763 12.5259 9.71379 12.5968 9.65128C12.6676 9.58877 12.7385 9.52626 12.8022 9.46375C12.83 9.44104 12.8669 9.4124 12.9064 9.38171L12.9067 9.38152C12.988 9.31838 13.0805 9.24651 13.1281 9.19982C13.2017 9.15973 13.2706 9.11039 13.3375 9.06247C13.3865 9.02737 13.4344 8.99304 13.4824 8.96368C13.5249 8.9359 13.5921 8.89425 13.6594 8.85259C13.7267 8.81092 13.7941 8.76921 13.8366 8.74143C13.8791 8.72059 13.9535 8.68239 14.0279 8.64419C14.1023 8.60599 14.1766 8.56779 14.2192 8.54695C14.2617 8.52611 14.3361 8.49486 14.4104 8.4636C14.4848 8.43235 14.5592 8.40109 14.6017 8.38026C14.6442 8.36637 14.7222 8.33511 14.8001 8.30386C14.878 8.27261 14.956 8.24135 14.9985 8.22746C15.9761 7.89408 17.0388 7.79684 18.0732 7.92186C18.5408 7.97742 19.0084 8.08855 19.4618 8.22746C19.4759 8.23301 19.4969 8.24134 19.522 8.25133C19.6227 8.29133 19.7905 8.35803 19.8585 8.38026C19.9435 8.40804 20.1561 8.50528 20.2411 8.54695C20.2765 8.56779 20.3509 8.60599 20.4253 8.64419C20.4997 8.68239 20.5741 8.72059 20.6095 8.74143C20.6591 8.76921 20.7264 8.81088 20.7937 8.85255C20.861 8.89422 20.9283 8.9359 20.9779 8.96368C21.0345 8.9984 21.0912 9.04007 21.1479 9.08173C21.2046 9.1234 21.2613 9.1651 21.3179 9.19983C21.3603 9.23447 21.4204 9.28294 21.4805 9.33145L21.4809 9.33179L21.4814 9.3322L21.4816 9.3324C21.5416 9.38082 21.6015 9.42917 21.6438 9.46375C21.7116 9.51357 21.7743 9.57331 21.8349 9.63112L21.8351 9.63132C21.8759 9.67014 21.9157 9.7081 21.9556 9.74157C21.9981 9.78323 22.0512 9.83878 22.1043 9.89433C22.1574 9.9499 22.2106 10.0055 22.2531 10.0472C22.269 10.0679 22.3047 10.1081 22.3454 10.154C22.4135 10.2307 22.4957 10.3232 22.5223 10.3667C22.7774 10.6861 23.0041 11.0473 23.1883 11.4085C23.4433 11.8947 23.6275 12.4227 23.7409 12.9505C23.4575 12.1032 23.0182 11.2835 22.4373 10.6028L22.3523 10.4917L22.2673 10.3944L22.0831 10.2L21.8847 10.0194C21.7572 9.89437 21.6155 9.78324 21.4738 9.67211C21.3888 9.60266 21.2329 9.49154 21.1479 9.43597C21.0912 9.40124 21.0345 9.36304 20.9779 9.32484C20.9212 9.28664 20.8645 9.24844 20.8078 9.21371L20.5811 9.0748C20.5103 9.04702 20.4111 8.99146 20.3403 8.94979L20.0994 8.83866C20.0569 8.81782 19.986 8.78657 19.9152 8.75531C19.8443 8.72406 19.7735 8.69281 19.731 8.67197C19.2634 8.50528 18.7816 8.36637 18.2999 8.29691C18.2661 8.29691 18.2226 8.29059 18.1771 8.28397C18.1273 8.27673 18.0751 8.26913 18.0307 8.26913L17.7615 8.24135C17.6835 8.2344 17.5879 8.23093 17.4922 8.22745C17.3966 8.22398 17.301 8.22051 17.223 8.21356C17.1451 8.22051 17.0495 8.22398 16.9538 8.22745C16.8582 8.23093 16.7625 8.2344 16.6846 8.24135C16.6633 8.24135 16.5925 8.24829 16.5217 8.25524C16.4508 8.26218 16.38 8.26913 16.3587 8.26913C16.3162 8.28302 16.2028 8.29691 16.1603 8.29691C15.7919 8.35248 15.4519 8.44971 15.1118 8.54695C15.041 8.57473 14.9489 8.60598 14.8568 8.63724C14.7647 8.66849 14.6726 8.69975 14.6017 8.72753L14.12 8.94979C14.0491 8.97757 13.9358 9.03313 13.8791 9.0748L13.6382 9.21371C13.5249 9.28317 13.4115 9.35263 13.2982 9.43597C13.2131 9.49154 13.0573 9.60266 12.9723 9.67211L12.6747 9.92215C12.6304 9.96564 12.5706 10.0205 12.5135 10.0728L12.5132 10.0731L12.5129 10.0734C12.4608 10.1212 12.4109 10.1669 12.3772 10.2C12.3347 10.2555 12.1364 10.4498 12.0938 10.4916C11.5313 11.1434 11.0957 11.8857 10.8077 12.6878C11.0169 12.3623 11.2488 12.0538 11.5011 11.7646Z" fill="url(#paint11_linear_51_7431)"/>
<path d="M14.9825 13.0629C16.5406 15.9409 16.0066 19.4889 13.6438 21.7777C10.5407 24.7643 5.53897 24.5143 2.74763 21.2638C1.00481 19.2218 0.537228 16.3464 1.5149 13.8738C1.6377 13.5775 1.77466 13.2858 1.9258 12.9987C1.79355 13.258 1.68022 13.5266 1.58576 13.8044C0.877297 15.7491 1.16068 17.9856 2.30839 19.7219C4.32042 22.8057 8.41533 23.8614 11.7309 22.2223C15.1658 20.5386 16.6846 16.4691 14.9811 13.0652C14.9816 13.0645 14.982 13.0637 14.9825 13.0629Z" fill="url(#paint12_linear_51_7431)"/>
<path d="M14.985 13.0588C16.0033 14.702 16.3016 16.758 15.8117 18.6106C15.2024 21.0554 13.2329 23.0974 10.7957 23.8614C6.53081 25.2088 1.98249 22.6807 1.01898 18.3745C0.905627 17.9022 0.848951 17.416 0.834781 16.9298C0.834703 16.926 0.834628 16.9222 0.834556 16.9184C0.833729 16.9663 0.833313 17.0144 0.833313 17.0625C0.833313 21.4322 4.25844 24.9746 8.48355 24.9746C12.7087 24.9746 16.1338 21.4322 16.1338 17.0625C16.1338 15.5666 15.7324 14.1676 15.0349 12.9746C15.0184 13.0028 15.0018 13.0308 14.985 13.0588Z" fill="url(#paint13_linear_51_7431)"/>
<path d="M1.8282 13.158C1.8621 13.0963 1.89677 13.0352 1.93221 12.9746C1.99235 13.0774 2.05469 13.1788 2.11916 13.2785C2.05267 13.1868 1.98819 13.0935 1.9258 12.9987C1.89254 13.0513 1.86001 13.1045 1.8282 13.158Z" fill="url(#paint14_linear_51_7431)"/>
<path d="M14.1656 14.1846C13.2185 15.3384 11.888 16.2068 10.4273 16.5964C7.14008 17.5132 3.47025 16.013 1.9258 12.9987C1.10399 14.8601 1.17485 17.041 2.11002 18.8329C4.02287 22.5279 8.79789 23.7642 12.326 21.5139C15.1803 19.6944 16.2905 16.1377 14.9783 13.0699C14.9774 13.0713 14.9766 13.0728 14.9757 13.0742C16.0177 15.9016 14.8537 19.0001 12.2977 20.6385C9.73302 22.2916 6.27573 22.111 3.92364 20.1663C2.73343 19.1939 1.88327 17.7909 1.62823 16.2907C1.42986 15.1933 1.52906 14.0266 1.9258 12.9987C1.54323 14.2489 1.57155 15.5822 1.95412 16.8185C2.195 17.5409 2.5634 18.2354 3.03098 18.8327C6.06319 22.6388 12.156 22.1388 14.4797 17.8743C15.2598 16.413 15.4373 14.67 14.9719 13.0805C14.9703 13.0831 14.9687 13.0858 14.9671 13.0884C15.4341 15.2966 14.569 17.5607 12.7936 18.9997C10.6115 20.7917 7.42347 21.0417 4.97219 19.6109C4.78799 19.4998 4.54711 19.347 4.37708 19.222C4.17871 19.0831 3.99451 18.9303 3.81031 18.7636C3.76169 18.7254 3.69304 18.6546 3.63185 18.5914C3.6039 18.5626 3.57748 18.5353 3.55527 18.5135C3.51276 18.4719 3.45963 18.4128 3.4065 18.3538C3.35337 18.2948 3.30022 18.2357 3.25771 18.1941C3.23885 18.1709 3.21841 18.1463 3.19798 18.1216C3.15705 18.0722 3.11602 18.0227 3.08768 17.9857L2.97433 17.8329L2.91765 17.7634C2.8043 17.6106 2.67678 17.4162 2.57759 17.2495C1.85496 15.9715 1.59991 14.4155 1.9258 12.9987C1.72743 14.4294 2.02499 15.902 2.79013 17.1244C2.88931 17.2772 3.01684 17.4578 3.13019 17.6106C3.15853 17.6523 3.25771 17.7773 3.30022 17.819C3.3569 17.8884 3.45608 17.9996 3.52693 18.069C6.17658 20.9306 10.8949 20.875 13.4737 17.944C14.6415 16.6356 15.1818 14.8323 14.9609 13.0986C14.9573 13.1045 14.9536 13.1104 14.95 13.1164C14.9821 15.6522 13.3517 17.9025 10.9516 18.8327C8.54285 19.7912 5.65233 19.2772 3.79616 17.4714C3.18688 16.9019 2.69096 16.1935 2.37924 15.4156C2.06751 14.6516 1.89746 13.8182 1.9258 12.9987C2.09583 16.3603 5.04305 18.9855 8.44367 18.9577C11.8268 18.9715 14.6995 16.4567 14.939 13.1342C14.9276 13.1527 14.9162 13.1712 14.9046 13.1896C14.6406 14.2849 14.0656 15.3094 13.2754 16.1104C13.2116 16.1729 13.1408 16.2354 13.0699 16.2979C12.9991 16.3605 12.9282 16.423 12.8645 16.4855C12.8367 16.5082 12.7998 16.5368 12.7603 16.5675L12.76 16.5677C12.6787 16.6308 12.5862 16.7027 12.5386 16.7494C12.465 16.7895 12.3961 16.8388 12.3292 16.8868C12.2802 16.9218 12.2323 16.9562 12.1843 16.9855C12.1418 17.0133 12.0746 17.055 12.0073 17.0966C11.94 17.1383 11.8726 17.18 11.8301 17.2078C11.7876 17.2286 11.7132 17.2668 11.6388 17.305C11.5644 17.3432 11.49 17.3814 11.4475 17.4023C11.405 17.4231 11.3306 17.4544 11.2562 17.4856C11.1819 17.5169 11.1075 17.5481 11.065 17.569C11.0225 17.5829 10.9445 17.6141 10.8666 17.6454C10.7887 17.6766 10.7107 17.7079 10.6682 17.7218C9.69055 18.0551 8.62786 18.1524 7.5935 18.0274C7.12592 17.9718 6.65833 17.8607 6.20492 17.7218C6.19076 17.7162 6.16981 17.7079 6.14467 17.6979C6.04401 17.6579 5.8762 17.5912 5.80818 17.569C5.72316 17.5412 5.51063 17.4439 5.42561 17.4023C5.39019 17.3814 5.3158 17.3432 5.24141 17.305C5.16702 17.2668 5.09263 17.2286 5.05721 17.2078C5.00762 17.18 4.94032 17.1383 4.87301 17.0967C4.80571 17.055 4.7384 17.0133 4.68881 16.9855C4.63214 16.9508 4.57547 16.9092 4.5188 16.8675C4.46213 16.8258 4.40542 16.7841 4.34875 16.7494C4.30634 16.7147 4.2463 16.6663 4.18622 16.6178L4.1858 16.6174L4.1853 16.617L4.18504 16.6168C4.12507 16.5684 4.06518 16.5201 4.02286 16.4855C3.9551 16.4357 3.8924 16.3759 3.83175 16.3181L3.83154 16.3179C3.79079 16.2791 3.75096 16.2411 3.71113 16.2077C3.66863 16.166 3.61551 16.1104 3.56239 16.0549C3.50925 15.9993 3.45609 15.9437 3.41358 15.9021C3.39769 15.8813 3.36198 15.8411 3.32129 15.7953C3.25314 15.7185 3.17097 15.626 3.14436 15.5826C2.88932 15.2631 2.66261 14.9019 2.47841 14.5407C2.22336 14.0546 2.03915 13.5265 1.9258 12.9987C2.20918 13.846 2.64844 14.6658 3.22938 15.3464L3.3144 15.4575L3.39941 15.5548L3.58361 15.7492L3.78198 15.9298C3.9095 16.0549 4.0512 16.166 4.19289 16.2771C4.2779 16.3466 4.43376 16.4577 4.51878 16.5132C4.57546 16.548 4.63214 16.5862 4.68882 16.6244C4.74549 16.6626 4.80217 16.7008 4.85884 16.7355L5.08555 16.8744C5.15639 16.9022 5.25558 16.9578 5.32643 16.9994L5.5673 17.1106C5.60981 17.1314 5.68066 17.1627 5.7515 17.1939C5.82235 17.2252 5.8932 17.2564 5.9357 17.2772C6.40329 17.4439 6.88504 17.5828 7.36679 17.6523C7.4006 17.6523 7.44409 17.6586 7.48956 17.6652C7.53937 17.6725 7.59157 17.6801 7.63601 17.6801L7.90522 17.7079C7.98316 17.7148 8.0788 17.7183 8.17444 17.7218C8.27008 17.7252 8.36572 17.7287 8.44366 17.7357C8.52159 17.7287 8.61723 17.7252 8.71287 17.7218C8.80851 17.7183 8.90416 17.7148 8.98209 17.7079C9.00334 17.7079 9.07419 17.7009 9.14503 17.694C9.21588 17.687 9.28673 17.6801 9.30798 17.6801C9.35049 17.6662 9.46384 17.6523 9.50635 17.6523C9.87475 17.5967 10.2148 17.4995 10.5549 17.4023C10.6257 17.3745 10.7178 17.3432 10.8099 17.312C10.902 17.2807 10.9941 17.2495 11.065 17.2217L11.5467 16.9994C11.6176 16.9716 11.7309 16.9161 11.7876 16.8744L12.0285 16.7355C12.1418 16.6661 12.2552 16.5966 12.3685 16.5132C12.4535 16.4577 12.6094 16.3466 12.6944 16.2771L12.992 16.0271C13.0363 15.9836 13.0961 15.9288 13.1532 15.8764L13.1535 15.8761L13.1538 15.8759C13.2059 15.8281 13.2558 15.7823 13.2895 15.7492C13.332 15.6937 13.5302 15.4994 13.5729 15.4576C14.1354 14.8059 14.571 14.0635 14.859 13.2614C14.6497 13.5869 14.4179 13.8954 14.1656 14.1846Z" fill="url(#paint15_linear_51_7431)"/>
<defs>
<linearGradient id="paint0_linear_51_7431" x1="13.6277" y1="-0.590251" x2="13.6714" y2="18.714" gradientUnits="userSpaceOnUse">
<stop stop-color="white" stop-opacity="0.3"/>
<stop offset="0.493767" stop-color="white"/>
<stop offset="1" stop-color="white" stop-opacity="0.3"/>
</linearGradient>
<linearGradient id="paint1_linear_51_7431" x1="13.6277" y1="-0.590251" x2="13.6714" y2="18.714" gradientUnits="userSpaceOnUse">
<stop stop-color="white" stop-opacity="0.3"/>
<stop offset="0.493767" stop-color="white"/>
<stop offset="1" stop-color="white" stop-opacity="0.3"/>
</linearGradient>
<linearGradient id="paint2_linear_51_7431" x1="13.6277" y1="-0.590251" x2="13.6714" y2="18.714" gradientUnits="userSpaceOnUse">
<stop stop-color="white" stop-opacity="0.3"/>
<stop offset="0.493767" stop-color="white"/>
<stop offset="1" stop-color="white" stop-opacity="0.3"/>
</linearGradient>
<linearGradient id="paint3_linear_51_7431" x1="13.6277" y1="-0.590251" x2="13.6714" y2="18.714" gradientUnits="userSpaceOnUse">
<stop stop-color="white" stop-opacity="0.3"/>
<stop offset="0.493767" stop-color="white"/>
<stop offset="1" stop-color="white" stop-opacity="0.3"/>
</linearGradient>
<linearGradient id="paint4_linear_51_7431" x1="13.2261" y1="27.453" x2="13.822" y2="5.79903" gradientUnits="userSpaceOnUse">
<stop stop-color="white" stop-opacity="0.3"/>
<stop offset="0.493767" stop-color="white"/>
<stop offset="1" stop-color="white" stop-opacity="0.3"/>
</linearGradient>
<linearGradient id="paint5_linear_51_7431" x1="13.2261" y1="27.453" x2="13.822" y2="5.79903" gradientUnits="userSpaceOnUse">
<stop stop-color="white" stop-opacity="0.3"/>
<stop offset="0.493767" stop-color="white"/>
<stop offset="1" stop-color="white" stop-opacity="0.3"/>
</linearGradient>
<linearGradient id="paint6_linear_51_7431" x1="13.2261" y1="27.453" x2="13.822" y2="5.79903" gradientUnits="userSpaceOnUse">
<stop stop-color="white" stop-opacity="0.3"/>
<stop offset="0.493767" stop-color="white"/>
<stop offset="1" stop-color="white" stop-opacity="0.3"/>
</linearGradient>
<linearGradient id="paint7_linear_51_7431" x1="13.2261" y1="27.453" x2="13.822" y2="5.79903" gradientUnits="userSpaceOnUse">
<stop stop-color="white" stop-opacity="0.3"/>
<stop offset="0.493767" stop-color="white"/>
<stop offset="1" stop-color="white" stop-opacity="0.3"/>
</linearGradient>
<linearGradient id="paint8_linear_51_7431" x1="27.3395" y1="11.5399" x2="6.89499" y2="11.5872" gradientUnits="userSpaceOnUse">
<stop stop-color="white" stop-opacity="0.3"/>
<stop offset="0.493767" stop-color="white"/>
<stop offset="1" stop-color="white" stop-opacity="0.3"/>
</linearGradient>
<linearGradient id="paint9_linear_51_7431" x1="27.3395" y1="11.5399" x2="6.89499" y2="11.5872" gradientUnits="userSpaceOnUse">
<stop stop-color="white" stop-opacity="0.3"/>
<stop offset="0.493767" stop-color="white"/>
<stop offset="1" stop-color="white" stop-opacity="0.3"/>
</linearGradient>
<linearGradient id="paint10_linear_51_7431" x1="27.3395" y1="11.5399" x2="6.89499" y2="11.5872" gradientUnits="userSpaceOnUse">
<stop stop-color="white" stop-opacity="0.3"/>
<stop offset="0.493767" stop-color="white"/>
<stop offset="1" stop-color="white" stop-opacity="0.3"/>
</linearGradient>
<linearGradient id="paint11_linear_51_7431" x1="27.3395" y1="11.5399" x2="6.89499" y2="11.5872" gradientUnits="userSpaceOnUse">
<stop stop-color="white" stop-opacity="0.3"/>
<stop offset="0.493767" stop-color="white"/>
<stop offset="1" stop-color="white" stop-opacity="0.3"/>
</linearGradient>
<linearGradient id="paint12_linear_51_7431" x1="-2.99181" y1="14.4094" x2="18.9036" y2="14.3586" gradientUnits="userSpaceOnUse">
<stop stop-color="white" stop-opacity="0.3"/>
<stop offset="0.493767" stop-color="white"/>
<stop offset="1" stop-color="white" stop-opacity="0.3"/>
</linearGradient>
<linearGradient id="paint13_linear_51_7431" x1="-2.99181" y1="14.4094" x2="18.9036" y2="14.3586" gradientUnits="userSpaceOnUse">
<stop stop-color="white" stop-opacity="0.3"/>
<stop offset="0.493767" stop-color="white"/>
<stop offset="1" stop-color="white" stop-opacity="0.3"/>
</linearGradient>
<linearGradient id="paint14_linear_51_7431" x1="-2.99181" y1="14.4094" x2="18.9036" y2="14.3586" gradientUnits="userSpaceOnUse">
<stop stop-color="white" stop-opacity="0.3"/>
<stop offset="0.493767" stop-color="white"/>
<stop offset="1" stop-color="white" stop-opacity="0.3"/>
</linearGradient>
<linearGradient id="paint15_linear_51_7431" x1="-2.99181" y1="14.4094" x2="18.9036" y2="14.3586" gradientUnits="userSpaceOnUse">
<stop stop-color="white" stop-opacity="0.3"/>
<stop offset="0.493767" stop-color="white"/>
<stop offset="1" stop-color="white" stop-opacity="0.3"/>
</linearGradient>
</defs>
</svg>
