<svg width="70" height="69" viewBox="0 0 70 69" fill="none" xmlns="http://www.w3.org/2000/svg">
<path d="M35.1304 40.9508C26.7973 45.3624 16.5246 43.8504 9.89751 37.1602C1.25029 28.3742 1.97425 14.2122 11.3856 6.30877C17.2979 1.37414 25.6234 0.0502083 32.7825 2.81842C33.6405 3.16611 34.4851 3.5539 35.3163 3.98183C34.5655 3.60739 33.7878 3.28649 32.9835 3.01903C27.3527 1.01309 20.8773 1.81547 15.8499 5.0651C6.92114 10.762 3.86446 22.3564 8.61037 31.7442C13.4853 41.4698 25.2682 45.77 35.1236 40.9468C35.1258 40.9481 35.1281 40.9494 35.1304 40.9508Z" fill="url(#paint0_linear_2057_6756)"/>
<path d="M35.1423 40.9578C30.3845 43.8409 24.4316 44.6856 19.0676 43.2984C11.9889 41.5733 6.07664 35.9968 3.86457 29.0963C-0.0367326 17.0205 7.28323 4.14234 19.7513 1.41425C21.1188 1.0933 22.5265 0.932826 23.9342 0.892707C23.9451 0.892485 23.9561 0.892273 23.9671 0.892069C23.8284 0.889726 23.6893 0.88855 23.5499 0.88855C10.898 0.88855 0.641357 10.5865 0.641357 22.5495C0.641357 34.5126 10.898 44.2105 23.5499 44.2105C27.8811 44.2105 31.9319 43.074 35.3861 41.0991C35.3045 41.0525 35.2232 41.0054 35.1423 40.9578Z" fill="url(#paint1_linear_2057_6756)"/>
<path d="M34.855 3.70548C35.0335 3.80146 35.2105 3.89964 35.3861 3.99998C35.0882 4.17025 34.7948 4.34676 34.506 4.52931C34.7717 4.34106 35.0418 4.15849 35.3163 3.98183C35.1638 3.88767 35.01 3.79555 34.855 3.70548Z" fill="url(#paint2_linear_2057_6756)"/>
<path d="M31.8826 38.6378C28.542 35.956 26.0274 32.189 24.8994 28.0532C22.2449 18.7456 26.5887 8.3548 35.3163 3.98183C29.9269 1.65493 23.6123 1.85559 18.424 4.50344C7.72555 9.9195 4.14601 23.4396 10.6616 33.4292C15.9297 41.5107 26.2276 44.6541 35.11 40.9388C35.1059 40.9364 35.1018 40.9339 35.0977 40.9315C26.9111 43.8819 17.9398 40.586 13.1959 33.3489C8.4098 26.0873 8.93264 16.2983 14.5634 9.63855C17.3788 6.26856 21.4409 3.86142 25.7847 3.13928C28.962 2.57761 32.3401 2.8585 35.3163 3.98183C31.6965 2.89862 27.8359 2.9788 24.2563 4.06201C22.1649 4.74404 20.1539 5.78713 18.4245 7.11106C7.40431 15.6965 8.8522 32.9477 21.1996 39.5272C25.4304 41.7359 30.4772 42.2385 35.0795 40.9207C35.0718 40.9161 35.0641 40.9116 35.0564 40.907C28.6628 42.2295 22.1075 39.7801 17.941 34.7531C12.7526 28.5748 12.0287 19.548 16.1713 12.6074C16.493 12.0859 16.9355 11.4039 17.2974 10.9224C17.6996 10.3608 18.1421 9.83922 18.6247 9.31767C18.7351 9.17999 18.9403 8.98561 19.1231 8.81236C19.2066 8.73322 19.2856 8.65843 19.3486 8.59553C19.4693 8.47518 19.6402 8.32475 19.8111 8.17432C19.9821 8.02387 20.153 7.87339 20.2737 7.75304C20.3406 7.69962 20.412 7.64176 20.4834 7.58389C20.6264 7.468 20.7697 7.35184 20.877 7.27161L21.3194 6.95066L21.5205 6.79018C21.9629 6.46923 22.526 6.10816 23.0086 5.82732C26.7088 3.78126 31.2139 3.0591 35.3163 3.98183C31.1737 3.42017 26.9099 4.26268 23.3706 6.42911C22.9282 6.70994 22.4053 7.07101 21.9629 7.39196C21.8423 7.4722 21.4803 7.75303 21.3596 7.87339C21.1585 8.03387 20.8368 8.3147 20.6357 8.5153C12.3504 16.0175 12.5113 29.3772 20.9976 36.6788C24.7859 39.9853 30.0072 41.5151 35.0271 40.8896C35.0099 40.8793 34.9927 40.8691 34.9755 40.8588C27.6333 40.9498 21.1178 36.3332 18.4245 29.5377C15.6493 22.7174 17.1374 14.5332 22.366 9.27759C24.015 7.55248 26.0662 6.14831 28.3185 5.2657C30.5306 4.38308 32.9434 3.90159 35.3163 3.98183C25.5832 4.46326 17.982 12.8081 18.0625 22.4366C18.0228 32.0155 25.304 40.1495 34.9238 40.8277C34.8703 40.7954 34.8169 40.7629 34.7636 40.7302C31.5923 39.9827 28.6258 38.3547 26.3066 36.1172C26.1256 35.9366 25.9446 35.736 25.7636 35.5354C25.5827 35.3348 25.4017 35.1342 25.2207 34.9537C25.1549 34.875 25.072 34.7706 24.9831 34.6587L24.9826 34.658C24.7998 34.4278 24.5917 34.1658 24.4565 34.031C24.3404 33.8225 24.1976 33.6275 24.0588 33.4381C23.9572 33.2994 23.8578 33.1637 23.7728 33.028C23.6924 32.9077 23.5718 32.7172 23.4511 32.5267C23.3305 32.3361 23.2097 32.1454 23.1293 32.025C23.069 31.9047 22.9583 31.694 22.8477 31.4834C22.7371 31.2728 22.6265 31.0622 22.5662 30.9418C22.5059 30.8214 22.4154 30.6108 22.3249 30.4002C22.2344 30.1896 22.1439 29.9789 22.0836 29.8586C22.0433 29.7382 21.9528 29.5176 21.8624 29.2969C21.7719 29.0763 21.6814 28.8556 21.6412 28.7353C20.6759 25.9671 20.3943 22.9581 20.7563 20.0294C20.9172 18.7055 21.239 17.3816 21.6412 16.0978C21.6572 16.0577 21.6813 15.9984 21.7103 15.9272C21.8261 15.6422 22.0192 15.167 22.0836 14.9745C22.164 14.7337 22.4455 14.132 22.5662 13.8912C22.6265 13.7909 22.7371 13.5803 22.8477 13.3697C22.9583 13.1591 23.069 12.9484 23.1293 12.8482C23.2097 12.7077 23.3304 12.5172 23.451 12.3266C23.5717 12.136 23.6923 11.9455 23.7728 11.8051C23.8733 11.6446 23.994 11.4842 24.1146 11.3237C24.2352 11.1632 24.356 11.0027 24.4565 10.8422C24.5568 10.7221 24.6972 10.5521 24.8376 10.382L24.8386 10.3808L24.8398 10.3794L24.8404 10.3787C24.9806 10.2089 25.1206 10.0393 25.2207 9.91947C25.3649 9.72762 25.5379 9.55011 25.7053 9.37836L25.7059 9.37778C25.8183 9.2624 25.9282 9.14963 26.0251 9.03685C26.1457 8.91652 26.3065 8.76611 26.4674 8.6157C26.6283 8.46525 26.7892 8.31471 26.9099 8.19435C26.9701 8.14935 27.0864 8.04826 27.2191 7.93303C27.4412 7.74009 27.7091 7.50744 27.835 7.43209C28.76 6.70995 29.8057 6.06805 30.8514 5.5465C32.2591 4.82436 33.788 4.30278 35.3163 3.98183C32.8629 4.78421 30.4895 6.02793 28.5187 7.67281L28.1969 7.91352L27.9154 8.15424L27.3523 8.67578L26.8295 9.23745C26.4675 9.59852 26.1457 9.99971 25.824 10.4009C25.6229 10.6416 25.3011 11.0829 25.1403 11.3236C25.0397 11.4841 24.9291 11.6446 24.8185 11.8051C24.7079 11.9655 24.5973 12.126 24.4967 12.2865L24.0945 12.9284C24.0141 13.129 23.8532 13.4098 23.7326 13.6104L23.4108 14.2924C23.3505 14.4128 23.26 14.6134 23.1695 14.814C23.079 15.0146 22.9885 15.2152 22.9282 15.3355C22.4455 16.6595 22.0433 18.0235 21.8422 19.3875C21.8422 19.4833 21.8239 19.6064 21.8048 19.7351C21.7838 19.8762 21.7618 20.024 21.7618 20.1498L21.6814 20.9121C21.6613 21.1327 21.6512 21.4035 21.6411 21.6743C21.6311 21.9451 21.621 22.2159 21.6009 22.4366C21.621 22.6572 21.6311 22.928 21.6411 23.1988C21.6512 23.4696 21.6613 23.7405 21.6814 23.9611C21.6814 24.0213 21.7015 24.2219 21.7216 24.4225C21.7417 24.6231 21.7618 24.8237 21.7618 24.8838C21.802 25.0042 21.8422 25.3251 21.8422 25.4455C22.0031 26.4886 22.2847 27.4515 22.5662 28.4143C22.6466 28.6149 22.7371 28.8757 22.8276 29.1365C22.9181 29.3972 23.0086 29.658 23.089 29.8586L23.7326 31.2226C23.813 31.4232 23.9739 31.7442 24.0945 31.9047L24.4967 32.5867C24.6978 32.9076 24.8989 33.2286 25.1403 33.5495C25.3011 33.7902 25.6229 34.2316 25.824 34.4723L26.5479 35.3148C26.6738 35.4404 26.8326 35.6096 26.9842 35.7713L26.985 35.7722L26.9857 35.7729C27.1242 35.9205 27.2565 36.0617 27.3523 36.1573C27.5132 36.2776 28.0758 36.8388 28.1968 36.9595C30.0838 38.5522 32.2332 39.7857 34.5555 40.601C33.6132 40.0086 32.7199 39.352 31.8826 38.6378Z" fill="url(#paint3_linear_2057_6756)"/>
<path d="M34.8696 28.0494C43.2027 23.6378 53.4754 25.1497 60.1025 31.8399C68.7497 40.6259 68.0257 54.7879 58.6144 62.6914C52.7021 67.626 44.3766 68.9499 37.2175 66.1817C36.3595 65.834 35.5149 65.4462 34.6837 65.0183C35.4345 65.3927 36.2122 65.7136 37.0165 65.9811C42.6473 67.987 49.1227 67.1847 54.1501 63.935C63.0789 58.2381 66.1355 46.6437 61.3896 37.2559C56.5147 27.5304 44.7318 23.2301 34.8764 28.0534C34.8742 28.052 34.8719 28.0507 34.8696 28.0494Z" fill="url(#paint4_linear_2057_6756)"/>
<path d="M34.8577 28.0423C39.6155 25.1592 45.5684 24.3145 50.9324 25.7017C58.0111 27.4268 63.9234 33.0033 66.1354 39.9038C70.0367 51.9796 62.7168 64.8578 50.2487 67.5859C48.8812 67.9068 47.4735 68.0673 46.0658 68.1074C46.0549 68.1076 46.0439 68.1078 46.0329 68.1081C46.1716 68.1104 46.3107 68.1116 46.4501 68.1116C59.102 68.1116 69.3586 58.4136 69.3586 46.4506C69.3586 34.4875 59.102 24.7896 46.4501 24.7896C42.1189 24.7896 38.0681 25.9261 34.6139 27.901C34.6955 27.9476 34.7768 27.9947 34.8577 28.0423Z" fill="url(#paint5_linear_2057_6756)"/>
<path d="M35.145 65.2946C34.9665 65.1987 34.7895 65.1005 34.6139 65.0001C34.9118 64.8299 35.2052 64.6534 35.494 64.4708C35.2283 64.6591 34.9582 64.8416 34.6837 65.0183C34.8362 65.1125 34.99 65.2046 35.145 65.2946Z" fill="url(#paint6_linear_2057_6756)"/>
<path d="M38.1174 30.3623C41.458 33.0441 43.9726 36.8111 45.1006 40.9469C47.7551 50.2545 43.4113 60.6453 34.6837 65.0183C40.0731 67.3452 46.3877 67.1445 51.576 64.4967C62.2745 59.0806 65.854 45.5605 59.3384 35.5709C54.0703 27.4894 43.7724 24.346 34.89 28.0613C34.8941 28.0638 34.8982 28.0662 34.9023 28.0686C43.0889 25.1182 52.0602 28.4141 56.8041 35.6513C61.5902 42.9128 61.0674 52.7018 55.4366 59.3616C52.6212 62.7316 48.5591 65.1387 44.2153 65.8608C41.038 66.4225 37.6599 66.1416 34.6837 65.0183C38.3035 66.1015 42.1641 66.0213 45.7437 64.9381C47.8351 64.2561 49.8461 63.213 51.5755 61.8891C62.5957 53.3036 61.1478 36.0525 48.8004 29.4729C44.5696 27.2642 39.5228 26.7616 34.9205 28.0794C34.9282 28.084 34.9359 28.0885 34.9436 28.0931C41.3372 26.7706 47.8925 29.2201 52.059 34.247C57.2474 40.4253 57.9713 49.4521 53.8287 56.3927C53.507 56.9142 53.0645 57.5963 52.7026 58.0777C52.3004 58.6394 51.8579 59.1609 51.3753 59.6824C51.2649 59.8201 51.0597 60.0145 50.8769 60.1878C50.7934 60.2669 50.7144 60.3417 50.6514 60.4046C50.5307 60.5249 50.3598 60.6754 50.1889 60.8258C50.0179 60.9763 49.847 61.1267 49.7263 61.2471C49.6594 61.3005 49.588 61.3584 49.5166 61.4162C49.3736 61.5321 49.2303 61.6483 49.123 61.7285L48.6806 62.0495L48.4795 62.2099C48.0371 62.5309 47.474 62.892 46.9914 63.1728C43.2912 65.2189 38.7861 65.941 34.6837 65.0183C38.8263 65.58 43.0901 64.7374 46.6294 62.571C47.0718 62.2902 47.5947 61.9291 48.0371 61.6082C48.1577 61.5279 48.5197 61.2471 48.6404 61.1267C48.8415 60.9663 49.1632 60.6854 49.3643 60.4848C57.6496 52.9826 57.4887 39.623 49.0024 32.3213C45.2141 29.0149 39.9928 27.485 34.9729 28.1105C34.9901 28.1208 35.0073 28.1311 35.0245 28.1414C42.3667 28.0504 48.8822 32.667 51.5755 39.4625C54.3507 46.2827 52.8626 54.4669 47.634 59.7225C45.985 61.4476 43.9338 62.8518 41.6815 63.7344C39.4694 64.617 37.0566 65.0985 34.6837 65.0183C44.4168 64.5369 52.018 56.1921 51.9375 46.5635C51.9772 36.9846 44.696 28.8507 35.0762 28.1724C35.1297 28.2047 35.1831 28.2372 35.2364 28.2699C38.4077 29.0174 41.3742 30.6455 43.6934 32.883C43.8744 33.0635 44.0554 33.2641 44.2364 33.4647C44.4173 33.6653 44.5983 33.8659 44.7793 34.0464C44.8451 34.1251 44.928 34.2295 45.0169 34.3414L45.0174 34.3421C45.2002 34.5723 45.4083 34.8343 45.5435 34.9692C45.6596 35.1776 45.8024 35.3726 45.9412 35.562C46.0428 35.7008 46.1422 35.8364 46.2272 35.9721C46.3076 36.0925 46.4282 36.2829 46.5489 36.4734C46.6695 36.664 46.7903 36.8548 46.8707 36.9751C46.931 37.0955 47.0417 37.3061 47.1523 37.5167C47.2629 37.7273 47.3735 37.938 47.4338 38.0583C47.4941 38.1787 47.5846 38.3893 47.6751 38.5999C47.7656 38.8105 47.8561 39.0212 47.9164 39.1415C47.9567 39.2619 48.0472 39.4825 48.1376 39.7032C48.2281 39.9238 48.3186 40.1445 48.3588 40.2649C49.3241 43.0331 49.6057 46.042 49.2437 48.9707C49.0828 50.2946 48.761 51.6185 48.3588 52.9023C48.3428 52.9424 48.3187 53.0017 48.2897 53.0729C48.1739 53.3579 47.9808 53.8331 47.9164 54.0257C47.836 54.2664 47.5545 54.8682 47.4338 55.1089C47.3735 55.2092 47.2629 55.4198 47.1523 55.6304C47.0417 55.841 46.931 56.0517 46.8707 56.152C46.7903 56.2924 46.6696 56.4829 46.549 56.6735C46.4283 56.8641 46.3077 57.0546 46.2272 57.1951C46.1267 57.3555 46.006 57.516 45.8854 57.6764C45.7648 57.8369 45.644 57.9975 45.5435 58.1579C45.4432 58.278 45.3028 58.448 45.1624 58.6181L45.1614 58.6193L45.1602 58.6207L45.1596 58.6215C45.0194 58.7912 44.8794 58.9608 44.7793 59.0807C44.6351 59.2725 44.4621 59.45 44.2947 59.6218L44.2941 59.6223C44.1817 59.7377 44.0718 59.8505 43.9749 59.9633C43.8543 60.0836 43.6935 60.234 43.5326 60.3844C43.3717 60.5349 43.2108 60.6854 43.0901 60.8058C43.0299 60.8508 42.9136 60.9519 42.7809 61.0671C42.5588 61.26 42.2909 61.4927 42.165 61.568C41.24 62.2902 40.1943 62.9321 39.1486 63.4536C37.7409 64.1758 36.212 64.6973 34.6837 65.0183C37.1371 64.2159 39.5105 62.9722 41.4813 61.3273L41.8031 61.0866L42.0846 60.8459L42.6477 60.3243L43.1705 59.7627C43.5325 59.4016 43.8543 59.0004 44.176 58.5992C44.3771 58.3585 44.6989 57.9172 44.8597 57.6765C44.9603 57.516 45.0709 57.3555 45.1815 57.195C45.2921 57.0346 45.4027 56.8741 45.5033 56.7136L45.9055 56.0717C45.9859 55.8711 46.1468 55.5903 46.2674 55.3897L46.5892 54.7077C46.6495 54.5873 46.74 54.3867 46.8305 54.1861C46.921 53.9855 47.0115 53.7849 47.0718 53.6646C47.5545 52.3407 47.9567 50.9766 48.1578 49.6126C48.1578 49.5169 48.1761 49.3937 48.1952 49.265C48.2162 49.1239 48.2382 48.9761 48.2382 48.8503L48.3186 48.0881C48.3387 47.8674 48.3488 47.5966 48.3589 47.3258C48.3689 47.055 48.379 46.7842 48.3991 46.5635C48.379 46.3429 48.3689 46.0721 48.3589 45.8013C48.3488 45.5305 48.3387 45.2597 48.3186 45.039C48.3186 44.9788 48.2985 44.7782 48.2784 44.5776C48.2583 44.3771 48.2382 44.1765 48.2382 44.1163C48.198 43.9959 48.1578 43.675 48.1578 43.5546C47.9969 42.5115 47.7153 41.5487 47.4338 40.5858C47.3534 40.3852 47.2629 40.1244 47.1724 39.8637C47.0819 39.6029 46.9914 39.3421 46.911 39.1415L46.2674 37.7775C46.187 37.5769 46.0261 37.2559 45.9055 37.0955L45.5033 36.4134C45.3022 36.0925 45.1011 35.7715 44.8597 35.4506C44.6989 35.2099 44.3771 34.7686 44.176 34.5278L43.4521 33.6853C43.3262 33.5598 43.1674 33.3905 43.0158 33.2288L43.015 33.2279L43.0143 33.2272C42.8758 33.0796 42.7435 32.9384 42.6477 32.8429C42.4868 32.7225 41.9242 32.1613 41.8032 32.0406C39.9162 30.4479 37.7668 29.2144 35.4445 28.3991C36.3868 28.9915 37.2801 29.6481 38.1174 30.3623Z" fill="url(#paint7_linear_2057_6756)"/>
<path d="M28.8465 34.2473C24.3854 26.0069 25.9143 15.8482 32.6796 9.29471C41.5643 0.74353 55.8854 1.45945 63.8776 10.7663C68.8676 16.6129 70.2064 24.8459 67.4071 31.9255C67.0555 32.774 66.6634 33.6092 66.2306 34.4312C66.6093 33.6888 66.9338 32.9197 67.2042 32.1243C69.2327 26.5561 68.4213 20.1526 65.1352 15.181C59.3743 6.3514 47.6497 3.32866 38.1565 8.02186C28.3217 12.8427 23.9731 24.4947 28.8506 34.2406C28.8492 34.2429 28.8479 34.2451 28.8465 34.2473Z" fill="url(#paint8_linear_2057_6756)"/>
<path d="M28.8394 34.2592C25.9239 29.5542 25.0697 23.6674 26.4725 18.3629C28.2169 11.3629 33.8561 5.51628 40.8341 3.32877C53.0455 -0.529202 66.0683 6.70947 68.827 19.0391C69.1516 20.3913 69.3139 21.7834 69.3544 23.1755C69.3547 23.1863 69.3549 23.1972 69.3551 23.2081C69.3575 23.0708 69.3586 22.9333 69.3586 22.7955C69.3586 10.2841 59.5518 0.141357 47.4544 0.141356C35.357 0.141356 25.5501 10.2841 25.5501 22.7955C25.5501 27.0786 26.6994 31.0844 28.6965 34.5002C28.7437 34.4195 28.7913 34.3392 28.8394 34.2592Z" fill="url(#paint9_linear_2057_6756)"/>
<path d="M66.5101 33.975C66.413 34.1516 66.3137 34.3266 66.2123 34.5002C66.0401 34.2057 65.8616 33.9155 65.677 33.6299C65.8674 33.8926 66.052 34.1598 66.2306 34.4312C66.3258 34.2804 66.419 34.1283 66.5101 33.975Z" fill="url(#paint10_linear_2057_6756)"/>
<path d="M31.1854 31.0356C33.8973 27.7321 37.7066 25.2455 41.8889 24.13C51.301 21.505 61.8085 25.8005 66.2306 34.4312C68.5837 29.1016 68.3807 22.8572 65.7032 17.7265C60.2263 7.14687 46.5543 3.60709 36.4525 10.0503C28.2803 15.2599 25.1015 25.4435 28.8586 34.2272C28.8611 34.2232 28.8635 34.2191 28.866 34.215C25.8824 26.1194 29.2153 17.2477 36.5338 12.5565C43.8769 7.82353 53.7758 8.34056 60.5104 13.9088C63.9182 16.6929 66.3524 20.7099 67.0826 25.0054C67.6506 28.1475 67.3666 31.488 66.2306 34.4312C67.326 30.8516 67.2449 27.0338 66.1495 23.4941C65.4599 21.4259 64.405 19.4372 63.0663 17.727C54.3844 6.8292 36.9395 8.26101 30.2861 20.4713C28.0526 24.6551 27.5443 29.6458 28.8769 34.197C28.8815 34.1894 28.8861 34.1818 28.8907 34.1742C27.5534 27.8516 30.0304 21.3691 35.1138 17.2488C41.3615 12.1181 50.4896 11.4022 57.5082 15.4988C58.0356 15.817 58.7252 16.2545 59.2121 16.6125C59.78 17.0102 60.3074 17.4477 60.8349 17.925C60.9741 18.0342 61.1706 18.237 61.3458 18.4179C61.4259 18.5005 61.5015 18.5785 61.5651 18.6409C61.6868 18.7602 61.8389 18.9292 61.9911 19.0982C62.1432 19.2673 62.2954 19.4363 62.4171 19.5556C62.4711 19.6218 62.5296 19.6924 62.5881 19.763C62.7053 19.9045 62.8228 20.0462 62.9039 20.1522L63.2285 20.5898L63.3907 20.7886C63.7153 21.2261 64.0804 21.7829 64.3644 22.2602C66.4334 25.9193 67.1637 30.3744 66.2306 34.4312C66.7986 30.3346 65.9466 26.1182 63.7559 22.6182C63.4719 22.1807 63.1067 21.6636 62.7822 21.2261C62.7011 21.1068 62.4171 20.7488 62.2954 20.6295C62.1331 20.4307 61.8491 20.1125 61.6462 19.9136C54.0597 11.7204 40.5501 11.8795 33.1664 20.2716C29.8229 24.0178 28.2758 29.1811 28.9083 34.1452C28.9187 34.1282 28.9291 34.1112 28.9396 34.0942C28.8475 26.8335 33.516 20.3904 40.3878 17.727C47.2846 14.9826 55.5608 16.4542 60.8754 21.6247C62.6199 23.2554 64.0398 25.2838 64.9323 27.5111C65.8249 29.6986 66.3118 32.0846 66.2306 34.4312C65.7438 24.8062 57.3053 17.2895 47.5686 17.369C37.8821 17.3298 29.6568 24.5301 28.971 34.0431C29.0036 33.9901 29.0364 33.9373 29.0695 33.8846C29.8254 30.7485 31.4718 27.815 33.7344 25.5216C33.917 25.3426 34.1198 25.1636 34.3227 24.9846C34.5255 24.8057 34.7284 24.6267 34.9109 24.4477C34.9905 24.3827 35.0961 24.3007 35.2092 24.2128L35.2099 24.2123C35.4427 24.0315 35.7077 23.8257 35.844 23.692C36.0548 23.5772 36.252 23.4359 36.4436 23.2987C36.5838 23.1983 36.721 23.1 36.8583 23.0159C36.9799 22.9364 37.1725 22.8171 37.3652 22.6978C37.5579 22.5785 37.7508 22.4591 37.8725 22.3795C37.9942 22.3199 38.2072 22.2105 38.4202 22.1011C38.6332 21.9917 38.8462 21.8824 38.9679 21.8227C39.0896 21.763 39.3026 21.6735 39.5156 21.5841C39.7286 21.4946 39.9415 21.4051 40.0632 21.3454C40.185 21.3056 40.4081 21.2162 40.6312 21.1267C40.8543 21.0372 41.0775 20.9477 41.1992 20.9079C43.9985 19.9534 47.0412 19.675 50.0028 20.0329C51.3416 20.192 52.6804 20.5102 53.9786 20.9079C54.0191 20.9238 54.0791 20.9477 54.1511 20.9763C54.4393 21.0908 54.9198 21.2818 55.1145 21.3454C55.358 21.425 55.9665 21.7034 56.2099 21.8227C56.3113 21.8824 56.5243 21.9917 56.7373 22.1011C56.9503 22.2105 57.1633 22.3199 57.2647 22.3795C57.4067 22.4591 57.5994 22.5784 57.7921 22.6977C57.9848 22.817 58.1775 22.9363 58.3195 23.0159C58.4818 23.1153 58.644 23.2346 58.8063 23.3539C58.9686 23.4732 59.1309 23.5926 59.2932 23.692C59.4146 23.7912 59.5865 23.93 59.7585 24.0689L59.7598 24.0699L59.7612 24.071L59.7619 24.0716C59.9336 24.2103 60.1051 24.3487 60.2263 24.4477C60.4203 24.5903 60.5998 24.7614 60.7735 24.9269L60.7741 24.9275C60.8907 25.0387 61.0048 25.1473 61.1188 25.2432C61.2405 25.3625 61.3926 25.5215 61.5447 25.6806C61.6969 25.8397 61.8491 25.9989 61.9708 26.1182C62.0163 26.1777 62.1185 26.2927 62.235 26.4239C62.4302 26.6436 62.6654 26.9085 62.7416 27.0329C63.4719 27.9477 64.121 28.9818 64.6484 30.0159C65.3786 31.408 65.9061 32.9198 66.2306 34.4312C65.4192 32.0051 64.1615 29.658 62.4982 27.7091L62.2548 27.3909L62.0114 27.1125L61.484 26.5557L60.916 26.0386C60.5509 25.6807 60.1452 25.3625 59.7395 25.0443C59.496 24.8454 59.0498 24.5273 58.8064 24.3682C58.6441 24.2687 58.4818 24.1594 58.3195 24.05C58.1572 23.9406 57.995 23.8312 57.8327 23.7318L57.1836 23.3341C56.9807 23.2545 56.6968 23.0954 56.4939 22.9761L55.8042 22.6579C55.6825 22.5983 55.4797 22.5088 55.2768 22.4193C55.074 22.3298 54.8711 22.2403 54.7494 22.1807C53.4106 21.7034 52.0313 21.3057 50.6519 21.1068C50.5551 21.1068 50.4306 21.0887 50.3004 21.0697C50.1578 21.049 50.0083 21.0272 49.8811 21.0272L49.1103 20.9477C48.8871 20.9278 48.6133 20.9179 48.3394 20.9079C48.0656 20.898 47.7917 20.888 47.5686 20.8681C47.3455 20.888 47.0716 20.898 46.7978 20.9079C46.5239 20.9179 46.2501 20.9278 46.027 20.9477C45.9661 20.9477 45.7633 20.9676 45.5604 20.9875C45.3576 21.0074 45.1547 21.0272 45.0939 21.0272C44.9722 21.067 44.6476 21.1068 44.5259 21.1068C43.4711 21.2659 42.4974 21.5443 41.5238 21.8227C41.3209 21.9022 41.0572 21.9917 40.7935 22.0812C40.5298 22.1707 40.2661 22.2602 40.0632 22.3397L38.6839 22.9761C38.481 23.0557 38.1565 23.2147 37.9942 23.3341L37.3045 23.7318C36.98 23.9307 36.6554 24.1295 36.3309 24.3682C36.0874 24.5273 35.6412 24.8454 35.3978 25.0443L34.5458 25.7602C34.4188 25.8847 34.2476 26.0417 34.0841 26.1916L34.0832 26.1925L34.0825 26.1932C33.9332 26.33 33.7905 26.4609 33.6938 26.5557C33.5722 26.7147 33.0046 27.2711 32.8826 27.3908C31.272 29.2568 30.0246 31.3824 29.2002 33.6789C29.7992 32.747 30.4632 31.8636 31.1854 31.0356Z" fill="url(#paint11_linear_2057_6756)"/>
<path d="M41.1535 34.7527C45.6146 42.9931 44.0857 53.1518 37.3204 59.7053C28.4357 68.2565 14.1146 67.5406 6.12245 58.2337C1.1324 52.3871 -0.206398 44.1541 2.5929 37.0745C2.9445 36.226 3.33664 35.3908 3.76938 34.5688C3.39073 35.3112 3.06623 36.0803 2.79577 36.8757C0.767294 42.4439 1.57868 48.8474 4.86481 53.819C10.6257 62.6486 22.3503 65.6713 31.8435 60.9781C41.6783 56.1573 46.0269 44.5053 41.1494 34.7594C41.1508 34.7571 41.1521 34.7549 41.1535 34.7527Z" fill="url(#paint12_linear_2057_6756)"/>
<path d="M41.1606 34.7408C44.0761 39.4458 44.9303 45.3326 43.5275 50.6371C41.7831 57.6371 36.1439 63.4837 29.1659 65.6712C16.9545 69.5292 3.93169 62.2905 1.17297 49.9609C0.848409 48.6087 0.686132 47.2166 0.645562 45.8245C0.645338 45.8137 0.645123 45.8028 0.644917 45.7919C0.642548 45.9292 0.641358 46.0667 0.641358 46.2045C0.641358 58.7159 10.4482 68.8586 22.5456 68.8586C34.643 68.8586 44.4499 58.7159 44.4499 46.2045C44.4499 41.9214 43.3006 37.9156 41.3035 34.4998C41.2563 34.5805 41.2087 34.6608 41.1606 34.7408Z" fill="url(#paint13_linear_2057_6756)"/>
<path d="M3.48993 35.025C3.58699 34.8484 3.68626 34.6734 3.78773 34.4998C3.95992 34.7943 4.13841 35.0845 4.323 35.3701C4.13264 35.1074 3.94802 34.8402 3.76938 34.5688C3.67416 34.7196 3.581 34.8717 3.48993 35.025Z" fill="url(#paint14_linear_2057_6756)"/>
<path d="M38.8146 37.9644C36.1027 41.2679 32.2934 43.7545 28.1111 44.87C18.699 47.495 8.19146 43.1995 3.76938 34.5688C1.41635 39.8984 1.61926 46.1428 4.29684 51.2735C9.77373 61.8531 23.4457 65.3929 33.5475 58.9497C41.7197 53.7401 44.8985 43.5565 41.1414 34.7728C41.1389 34.7768 41.1365 34.7809 41.134 34.785C44.1176 42.8806 40.7847 51.7523 33.4662 56.4435C26.1231 61.1765 16.2242 60.6594 9.48963 55.0912C6.08179 52.3071 3.64762 48.2901 2.91736 43.9946C2.34939 40.8525 2.63343 37.512 3.76938 34.5688C2.674 38.1484 2.75508 41.9662 3.85046 45.5059C4.54014 47.5741 5.59495 49.5628 6.93375 51.273C15.6156 62.1708 33.0605 60.739 39.7139 48.5287C41.9474 44.3449 42.4557 39.3542 41.1231 34.803C41.1185 34.8106 41.1139 34.8182 41.1093 34.8258C42.4466 41.1484 39.9696 47.6309 34.8862 51.7512C28.6385 56.8819 19.5104 57.5978 12.4918 53.5012C11.9644 53.183 11.2748 52.7455 10.7879 52.3875C10.22 51.9898 9.69255 51.5523 9.16515 51.075C9.02592 50.9658 8.82936 50.763 8.65416 50.5821C8.57413 50.4995 8.4985 50.4215 8.43489 50.3591C8.31319 50.2398 8.16107 50.0708 8.00895 49.9018C7.85681 49.7327 7.70464 49.5637 7.58294 49.4444C7.52892 49.3782 7.47041 49.3076 7.41189 49.237C7.2947 49.0955 7.17723 48.9538 7.0961 48.8478L6.77155 48.4102L6.60927 48.2114C6.28471 47.7739 5.91958 47.2171 5.6356 46.7398C3.56655 43.0807 2.83628 38.6256 3.76938 34.5688C3.20141 38.6654 4.05339 42.8818 6.24414 46.3818C6.52813 46.8193 6.89325 47.3364 7.21781 47.7739C7.29895 47.8932 7.58293 48.2512 7.70464 48.3705C7.86692 48.5693 8.15091 48.8875 8.35376 49.0864C15.9403 57.2796 29.4499 57.1205 36.8336 48.7284C40.1771 44.9822 41.7242 39.8189 41.0917 34.8548C41.0813 34.8718 41.0709 34.8888 41.0604 34.9058C41.1525 42.1665 36.484 48.6096 29.6122 51.273C22.7154 54.0174 14.4392 52.5458 9.12461 47.3753C7.38013 45.7446 5.96019 43.7162 5.06766 41.4889C4.17513 39.3014 3.68824 36.9154 3.76938 34.5688C4.25622 44.1938 12.6947 51.7105 22.4314 51.631C32.1179 51.6702 40.3432 44.4699 41.029 34.9569C40.9964 35.0099 40.9636 35.0627 40.9305 35.1154C40.1746 38.2515 38.5282 41.185 36.2656 43.4784C36.083 43.6574 35.8802 43.8364 35.6773 44.0154C35.4745 44.1943 35.2716 44.3733 35.0891 44.5523C35.0095 44.6173 34.9039 44.6993 34.7908 44.7872L34.7901 44.7877C34.5573 44.9685 34.2923 45.1743 34.156 45.308C33.9452 45.4228 33.748 45.5641 33.5564 45.7013C33.4162 45.8017 33.279 45.9 33.1417 45.9841C33.0201 46.0636 32.8275 46.1829 32.6348 46.3022C32.4421 46.4215 32.2492 46.5409 32.1275 46.6205C32.0058 46.6801 31.7928 46.7895 31.5798 46.8989C31.3668 47.0083 31.1538 47.1176 31.0321 47.1773C30.9104 47.237 30.6974 47.3265 30.4844 47.4159C30.2714 47.5054 30.0585 47.5949 29.9368 47.6546C29.815 47.6944 29.5919 47.7838 29.3688 47.8733C29.1457 47.9628 28.9225 48.0523 28.8008 48.0921C26.0015 49.0466 22.9588 49.325 19.9972 48.9671C18.6584 48.808 17.3196 48.4898 16.0214 48.0921C15.9809 48.0762 15.9209 48.0523 15.8489 48.0237C15.5607 47.9092 15.0802 47.7182 14.8855 47.6546C14.642 47.575 14.0335 47.2966 13.7901 47.1773C13.6887 47.1176 13.4757 47.0083 13.2627 46.8989C13.0497 46.7895 12.8367 46.6801 12.7353 46.6205C12.5933 46.5409 12.4006 46.4216 12.2079 46.3023C12.0152 46.183 11.8225 46.0637 11.6805 45.9841C11.5182 45.8847 11.356 45.7654 11.1937 45.6461C11.0314 45.5268 10.8691 45.4074 10.7068 45.308C10.5854 45.2088 10.4135 45.07 10.2415 44.9311L10.2402 44.9301L10.2388 44.929L10.2381 44.9284C10.0664 44.7897 9.8949 44.6513 9.7737 44.5523C9.5797 44.4097 9.40019 44.2386 9.22651 44.0731L9.22593 44.0725C9.10926 43.9613 8.99521 43.8527 8.88117 43.7568C8.75949 43.6375 8.60739 43.4785 8.45528 43.3194C8.30315 43.1603 8.15092 43.0011 8.02921 42.8818C7.9837 42.8223 7.88148 42.7073 7.76495 42.5761C7.56984 42.3564 7.33458 42.0915 7.25839 41.9671C6.52814 41.0523 5.87903 40.0182 5.35162 38.9841C4.62137 37.592 4.09394 36.0802 3.76938 34.5688C4.58077 36.9949 5.83846 39.342 7.50181 41.2909L7.74523 41.6091L7.98864 41.8875L8.51604 42.4443L9.08402 42.9614C9.44914 43.3193 9.85484 43.6375 10.2605 43.9557C10.504 44.1546 10.9502 44.4727 11.1936 44.6318C11.3559 44.7313 11.5182 44.8406 11.6805 44.95C11.8428 45.0594 12.005 45.1688 12.1673 45.2682L12.8164 45.6659C13.0193 45.7455 13.3032 45.9046 13.5061 46.0239L14.1958 46.3421C14.3175 46.4017 14.5203 46.4912 14.7232 46.5807C14.926 46.6702 15.1289 46.7597 15.2506 46.8193C16.5894 47.2966 17.9687 47.6943 19.3481 47.8932C19.4449 47.8932 19.5694 47.9113 19.6996 47.9303C19.8422 47.951 19.9917 47.9728 20.1189 47.9728L20.8897 48.0523C21.1129 48.0722 21.3867 48.0821 21.6606 48.0921C21.9344 48.102 22.2083 48.112 22.4314 48.1319C22.6545 48.112 22.9284 48.102 23.2022 48.0921C23.4761 48.0821 23.7499 48.0722 23.973 48.0523C24.0339 48.0523 24.2367 48.0324 24.4396 48.0125C24.6424 47.9926 24.8453 47.9728 24.9061 47.9728C25.0278 47.933 25.3524 47.8932 25.4741 47.8932C26.5289 47.7341 27.5026 47.4557 28.4762 47.1773C28.6791 47.0978 28.9428 47.0083 29.2065 46.9188C29.4702 46.8293 29.7339 46.7398 29.9368 46.6603L31.3161 46.0239C31.519 45.9443 31.8435 45.7853 32.0058 45.6659L32.6955 45.2682C33.02 45.0693 33.3446 44.8705 33.6691 44.6318C33.9126 44.4727 34.3588 44.1546 34.6022 43.9557L35.4542 43.2398C35.5812 43.1153 35.7524 42.9583 35.9159 42.8084L35.9168 42.8075L35.9175 42.8068C36.0668 42.67 36.2095 42.5391 36.3062 42.4443C36.4278 42.2853 36.9954 41.7289 37.1174 41.6092C38.728 39.7432 39.9754 37.6176 40.7998 35.3211C40.2008 36.253 39.5368 37.1364 38.8146 37.9644Z" fill="url(#paint15_linear_2057_6756)"/>
<defs>
<linearGradient id="paint0_linear_2057_6756" x1="37.2744" y1="-4.33997" x2="37.3997" y2="50.9326" gradientUnits="userSpaceOnUse">
<stop stop-color="white" stop-opacity="0.3"/>
<stop offset="0.493767" stop-color="white"/>
<stop offset="1" stop-color="white" stop-opacity="0.3"/>
</linearGradient>
<linearGradient id="paint1_linear_2057_6756" x1="37.2744" y1="-4.33997" x2="37.3997" y2="50.9326" gradientUnits="userSpaceOnUse">
<stop stop-color="white" stop-opacity="0.3"/>
<stop offset="0.493767" stop-color="white"/>
<stop offset="1" stop-color="white" stop-opacity="0.3"/>
</linearGradient>
<linearGradient id="paint2_linear_2057_6756" x1="37.2744" y1="-4.33997" x2="37.3997" y2="50.9326" gradientUnits="userSpaceOnUse">
<stop stop-color="white" stop-opacity="0.3"/>
<stop offset="0.493767" stop-color="white"/>
<stop offset="1" stop-color="white" stop-opacity="0.3"/>
</linearGradient>
<linearGradient id="paint3_linear_2057_6756" x1="37.2744" y1="-4.33997" x2="37.3997" y2="50.9326" gradientUnits="userSpaceOnUse">
<stop stop-color="white" stop-opacity="0.3"/>
<stop offset="0.493767" stop-color="white"/>
<stop offset="1" stop-color="white" stop-opacity="0.3"/>
</linearGradient>
<linearGradient id="paint4_linear_2057_6756" x1="36.1246" y1="75.9543" x2="37.8306" y2="13.9541" gradientUnits="userSpaceOnUse">
<stop stop-color="white" stop-opacity="0.3"/>
<stop offset="0.493767" stop-color="white"/>
<stop offset="1" stop-color="white" stop-opacity="0.3"/>
</linearGradient>
<linearGradient id="paint5_linear_2057_6756" x1="36.1246" y1="75.9543" x2="37.8306" y2="13.9541" gradientUnits="userSpaceOnUse">
<stop stop-color="white" stop-opacity="0.3"/>
<stop offset="0.493767" stop-color="white"/>
<stop offset="1" stop-color="white" stop-opacity="0.3"/>
</linearGradient>
<linearGradient id="paint6_linear_2057_6756" x1="36.1246" y1="75.9543" x2="37.8306" y2="13.9541" gradientUnits="userSpaceOnUse">
<stop stop-color="white" stop-opacity="0.3"/>
<stop offset="0.493767" stop-color="white"/>
<stop offset="1" stop-color="white" stop-opacity="0.3"/>
</linearGradient>
<linearGradient id="paint7_linear_2057_6756" x1="36.1246" y1="75.9543" x2="37.8306" y2="13.9541" gradientUnits="userSpaceOnUse">
<stop stop-color="white" stop-opacity="0.3"/>
<stop offset="0.493767" stop-color="white"/>
<stop offset="1" stop-color="white" stop-opacity="0.3"/>
</linearGradient>
<linearGradient id="paint8_linear_2057_6756" x1="76.5342" y1="30.3921" x2="17.9972" y2="30.5278" gradientUnits="userSpaceOnUse">
<stop stop-color="white" stop-opacity="0.3"/>
<stop offset="0.493767" stop-color="white"/>
<stop offset="1" stop-color="white" stop-opacity="0.3"/>
</linearGradient>
<linearGradient id="paint9_linear_2057_6756" x1="76.5342" y1="30.3921" x2="17.9972" y2="30.5278" gradientUnits="userSpaceOnUse">
<stop stop-color="white" stop-opacity="0.3"/>
<stop offset="0.493767" stop-color="white"/>
<stop offset="1" stop-color="white" stop-opacity="0.3"/>
</linearGradient>
<linearGradient id="paint10_linear_2057_6756" x1="76.5342" y1="30.3921" x2="17.9972" y2="30.5278" gradientUnits="userSpaceOnUse">
<stop stop-color="white" stop-opacity="0.3"/>
<stop offset="0.493767" stop-color="white"/>
<stop offset="1" stop-color="white" stop-opacity="0.3"/>
</linearGradient>
<linearGradient id="paint11_linear_2057_6756" x1="76.5342" y1="30.3921" x2="17.9972" y2="30.5278" gradientUnits="userSpaceOnUse">
<stop stop-color="white" stop-opacity="0.3"/>
<stop offset="0.493767" stop-color="white"/>
<stop offset="1" stop-color="white" stop-opacity="0.3"/>
</linearGradient>
<linearGradient id="paint12_linear_2057_6756" x1="-10.3108" y1="38.6079" x2="52.3804" y2="38.4626" gradientUnits="userSpaceOnUse">
<stop stop-color="white" stop-opacity="0.3"/>
<stop offset="0.493767" stop-color="white"/>
<stop offset="1" stop-color="white" stop-opacity="0.3"/>
</linearGradient>
<linearGradient id="paint13_linear_2057_6756" x1="-10.3108" y1="38.6079" x2="52.3804" y2="38.4626" gradientUnits="userSpaceOnUse">
<stop stop-color="white" stop-opacity="0.3"/>
<stop offset="0.493767" stop-color="white"/>
<stop offset="1" stop-color="white" stop-opacity="0.3"/>
</linearGradient>
<linearGradient id="paint14_linear_2057_6756" x1="-10.3108" y1="38.6079" x2="52.3804" y2="38.4626" gradientUnits="userSpaceOnUse">
<stop stop-color="white" stop-opacity="0.3"/>
<stop offset="0.493767" stop-color="white"/>
<stop offset="1" stop-color="white" stop-opacity="0.3"/>
</linearGradient>
<linearGradient id="paint15_linear_2057_6756" x1="-10.3108" y1="38.6079" x2="52.3804" y2="38.4626" gradientUnits="userSpaceOnUse">
<stop stop-color="white" stop-opacity="0.3"/>
<stop offset="0.493767" stop-color="white"/>
<stop offset="1" stop-color="white" stop-opacity="0.3"/>
</linearGradient>
</defs>
</svg>
