<svg width="120" height="120" viewBox="0 0 120 120" fill="none" xmlns="http://www.w3.org/2000/svg">
<path d="M51.4505 35.1585V40.5093L59.8086 35.8596L65.7098 31.0402L59.8086 26.5604L51.4505 21.9106V27.3671C40.0657 28.0642 31.0087 39.6701 31.0087 53.8854C31.0087 53.9153 31.0096 53.945 31.0097 53.975H37.3147C37.3146 53.9451 37.3138 53.9154 37.3138 53.8854C37.3138 43.9663 43.5503 35.8449 51.4505 35.1585Z" fill="#2B176D"/>
<path d="M35.7673 51.9753C35.7673 42.3108 41.6878 34.3529 49.2991 33.3158C49.6232 33.2716 49.9041 33.5296 49.9041 33.8567V37.6506C49.9041 38.076 50.3612 38.3449 50.733 38.138L58.2622 33.9495L65.7441 29.7873C66.1262 29.5747 66.1262 29.025 65.7441 28.8124L58.2622 24.6502L50.733 20.4616C50.3612 20.2548 49.9041 20.5236 49.9041 20.949V24.9323C49.9041 25.2271 49.6734 25.4701 49.3798 25.4969C38.2425 26.5121 29.4623 37.9788 29.4623 51.9752C29.4623 52.0247 29.5033 52.0648 29.5527 52.0648H35.6788C35.7282 52.0648 35.7673 52.0247 35.7673 51.9753Z" fill="url(#paint0_linear_51_7376)"/>
<path d="M35.7673 52.0647L37.315 53.9736H31.01L29.4623 52.0647H35.7673Z" fill="#2B176D"/>
<path d="M65.7845 29.4126L65.6544 32.6222L51.4505 40.5091L49.9028 38.6002L65.7845 29.4126Z" fill="#2B176D"/>
<path d="M88.3101 71.423L86.9307 69.7217L85.5559 71.423H82.6907C82.6908 71.4497 82.6915 71.4761 82.6915 71.5028C82.6915 80.343 77.1334 87.5811 70.0924 88.1929V86.2839V83.424L68.3731 82.1231L68.1522 84.5033L62.6434 87.5679L55.1944 91.7118L62.6434 95.8558L70.0924 99.9997V95.1368C80.239 94.5155 88.3109 84.172 88.3109 71.5028C88.3109 71.4761 88.3101 71.4497 88.3101 71.423Z" fill="#2B176D"/>
<path d="M81.3111 69.8015C81.3111 78.4148 76.0346 85.5072 69.2511 86.4316C68.9623 86.4709 68.712 86.241 68.712 85.9495V82.5682C68.712 82.1891 68.3045 81.9495 67.9732 82.1338L61.2629 85.8668L54.5948 89.5763C54.2543 89.7657 54.2543 90.2556 54.5948 90.4451L61.263 94.1546L67.9732 97.8876C68.3046 98.0719 68.712 97.8323 68.712 97.4532V93.9032C68.712 93.6405 68.9176 93.4239 69.1792 93.4C79.1052 92.4952 86.9305 82.2756 86.9305 69.8015C86.9305 69.7574 86.8939 69.7217 86.8498 69.7217H81.3902C81.3461 69.7217 81.3111 69.7575 81.3111 69.8015Z" fill="url(#paint1_linear_51_7376)"/>
<path d="M54.6134 90.3828L55.1935 91.7114L70.0915 99.9993L68.7121 98.298L54.6134 90.3828Z" fill="#2B176D"/>
<path d="M89.5289 61.442C84.5351 64.3252 76.4385 64.3252 71.4447 61.442C69.0402 60.0539 67.7935 58.2504 67.7044 56.4315C67.6618 55.5611 67.7042 54.7737 67.7047 53.7201C67.7052 52.6665 70.0059 51.8318 71.4447 51.0011C76.4385 48.1179 84.5351 48.1179 89.5289 51.0011C91.1834 51.9564 93.2732 53.3416 93.2732 54.15C93.2732 54.9584 93.26 55.5217 93.2732 56.1279C93.3152 58.0484 92.067 59.9766 89.5289 61.442Z" fill="#2B176D"/>
<circle cx="10.4409" cy="10.4409" r="10.4409" transform="matrix(0.866025 0.5 -0.866025 0.5 80.4872 43.3442)" fill="url(#paint2_linear_51_7376)"/>
<path d="M89.3755 56.7768C84.3817 59.6599 76.2851 59.6599 71.2913 56.7768C68.8869 55.3886 67.6401 53.5851 67.5511 51.7662C67.5084 50.8959 67.5508 50.1085 67.5513 49.0549C67.5518 48.0013 69.8525 47.1665 71.2913 46.3358C76.2851 43.4527 84.3817 43.4527 89.3755 46.3358C91.03 47.2911 93.1198 48.6763 93.1198 49.4847C93.1198 50.2931 93.1066 50.8564 93.1198 51.4626C93.1618 53.3832 91.9137 55.3113 89.3755 56.7768Z" fill="#2B176D"/>
<circle cx="10.4409" cy="10.4409" r="10.4409" transform="matrix(0.866025 0.5 -0.866025 0.5 80.3338 38.6777)" fill="url(#paint3_linear_51_7376)"/>
<path d="M89.3727 52.0072C84.3789 54.8904 76.2823 54.8904 71.2885 52.0072C68.884 50.619 67.6373 48.8156 67.5482 46.9967C67.5056 46.1263 67.548 45.3389 67.5485 44.2853C67.549 43.2317 69.8497 42.397 71.2885 41.5663C76.2823 38.6831 84.3789 38.6831 89.3727 41.5663C91.0272 42.5215 93.117 43.9068 93.117 44.7152C93.117 45.5236 93.1038 46.0869 93.117 46.6931C93.159 48.6136 91.9109 50.5418 89.3727 52.0072Z" fill="#2B176D"/>
<circle cx="10.4409" cy="10.4409" r="10.4409" transform="matrix(0.866025 0.5 -0.866025 0.5 80.3311 33.9084)" fill="url(#paint4_linear_51_7376)"/>
<path d="M48.8101 84.7614C43.8162 87.6446 35.7197 87.6446 30.7258 84.7614C28.3214 83.3732 27.0747 81.5697 26.9856 79.7509C26.943 78.8805 26.9854 78.0931 26.9859 77.0395C26.9864 75.9859 29.2871 75.1511 30.7258 74.3205C35.7197 71.4373 43.8162 71.4373 48.8101 74.3205C50.4646 75.2757 52.5544 76.6609 52.5544 77.4693C52.5544 78.2777 52.5412 78.8411 52.5544 79.4472C52.5963 81.3678 51.3482 83.296 48.8101 84.7614Z" fill="#2B176D"/>
<circle cx="10.4409" cy="10.4409" r="10.4409" transform="matrix(0.866025 0.5 -0.866025 0.5 39.7662 66.6626)" fill="url(#paint5_linear_51_7376)"/>
<path d="M48.6566 80.0961C43.6628 82.9793 35.5662 82.9793 30.5724 80.0961C28.168 78.7079 26.9212 76.9044 26.8322 75.0856C26.7896 74.2152 26.832 73.4278 26.8324 72.3742C26.8329 71.3206 29.1336 70.4859 30.5724 69.6552C35.5662 66.772 43.6628 66.772 48.6566 69.6552C50.3111 70.6104 52.401 71.9957 52.401 72.8041C52.401 73.6124 52.3877 74.1758 52.401 74.782C52.4429 76.7025 51.1948 78.6307 48.6566 80.0961Z" fill="#2B176D"/>
<circle cx="10.4409" cy="10.4409" r="10.4409" transform="matrix(0.866025 0.5 -0.866025 0.5 39.6127 61.9971)" fill="url(#paint6_linear_51_7376)"/>
<path d="M48.6544 75.3258C43.6606 78.209 35.564 78.209 30.5702 75.3258C28.1658 73.9376 26.919 72.1342 26.83 70.3153C26.7874 69.4449 26.8298 68.6575 26.8302 67.6039C26.8307 66.5503 29.1314 65.7156 30.5702 64.8849C35.564 62.0017 43.6606 62.0017 48.6544 64.8849C50.3089 65.8401 52.3988 67.2254 52.3988 68.0338C52.3988 68.8422 52.3855 69.4055 52.3988 70.0117C52.4407 71.9322 51.1926 73.8604 48.6544 75.3258Z" fill="#2B176D"/>
<circle cx="10.4409" cy="10.4409" r="10.4409" transform="matrix(0.866025 0.5 -0.866025 0.5 39.6127 57.228)" fill="url(#paint7_linear_51_7376)"/>
<defs>
<linearGradient id="paint0_linear_51_7376" x1="48.0413" y1="20.8372" x2="48.0413" y2="60.0809" gradientUnits="userSpaceOnUse">
<stop stop-color="#8779FF"/>
<stop offset="1" stop-color="#2B176D"/>
</linearGradient>
<linearGradient id="paint1_linear_51_7376" x1="70.3722" y1="70.4674" x2="70.3722" y2="105.443" gradientUnits="userSpaceOnUse">
<stop stop-color="#8779FF"/>
<stop offset="1" stop-color="#2B176D"/>
</linearGradient>
<linearGradient id="paint2_linear_51_7376" x1="10.4409" y1="0.544906" x2="10.4409" y2="26.1023" gradientUnits="userSpaceOnUse">
<stop stop-color="#8779FF"/>
<stop offset="1" stop-color="#2B176D"/>
</linearGradient>
<linearGradient id="paint3_linear_51_7376" x1="10.4409" y1="0.544906" x2="10.4409" y2="26.1023" gradientUnits="userSpaceOnUse">
<stop stop-color="#8779FF"/>
<stop offset="1" stop-color="#2B176D"/>
</linearGradient>
<linearGradient id="paint4_linear_51_7376" x1="10.4409" y1="0.544906" x2="10.4409" y2="26.1023" gradientUnits="userSpaceOnUse">
<stop stop-color="#8779FF"/>
<stop offset="1" stop-color="#2B176D"/>
</linearGradient>
<linearGradient id="paint5_linear_51_7376" x1="10.4409" y1="0.544906" x2="10.4409" y2="26.1023" gradientUnits="userSpaceOnUse">
<stop stop-color="#8779FF"/>
<stop offset="1" stop-color="#2B176D"/>
</linearGradient>
<linearGradient id="paint6_linear_51_7376" x1="10.4409" y1="0.544906" x2="10.4409" y2="26.1023" gradientUnits="userSpaceOnUse">
<stop stop-color="#8779FF"/>
<stop offset="1" stop-color="#2B176D"/>
</linearGradient>
<linearGradient id="paint7_linear_51_7376" x1="10.4409" y1="0.544906" x2="10.4409" y2="26.1023" gradientUnits="userSpaceOnUse">
<stop stop-color="#8779FF"/>
<stop offset="1" stop-color="#2B176D"/>
</linearGradient>
</defs>
</svg>
