<svg width="24" height="25" viewBox="0 0 24 25" fill="none" xmlns="http://www.w3.org/2000/svg">
<g id="mail">
<path id="Vector" d="M3.00098 3.4502H21.001C21.5533 3.4502 22.001 3.89792 22.001 4.4502V20.4502C22.001 21.0025 21.5533 21.4502 21.001 21.4502H3.00098C2.4487 21.4502 2.00098 21.0025 2.00098 20.4502V4.4502C2.00098 3.89792 2.4487 3.4502 3.00098 3.4502ZM20.001 9.03088C20.001 8.51211 19.3871 8.23783 19.0007 8.58391L12.4701 14.4324C12.2435 14.6353 11.9009 14.6366 11.6728 14.4353L4.99795 8.5458C4.61053 8.20396 4.00098 8.47904 4.00098 8.99571V18.8502C4.00098 19.1816 4.26961 19.4502 4.60098 19.4502H19.401C19.7323 19.4502 20.001 19.1816 20.001 18.8502V9.03088ZM6.09933 5.4502C5.54653 5.4502 5.28785 6.13437 5.70236 6.5001L11.6629 11.7593C11.891 11.9606 12.2336 11.9593 12.4602 11.7564L18.3329 6.49716C18.7431 6.12983 18.4832 5.4502 17.9326 5.4502H6.09933Z" fill="#CFCECD" fill-opacity="0.6"/>
</g>
</svg>
