<svg width="40" height="38" viewBox="0 0 40 38" fill="none" xmlns="http://www.w3.org/2000/svg">
<path d="M30.296 30.7114L28.8923 29.31L33.8101 28.9978L33.4979 33.9156L32.0941 32.5118C26.7023 37.9059 18.6898 39.0818 12.1517 36.0441C18.1246 38.7674 26.0232 35.0254 30.2893 30.707M23.5164 5.42504C29.3891 6.96098 36.5766 11.9289 37.2056 18.4647C36.5698 11.284 31.5427 4.93277 24.175 2.95926L24.69 1.0427L20.2735 3.23043L23.0036 7.33465L23.5163 5.41809M5.00734 23.9318C3.40078 18.0796 4.10945 9.36746 9.4557 5.55715C3.55344 9.69793 0.565781 17.225 2.54156 24.5926L0.625 25.1076L4.72695 27.8354L6.91695 23.4212L5.00039 23.9339M23.0177 18.05C24.1047 19.9323 23.4574 22.3482 21.5747 23.4354C20.663 23.9619 19.6005 24.1018 18.5834 23.8292C17.5662 23.5566 16.7159 22.9043 16.1895 21.9929C15.1039 20.1096 15.7512 17.6936 17.6323 16.6071C19.5155 15.5217 21.9313 16.169 23.0177 18.0501V18.05ZM21.2739 21.0148C21.2739 19.8142 20.2602 19.6008 19.7155 19.4862C19.0502 19.3462 19.027 19.2869 19.027 19.0299C19.027 18.7878 19.2911 18.5832 19.6036 18.5832C19.8331 18.5832 20.0409 18.6901 20.1328 18.8557C20.2041 18.9808 20.3219 19.0728 20.4606 19.1116C20.5993 19.1504 20.7478 19.1329 20.8737 19.063C20.9996 18.993 21.0928 18.8762 21.1331 18.738C21.1734 18.5997 21.1576 18.4511 21.089 18.3244C20.8891 17.9646 20.5509 17.7005 20.1505 17.5737V17.4256C20.1505 17.2805 20.0929 17.1414 19.9903 17.0389C19.8877 16.9363 19.7486 16.8787 19.6036 16.8787C19.4586 16.8787 19.3195 16.9363 19.2169 17.0389C19.1143 17.1414 19.0567 17.2805 19.0567 17.4256V17.576C18.4038 17.7855 17.9333 18.3573 17.9333 19.0299C17.9333 20.2288 18.9462 20.442 19.4904 20.5565C20.1549 20.6964 20.1802 20.7615 20.1802 21.0148C20.1802 21.2557 19.9162 21.4593 19.6036 21.4593C19.3752 21.4593 19.167 21.3514 19.073 21.1843C19.0378 21.1217 18.9907 21.0666 18.9342 21.0222C18.8777 20.9779 18.813 20.9451 18.7439 20.9257C18.6747 20.9063 18.6024 20.9008 18.5311 20.9094C18.4598 20.9179 18.3909 20.9405 18.3283 20.9757C18.2657 21.0109 18.2106 21.0581 18.1663 21.1145C18.1219 21.171 18.0891 21.2357 18.0697 21.3048C18.0504 21.374 18.0448 21.4463 18.0534 21.5176C18.062 21.5889 18.0845 21.6578 18.1197 21.7204C18.3211 22.0785 18.6586 22.3415 19.0567 22.4683V22.6169C19.0567 22.762 19.1143 22.9011 19.2169 23.0036C19.3195 23.1062 19.4586 23.1638 19.6036 23.1638C19.7486 23.1638 19.8877 23.1062 19.9903 23.0036C20.0929 22.9011 20.1505 22.762 20.1505 22.6169V22.4667C20.8034 22.2575 21.274 21.6864 21.274 21.0149L21.2739 21.0148ZM28.165 22.6794L27.5377 24.1962L28.3619 26.4342L26.0166 28.7794L23.7786 27.9553L22.2621 28.5825L21.2641 30.7478H17.9458L16.9453 28.5826L15.4286 27.9553L13.1929 28.7796L10.8478 26.4345L11.6696 24.1965L11.0422 22.6794L8.87703 21.6789V18.3634L11.0422 17.3629L11.6696 15.846L10.8478 13.6105L13.1927 11.2628L15.4286 12.0871L16.9453 11.4598L17.9458 9.29465H21.2641L22.2621 11.46L23.7786 12.0871L26.0169 11.2629L28.3619 13.6108L27.5377 15.8464L28.165 17.3631L30.3302 18.3636V21.6791L28.165 22.6796V22.6794ZM23.9648 17.5031C22.5773 15.1 19.4913 14.2732 17.0857 15.6597L17.0853 15.6599C14.6823 17.0476 13.8554 20.1336 15.2422 22.5394C15.9148 23.7042 17.0009 24.5375 18.3003 24.8856C18.7281 25.0007 19.1692 25.0591 19.6122 25.0594C20.4848 25.0594 21.3459 24.8305 22.1217 24.3825C23.2864 23.7099 24.1196 22.6238 24.4678 21.3244C24.8161 20.0249 24.6374 18.6678 23.9648 17.503V17.5031ZM39.3751 20.9054V26.3246C39.3751 26.4697 39.3175 26.6088 39.2149 26.7113C39.1123 26.8139 38.9732 26.8715 38.8282 26.8715H33.4066C33.2616 26.8715 33.1225 26.8139 33.0199 26.7113C32.9174 26.6088 32.8598 26.4697 32.8598 26.3246V20.9054C32.8598 20.7603 32.9174 20.6212 33.0199 20.5187C33.1225 20.4161 33.2616 20.3585 33.4066 20.3585H38.8282C38.9732 20.3585 39.1123 20.4161 39.2149 20.5187C39.3175 20.6212 39.3751 20.7603 39.3751 20.9054ZM38.014 22.1149C37.9609 22.0665 37.8989 22.029 37.8313 22.0045C37.7638 21.9801 37.6921 21.9692 37.6203 21.9725C37.5486 21.9758 37.4782 21.9932 37.4132 22.0236C37.3481 22.0541 37.2897 22.0971 37.2413 22.1502L35.6188 23.9279L34.9661 23.3005C34.9146 23.2495 34.8534 23.2093 34.7862 23.1821C34.719 23.155 34.6471 23.1414 34.5746 23.1423C34.5021 23.1432 34.4305 23.1585 34.364 23.1874C34.2975 23.2162 34.2373 23.2579 34.1871 23.3102C34.1369 23.3624 34.0975 23.4242 34.0714 23.4918C34.0452 23.5594 34.0327 23.6315 34.0347 23.704C34.0367 23.7764 34.053 23.8478 34.0828 23.9139C34.1126 23.98 34.1552 24.0395 34.2082 24.0889L35.2655 25.1053C35.3182 25.1559 35.3804 25.1955 35.4486 25.2216C35.5167 25.2478 35.5895 25.26 35.6624 25.2577C35.7354 25.2553 35.8071 25.2383 35.8734 25.2078C35.9398 25.1772 35.9993 25.1337 36.0485 25.0798L38.0492 22.8875C38.147 22.7803 38.1982 22.6388 38.1916 22.4939C38.185 22.349 38.1211 22.2127 38.014 22.1149ZM18.3934 0.860352V6.28191C18.3934 6.42695 18.3358 6.56605 18.2333 6.66861C18.1307 6.77117 17.9916 6.82879 17.8466 6.82879H12.425C12.28 6.82879 12.1409 6.77117 12.0383 6.66861C11.9357 6.56605 11.8781 6.42695 11.8781 6.28191V0.860352C11.8781 0.715311 11.9357 0.576212 12.0383 0.473653C12.1409 0.371094 12.28 0.313477 12.425 0.313477H17.8466C17.9916 0.313477 18.1307 0.371094 18.2333 0.473653C18.3358 0.576212 18.3934 0.715311 18.3934 0.860352ZM17.0325 2.07223C16.9254 1.97446 16.7838 1.92326 16.6389 1.92988C16.494 1.9365 16.3577 2.00041 16.2599 2.10754L14.6373 3.88527L13.9845 3.25777C13.9329 3.20712 13.8717 3.1672 13.8046 3.14033C13.7375 3.11345 13.6657 3.10015 13.5934 3.1012C13.5211 3.10225 13.4497 3.11763 13.3834 3.14644C13.3171 3.17525 13.2572 3.21693 13.2071 3.26905C13.157 3.32118 13.1177 3.38273 13.0915 3.45013C13.0654 3.51754 13.0528 3.58946 13.0546 3.66174C13.0564 3.73402 13.0726 3.80523 13.1021 3.87123C13.1316 3.93724 13.1739 3.99674 13.2266 4.04629L14.284 5.06269C14.3366 5.11328 14.3989 5.15282 14.467 5.17898C14.5352 5.20513 14.6079 5.21738 14.6808 5.21499C14.7538 5.2126 14.8255 5.19563 14.8918 5.16507C14.9581 5.13451 15.0177 5.09099 15.0669 5.03707L17.0677 2.8448C17.1655 2.73768 17.2167 2.5961 17.2101 2.45122C17.2035 2.30633 17.1396 2.17001 17.0325 2.07223ZM9.64031 30.5655V35.9871C9.64031 36.1321 9.5827 36.2712 9.48014 36.3738C9.37758 36.4763 9.23848 36.5339 9.09344 36.5339H3.67414C3.5291 36.5339 3.39 36.4763 3.28744 36.3738C3.18488 36.2712 3.12727 36.1321 3.12727 35.9871V30.5655C3.12727 30.4205 3.18488 30.2814 3.28744 30.1788C3.39 30.0762 3.5291 30.0186 3.67414 30.0186H9.09344C9.23848 30.0186 9.37758 30.0762 9.48014 30.1788C9.5827 30.2814 9.64031 30.4205 9.64031 30.5655ZM8.28156 31.775C8.22851 31.7266 8.16645 31.6891 8.0989 31.6647C8.03136 31.6403 7.95967 31.6294 7.88792 31.6327C7.81617 31.6359 7.74577 31.6533 7.68074 31.6838C7.61571 31.7143 7.55732 31.7573 7.50891 31.8103L5.88641 33.5882L5.23359 32.9607C5.182 32.91 5.12087 32.8701 5.05375 32.8432C4.98662 32.8163 4.91484 32.803 4.84254 32.8041C4.77025 32.8051 4.69887 32.8205 4.63256 32.8493C4.56624 32.8781 4.5063 32.9198 4.4562 32.9719C4.40609 33.0241 4.36682 33.0856 4.34066 33.153C4.3145 33.2204 4.30196 33.2924 4.30377 33.3646C4.30559 33.4369 4.32172 33.5081 4.35123 33.5741C4.38074 33.6401 4.42305 33.6996 4.4757 33.7492L5.53312 34.7656C5.58576 34.8162 5.648 34.8557 5.71616 34.8819C5.78433 34.9081 5.85704 34.9203 5.93001 34.9179C6.00299 34.9155 6.07475 34.8986 6.14105 34.868C6.20736 34.8374 6.26688 34.7939 6.31609 34.74L8.3168 32.5476C8.41457 32.4405 8.46579 32.2989 8.45918 32.154C8.45257 32.0091 8.38868 31.8728 8.28156 31.775Z" fill="white"/>
</svg>
