<svg width="32" height="32" viewBox="0 0 32 32" fill="none" xmlns="http://www.w3.org/2000/svg">
<g clip-path="url(#clip0_444_12050)">
<path d="M31.249 27.3704L23.892 20.0128C25.1857 17.9565 25.8706 15.5758 25.8675 13.1464C25.8675 6.00488 20.0781 0.216309 12.9369 0.216309C5.79568 0.216309 0.00683594 6.00488 0.00683594 13.1464C0.00683594 20.2881 5.79541 26.0762 12.9369 26.0762C15.5782 26.0795 18.1566 25.2702 20.3222 23.758L27.5917 31.028C27.8317 31.2682 28.1168 31.4586 28.4306 31.5883C28.7444 31.718 29.0808 31.7845 29.4203 31.7839C29.76 31.7845 30.0965 31.7181 30.4104 31.5883C30.7244 31.4586 31.0096 31.2682 31.2498 31.028C31.7346 30.5428 32.0069 29.8849 32.0068 29.199C32.0066 28.5131 31.734 27.8553 31.249 27.3704ZM12.9369 21.887C8.11008 21.887 4.1968 17.974 4.1968 13.1469C4.1968 8.31983 8.11008 4.40654 12.9369 4.40654C17.764 4.40654 21.677 8.31983 21.677 13.1469C21.677 17.974 17.764 21.887 12.9369 21.887Z" fill="url(#paint0_linear_444_12050)"/>
</g>
<defs>
<linearGradient id="paint0_linear_444_12050" x1="16.0068" y1="0.216309" x2="16.0068" y2="31.7839" gradientUnits="userSpaceOnUse">
<stop stop-color="#8779FF"/>
<stop offset="1" stop-color="#2B176D"/>
</linearGradient>
<clipPath id="clip0_444_12050">
<rect width="32" height="32" fill="white" transform="translate(0.00683594)"/>
</clipPath>
</defs>
</svg>
