<svg width="1280" height="656" viewBox="0 0 1280 656" fill="none" xmlns="http://www.w3.org/2000/svg">
<g clip-path="url(#clip0_51_7497)">
<g filter="url(#filter0_f_51_7497)">
<rect x="278" y="-191.025" width="724" height="724" rx="362" fill="#3811AE"/>
</g>
<circle cx="640" cy="-231.025" r="700" fill="#000000" stroke="url(#paint0_linear_51_7497)" stroke-width="2"/>
<path d="M512.704 163.375C510.437 163.375 508.491 162.988 506.864 162.215C505.264 161.441 503.811 160.281 502.504 158.735L506.104 155.135C506.931 156.228 507.891 157.081 508.984 157.695C510.077 158.281 511.411 158.575 512.984 158.575C514.397 158.575 515.517 158.295 516.344 157.735C517.197 157.175 517.624 156.401 517.624 155.415C517.624 154.561 517.384 153.868 516.904 153.335C516.424 152.801 515.784 152.348 514.984 151.975C514.211 151.601 513.344 151.268 512.384 150.975C511.451 150.655 510.504 150.295 509.544 149.895C508.611 149.495 507.744 149.001 506.944 148.415C506.171 147.801 505.544 147.028 505.064 146.095C504.584 145.135 504.344 143.935 504.344 142.495C504.344 140.788 504.757 139.335 505.584 138.135C506.411 136.935 507.544 136.015 508.984 135.375C510.424 134.735 512.051 134.415 513.864 134.415C515.784 134.415 517.517 134.775 519.064 135.495C520.611 136.215 521.877 137.148 522.864 138.295L519.264 141.895C518.437 140.988 517.584 140.321 516.704 139.895C515.851 139.468 514.877 139.255 513.784 139.255C512.531 139.255 511.544 139.495 510.824 139.975C510.104 140.455 509.744 141.148 509.744 142.055C509.744 142.828 509.984 143.455 510.464 143.935C510.944 144.415 511.571 144.828 512.344 145.175C513.144 145.521 514.011 145.855 514.944 146.175C515.904 146.495 516.851 146.855 517.784 147.255C518.744 147.655 519.611 148.175 520.384 148.815C521.184 149.455 521.824 150.281 522.304 151.295C522.784 152.281 523.024 153.508 523.024 154.975C523.024 157.588 522.104 159.641 520.264 161.135C518.424 162.628 515.904 163.375 512.704 163.375ZM528.798 162.975V135.615H534.038V162.975H528.798ZM524.278 148.255V143.655H538.558V148.255H524.278ZM548.316 163.375C546.556 163.375 544.969 162.935 543.556 162.055C542.142 161.175 541.036 159.975 540.236 158.455C539.436 156.935 539.036 155.228 539.036 153.335C539.036 151.415 539.436 149.695 540.236 148.175C541.036 146.655 542.142 145.455 543.556 144.575C544.969 143.695 546.556 143.255 548.316 143.255C549.702 143.255 550.942 143.535 552.036 144.095C553.129 144.655 553.996 145.441 554.636 146.455C555.302 147.441 555.662 148.561 555.716 149.815V156.775C555.662 158.055 555.302 159.188 554.636 160.175C553.996 161.161 553.129 161.948 552.036 162.535C550.942 163.095 549.702 163.375 548.316 163.375ZM549.276 158.535C550.742 158.535 551.929 158.055 552.836 157.095C553.742 156.108 554.196 154.841 554.196 153.295C554.196 152.281 553.982 151.388 553.556 150.615C553.156 149.815 552.582 149.201 551.836 148.775C551.116 148.321 550.262 148.095 549.276 148.095C548.316 148.095 547.462 148.321 546.716 148.775C545.996 149.201 545.422 149.815 544.996 150.615C544.596 151.388 544.396 152.281 544.396 153.295C544.396 154.335 544.596 155.255 544.996 156.055C545.422 156.828 545.996 157.441 546.716 157.895C547.462 158.321 548.316 158.535 549.276 158.535ZM553.916 162.975V157.775L554.756 153.055L553.916 148.415V143.655H559.116V162.975H553.916ZM569.031 163.135L560.951 143.655H566.631L571.991 158.535H570.071L575.631 143.655H581.351L572.751 163.135H569.031ZM563.671 171.055L569.551 158.615L572.751 163.135L569.231 171.055H563.671ZM590.218 162.975V143.655H595.498V162.975H590.218ZM592.858 140.535C592.005 140.535 591.298 140.255 590.738 139.695C590.178 139.108 589.898 138.388 589.898 137.535C589.898 136.708 590.178 136.001 590.738 135.415C591.298 134.828 592.005 134.535 592.858 134.535C593.738 134.535 594.445 134.828 594.978 135.415C595.538 136.001 595.818 136.708 595.818 137.535C595.818 138.388 595.538 139.108 594.978 139.695C594.445 140.255 593.738 140.535 592.858 140.535ZM612.34 162.975V151.895C612.34 150.748 611.98 149.815 611.26 149.095C610.54 148.375 609.607 148.015 608.46 148.015C607.714 148.015 607.047 148.175 606.46 148.495C605.874 148.815 605.407 149.268 605.06 149.855C604.74 150.441 604.58 151.121 604.58 151.895L602.54 150.855C602.54 149.335 602.86 148.015 603.5 146.895C604.167 145.748 605.074 144.855 606.22 144.215C607.394 143.575 608.714 143.255 610.18 143.255C611.594 143.255 612.86 143.615 613.98 144.335C615.1 145.028 615.98 145.948 616.62 147.095C617.26 148.215 617.58 149.428 617.58 150.735V162.975H612.34ZM599.34 162.975V143.655H604.58V162.975H599.34ZM630.854 162.975V135.615H636.094V162.975H630.854ZM626.334 148.255V143.655H640.614V148.255H626.334ZM655.761 162.975V151.895C655.761 150.748 655.401 149.815 654.681 149.095C653.961 148.375 653.027 148.015 651.881 148.015C651.134 148.015 650.467 148.175 649.881 148.495C649.294 148.815 648.827 149.268 648.481 149.855C648.161 150.441 648.001 151.121 648.001 151.895L645.961 150.855C645.961 149.335 646.281 148.015 646.921 146.895C647.561 145.748 648.441 144.855 649.561 144.215C650.707 143.575 652.014 143.255 653.481 143.255C654.947 143.255 656.241 143.575 657.361 144.215C658.507 144.855 659.401 145.735 660.041 146.855C660.681 147.975 661.001 149.268 661.001 150.735V162.975H655.761ZM642.761 162.975V134.055H648.001V162.975H642.761ZM673.662 163.375C671.635 163.375 669.835 162.948 668.262 162.095C666.688 161.215 665.435 160.015 664.502 158.495C663.595 156.975 663.142 155.241 663.142 153.295C663.142 151.375 663.582 149.668 664.462 148.175C665.368 146.655 666.595 145.455 668.142 144.575C669.688 143.668 671.408 143.215 673.302 143.215C675.168 143.215 676.808 143.641 678.222 144.495C679.662 145.321 680.782 146.468 681.582 147.935C682.408 149.375 682.822 151.015 682.822 152.855C682.822 153.201 682.795 153.561 682.742 153.935C682.715 154.281 682.648 154.681 682.542 155.135L666.302 155.175V151.255L680.102 151.215L677.982 152.855C677.928 151.708 677.715 150.748 677.342 149.975C676.995 149.201 676.475 148.615 675.782 148.215C675.115 147.788 674.288 147.575 673.302 147.575C672.262 147.575 671.355 147.815 670.582 148.295C669.808 148.748 669.208 149.401 668.782 150.255C668.382 151.081 668.182 152.068 668.182 153.215C668.182 154.388 668.395 155.415 668.822 156.295C669.275 157.148 669.915 157.815 670.742 158.295C671.568 158.748 672.528 158.975 673.622 158.975C674.608 158.975 675.502 158.815 676.302 158.495C677.102 158.148 677.795 157.641 678.382 156.975L681.462 160.055C680.528 161.148 679.382 161.975 678.022 162.535C676.688 163.095 675.235 163.375 673.662 163.375ZM692.835 162.975V134.855H698.275V162.975H692.835ZM696.835 162.975V158.135H711.155V162.975H696.835ZM722.273 163.375C720.327 163.375 718.567 162.935 716.993 162.055C715.447 161.148 714.207 159.935 713.273 158.415C712.367 156.868 711.913 155.148 711.913 153.255C711.913 151.361 712.367 149.668 713.273 148.175C714.18 146.655 715.42 145.455 716.993 144.575C718.567 143.668 720.313 143.215 722.233 143.215C724.207 143.215 725.967 143.668 727.513 144.575C729.087 145.455 730.327 146.655 731.233 148.175C732.14 149.668 732.593 151.361 732.593 153.255C732.593 155.148 732.14 156.868 731.233 158.415C730.327 159.935 729.087 161.148 727.513 162.055C725.967 162.935 724.22 163.375 722.273 163.375ZM722.233 158.495C723.22 158.495 724.087 158.281 724.833 157.855C725.607 157.401 726.193 156.788 726.593 156.015C727.02 155.215 727.233 154.308 727.233 153.295C727.233 152.281 727.02 151.388 726.593 150.615C726.167 149.841 725.58 149.241 724.833 148.815C724.087 148.361 723.22 148.135 722.233 148.135C721.273 148.135 720.42 148.361 719.673 148.815C718.927 149.241 718.34 149.841 717.913 150.615C717.487 151.388 717.273 152.281 717.273 153.295C717.273 154.308 717.487 155.215 717.913 156.015C718.34 156.788 718.927 157.401 719.673 157.855C720.42 158.281 721.273 158.495 722.233 158.495ZM744.247 163.375C742.3 163.375 740.54 162.935 738.967 162.055C737.42 161.148 736.18 159.935 735.247 158.415C734.34 156.868 733.887 155.148 733.887 153.255C733.887 151.361 734.34 149.668 735.247 148.175C736.154 146.655 737.394 145.455 738.967 144.575C740.54 143.668 742.287 143.215 744.207 143.215C746.18 143.215 747.94 143.668 749.487 144.575C751.06 145.455 752.3 146.655 753.207 148.175C754.114 149.668 754.567 151.361 754.567 153.255C754.567 155.148 754.114 156.868 753.207 158.415C752.3 159.935 751.06 161.148 749.487 162.055C747.94 162.935 746.194 163.375 744.247 163.375ZM744.207 158.495C745.194 158.495 746.06 158.281 746.807 157.855C747.58 157.401 748.167 156.788 748.567 156.015C748.994 155.215 749.207 154.308 749.207 153.295C749.207 152.281 748.994 151.388 748.567 150.615C748.14 149.841 747.554 149.241 746.807 148.815C746.06 148.361 745.194 148.135 744.207 148.135C743.247 148.135 742.394 148.361 741.647 148.815C740.9 149.241 740.314 149.841 739.887 150.615C739.46 151.388 739.247 152.281 739.247 153.295C739.247 154.308 739.46 155.215 739.887 156.015C740.314 156.788 740.9 157.401 741.647 157.855C742.394 158.281 743.247 158.495 744.207 158.495ZM767.86 163.375C766.474 163.375 765.22 163.095 764.1 162.535C762.98 161.948 762.087 161.161 761.42 160.175C760.754 159.188 760.394 158.055 760.34 156.775V149.935C760.394 148.655 760.754 147.521 761.42 146.535C762.114 145.521 763.007 144.721 764.1 144.135C765.22 143.548 766.474 143.255 767.86 143.255C769.647 143.255 771.247 143.695 772.66 144.575C774.074 145.455 775.18 146.655 775.98 148.175C776.807 149.695 777.22 151.415 777.22 153.335C777.22 155.228 776.807 156.935 775.98 158.455C775.18 159.975 774.074 161.175 772.66 162.055C771.247 162.935 769.647 163.375 767.86 163.375ZM757.14 171.055V143.655H762.38V148.735L761.5 153.415L762.34 158.095V171.055H757.14ZM766.94 158.535C767.9 158.535 768.754 158.321 769.5 157.895C770.247 157.441 770.82 156.828 771.22 156.055C771.647 155.255 771.86 154.335 771.86 153.295C771.86 152.281 771.647 151.388 771.22 150.615C770.82 149.815 770.247 149.201 769.5 148.775C768.754 148.321 767.9 148.095 766.94 148.095C766.007 148.095 765.167 148.321 764.42 148.775C763.674 149.201 763.087 149.815 762.66 150.615C762.26 151.388 762.06 152.281 762.06 153.295C762.06 154.335 762.26 155.255 762.66 156.055C763.087 156.828 763.66 157.441 764.38 157.895C765.127 158.321 765.98 158.535 766.94 158.535Z" fill="white"/>
<path d="M460.282 201.135C459.642 201.135 459.077 201.012 458.586 200.767C458.106 200.511 457.711 200.169 457.402 199.743L458.458 198.767C458.661 199.065 458.911 199.295 459.21 199.455C459.519 199.615 459.861 199.695 460.234 199.695C460.607 199.695 460.938 199.615 461.226 199.455C461.514 199.295 461.738 199.06 461.898 198.751C462.069 198.431 462.154 198.041 462.154 197.583V189.871H463.658V197.503C463.658 198.239 463.509 198.879 463.21 199.423C462.922 199.967 462.522 200.388 462.01 200.687C461.509 200.985 460.933 201.135 460.282 201.135ZM469.372 201.135C468.625 201.135 467.953 200.959 467.356 200.607C466.758 200.255 466.284 199.78 465.932 199.183C465.58 198.575 465.404 197.897 465.404 197.151C465.404 196.415 465.58 195.753 465.932 195.167C466.284 194.569 466.758 194.095 467.356 193.743C467.953 193.391 468.625 193.215 469.372 193.215C470.108 193.215 470.774 193.391 471.372 193.743C471.98 194.084 472.46 194.553 472.812 195.151C473.164 195.748 473.34 196.415 473.34 197.151C473.34 197.897 473.164 198.575 472.812 199.183C472.46 199.78 471.98 200.255 471.372 200.607C470.774 200.959 470.108 201.135 469.372 201.135ZM469.372 199.743C469.852 199.743 470.278 199.631 470.652 199.407C471.025 199.183 471.318 198.879 471.532 198.495C471.745 198.1 471.852 197.652 471.852 197.151C471.852 196.66 471.74 196.223 471.516 195.839C471.302 195.455 471.009 195.156 470.636 194.943C470.273 194.719 469.852 194.607 469.372 194.607C468.892 194.607 468.465 194.719 468.092 194.943C467.718 195.156 467.425 195.455 467.212 195.839C466.998 196.223 466.892 196.66 466.892 197.151C466.892 197.652 466.998 198.1 467.212 198.495C467.425 198.879 467.718 199.183 468.092 199.407C468.465 199.631 468.892 199.743 469.372 199.743ZM474.978 200.975V193.375H476.418V200.975H474.978ZM475.698 191.855C475.432 191.855 475.213 191.769 475.042 191.599C474.872 191.417 474.786 191.193 474.786 190.927C474.786 190.671 474.872 190.457 475.042 190.287C475.213 190.105 475.432 190.015 475.698 190.015C475.965 190.015 476.184 190.105 476.354 190.287C476.525 190.457 476.61 190.671 476.61 190.927C476.61 191.193 476.525 191.417 476.354 191.599C476.184 191.769 475.965 191.855 475.698 191.855ZM483.916 200.975V196.543C483.916 195.967 483.735 195.492 483.372 195.119C483.01 194.745 482.54 194.559 481.964 194.559C481.58 194.559 481.239 194.644 480.94 194.815C480.642 194.985 480.407 195.22 480.236 195.519C480.066 195.817 479.98 196.159 479.98 196.543L479.388 196.207C479.388 195.631 479.516 195.119 479.772 194.671C480.028 194.223 480.386 193.871 480.844 193.615C481.303 193.348 481.82 193.215 482.396 193.215C482.972 193.215 483.479 193.359 483.916 193.647C484.364 193.935 484.716 194.313 484.972 194.783C485.228 195.241 485.356 195.732 485.356 196.255V200.975H483.916ZM478.54 200.975V193.375H479.98V200.975H478.54ZM495.946 201.135C495.157 201.135 494.421 200.991 493.738 200.703C493.055 200.404 492.458 199.993 491.946 199.471C491.434 198.937 491.034 198.324 490.746 197.631C490.469 196.937 490.33 196.196 490.33 195.407C490.33 194.607 490.469 193.865 490.746 193.183C491.034 192.489 491.429 191.881 491.93 191.359C492.442 190.836 493.034 190.431 493.706 190.143C494.389 189.855 495.125 189.711 495.914 189.711C496.703 189.711 497.434 189.855 498.106 190.143C498.789 190.431 499.386 190.836 499.898 191.359C500.41 191.881 500.81 192.489 501.098 193.183C501.386 193.876 501.53 194.623 501.53 195.423C501.53 196.212 501.386 196.953 501.098 197.647C500.81 198.34 500.41 198.948 499.898 199.471C499.397 199.993 498.805 200.404 498.122 200.703C497.45 200.991 496.725 201.135 495.946 201.135ZM495.914 199.695C496.714 199.695 497.413 199.513 498.01 199.151C498.618 198.777 499.098 198.271 499.45 197.631C499.802 196.98 499.978 196.239 499.978 195.407C499.978 194.788 499.877 194.223 499.674 193.711C499.471 193.188 499.189 192.735 498.826 192.351C498.463 191.967 498.037 191.673 497.546 191.471C497.055 191.257 496.511 191.151 495.914 191.151C495.125 191.151 494.426 191.332 493.818 191.695C493.221 192.057 492.746 192.559 492.394 193.199C492.053 193.839 491.882 194.575 491.882 195.407C491.882 196.025 491.978 196.601 492.17 197.135C492.373 197.657 492.65 198.111 493.002 198.495C493.365 198.868 493.791 199.161 494.282 199.375C494.783 199.588 495.327 199.695 495.914 199.695ZM506.393 201.135C505.775 201.135 505.215 200.996 504.713 200.719C504.223 200.431 503.839 200.036 503.561 199.535C503.284 199.033 503.145 198.452 503.145 197.791V193.375H504.585V197.727C504.585 198.143 504.655 198.505 504.793 198.815C504.943 199.113 505.156 199.343 505.433 199.503C505.711 199.663 506.036 199.743 506.409 199.743C506.975 199.743 507.417 199.567 507.737 199.215C508.057 198.852 508.217 198.356 508.217 197.727V193.375H509.657V197.791C509.657 198.452 509.519 199.033 509.241 199.535C508.964 200.036 508.58 200.431 508.089 200.719C507.609 200.996 507.044 201.135 506.393 201.135ZM511.587 200.975V193.375H513.027V200.975H511.587ZM513.027 196.639L512.483 196.399C512.483 195.428 512.707 194.655 513.155 194.079C513.603 193.503 514.249 193.215 515.091 193.215C515.475 193.215 515.822 193.284 516.131 193.423C516.441 193.551 516.729 193.769 516.995 194.079L516.051 195.055C515.891 194.884 515.715 194.761 515.523 194.687C515.331 194.612 515.107 194.575 514.851 194.575C514.318 194.575 513.881 194.745 513.539 195.087C513.198 195.428 513.027 195.945 513.027 196.639ZM521.875 200.975V189.871H523.379V200.975H521.875ZM522.899 200.975V199.599H529.267V200.975H522.899ZM522.899 195.951V194.639H528.739V195.951H522.899ZM522.899 191.247V189.871H529.187V191.247H522.899ZM536.048 200.975L533.68 197.647L533.408 197.391L530.416 193.375H532.16L534.32 196.335L534.592 196.559L537.792 200.975H536.048ZM530.272 200.975L533.408 196.751L534.224 197.807L531.968 200.975H530.272ZM534.704 197.375L533.872 196.351L535.968 193.375H537.648L534.704 197.375ZM542.356 201.135C541.609 201.135 540.932 200.959 540.324 200.607C539.727 200.255 539.252 199.78 538.9 199.183C538.559 198.575 538.388 197.903 538.388 197.167C538.388 196.42 538.559 195.748 538.9 195.151C539.252 194.553 539.727 194.084 540.324 193.743C540.932 193.391 541.609 193.215 542.356 193.215C542.943 193.215 543.487 193.327 543.988 193.551C544.489 193.764 544.921 194.079 545.284 194.495L544.324 195.455C544.089 195.177 543.801 194.969 543.46 194.831C543.129 194.681 542.761 194.607 542.356 194.607C541.876 194.607 541.449 194.719 541.076 194.943C540.703 195.156 540.409 195.455 540.196 195.839C539.983 196.223 539.876 196.665 539.876 197.167C539.876 197.668 539.983 198.111 540.196 198.495C540.409 198.879 540.703 199.183 541.076 199.407C541.449 199.631 541.876 199.743 542.356 199.743C542.761 199.743 543.129 199.673 543.46 199.535C543.801 199.385 544.095 199.172 544.34 198.895L545.284 199.855C544.932 200.26 544.5 200.575 543.988 200.799C543.487 201.023 542.943 201.135 542.356 201.135ZM546.712 200.975V189.551H548.152V200.975H546.712ZM553.315 201.135C552.696 201.135 552.136 200.996 551.635 200.719C551.144 200.431 550.76 200.036 550.483 199.535C550.206 199.033 550.067 198.452 550.067 197.791V193.375H551.507V197.727C551.507 198.143 551.576 198.505 551.715 198.815C551.864 199.113 552.078 199.343 552.355 199.503C552.632 199.663 552.958 199.743 553.331 199.743C553.896 199.743 554.339 199.567 554.659 199.215C554.979 198.852 555.139 198.356 555.139 197.727V193.375H556.579V197.791C556.579 198.452 556.44 199.033 556.163 199.535C555.886 200.036 555.502 200.431 555.011 200.719C554.531 200.996 553.966 201.135 553.315 201.135ZM560.925 201.135C560.498 201.135 560.093 201.081 559.709 200.975C559.336 200.857 558.989 200.697 558.669 200.495C558.349 200.281 558.072 200.031 557.837 199.743L558.765 198.815C559.042 199.156 559.362 199.412 559.725 199.583C560.088 199.743 560.493 199.823 560.941 199.823C561.389 199.823 561.736 199.748 561.981 199.599C562.226 199.439 562.349 199.22 562.349 198.943C562.349 198.665 562.248 198.452 562.045 198.303C561.853 198.143 561.602 198.015 561.293 197.919C560.984 197.812 560.653 197.711 560.301 197.615C559.96 197.508 559.634 197.375 559.325 197.215C559.016 197.055 558.76 196.836 558.557 196.559C558.365 196.281 558.269 195.913 558.269 195.455C558.269 194.996 558.381 194.601 558.605 194.271C558.829 193.929 559.138 193.668 559.533 193.487C559.938 193.305 560.424 193.215 560.989 193.215C561.586 193.215 562.114 193.321 562.573 193.535C563.042 193.737 563.426 194.047 563.725 194.463L562.797 195.391C562.584 195.113 562.317 194.9 561.997 194.751C561.688 194.601 561.336 194.527 560.941 194.527C560.525 194.527 560.205 194.601 559.981 194.751C559.768 194.889 559.661 195.087 559.661 195.343C559.661 195.599 559.757 195.796 559.949 195.935C560.141 196.073 560.392 196.191 560.701 196.287C561.021 196.383 561.352 196.484 561.693 196.591C562.034 196.687 562.36 196.82 562.669 196.991C562.978 197.161 563.229 197.391 563.421 197.679C563.624 197.967 563.725 198.345 563.725 198.815C563.725 199.529 563.469 200.095 562.957 200.511C562.456 200.927 561.778 201.135 560.925 201.135ZM565.353 200.975V193.375H566.793V200.975H565.353ZM566.073 191.855C565.807 191.855 565.588 191.769 565.417 191.599C565.247 191.417 565.161 191.193 565.161 190.927C565.161 190.671 565.247 190.457 565.417 190.287C565.588 190.105 565.807 190.015 566.073 190.015C566.34 190.015 566.559 190.105 566.729 190.287C566.9 190.457 566.985 190.671 566.985 190.927C566.985 191.193 566.9 191.417 566.729 191.599C566.559 191.769 566.34 191.855 566.073 191.855ZM571.523 200.975L568.035 193.375H569.635L572.435 199.791H571.507L574.323 193.375H575.859L572.371 200.975H571.523ZM580.31 201.135C579.553 201.135 578.87 200.964 578.262 200.623C577.654 200.271 577.174 199.796 576.822 199.199C576.47 198.601 576.294 197.924 576.294 197.167C576.294 196.42 576.465 195.748 576.806 195.151C577.158 194.553 577.628 194.084 578.214 193.743C578.812 193.391 579.478 193.215 580.214 193.215C580.918 193.215 581.537 193.375 582.07 193.695C582.614 194.015 583.036 194.457 583.334 195.023C583.644 195.588 583.798 196.228 583.798 196.943C583.798 197.049 583.793 197.167 583.782 197.295C583.772 197.412 583.75 197.551 583.718 197.711H577.302V196.511H582.95L582.422 196.975C582.422 196.463 582.332 196.031 582.15 195.679C581.969 195.316 581.713 195.039 581.382 194.847C581.052 194.644 580.652 194.543 580.182 194.543C579.692 194.543 579.26 194.649 578.886 194.863C578.513 195.076 578.225 195.375 578.022 195.759C577.82 196.143 577.718 196.596 577.718 197.119C577.718 197.652 577.825 198.121 578.038 198.527C578.252 198.921 578.556 199.231 578.95 199.455C579.345 199.668 579.798 199.775 580.31 199.775C580.737 199.775 581.126 199.7 581.478 199.551C581.841 199.401 582.15 199.177 582.406 198.879L583.334 199.823C582.972 200.249 582.524 200.575 581.99 200.799C581.468 201.023 580.908 201.135 580.31 201.135ZM588.953 200.975V189.871H590.009L590.457 191.615V200.975H588.953ZM596.633 200.975L589.817 191.871L590.009 189.871L596.841 198.959L596.633 200.975ZM596.633 200.975L596.185 199.327V189.871H597.689V200.975H596.633ZM603.576 201.135C602.819 201.135 602.136 200.964 601.528 200.623C600.92 200.271 600.44 199.796 600.088 199.199C599.736 198.601 599.56 197.924 599.56 197.167C599.56 196.42 599.731 195.748 600.072 195.151C600.424 194.553 600.893 194.084 601.48 193.743C602.077 193.391 602.744 193.215 603.48 193.215C604.184 193.215 604.803 193.375 605.336 193.695C605.88 194.015 606.301 194.457 606.6 195.023C606.909 195.588 607.064 196.228 607.064 196.943C607.064 197.049 607.059 197.167 607.048 197.295C607.037 197.412 607.016 197.551 606.984 197.711H600.568V196.511H606.216L605.688 196.975C605.688 196.463 605.597 196.031 605.416 195.679C605.235 195.316 604.979 195.039 604.648 194.847C604.317 194.644 603.917 194.543 603.448 194.543C602.957 194.543 602.525 194.649 602.152 194.863C601.779 195.076 601.491 195.375 601.288 195.759C601.085 196.143 600.984 196.596 600.984 197.119C600.984 197.652 601.091 198.121 601.304 198.527C601.517 198.921 601.821 199.231 602.216 199.455C602.611 199.668 603.064 199.775 603.576 199.775C604.003 199.775 604.392 199.7 604.744 199.551C605.107 199.401 605.416 199.177 605.672 198.879L606.6 199.823C606.237 200.249 605.789 200.575 605.256 200.799C604.733 201.023 604.173 201.135 603.576 201.135ZM610.716 200.975L607.708 193.375H609.212L611.388 199.295H610.908L613.068 193.375H613.9L616.06 199.295H615.58L617.756 193.375H619.26L616.268 200.975H615.42L613.228 195.231H613.756L611.548 200.975H610.716ZM622.769 201.135C622.342 201.135 621.937 201.081 621.553 200.975C621.18 200.857 620.833 200.697 620.513 200.495C620.193 200.281 619.916 200.031 619.681 199.743L620.609 198.815C620.886 199.156 621.206 199.412 621.569 199.583C621.932 199.743 622.337 199.823 622.785 199.823C623.233 199.823 623.58 199.748 623.825 199.599C624.07 199.439 624.193 199.22 624.193 198.943C624.193 198.665 624.092 198.452 623.889 198.303C623.697 198.143 623.446 198.015 623.137 197.919C622.828 197.812 622.497 197.711 622.145 197.615C621.804 197.508 621.478 197.375 621.169 197.215C620.86 197.055 620.604 196.836 620.401 196.559C620.209 196.281 620.113 195.913 620.113 195.455C620.113 194.996 620.225 194.601 620.449 194.271C620.673 193.929 620.982 193.668 621.377 193.487C621.782 193.305 622.268 193.215 622.833 193.215C623.43 193.215 623.958 193.321 624.417 193.535C624.886 193.737 625.27 194.047 625.569 194.463L624.641 195.391C624.428 195.113 624.161 194.9 623.841 194.751C623.532 194.601 623.18 194.527 622.785 194.527C622.369 194.527 622.049 194.601 621.825 194.751C621.612 194.889 621.505 195.087 621.505 195.343C621.505 195.599 621.601 195.796 621.793 195.935C621.985 196.073 622.236 196.191 622.545 196.287C622.865 196.383 623.196 196.484 623.537 196.591C623.878 196.687 624.204 196.82 624.513 196.991C624.822 197.161 625.073 197.391 625.265 197.679C625.468 197.967 625.569 198.345 625.569 198.815C625.569 199.529 625.313 200.095 624.801 200.511C624.3 200.927 623.622 201.135 622.769 201.135ZM627.181 200.975V189.551H628.621V200.975H627.181ZM634.248 201.135C633.491 201.135 632.808 200.964 632.2 200.623C631.592 200.271 631.112 199.796 630.76 199.199C630.408 198.601 630.232 197.924 630.232 197.167C630.232 196.42 630.403 195.748 630.744 195.151C631.096 194.553 631.565 194.084 632.152 193.743C632.749 193.391 633.416 193.215 634.152 193.215C634.856 193.215 635.475 193.375 636.008 193.695C636.552 194.015 636.973 194.457 637.272 195.023C637.581 195.588 637.736 196.228 637.736 196.943C637.736 197.049 637.731 197.167 637.72 197.295C637.709 197.412 637.688 197.551 637.656 197.711H631.24V196.511H636.888L636.36 196.975C636.36 196.463 636.269 196.031 636.088 195.679C635.907 195.316 635.651 195.039 635.32 194.847C634.989 194.644 634.589 194.543 634.12 194.543C633.629 194.543 633.197 194.649 632.824 194.863C632.451 195.076 632.163 195.375 631.96 195.759C631.757 196.143 631.656 196.596 631.656 197.119C631.656 197.652 631.763 198.121 631.976 198.527C632.189 198.921 632.493 199.231 632.888 199.455C633.283 199.668 633.736 199.775 634.248 199.775C634.675 199.775 635.064 199.7 635.416 199.551C635.779 199.401 636.088 199.177 636.344 198.879L637.272 199.823C636.909 200.249 636.461 200.575 635.928 200.799C635.405 201.023 634.845 201.135 634.248 201.135ZM640.474 200.975V190.191H641.914V200.975H640.474ZM638.602 194.687V193.375H648.314V194.687H638.602ZM645.002 200.975V190.191H646.442V200.975H645.002ZM653.014 201.135C652.256 201.135 651.574 200.964 650.966 200.623C650.358 200.271 649.878 199.796 649.526 199.199C649.174 198.601 648.998 197.924 648.998 197.167C648.998 196.42 649.168 195.748 649.51 195.151C649.862 194.553 650.331 194.084 650.918 193.743C651.515 193.391 652.182 193.215 652.918 193.215C653.622 193.215 654.24 193.375 654.774 193.695C655.318 194.015 655.739 194.457 656.038 195.023C656.347 195.588 656.502 196.228 656.502 196.943C656.502 197.049 656.496 197.167 656.486 197.295C656.475 197.412 656.454 197.551 656.422 197.711H650.006V196.511H655.654L655.126 196.975C655.126 196.463 655.035 196.031 654.854 195.679C654.672 195.316 654.416 195.039 654.086 194.847C653.755 194.644 653.355 194.543 652.886 194.543C652.395 194.543 651.963 194.649 651.59 194.863C651.216 195.076 650.928 195.375 650.726 195.759C650.523 196.143 650.422 196.596 650.422 197.119C650.422 197.652 650.528 198.121 650.742 198.527C650.955 198.921 651.259 199.231 651.654 199.455C652.048 199.668 652.502 199.775 653.014 199.775C653.44 199.775 653.83 199.7 654.182 199.551C654.544 199.401 654.854 199.177 655.11 198.879L656.038 199.823C655.675 200.249 655.227 200.575 654.694 200.799C654.171 201.023 653.611 201.135 653.014 201.135ZM658.072 200.975V193.375H659.512V200.975H658.072ZM659.512 196.639L658.968 196.399C658.968 195.428 659.192 194.655 659.64 194.079C660.088 193.503 660.733 193.215 661.576 193.215C661.96 193.215 662.306 193.284 662.616 193.423C662.925 193.551 663.213 193.769 663.48 194.079L662.536 195.055C662.376 194.884 662.2 194.761 662.008 194.687C661.816 194.612 661.592 194.575 661.336 194.575C660.802 194.575 660.365 194.745 660.024 195.087C659.682 195.428 659.512 195.945 659.512 196.639ZM669.191 200.975V192.239C669.191 191.673 669.314 191.183 669.559 190.767C669.804 190.34 670.14 190.004 670.567 189.759C671.004 189.513 671.511 189.391 672.087 189.391C672.524 189.391 672.903 189.465 673.223 189.615C673.543 189.764 673.836 189.983 674.103 190.271L673.159 191.199C673.02 191.049 672.866 190.937 672.695 190.863C672.524 190.777 672.316 190.735 672.071 190.735C671.612 190.735 671.255 190.868 670.999 191.135C670.754 191.401 670.631 191.769 670.631 192.239V200.975H669.191ZM667.319 194.687V193.375H673.047V194.687H667.319ZM677.528 201.135C676.781 201.135 676.109 200.959 675.512 200.607C674.915 200.255 674.44 199.78 674.088 199.183C673.736 198.575 673.56 197.897 673.56 197.151C673.56 196.415 673.736 195.753 674.088 195.167C674.44 194.569 674.915 194.095 675.512 193.743C676.109 193.391 676.781 193.215 677.528 193.215C678.264 193.215 678.931 193.391 679.528 193.743C680.136 194.084 680.616 194.553 680.968 195.151C681.32 195.748 681.496 196.415 681.496 197.151C681.496 197.897 681.32 198.575 680.968 199.183C680.616 199.78 680.136 200.255 679.528 200.607C678.931 200.959 678.264 201.135 677.528 201.135ZM677.528 199.743C678.008 199.743 678.435 199.631 678.808 199.407C679.181 199.183 679.475 198.879 679.688 198.495C679.901 198.1 680.008 197.652 680.008 197.151C680.008 196.66 679.896 196.223 679.672 195.839C679.459 195.455 679.165 195.156 678.792 194.943C678.429 194.719 678.008 194.607 677.528 194.607C677.048 194.607 676.621 194.719 676.248 194.943C675.875 195.156 675.581 195.455 675.368 195.839C675.155 196.223 675.048 196.66 675.048 197.151C675.048 197.652 675.155 198.1 675.368 198.495C675.581 198.879 675.875 199.183 676.248 199.407C676.621 199.631 677.048 199.743 677.528 199.743ZM683.118 200.975V193.375H684.559V200.975H683.118ZM684.559 196.639L684.015 196.399C684.015 195.428 684.239 194.655 684.687 194.079C685.135 193.503 685.78 193.215 686.623 193.215C687.007 193.215 687.353 193.284 687.663 193.423C687.972 193.551 688.26 193.769 688.527 194.079L687.583 195.055C687.423 194.884 687.247 194.761 687.055 194.687C686.863 194.612 686.639 194.575 686.383 194.575C685.849 194.575 685.412 194.745 685.071 195.087C684.729 195.428 684.559 195.945 684.559 196.639ZM693.406 200.975V189.871H694.91V200.975H693.406ZM702.651 200.975V196.543C702.651 195.967 702.469 195.492 702.107 195.119C701.744 194.745 701.275 194.559 700.699 194.559C700.315 194.559 699.973 194.644 699.675 194.815C699.376 194.985 699.141 195.22 698.971 195.519C698.8 195.817 698.715 196.159 698.715 196.543L698.123 196.207C698.123 195.631 698.251 195.119 698.507 194.671C698.763 194.223 699.12 193.871 699.579 193.615C700.037 193.348 700.555 193.215 701.131 193.215C701.707 193.215 702.213 193.359 702.651 193.647C703.099 193.935 703.451 194.313 703.707 194.783C703.963 195.241 704.091 195.732 704.091 196.255V200.975H702.651ZM697.275 200.975V193.375H698.715V200.975H697.275ZM708.456 201.135C708.03 201.135 707.624 201.081 707.24 200.975C706.867 200.857 706.52 200.697 706.2 200.495C705.88 200.281 705.603 200.031 705.368 199.743L706.296 198.815C706.574 199.156 706.894 199.412 707.256 199.583C707.619 199.743 708.024 199.823 708.472 199.823C708.92 199.823 709.267 199.748 709.512 199.599C709.758 199.439 709.88 199.22 709.88 198.943C709.88 198.665 709.779 198.452 709.576 198.303C709.384 198.143 709.134 198.015 708.824 197.919C708.515 197.812 708.184 197.711 707.832 197.615C707.491 197.508 707.166 197.375 706.856 197.215C706.547 197.055 706.291 196.836 706.088 196.559C705.896 196.281 705.8 195.913 705.8 195.455C705.8 194.996 705.912 194.601 706.136 194.271C706.36 193.929 706.67 193.668 707.064 193.487C707.47 193.305 707.955 193.215 708.52 193.215C709.118 193.215 709.646 193.321 710.104 193.535C710.574 193.737 710.958 194.047 711.256 194.463L710.328 195.391C710.115 195.113 709.848 194.9 709.528 194.751C709.219 194.601 708.867 194.527 708.472 194.527C708.056 194.527 707.736 194.601 707.512 194.751C707.299 194.889 707.192 195.087 707.192 195.343C707.192 195.599 707.288 195.796 707.48 195.935C707.672 196.073 707.923 196.191 708.232 196.287C708.552 196.383 708.883 196.484 709.224 196.591C709.566 196.687 709.891 196.82 710.2 196.991C710.51 197.161 710.76 197.391 710.952 197.679C711.155 197.967 711.256 198.345 711.256 198.815C711.256 199.529 711 200.095 710.488 200.511C709.987 200.927 709.31 201.135 708.456 201.135ZM716.869 201.135C716.293 201.135 715.77 201.017 715.301 200.783C714.842 200.537 714.474 200.201 714.197 199.775C713.919 199.348 713.765 198.863 713.733 198.319V196.031C713.765 195.476 713.919 194.991 714.197 194.575C714.485 194.148 714.858 193.817 715.317 193.583C715.786 193.337 716.303 193.215 716.869 193.215C717.562 193.215 718.186 193.391 718.741 193.743C719.306 194.095 719.749 194.569 720.069 195.167C720.389 195.764 720.549 196.436 720.549 197.183C720.549 197.929 720.389 198.601 720.069 199.199C719.749 199.796 719.306 200.271 718.741 200.623C718.186 200.964 717.562 201.135 716.869 201.135ZM712.868 204.159V193.375H714.309V195.375L714.037 197.215L714.309 199.071V204.159H712.868ZM716.629 199.775C717.109 199.775 717.53 199.663 717.893 199.439C718.255 199.215 718.543 198.911 718.757 198.527C718.97 198.132 719.077 197.679 719.077 197.167C719.077 196.665 718.97 196.217 718.757 195.823C718.543 195.428 718.255 195.124 717.893 194.911C717.53 194.687 717.114 194.575 716.645 194.575C716.165 194.575 715.743 194.687 715.381 194.911C715.018 195.124 714.735 195.428 714.533 195.823C714.33 196.217 714.229 196.671 714.229 197.183C714.229 197.684 714.325 198.132 714.517 198.527C714.719 198.911 715.002 199.215 715.365 199.439C715.738 199.663 716.159 199.775 716.629 199.775ZM722.197 200.975V193.375H723.637V200.975H722.197ZM722.917 191.855C722.65 191.855 722.432 191.769 722.261 191.599C722.09 191.417 722.005 191.193 722.005 190.927C722.005 190.671 722.09 190.457 722.261 190.287C722.432 190.105 722.65 190.015 722.917 190.015C723.184 190.015 723.402 190.105 723.573 190.287C723.744 190.457 723.829 190.671 723.829 190.927C723.829 191.193 723.744 191.417 723.573 191.599C723.402 191.769 723.184 191.855 722.917 191.855ZM725.759 200.975V193.375H727.199V200.975H725.759ZM727.199 196.639L726.655 196.399C726.655 195.428 726.879 194.655 727.327 194.079C727.775 193.503 728.42 193.215 729.263 193.215C729.647 193.215 729.994 193.284 730.303 193.423C730.612 193.551 730.9 193.769 731.167 194.079L730.223 195.055C730.063 194.884 729.887 194.761 729.695 194.687C729.503 194.612 729.279 194.575 729.023 194.575C728.49 194.575 728.052 194.745 727.711 195.087C727.37 195.428 727.199 195.945 727.199 196.639ZM735.163 201.135C734.47 201.135 733.84 200.964 733.275 200.623C732.71 200.271 732.262 199.796 731.931 199.199C731.611 198.601 731.451 197.929 731.451 197.183C731.451 196.436 731.611 195.764 731.931 195.167C732.262 194.569 732.704 194.095 733.259 193.743C733.824 193.391 734.459 193.215 735.163 193.215C735.739 193.215 736.251 193.337 736.699 193.583C737.158 193.817 737.526 194.148 737.803 194.575C738.08 194.991 738.235 195.476 738.267 196.031V198.319C738.235 198.863 738.08 199.348 737.803 199.775C737.536 200.201 737.174 200.537 736.715 200.783C736.267 201.017 735.75 201.135 735.163 201.135ZM735.403 199.775C736.118 199.775 736.694 199.535 737.131 199.055C737.568 198.564 737.787 197.94 737.787 197.183C737.787 196.66 737.686 196.207 737.483 195.823C737.291 195.428 737.014 195.124 736.651 194.911C736.288 194.687 735.867 194.575 735.387 194.575C734.907 194.575 734.48 194.687 734.107 194.911C733.744 195.135 733.456 195.444 733.243 195.839C733.04 196.223 732.939 196.665 732.939 197.167C732.939 197.679 733.04 198.132 733.243 198.527C733.456 198.911 733.75 199.215 734.123 199.439C734.496 199.663 734.923 199.775 735.403 199.775ZM737.691 200.975V198.927L737.963 197.071L737.691 195.231V193.375H739.147V200.975H737.691ZM742.38 200.975V190.191H743.82V200.975H742.38ZM740.508 194.687V193.375H745.692V194.687H740.508ZM747.119 200.975V193.375H748.559V200.975H747.119ZM747.839 191.855C747.572 191.855 747.354 191.769 747.183 191.599C747.012 191.417 746.927 191.193 746.927 190.927C746.927 190.671 747.012 190.457 747.183 190.287C747.354 190.105 747.572 190.015 747.839 190.015C748.106 190.015 748.324 190.105 748.495 190.287C748.666 190.457 748.751 190.671 748.751 190.927C748.751 191.193 748.666 191.417 748.495 191.599C748.324 191.769 748.106 191.855 747.839 191.855ZM754.153 201.135C753.406 201.135 752.734 200.959 752.137 200.607C751.54 200.255 751.065 199.78 750.713 199.183C750.361 198.575 750.185 197.897 750.185 197.151C750.185 196.415 750.361 195.753 750.713 195.167C751.065 194.569 751.54 194.095 752.137 193.743C752.734 193.391 753.406 193.215 754.153 193.215C754.889 193.215 755.556 193.391 756.153 193.743C756.761 194.084 757.241 194.553 757.593 195.151C757.945 195.748 758.121 196.415 758.121 197.151C758.121 197.897 757.945 198.575 757.593 199.183C757.241 199.78 756.761 200.255 756.153 200.607C755.556 200.959 754.889 201.135 754.153 201.135ZM754.153 199.743C754.633 199.743 755.06 199.631 755.433 199.407C755.806 199.183 756.1 198.879 756.313 198.495C756.526 198.1 756.633 197.652 756.633 197.151C756.633 196.66 756.521 196.223 756.297 195.839C756.084 195.455 755.79 195.156 755.417 194.943C755.054 194.719 754.633 194.607 754.153 194.607C753.673 194.607 753.246 194.719 752.873 194.943C752.5 195.156 752.206 195.455 751.993 195.839C751.78 196.223 751.673 196.66 751.673 197.151C751.673 197.652 751.78 198.1 751.993 198.495C752.206 198.879 752.5 199.183 752.873 199.407C753.246 199.631 753.673 199.743 754.153 199.743ZM765.12 200.975V196.543C765.12 195.967 764.938 195.492 764.576 195.119C764.213 194.745 763.744 194.559 763.168 194.559C762.784 194.559 762.442 194.644 762.144 194.815C761.845 194.985 761.61 195.22 761.44 195.519C761.269 195.817 761.184 196.159 761.184 196.543L760.592 196.207C760.592 195.631 760.72 195.119 760.976 194.671C761.232 194.223 761.589 193.871 762.048 193.615C762.506 193.348 763.024 193.215 763.6 193.215C764.176 193.215 764.682 193.359 765.12 193.647C765.568 193.935 765.92 194.313 766.176 194.783C766.432 195.241 766.56 195.732 766.56 196.255V200.975H765.12ZM759.743 200.975V193.375H761.184V200.975H759.743ZM768.589 202.735L769.581 200.831L770.093 200.703C770.04 200.82 769.97 200.916 769.885 200.991C769.81 201.065 769.714 201.103 769.597 201.103C769.373 201.103 769.165 201.012 768.973 200.831C768.792 200.639 768.701 200.404 768.701 200.127C768.701 199.817 768.802 199.561 769.005 199.359C769.208 199.145 769.464 199.039 769.773 199.039C770.05 199.039 770.296 199.145 770.509 199.359C770.722 199.561 770.829 199.817 770.829 200.127C770.829 200.244 770.802 200.388 770.749 200.559C770.706 200.719 770.616 200.927 770.477 201.183L769.421 203.183L768.589 202.735ZM776.5 200.975V189.871H778.004V200.975H776.5ZM785.745 200.975V196.543C785.745 195.967 785.563 195.492 785.201 195.119C784.838 194.745 784.369 194.559 783.793 194.559C783.409 194.559 783.067 194.644 782.769 194.815C782.47 194.985 782.235 195.22 782.065 195.519C781.894 195.817 781.809 196.159 781.809 196.543L781.217 196.207C781.217 195.631 781.345 195.119 781.601 194.671C781.857 194.223 782.214 193.871 782.673 193.615C783.131 193.348 783.649 193.215 784.225 193.215C784.801 193.215 785.307 193.359 785.745 193.647C786.193 193.935 786.545 194.313 786.801 194.783C787.057 195.241 787.185 195.732 787.185 196.255V200.975H785.745ZM780.368 200.975V193.375H781.809V200.975H780.368ZM791.55 201.135C791.123 201.135 790.718 201.081 790.334 200.975C789.961 200.857 789.614 200.697 789.294 200.495C788.974 200.281 788.697 200.031 788.462 199.743L789.39 198.815C789.667 199.156 789.987 199.412 790.35 199.583C790.713 199.743 791.118 199.823 791.566 199.823C792.014 199.823 792.361 199.748 792.606 199.599C792.851 199.439 792.974 199.22 792.974 198.943C792.974 198.665 792.873 198.452 792.67 198.303C792.478 198.143 792.227 198.015 791.918 197.919C791.609 197.812 791.278 197.711 790.926 197.615C790.585 197.508 790.259 197.375 789.95 197.215C789.641 197.055 789.385 196.836 789.182 196.559C788.99 196.281 788.894 195.913 788.894 195.455C788.894 194.996 789.006 194.601 789.23 194.271C789.454 193.929 789.763 193.668 790.158 193.487C790.563 193.305 791.049 193.215 791.614 193.215C792.211 193.215 792.739 193.321 793.198 193.535C793.667 193.737 794.051 194.047 794.35 194.463L793.422 195.391C793.209 195.113 792.942 194.9 792.622 194.751C792.313 194.601 791.961 194.527 791.566 194.527C791.15 194.527 790.83 194.601 790.606 194.751C790.393 194.889 790.286 195.087 790.286 195.343C790.286 195.599 790.382 195.796 790.574 195.935C790.766 196.073 791.017 196.191 791.326 196.287C791.646 196.383 791.977 196.484 792.318 196.591C792.659 196.687 792.985 196.82 793.294 196.991C793.603 197.161 793.854 197.391 794.046 197.679C794.249 197.967 794.35 198.345 794.35 198.815C794.35 199.529 794.094 200.095 793.582 200.511C793.081 200.927 792.403 201.135 791.55 201.135ZM795.978 200.975V193.375H797.418V200.975H795.978ZM796.698 191.855C796.432 191.855 796.213 191.769 796.042 191.599C795.872 191.417 795.786 191.193 795.786 190.927C795.786 190.671 795.872 190.457 796.042 190.287C796.213 190.105 796.432 190.015 796.698 190.015C796.965 190.015 797.184 190.105 797.354 190.287C797.525 190.457 797.61 190.671 797.61 190.927C797.61 191.193 797.525 191.417 797.354 191.599C797.184 191.769 796.965 191.855 796.698 191.855ZM802.756 201.135C802.052 201.135 801.423 200.964 800.868 200.623C800.314 200.271 799.871 199.796 799.54 199.199C799.22 198.601 799.06 197.929 799.06 197.183C799.06 196.436 799.22 195.764 799.54 195.167C799.871 194.569 800.314 194.095 800.868 193.743C801.423 193.391 802.052 193.215 802.756 193.215C803.322 193.215 803.834 193.337 804.292 193.583C804.751 193.817 805.119 194.148 805.396 194.575C805.684 194.991 805.844 195.476 805.876 196.031V198.319C805.844 198.863 805.69 199.348 805.412 199.775C805.135 200.201 804.767 200.537 804.308 200.783C803.85 201.017 803.332 201.135 802.756 201.135ZM802.996 199.775C803.476 199.775 803.892 199.663 804.244 199.439C804.607 199.215 804.89 198.911 805.092 198.527C805.295 198.132 805.396 197.684 805.396 197.183C805.396 196.66 805.29 196.207 805.076 195.823C804.874 195.439 804.591 195.135 804.228 194.911C803.876 194.687 803.46 194.575 802.98 194.575C802.5 194.575 802.079 194.687 801.716 194.911C801.354 195.135 801.066 195.444 800.852 195.839C800.65 196.223 800.548 196.665 800.548 197.167C800.548 197.679 800.65 198.132 800.852 198.527C801.066 198.911 801.354 199.215 801.716 199.439C802.09 199.663 802.516 199.775 802.996 199.775ZM806.756 200.975H805.3V198.927L805.572 197.071L805.3 195.231V189.551H806.756V200.975ZM812.373 201.135C811.616 201.135 810.933 200.964 810.325 200.623C809.717 200.271 809.237 199.796 808.885 199.199C808.533 198.601 808.357 197.924 808.357 197.167C808.357 196.42 808.528 195.748 808.869 195.151C809.221 194.553 809.69 194.084 810.277 193.743C810.874 193.391 811.541 193.215 812.277 193.215C812.981 193.215 813.6 193.375 814.133 193.695C814.677 194.015 815.098 194.457 815.397 195.023C815.706 195.588 815.861 196.228 815.861 196.943C815.861 197.049 815.856 197.167 815.845 197.295C815.834 197.412 815.813 197.551 815.781 197.711H809.365V196.511H815.013L814.485 196.975C814.485 196.463 814.394 196.031 814.213 195.679C814.032 195.316 813.776 195.039 813.445 194.847C813.114 194.644 812.714 194.543 812.245 194.543C811.754 194.543 811.322 194.649 810.949 194.863C810.576 195.076 810.288 195.375 810.085 195.759C809.882 196.143 809.781 196.596 809.781 197.119C809.781 197.652 809.888 198.121 810.101 198.527C810.314 198.921 810.618 199.231 811.013 199.455C811.408 199.668 811.861 199.775 812.373 199.775C812.8 199.775 813.189 199.7 813.541 199.551C813.904 199.401 814.213 199.177 814.469 198.879L815.397 199.823C815.034 200.249 814.586 200.575 814.053 200.799C813.53 201.023 812.97 201.135 812.373 201.135ZM817.431 200.975V193.375H818.871V200.975H817.431ZM818.871 196.639L818.327 196.399C818.327 195.428 818.551 194.655 818.999 194.079C819.447 193.503 820.092 193.215 820.935 193.215C821.319 193.215 821.666 193.284 821.975 193.423C822.284 193.551 822.572 193.769 822.839 194.079L821.895 195.055C821.735 194.884 821.559 194.761 821.367 194.687C821.175 194.612 820.951 194.575 820.695 194.575C820.162 194.575 819.724 194.745 819.383 195.087C819.042 195.428 818.871 195.945 818.871 196.639ZM544.62 221.135C543.799 221.135 543.063 220.953 542.412 220.591C541.772 220.217 541.266 219.711 540.892 219.071C540.519 218.42 540.332 217.684 540.332 216.863V209.871H541.836V216.831C541.836 217.417 541.959 217.924 542.204 218.351C542.45 218.777 542.78 219.108 543.196 219.343C543.623 219.577 544.098 219.695 544.62 219.695C545.164 219.695 545.639 219.577 546.044 219.343C546.46 219.108 546.786 218.777 547.02 218.351C547.266 217.924 547.388 217.423 547.388 216.847V209.871H548.908V216.879C548.908 217.7 548.722 218.431 548.348 219.071C547.975 219.711 547.468 220.217 546.828 220.591C546.188 220.953 545.452 221.135 544.62 221.135ZM555.126 221.135C554.55 221.135 554.028 221.017 553.558 220.783C553.1 220.537 552.732 220.201 552.454 219.775C552.177 219.348 552.022 218.863 551.99 218.319V216.031C552.022 215.476 552.177 214.991 552.454 214.575C552.742 214.148 553.116 213.817 553.574 213.583C554.044 213.337 554.561 213.215 555.126 213.215C555.82 213.215 556.444 213.391 556.998 213.743C557.564 214.095 558.006 214.569 558.326 215.167C558.646 215.764 558.806 216.436 558.806 217.183C558.806 217.929 558.646 218.601 558.326 219.199C558.006 219.796 557.564 220.271 556.998 220.623C556.444 220.964 555.82 221.135 555.126 221.135ZM551.126 224.159V213.375H552.566V215.375L552.294 217.215L552.566 219.071V224.159H551.126ZM554.886 219.775C555.366 219.775 555.788 219.663 556.15 219.439C556.513 219.215 556.801 218.911 557.014 218.527C557.228 218.132 557.334 217.679 557.334 217.167C557.334 216.665 557.228 216.217 557.014 215.823C556.801 215.428 556.513 215.124 556.15 214.911C555.788 214.687 555.372 214.575 554.902 214.575C554.422 214.575 554.001 214.687 553.638 214.911C553.276 215.124 552.993 215.428 552.79 215.823C552.588 216.217 552.486 216.671 552.486 217.183C552.486 217.684 552.582 218.132 552.774 218.527C552.977 218.911 553.26 219.215 553.622 219.439C553.996 219.663 554.417 219.775 554.886 219.775ZM563.655 221.135C562.951 221.135 562.321 220.964 561.767 220.623C561.212 220.271 560.769 219.796 560.439 219.199C560.119 218.601 559.959 217.929 559.959 217.183C559.959 216.436 560.119 215.764 560.439 215.167C560.769 214.569 561.212 214.095 561.767 213.743C562.321 213.391 562.951 213.215 563.655 213.215C564.22 213.215 564.732 213.337 565.191 213.583C565.649 213.817 566.017 214.148 566.295 214.575C566.583 214.991 566.743 215.476 566.775 216.031V218.319C566.743 218.863 566.588 219.348 566.311 219.775C566.033 220.201 565.665 220.537 565.207 220.783C564.748 221.017 564.231 221.135 563.655 221.135ZM563.895 219.775C564.375 219.775 564.791 219.663 565.143 219.439C565.505 219.215 565.788 218.911 565.991 218.527C566.193 218.132 566.295 217.684 566.295 217.183C566.295 216.66 566.188 216.207 565.975 215.823C565.772 215.439 565.489 215.135 565.127 214.911C564.775 214.687 564.359 214.575 563.879 214.575C563.399 214.575 562.977 214.687 562.615 214.911C562.252 215.135 561.964 215.444 561.751 215.839C561.548 216.223 561.447 216.665 561.447 217.167C561.447 217.679 561.548 218.132 561.751 218.527C561.964 218.911 562.252 219.215 562.615 219.439C562.988 219.663 563.415 219.775 563.895 219.775ZM567.655 220.975H566.199V218.927L566.471 217.071L566.199 215.231V209.551H567.655V220.975ZM572.983 221.135C572.29 221.135 571.661 220.964 571.095 220.623C570.53 220.271 570.082 219.796 569.751 219.199C569.431 218.601 569.271 217.929 569.271 217.183C569.271 216.436 569.431 215.764 569.751 215.167C570.082 214.569 570.525 214.095 571.079 213.743C571.645 213.391 572.279 213.215 572.983 213.215C573.559 213.215 574.071 213.337 574.519 213.583C574.978 213.817 575.346 214.148 575.623 214.575C575.901 214.991 576.055 215.476 576.087 216.031V218.319C576.055 218.863 575.901 219.348 575.623 219.775C575.357 220.201 574.994 220.537 574.535 220.783C574.087 221.017 573.57 221.135 572.983 221.135ZM573.223 219.775C573.938 219.775 574.514 219.535 574.951 219.055C575.389 218.564 575.607 217.94 575.607 217.183C575.607 216.66 575.506 216.207 575.303 215.823C575.111 215.428 574.834 215.124 574.471 214.911C574.109 214.687 573.687 214.575 573.207 214.575C572.727 214.575 572.301 214.687 571.927 214.911C571.565 215.135 571.277 215.444 571.063 215.839C570.861 216.223 570.759 216.665 570.759 217.167C570.759 217.679 570.861 218.132 571.063 218.527C571.277 218.911 571.57 219.215 571.943 219.439C572.317 219.663 572.743 219.775 573.223 219.775ZM575.511 220.975V218.927L575.783 217.071L575.511 215.231V213.375H576.967V220.975H575.511ZM580.201 220.975V210.191H581.641V220.975H580.201ZM578.329 214.687V213.375H583.513V214.687H578.329ZM588.209 221.135C587.451 221.135 586.769 220.964 586.161 220.623C585.553 220.271 585.073 219.796 584.721 219.199C584.369 218.601 584.193 217.924 584.193 217.167C584.193 216.42 584.363 215.748 584.705 215.151C585.057 214.553 585.526 214.084 586.113 213.743C586.71 213.391 587.377 213.215 588.113 213.215C588.817 213.215 589.435 213.375 589.969 213.695C590.513 214.015 590.934 214.457 591.233 215.023C591.542 215.588 591.697 216.228 591.697 216.943C591.697 217.049 591.691 217.167 591.681 217.295C591.67 217.412 591.649 217.551 591.617 217.711H585.201V216.511H590.849L590.321 216.975C590.321 216.463 590.23 216.031 590.049 215.679C589.867 215.316 589.611 215.039 589.281 214.847C588.95 214.644 588.55 214.543 588.081 214.543C587.59 214.543 587.158 214.649 586.785 214.863C586.411 215.076 586.123 215.375 585.921 215.759C585.718 216.143 585.617 216.596 585.617 217.119C585.617 217.652 585.723 218.121 585.937 218.527C586.15 218.921 586.454 219.231 586.849 219.455C587.243 219.668 587.697 219.775 588.209 219.775C588.635 219.775 589.025 219.7 589.377 219.551C589.739 219.401 590.049 219.177 590.305 218.879L591.233 219.823C590.87 220.249 590.422 220.575 589.889 220.799C589.366 221.023 588.806 221.135 588.209 221.135ZM595.683 221.135C595.256 221.135 594.851 221.081 594.467 220.975C594.094 220.857 593.747 220.697 593.427 220.495C593.107 220.281 592.83 220.031 592.595 219.743L593.523 218.815C593.8 219.156 594.12 219.412 594.483 219.583C594.846 219.743 595.251 219.823 595.699 219.823C596.147 219.823 596.494 219.748 596.739 219.599C596.984 219.439 597.107 219.22 597.107 218.943C597.107 218.665 597.006 218.452 596.803 218.303C596.611 218.143 596.36 218.015 596.051 217.919C595.742 217.812 595.411 217.711 595.059 217.615C594.718 217.508 594.392 217.375 594.083 217.215C593.774 217.055 593.518 216.836 593.315 216.559C593.123 216.281 593.027 215.913 593.027 215.455C593.027 214.996 593.139 214.601 593.363 214.271C593.587 213.929 593.896 213.668 594.291 213.487C594.696 213.305 595.182 213.215 595.747 213.215C596.344 213.215 596.872 213.321 597.331 213.535C597.8 213.737 598.184 214.047 598.483 214.463L597.555 215.391C597.342 215.113 597.075 214.9 596.755 214.751C596.446 214.601 596.094 214.527 595.699 214.527C595.283 214.527 594.963 214.601 594.739 214.751C594.526 214.889 594.419 215.087 594.419 215.343C594.419 215.599 594.515 215.796 594.707 215.935C594.899 216.073 595.15 216.191 595.459 216.287C595.779 216.383 596.11 216.484 596.451 216.591C596.792 216.687 597.118 216.82 597.427 216.991C597.736 217.161 597.987 217.391 598.179 217.679C598.382 217.967 598.483 218.345 598.483 218.815C598.483 219.529 598.227 220.095 597.715 220.511C597.214 220.927 596.536 221.135 595.683 221.135ZM600.175 222.735L601.167 220.831L601.679 220.703C601.626 220.82 601.556 220.916 601.471 220.991C601.396 221.065 601.3 221.103 601.183 221.103C600.959 221.103 600.751 221.012 600.559 220.831C600.378 220.639 600.287 220.404 600.287 220.127C600.287 219.817 600.388 219.561 600.591 219.359C600.794 219.145 601.05 219.039 601.359 219.039C601.636 219.039 601.882 219.145 602.095 219.359C602.308 219.561 602.415 219.817 602.415 220.127C602.415 220.244 602.388 220.388 602.335 220.559C602.292 220.719 602.202 220.927 602.063 221.183L601.007 223.183L600.175 222.735ZM611.061 221.135C610.368 221.135 609.739 220.964 609.173 220.623C608.608 220.271 608.16 219.796 607.829 219.199C607.509 218.601 607.349 217.929 607.349 217.183C607.349 216.436 607.509 215.764 607.829 215.167C608.16 214.569 608.603 214.095 609.157 213.743C609.723 213.391 610.357 213.215 611.061 213.215C611.637 213.215 612.149 213.337 612.597 213.583C613.056 213.817 613.424 214.148 613.701 214.575C613.979 214.991 614.133 215.476 614.165 216.031V218.319C614.133 218.863 613.979 219.348 613.701 219.775C613.435 220.201 613.072 220.537 612.613 220.783C612.165 221.017 611.648 221.135 611.061 221.135ZM611.301 219.775C612.016 219.775 612.592 219.535 613.029 219.055C613.467 218.564 613.685 217.94 613.685 217.183C613.685 216.66 613.584 216.207 613.381 215.823C613.189 215.428 612.912 215.124 612.549 214.911C612.187 214.687 611.765 214.575 611.285 214.575C610.805 214.575 610.379 214.687 610.005 214.911C609.643 215.135 609.355 215.444 609.141 215.839C608.939 216.223 608.837 216.665 608.837 217.167C608.837 217.679 608.939 218.132 609.141 218.527C609.355 218.911 609.648 219.215 610.021 219.439C610.395 219.663 610.821 219.775 611.301 219.775ZM613.589 220.975V218.927L613.861 217.071L613.589 215.231V213.375H615.045V220.975H613.589ZM622.518 220.975V216.543C622.518 215.967 622.337 215.492 621.974 215.119C621.611 214.745 621.142 214.559 620.566 214.559C620.182 214.559 619.841 214.644 619.542 214.815C619.243 214.985 619.009 215.22 618.838 215.519C618.667 215.817 618.582 216.159 618.582 216.543L617.99 216.207C617.99 215.631 618.118 215.119 618.374 214.671C618.63 214.223 618.987 213.871 619.446 213.615C619.905 213.348 620.422 213.215 620.998 213.215C621.574 213.215 622.081 213.359 622.518 213.647C622.966 213.935 623.318 214.313 623.574 214.783C623.83 215.241 623.958 215.732 623.958 216.255V220.975H622.518ZM617.142 220.975V213.375H618.582V220.975H617.142ZM629.124 221.135C628.42 221.135 627.79 220.964 627.236 220.623C626.681 220.271 626.238 219.796 625.908 219.199C625.588 218.601 625.428 217.929 625.428 217.183C625.428 216.436 625.588 215.764 625.908 215.167C626.238 214.569 626.681 214.095 627.236 213.743C627.79 213.391 628.42 213.215 629.124 213.215C629.689 213.215 630.201 213.337 630.66 213.583C631.118 213.817 631.486 214.148 631.764 214.575C632.052 214.991 632.212 215.476 632.244 216.031V218.319C632.212 218.863 632.057 219.348 631.78 219.775C631.502 220.201 631.134 220.537 630.676 220.783C630.217 221.017 629.7 221.135 629.124 221.135ZM629.364 219.775C629.844 219.775 630.26 219.663 630.612 219.439C630.974 219.215 631.257 218.911 631.46 218.527C631.662 218.132 631.764 217.684 631.764 217.183C631.764 216.66 631.657 216.207 631.444 215.823C631.241 215.439 630.958 215.135 630.596 214.911C630.244 214.687 629.828 214.575 629.348 214.575C628.868 214.575 628.446 214.687 628.084 214.911C627.721 215.135 627.433 215.444 627.22 215.839C627.017 216.223 626.916 216.665 626.916 217.167C626.916 217.679 627.017 218.132 627.22 218.527C627.433 218.911 627.721 219.215 628.084 219.439C628.457 219.663 628.884 219.775 629.364 219.775ZM633.124 220.975H631.668V218.927L631.94 217.071L631.668 215.231V209.551H633.124V220.975ZM641.892 221.135C641.018 221.135 640.271 220.975 639.652 220.655C639.034 220.335 638.484 219.871 638.004 219.263L639.028 218.239C639.38 218.729 639.786 219.103 640.244 219.359C640.703 219.604 641.268 219.727 641.94 219.727C642.602 219.727 643.13 219.583 643.524 219.295C643.93 219.007 644.132 218.612 644.132 218.111C644.132 217.695 644.036 217.359 643.844 217.103C643.652 216.847 643.391 216.639 643.06 216.479C642.74 216.308 642.388 216.159 642.004 216.031C641.62 215.892 641.236 215.748 640.852 215.599C640.468 215.439 640.116 215.247 639.796 215.023C639.476 214.788 639.215 214.484 639.012 214.111C638.82 213.737 638.724 213.268 638.724 212.703C638.724 212.073 638.874 211.54 639.172 211.103C639.482 210.655 639.898 210.313 640.42 210.079C640.954 209.833 641.551 209.711 642.212 209.711C642.938 209.711 643.588 209.855 644.164 210.143C644.74 210.42 645.21 210.788 645.572 211.247L644.548 212.271C644.218 211.887 643.86 211.599 643.476 211.407C643.103 211.215 642.671 211.119 642.18 211.119C641.583 211.119 641.108 211.252 640.756 211.519C640.404 211.775 640.228 212.137 640.228 212.607C640.228 212.98 640.324 213.284 640.516 213.519C640.719 213.743 640.98 213.935 641.3 214.095C641.62 214.255 641.972 214.404 642.356 214.543C642.751 214.671 643.14 214.815 643.524 214.975C643.908 215.135 644.26 215.337 644.58 215.583C644.9 215.828 645.156 216.148 645.348 216.543C645.551 216.927 645.652 217.412 645.652 217.999C645.652 218.98 645.311 219.748 644.628 220.303C643.956 220.857 643.044 221.135 641.892 221.135ZM651.423 221.135C650.847 221.135 650.325 221.017 649.855 220.783C649.397 220.537 649.029 220.201 648.751 219.775C648.474 219.348 648.319 218.863 648.287 218.319V216.031C648.319 215.476 648.474 214.991 648.751 214.575C649.039 214.148 649.413 213.817 649.871 213.583C650.341 213.337 650.858 213.215 651.423 213.215C652.117 213.215 652.741 213.391 653.295 213.743C653.861 214.095 654.303 214.569 654.623 215.167C654.943 215.764 655.103 216.436 655.103 217.183C655.103 217.929 654.943 218.601 654.623 219.199C654.303 219.796 653.861 220.271 653.295 220.623C652.741 220.964 652.117 221.135 651.423 221.135ZM647.423 224.159V213.375H648.863V215.375L648.591 217.215L648.863 219.071V224.159H647.423ZM651.183 219.775C651.663 219.775 652.085 219.663 652.447 219.439C652.81 219.215 653.098 218.911 653.311 218.527C653.525 218.132 653.631 217.679 653.631 217.167C653.631 216.665 653.525 216.217 653.311 215.823C653.098 215.428 652.81 215.124 652.447 214.911C652.085 214.687 651.669 214.575 651.199 214.575C650.719 214.575 650.298 214.687 649.935 214.911C649.573 215.124 649.29 215.428 649.087 215.823C648.885 216.217 648.783 216.671 648.783 217.183C648.783 217.684 648.879 218.132 649.071 218.527C649.274 218.911 649.557 219.215 649.919 219.439C650.293 219.663 650.714 219.775 651.183 219.775ZM660.256 221.135C659.498 221.135 658.816 220.964 658.208 220.623C657.6 220.271 657.12 219.796 656.768 219.199C656.416 218.601 656.24 217.924 656.24 217.167C656.24 216.42 656.41 215.748 656.752 215.151C657.104 214.553 657.573 214.084 658.16 213.743C658.757 213.391 659.424 213.215 660.16 213.215C660.864 213.215 661.482 213.375 662.016 213.695C662.56 214.015 662.981 214.457 663.28 215.023C663.589 215.588 663.744 216.228 663.744 216.943C663.744 217.049 663.738 217.167 663.728 217.295C663.717 217.412 663.696 217.551 663.664 217.711H657.248V216.511H662.896L662.368 216.975C662.368 216.463 662.277 216.031 662.096 215.679C661.914 215.316 661.658 215.039 661.328 214.847C660.997 214.644 660.597 214.543 660.128 214.543C659.637 214.543 659.205 214.649 658.832 214.863C658.458 215.076 658.17 215.375 657.968 215.759C657.765 216.143 657.664 216.596 657.664 217.119C657.664 217.652 657.77 218.121 657.984 218.527C658.197 218.921 658.501 219.231 658.896 219.455C659.29 219.668 659.744 219.775 660.256 219.775C660.682 219.775 661.072 219.7 661.424 219.551C661.786 219.401 662.096 219.177 662.352 218.879L663.28 219.823C662.917 220.249 662.469 220.575 661.936 220.799C661.413 221.023 660.853 221.135 660.256 221.135ZM668.786 221.135C668.039 221.135 667.362 220.959 666.754 220.607C666.156 220.255 665.682 219.78 665.33 219.183C664.988 218.575 664.818 217.903 664.818 217.167C664.818 216.42 664.988 215.748 665.33 215.151C665.682 214.553 666.156 214.084 666.754 213.743C667.362 213.391 668.039 213.215 668.786 213.215C669.372 213.215 669.916 213.327 670.418 213.551C670.919 213.764 671.351 214.079 671.714 214.495L670.754 215.455C670.519 215.177 670.231 214.969 669.89 214.831C669.559 214.681 669.191 214.607 668.786 214.607C668.306 214.607 667.879 214.719 667.506 214.943C667.132 215.156 666.839 215.455 666.626 215.839C666.412 216.223 666.306 216.665 666.306 217.167C666.306 217.668 666.412 218.111 666.626 218.495C666.839 218.879 667.132 219.183 667.506 219.407C667.879 219.631 668.306 219.743 668.786 219.743C669.191 219.743 669.559 219.673 669.89 219.535C670.231 219.385 670.524 219.172 670.77 218.895L671.714 219.855C671.362 220.26 670.93 220.575 670.418 220.799C669.916 221.023 669.372 221.135 668.786 221.135ZM673.158 220.975V213.375H674.598V220.975H673.158ZM673.878 211.855C673.611 211.855 673.393 211.769 673.222 211.599C673.051 211.417 672.966 211.193 672.966 210.927C672.966 210.671 673.051 210.457 673.222 210.287C673.393 210.105 673.611 210.015 673.878 210.015C674.145 210.015 674.363 210.105 674.534 210.287C674.705 210.457 674.79 210.671 674.79 210.927C674.79 211.193 674.705 211.417 674.534 211.599C674.363 211.769 674.145 211.855 673.878 211.855ZM679.952 221.135C679.259 221.135 678.629 220.964 678.064 220.623C677.499 220.271 677.051 219.796 676.72 219.199C676.4 218.601 676.24 217.929 676.24 217.183C676.24 216.436 676.4 215.764 676.72 215.167C677.051 214.569 677.493 214.095 678.048 213.743C678.613 213.391 679.248 213.215 679.952 213.215C680.528 213.215 681.04 213.337 681.488 213.583C681.947 213.817 682.315 214.148 682.592 214.575C682.869 214.991 683.024 215.476 683.056 216.031V218.319C683.024 218.863 682.869 219.348 682.592 219.775C682.325 220.201 681.963 220.537 681.504 220.783C681.056 221.017 680.539 221.135 679.952 221.135ZM680.192 219.775C680.907 219.775 681.483 219.535 681.92 219.055C682.357 218.564 682.576 217.94 682.576 217.183C682.576 216.66 682.475 216.207 682.272 215.823C682.08 215.428 681.803 215.124 681.44 214.911C681.077 214.687 680.656 214.575 680.176 214.575C679.696 214.575 679.269 214.687 678.896 214.911C678.533 215.135 678.245 215.444 678.032 215.839C677.829 216.223 677.728 216.665 677.728 217.167C677.728 217.679 677.829 218.132 678.032 218.527C678.245 218.911 678.539 219.215 678.912 219.439C679.285 219.663 679.712 219.775 680.192 219.775ZM682.48 220.975V218.927L682.752 217.071L682.48 215.231V213.375H683.936V220.975H682.48ZM686.033 220.975V209.551H687.473V220.975H686.033ZM698.22 221.135C697.43 221.135 696.694 220.991 696.012 220.703C695.329 220.404 694.732 219.993 694.22 219.471C693.708 218.937 693.308 218.324 693.02 217.631C692.742 216.937 692.604 216.196 692.604 215.407C692.604 214.607 692.742 213.865 693.02 213.183C693.308 212.489 693.702 211.881 694.204 211.359C694.716 210.836 695.308 210.431 695.98 210.143C696.662 209.855 697.398 209.711 698.188 209.711C698.977 209.711 699.708 209.855 700.38 210.143C701.062 210.431 701.66 210.836 702.172 211.359C702.684 211.881 703.084 212.489 703.372 213.183C703.66 213.876 703.804 214.623 703.804 215.423C703.804 216.212 703.66 216.953 703.372 217.647C703.084 218.34 702.684 218.948 702.172 219.471C701.67 219.993 701.078 220.404 700.396 220.703C699.724 220.991 698.998 221.135 698.22 221.135ZM698.188 219.695C698.988 219.695 699.686 219.513 700.284 219.151C700.892 218.777 701.372 218.271 701.724 217.631C702.076 216.98 702.252 216.239 702.252 215.407C702.252 214.788 702.15 214.223 701.948 213.711C701.745 213.188 701.462 212.735 701.1 212.351C700.737 211.967 700.31 211.673 699.82 211.471C699.329 211.257 698.785 211.151 698.188 211.151C697.398 211.151 696.7 211.332 696.092 211.695C695.494 212.057 695.02 212.559 694.668 213.199C694.326 213.839 694.156 214.575 694.156 215.407C694.156 216.025 694.252 216.601 694.444 217.135C694.646 217.657 694.924 218.111 695.276 218.495C695.638 218.868 696.065 219.161 696.556 219.375C697.057 219.588 697.601 219.695 698.188 219.695ZM706.699 220.975V212.543C706.699 211.956 706.821 211.444 707.067 211.007C707.323 210.559 707.675 210.207 708.123 209.951C708.571 209.684 709.088 209.551 709.675 209.551C710.272 209.551 710.763 209.679 711.147 209.935C711.531 210.191 711.813 210.543 711.995 210.991C712.187 211.428 712.283 211.924 712.283 212.479H711.227C711.216 211.988 711.083 211.599 710.827 211.311C710.571 211.012 710.187 210.863 709.675 210.863C709.173 210.863 708.789 211.012 708.523 211.311C708.267 211.599 708.139 211.999 708.139 212.511V220.975H706.699ZM704.827 214.687V213.375H715.083V214.687H704.827ZM711.227 220.975V212.239C711.227 211.673 711.349 211.183 711.595 210.767C711.84 210.34 712.176 210.004 712.603 209.759C713.04 209.513 713.547 209.391 714.123 209.391C714.56 209.391 714.939 209.465 715.259 209.615C715.579 209.764 715.872 209.983 716.139 210.271L715.195 211.199C715.056 211.049 714.901 210.937 714.731 210.863C714.56 210.777 714.352 210.735 714.107 210.735C713.648 210.735 713.291 210.868 713.035 211.135C712.789 211.401 712.667 211.769 712.667 212.239V220.975H711.227ZM719.599 221.135C718.842 221.135 718.159 220.964 717.551 220.623C716.943 220.271 716.463 219.796 716.111 219.199C715.759 218.601 715.583 217.924 715.583 217.167C715.583 216.42 715.754 215.748 716.095 215.151C716.447 214.553 716.917 214.084 717.503 213.743C718.101 213.391 718.767 213.215 719.503 213.215C720.207 213.215 720.826 213.375 721.359 213.695C721.903 214.015 722.325 214.457 722.623 215.023C722.933 215.588 723.087 216.228 723.087 216.943C723.087 217.049 723.082 217.167 723.071 217.295C723.061 217.412 723.039 217.551 723.007 217.711H716.591V216.511H722.239L721.711 216.975C721.711 216.463 721.621 216.031 721.439 215.679C721.258 215.316 721.002 215.039 720.671 214.847C720.341 214.644 719.941 214.543 719.471 214.543C718.981 214.543 718.549 214.649 718.175 214.863C717.802 215.076 717.514 215.375 717.311 215.759C717.109 216.143 717.007 216.596 717.007 217.119C717.007 217.652 717.114 218.121 717.327 218.527C717.541 218.921 717.845 219.231 718.239 219.455C718.634 219.668 719.087 219.775 719.599 219.775C720.026 219.775 720.415 219.7 720.767 219.551C721.13 219.401 721.439 219.177 721.695 218.879L722.623 219.823C722.261 220.249 721.813 220.575 721.279 220.799C720.757 221.023 720.197 221.135 719.599 221.135ZM724.658 220.975V213.375H726.098V220.975H724.658ZM726.098 216.639L725.554 216.399C725.554 215.428 725.778 214.655 726.226 214.079C726.674 213.503 727.319 213.215 728.162 213.215C728.546 213.215 728.892 213.284 729.202 213.423C729.511 213.551 729.799 213.769 730.066 214.079L729.122 215.055C728.962 214.884 728.786 214.761 728.594 214.687C728.402 214.612 728.178 214.575 727.922 214.575C727.388 214.575 726.951 214.745 726.61 215.087C726.268 215.428 726.098 215.945 726.098 216.639ZM733.324 221.135C732.897 221.135 732.492 221.081 732.108 220.975C731.734 220.857 731.388 220.697 731.068 220.495C730.748 220.281 730.47 220.031 730.236 219.743L731.164 218.815C731.441 219.156 731.761 219.412 732.124 219.583C732.486 219.743 732.892 219.823 733.34 219.823C733.788 219.823 734.134 219.748 734.38 219.599C734.625 219.439 734.748 219.22 734.748 218.943C734.748 218.665 734.646 218.452 734.444 218.303C734.252 218.143 734.001 218.015 733.692 217.919C733.382 217.812 733.052 217.711 732.7 217.615C732.358 217.508 732.033 217.375 731.724 217.215C731.414 217.055 731.158 216.836 730.956 216.559C730.764 216.281 730.668 215.913 730.668 215.455C730.668 214.996 730.78 214.601 731.004 214.271C731.228 213.929 731.537 213.668 731.932 213.487C732.337 213.305 732.822 213.215 733.388 213.215C733.985 213.215 734.513 213.321 734.972 213.535C735.441 213.737 735.825 214.047 736.124 214.463L735.196 215.391C734.982 215.113 734.716 214.9 734.396 214.751C734.086 214.601 733.734 214.527 733.34 214.527C732.924 214.527 732.604 214.601 732.38 214.751C732.166 214.889 732.06 215.087 732.06 215.343C732.06 215.599 732.156 215.796 732.348 215.935C732.54 216.073 732.79 216.191 733.1 216.287C733.42 216.383 733.75 216.484 734.092 216.591C734.433 216.687 734.758 216.82 735.068 216.991C735.377 217.161 735.628 217.391 735.82 217.679C736.022 217.967 736.124 218.345 736.124 218.815C736.124 219.529 735.868 220.095 735.356 220.511C734.854 220.927 734.177 221.135 733.324 221.135ZM738.168 217.455L737.96 209.551H739.496L739.288 217.455H738.168ZM738.712 221.135C738.413 221.135 738.168 221.033 737.976 220.831C737.784 220.628 737.688 220.377 737.688 220.079C737.688 219.78 737.784 219.535 737.976 219.343C738.168 219.14 738.413 219.039 738.712 219.039C739.021 219.039 739.272 219.14 739.464 219.343C739.656 219.535 739.752 219.78 739.752 220.079C739.752 220.377 739.656 220.628 739.464 220.831C739.272 221.033 739.021 221.135 738.712 221.135Z" fill="#8B8B8B"/>
<rect x="440" y="244.975" width="400" height="48" rx="24" fill="white" fill-opacity="0.02"/>
<rect x="440.5" y="245.475" width="399" height="47" rx="23.5" stroke="#8E8AAD" stroke-opacity="0.2"/>
<path d="M461.148 273.975V264.259H462.464V273.975H461.148ZM462.044 273.975V272.771H467.616V273.975H462.044ZM462.044 269.579V268.431H467.154V269.579H462.044ZM462.044 265.463V264.259H467.546V265.463H462.044ZM473.886 273.975V270.097C473.886 269.593 473.727 269.177 473.41 268.851C473.092 268.524 472.682 268.361 472.178 268.361C471.842 268.361 471.543 268.435 471.282 268.585C471.02 268.734 470.815 268.939 470.666 269.201C470.516 269.462 470.442 269.761 470.442 270.097L469.924 269.803C469.924 269.299 470.036 268.851 470.26 268.459C470.484 268.067 470.796 267.759 471.198 267.535C471.599 267.301 472.052 267.185 472.556 267.185C473.06 267.185 473.503 267.311 473.886 267.563C474.278 267.815 474.586 268.146 474.81 268.557C475.034 268.958 475.146 269.387 475.146 269.845V273.975H473.886ZM469.182 273.975V267.325H470.442V273.975H469.182ZM477.792 273.975V264.539H479.052V273.975H477.792ZM476.154 268.473V267.325H480.69V268.473H476.154ZM484.799 274.115C484.136 274.115 483.539 273.965 483.007 273.667C482.475 273.359 482.055 272.943 481.747 272.421C481.439 271.898 481.285 271.305 481.285 270.643C481.285 269.989 481.434 269.401 481.733 268.879C482.041 268.356 482.452 267.945 482.965 267.647C483.488 267.339 484.071 267.185 484.715 267.185C485.331 267.185 485.872 267.325 486.339 267.605C486.815 267.885 487.184 268.272 487.445 268.767C487.716 269.261 487.851 269.821 487.851 270.447C487.851 270.54 487.846 270.643 487.837 270.755C487.828 270.857 487.809 270.979 487.781 271.119H482.167V270.069H487.109L486.647 270.475C486.647 270.027 486.568 269.649 486.409 269.341C486.25 269.023 486.026 268.781 485.737 268.613C485.448 268.435 485.098 268.347 484.687 268.347C484.258 268.347 483.88 268.44 483.553 268.627C483.226 268.813 482.974 269.075 482.797 269.411C482.62 269.747 482.531 270.143 482.531 270.601C482.531 271.067 482.624 271.478 482.811 271.833C482.998 272.178 483.264 272.449 483.609 272.645C483.954 272.831 484.351 272.925 484.799 272.925C485.172 272.925 485.513 272.859 485.821 272.729C486.138 272.598 486.409 272.402 486.633 272.141L487.445 272.967C487.128 273.34 486.736 273.625 486.269 273.821C485.812 274.017 485.322 274.115 484.799 274.115ZM489.225 273.975V267.325H490.485V273.975H489.225ZM490.485 270.181L490.009 269.971C490.009 269.121 490.205 268.445 490.597 267.941C490.989 267.437 491.553 267.185 492.291 267.185C492.627 267.185 492.93 267.245 493.201 267.367C493.471 267.479 493.723 267.67 493.957 267.941L493.131 268.795C492.991 268.645 492.837 268.538 492.669 268.473C492.501 268.407 492.305 268.375 492.081 268.375C491.614 268.375 491.231 268.524 490.933 268.823C490.634 269.121 490.485 269.574 490.485 270.181ZM500.186 274.031L497.302 267.325H498.702L500.844 272.575H500.396L502.65 267.325H504.05L500.942 274.031H500.186ZM498.282 276.761L500.242 272.743L500.942 274.031L499.682 276.761H498.282ZM507.862 274.115C507.209 274.115 506.621 273.961 506.098 273.653C505.576 273.345 505.16 272.929 504.852 272.407C504.544 271.875 504.39 271.282 504.39 270.629C504.39 269.985 504.544 269.406 504.852 268.893C505.16 268.37 505.576 267.955 506.098 267.647C506.621 267.339 507.209 267.185 507.862 267.185C508.506 267.185 509.09 267.339 509.612 267.647C510.144 267.945 510.564 268.356 510.872 268.879C511.18 269.401 511.334 269.985 511.334 270.629C511.334 271.282 511.18 271.875 510.872 272.407C510.564 272.929 510.144 273.345 509.612 273.653C509.09 273.961 508.506 274.115 507.862 274.115ZM507.862 272.897C508.282 272.897 508.656 272.799 508.982 272.603C509.309 272.407 509.566 272.141 509.752 271.805C509.939 271.459 510.032 271.067 510.032 270.629C510.032 270.199 509.934 269.817 509.738 269.481C509.552 269.145 509.295 268.883 508.968 268.697C508.651 268.501 508.282 268.403 507.862 268.403C507.442 268.403 507.069 268.501 506.742 268.697C506.416 268.883 506.159 269.145 505.972 269.481C505.786 269.817 505.692 270.199 505.692 270.629C505.692 271.067 505.786 271.459 505.972 271.805C506.159 272.141 506.416 272.407 506.742 272.603C507.069 272.799 507.442 272.897 507.862 272.897ZM515.428 274.115C514.887 274.115 514.397 273.993 513.958 273.751C513.529 273.499 513.193 273.153 512.95 272.715C512.707 272.276 512.586 271.767 512.586 271.189V267.325H513.846V271.133C513.846 271.497 513.907 271.814 514.028 272.085C514.159 272.346 514.345 272.547 514.588 272.687C514.831 272.827 515.115 272.897 515.442 272.897C515.937 272.897 516.324 272.743 516.604 272.435C516.884 272.117 517.024 271.683 517.024 271.133V267.325H518.284V271.189C518.284 271.767 518.163 272.276 517.92 272.715C517.677 273.153 517.341 273.499 516.912 273.751C516.492 273.993 515.997 274.115 515.428 274.115ZM519.973 273.975V267.325H521.233V273.975H519.973ZM521.233 270.181L520.757 269.971C520.757 269.121 520.953 268.445 521.345 267.941C521.737 267.437 522.301 267.185 523.039 267.185C523.375 267.185 523.678 267.245 523.949 267.367C524.219 267.479 524.471 267.67 524.705 267.941L523.879 268.795C523.739 268.645 523.585 268.538 523.417 268.473C523.249 268.407 523.053 268.375 522.829 268.375C522.362 268.375 521.979 268.524 521.681 268.823C521.382 269.121 521.233 269.574 521.233 270.181ZM531.83 274.115C531.168 274.115 530.57 273.965 530.038 273.667C529.506 273.359 529.086 272.943 528.778 272.421C528.47 271.898 528.316 271.305 528.316 270.643C528.316 269.989 528.466 269.401 528.764 268.879C529.072 268.356 529.483 267.945 529.996 267.647C530.519 267.339 531.102 267.185 531.746 267.185C532.362 267.185 532.904 267.325 533.37 267.605C533.846 267.885 534.215 268.272 534.476 268.767C534.747 269.261 534.882 269.821 534.882 270.447C534.882 270.54 534.878 270.643 534.868 270.755C534.859 270.857 534.84 270.979 534.812 271.119H529.198V270.069H534.14L533.678 270.475C533.678 270.027 533.599 269.649 533.44 269.341C533.282 269.023 533.058 268.781 532.768 268.613C532.479 268.435 532.129 268.347 531.718 268.347C531.289 268.347 530.911 268.44 530.584 268.627C530.258 268.813 530.006 269.075 529.828 269.411C529.651 269.747 529.562 270.143 529.562 270.601C529.562 271.067 529.656 271.478 529.842 271.833C530.029 272.178 530.295 272.449 530.64 272.645C530.986 272.831 531.382 272.925 531.83 272.925C532.204 272.925 532.544 272.859 532.852 272.729C533.17 272.598 533.44 272.402 533.664 272.141L534.476 272.967C534.159 273.34 533.767 273.625 533.3 273.821C532.843 274.017 532.353 274.115 531.83 274.115ZM536.256 273.975V267.325H537.516V273.975H536.256ZM540.75 273.975V269.957C540.75 269.462 540.596 269.075 540.288 268.795C539.989 268.505 539.611 268.361 539.154 268.361C538.846 268.361 538.571 268.426 538.328 268.557C538.085 268.687 537.889 268.869 537.74 269.103C537.591 269.336 537.516 269.616 537.516 269.943L536.998 269.691C536.998 269.187 537.105 268.748 537.32 268.375C537.544 268.001 537.847 267.712 538.23 267.507C538.613 267.292 539.042 267.185 539.518 267.185C539.985 267.185 540.405 267.287 540.778 267.493C541.161 267.698 541.459 267.987 541.674 268.361C541.898 268.734 542.01 269.177 542.01 269.691V273.975H540.75ZM545.244 273.975V269.957C545.244 269.462 545.09 269.075 544.782 268.795C544.483 268.505 544.11 268.361 543.662 268.361C543.354 268.361 543.074 268.426 542.822 268.557C542.579 268.687 542.383 268.869 542.234 269.103C542.085 269.336 542.01 269.616 542.01 269.943L541.296 269.691C541.324 269.177 541.459 268.739 541.702 268.375C541.954 268.001 542.276 267.712 542.668 267.507C543.06 267.292 543.489 267.185 543.956 267.185C544.441 267.185 544.875 267.287 545.258 267.493C545.641 267.698 545.944 267.987 546.168 268.361C546.401 268.734 546.518 269.182 546.518 269.705V273.975H545.244ZM551.061 274.115C550.454 274.115 549.903 273.965 549.409 273.667C548.914 273.359 548.522 272.943 548.233 272.421C547.953 271.898 547.813 271.31 547.813 270.657C547.813 270.003 547.953 269.415 548.233 268.893C548.522 268.37 548.909 267.955 549.395 267.647C549.889 267.339 550.445 267.185 551.061 267.185C551.565 267.185 552.013 267.292 552.405 267.507C552.806 267.712 553.128 268.001 553.371 268.375C553.613 268.739 553.749 269.163 553.777 269.649V271.651C553.749 272.127 553.613 272.551 553.371 272.925C553.137 273.298 552.82 273.592 552.419 273.807C552.027 274.012 551.574 274.115 551.061 274.115ZM551.271 272.925C551.896 272.925 552.4 272.715 552.783 272.295C553.165 271.865 553.357 271.319 553.357 270.657C553.357 270.199 553.268 269.803 553.091 269.467C552.923 269.121 552.68 268.855 552.363 268.669C552.045 268.473 551.677 268.375 551.257 268.375C550.837 268.375 550.463 268.473 550.137 268.669C549.819 268.865 549.567 269.135 549.381 269.481C549.203 269.817 549.115 270.204 549.115 270.643C549.115 271.091 549.203 271.487 549.381 271.833C549.567 272.169 549.824 272.435 550.151 272.631C550.477 272.827 550.851 272.925 551.271 272.925ZM553.273 273.975V272.183L553.511 270.559L553.273 268.949V267.325H554.547V273.975H553.273ZM556.395 273.975V267.325H557.655V273.975H556.395ZM557.025 265.995C556.792 265.995 556.6 265.92 556.451 265.771C556.302 265.612 556.227 265.416 556.227 265.183C556.227 264.959 556.302 264.772 556.451 264.623C556.6 264.464 556.792 264.385 557.025 264.385C557.258 264.385 557.45 264.464 557.599 264.623C557.748 264.772 557.823 264.959 557.823 265.183C557.823 265.416 557.748 265.612 557.599 265.771C557.45 265.92 557.258 265.995 557.025 265.995ZM559.512 273.975V263.979H560.772V273.975H559.512Z" fill="white" fill-opacity="0.7"/>
<rect x="743" y="248.975" width="93" height="40" rx="20" fill="white"/>
<path d="M763.169 274.115C762.404 274.115 761.751 273.975 761.209 273.695C760.668 273.415 760.187 273.009 759.767 272.477L760.663 271.581C760.971 272.01 761.326 272.337 761.727 272.561C762.129 272.775 762.623 272.883 763.211 272.883C763.79 272.883 764.252 272.757 764.597 272.505C764.952 272.253 765.129 271.907 765.129 271.469C765.129 271.105 765.045 270.811 764.877 270.587C764.709 270.363 764.481 270.181 764.191 270.041C763.911 269.891 763.603 269.761 763.267 269.649C762.931 269.527 762.595 269.401 762.259 269.271C761.923 269.131 761.615 268.963 761.335 268.767C761.055 268.561 760.827 268.295 760.649 267.969C760.481 267.642 760.397 267.231 760.397 266.737C760.397 266.186 760.528 265.719 760.789 265.337C761.06 264.945 761.424 264.646 761.881 264.441C762.348 264.226 762.871 264.119 763.449 264.119C764.084 264.119 764.653 264.245 765.157 264.497C765.661 264.739 766.072 265.061 766.389 265.463L765.493 266.359C765.204 266.023 764.891 265.771 764.555 265.603C764.229 265.435 763.851 265.351 763.421 265.351C762.899 265.351 762.483 265.467 762.175 265.701C761.867 265.925 761.713 266.242 761.713 266.653C761.713 266.979 761.797 267.245 761.965 267.451C762.143 267.647 762.371 267.815 762.651 267.955C762.931 268.095 763.239 268.225 763.575 268.347C763.921 268.459 764.261 268.585 764.597 268.725C764.933 268.865 765.241 269.042 765.521 269.257C765.801 269.471 766.025 269.751 766.193 270.097C766.371 270.433 766.459 270.857 766.459 271.371C766.459 272.229 766.161 272.901 765.563 273.387C764.975 273.872 764.177 274.115 763.169 274.115ZM770.683 274.115C770.142 274.115 769.652 273.993 769.213 273.751C768.784 273.499 768.448 273.153 768.205 272.715C767.962 272.276 767.841 271.767 767.841 271.189V267.325H769.101V271.133C769.101 271.497 769.162 271.814 769.283 272.085C769.414 272.346 769.6 272.547 769.843 272.687C770.086 272.827 770.37 272.897 770.697 272.897C771.192 272.897 771.579 272.743 771.859 272.435C772.139 272.117 772.279 271.683 772.279 271.133V267.325H773.539V271.189C773.539 271.767 773.418 272.276 773.175 272.715C772.932 273.153 772.596 273.499 772.167 273.751C771.747 273.993 771.252 274.115 770.683 274.115ZM778.728 274.115C778.224 274.115 777.766 274.012 777.356 273.807C776.954 273.592 776.632 273.298 776.39 272.925C776.147 272.551 776.012 272.127 775.984 271.651V269.649C776.012 269.163 776.147 268.739 776.39 268.375C776.642 268.001 776.968 267.712 777.37 267.507C777.78 267.292 778.233 267.185 778.728 267.185C779.334 267.185 779.88 267.339 780.366 267.647C780.86 267.955 781.248 268.37 781.528 268.893C781.808 269.415 781.948 270.003 781.948 270.657C781.948 271.31 781.808 271.898 781.528 272.421C781.248 272.943 780.86 273.359 780.366 273.667C779.88 273.965 779.334 274.115 778.728 274.115ZM775.228 273.975V263.979H776.488V268.949L776.25 270.559L776.488 272.183V273.975H775.228ZM778.518 272.925C778.938 272.925 779.306 272.827 779.624 272.631C779.941 272.435 780.193 272.169 780.38 271.833C780.566 271.487 780.66 271.091 780.66 270.643C780.66 270.204 780.566 269.812 780.38 269.467C780.193 269.121 779.941 268.855 779.624 268.669C779.306 268.473 778.942 268.375 778.532 268.375C778.112 268.375 777.743 268.473 777.426 268.669C777.108 268.855 776.861 269.121 776.684 269.467C776.506 269.812 776.418 270.209 776.418 270.657C776.418 271.095 776.502 271.487 776.67 271.833C776.847 272.169 777.094 272.435 777.412 272.631C777.738 272.827 778.107 272.925 778.518 272.925ZM785.49 274.115C785.117 274.115 784.762 274.068 784.426 273.975C784.099 273.872 783.796 273.732 783.516 273.555C783.236 273.368 782.993 273.149 782.788 272.897L783.6 272.085C783.843 272.383 784.123 272.607 784.44 272.757C784.757 272.897 785.112 272.967 785.504 272.967C785.896 272.967 786.199 272.901 786.414 272.771C786.629 272.631 786.736 272.439 786.736 272.197C786.736 271.954 786.647 271.767 786.47 271.637C786.302 271.497 786.083 271.385 785.812 271.301C785.541 271.207 785.252 271.119 784.944 271.035C784.645 270.941 784.361 270.825 784.09 270.685C783.819 270.545 783.595 270.353 783.418 270.111C783.25 269.868 783.166 269.546 783.166 269.145C783.166 268.743 783.264 268.398 783.46 268.109C783.656 267.81 783.927 267.581 784.272 267.423C784.627 267.264 785.051 267.185 785.546 267.185C786.069 267.185 786.531 267.278 786.932 267.465C787.343 267.642 787.679 267.913 787.94 268.277L787.128 269.089C786.941 268.846 786.708 268.659 786.428 268.529C786.157 268.398 785.849 268.333 785.504 268.333C785.14 268.333 784.86 268.398 784.664 268.529C784.477 268.65 784.384 268.823 784.384 269.047C784.384 269.271 784.468 269.443 784.636 269.565C784.804 269.686 785.023 269.789 785.294 269.873C785.574 269.957 785.863 270.045 786.162 270.139C786.461 270.223 786.745 270.339 787.016 270.489C787.287 270.638 787.506 270.839 787.674 271.091C787.851 271.343 787.94 271.674 787.94 272.085C787.94 272.71 787.716 273.205 787.268 273.569C786.829 273.933 786.237 274.115 785.49 274.115ZM792.389 274.115C791.735 274.115 791.143 273.961 790.611 273.653C790.088 273.345 789.673 272.929 789.365 272.407C789.066 271.875 788.917 271.287 788.917 270.643C788.917 269.989 789.066 269.401 789.365 268.879C789.673 268.356 790.088 267.945 790.611 267.647C791.143 267.339 791.735 267.185 792.389 267.185C792.902 267.185 793.378 267.283 793.817 267.479C794.255 267.665 794.633 267.941 794.951 268.305L794.111 269.145C793.905 268.902 793.653 268.72 793.355 268.599C793.065 268.468 792.743 268.403 792.389 268.403C791.969 268.403 791.595 268.501 791.269 268.697C790.942 268.883 790.685 269.145 790.499 269.481C790.312 269.817 790.219 270.204 790.219 270.643C790.219 271.081 790.312 271.469 790.499 271.805C790.685 272.141 790.942 272.407 791.269 272.603C791.595 272.799 791.969 272.897 792.389 272.897C792.743 272.897 793.065 272.836 793.355 272.715C793.653 272.584 793.91 272.397 794.125 272.155L794.951 272.995C794.643 273.349 794.265 273.625 793.817 273.821C793.378 274.017 792.902 274.115 792.389 274.115ZM796.2 273.975V267.325H797.46V273.975H796.2ZM797.46 270.181L796.984 269.971C796.984 269.121 797.18 268.445 797.572 267.941C797.964 267.437 798.529 267.185 799.266 267.185C799.602 267.185 799.906 267.245 800.176 267.367C800.447 267.479 800.699 267.67 800.932 267.941L800.106 268.795C799.966 268.645 799.812 268.538 799.644 268.473C799.476 268.407 799.28 268.375 799.056 268.375C798.59 268.375 798.207 268.524 797.908 268.823C797.61 269.121 797.46 269.574 797.46 270.181ZM801.834 273.975V267.325H803.094V273.975H801.834ZM802.464 265.995C802.23 265.995 802.039 265.92 801.89 265.771C801.74 265.612 801.666 265.416 801.666 265.183C801.666 264.959 801.74 264.772 801.89 264.623C802.039 264.464 802.23 264.385 802.464 264.385C802.697 264.385 802.888 264.464 803.038 264.623C803.187 264.772 803.262 264.959 803.262 265.183C803.262 265.416 803.187 265.612 803.038 265.771C802.888 265.92 802.697 265.995 802.464 265.995ZM808.45 274.115C807.946 274.115 807.489 274.012 807.078 273.807C806.677 273.592 806.355 273.298 806.112 272.925C805.87 272.551 805.734 272.127 805.706 271.651V269.649C805.734 269.163 805.87 268.739 806.112 268.375C806.364 268.001 806.691 267.712 807.092 267.507C807.503 267.292 807.956 267.185 808.45 267.185C809.057 267.185 809.603 267.339 810.088 267.647C810.583 267.955 810.97 268.37 811.25 268.893C811.53 269.415 811.67 270.003 811.67 270.657C811.67 271.31 811.53 271.898 811.25 272.421C810.97 272.943 810.583 273.359 810.088 273.667C809.603 273.965 809.057 274.115 808.45 274.115ZM804.95 273.975V263.979H806.21V268.949L805.972 270.559L806.21 272.183V273.975H804.95ZM808.24 272.925C808.66 272.925 809.029 272.827 809.346 272.631C809.664 272.435 809.916 272.169 810.102 271.833C810.289 271.487 810.382 271.091 810.382 270.643C810.382 270.204 810.289 269.812 810.102 269.467C809.916 269.121 809.664 268.855 809.346 268.669C809.029 268.473 808.665 268.375 808.254 268.375C807.834 268.375 807.466 268.473 807.148 268.669C806.831 268.855 806.584 269.121 806.406 269.467C806.229 269.812 806.14 270.209 806.14 270.657C806.14 271.095 806.224 271.487 806.392 271.833C806.57 272.169 806.817 272.435 807.134 272.631C807.461 272.827 807.83 272.925 808.24 272.925ZM816.179 274.115C815.516 274.115 814.919 273.965 814.387 273.667C813.855 273.359 813.435 272.943 813.127 272.421C812.819 271.898 812.665 271.305 812.665 270.643C812.665 269.989 812.814 269.401 813.113 268.879C813.421 268.356 813.831 267.945 814.345 267.647C814.867 267.339 815.451 267.185 816.095 267.185C816.711 267.185 817.252 267.325 817.719 267.605C818.195 267.885 818.563 268.272 818.825 268.767C819.095 269.261 819.231 269.821 819.231 270.447C819.231 270.54 819.226 270.643 819.217 270.755C819.207 270.857 819.189 270.979 819.161 271.119H813.547V270.069H818.489L818.027 270.475C818.027 270.027 817.947 269.649 817.789 269.341C817.63 269.023 817.406 268.781 817.117 268.613C816.827 268.435 816.477 268.347 816.067 268.347C815.637 268.347 815.259 268.44 814.933 268.627C814.606 268.813 814.354 269.075 814.177 269.411C813.999 269.747 813.911 270.143 813.911 270.601C813.911 271.067 814.004 271.478 814.191 271.833C814.377 272.178 814.643 272.449 814.989 272.645C815.334 272.831 815.731 272.925 816.179 272.925C816.552 272.925 816.893 272.859 817.201 272.729C817.518 272.598 817.789 272.402 818.013 272.141L818.825 272.967C818.507 273.34 818.115 273.625 817.649 273.821C817.191 274.017 816.701 274.115 816.179 274.115Z" fill="black"/>
</g>
<defs>
<filter id="filter0_f_51_7497" x="82" y="-387.025" width="1116" height="1116" filterUnits="userSpaceOnUse" color-interpolation-filters="sRGB">
<feFlood flood-opacity="0" result="BackgroundImageFix"/>
<feBlend mode="normal" in="SourceGraphic" in2="BackgroundImageFix" result="shape"/>
<feGaussianBlur stdDeviation="98" result="effect1_foregroundBlur_51_7497"/>
</filter>
<linearGradient id="paint0_linear_51_7497" x1="640" y1="-13.0254" x2="640" y2="469.975" gradientUnits="userSpaceOnUse">
<stop offset="0.689977" stop-color="#0E0626"/>
<stop offset="1" stop-color="#4C17ED"/>
</linearGradient>
<clipPath id="clip0_51_7497">
<rect width="1280" height="655" fill="white" transform="translate(0 0.974609)"/>
</clipPath>
</defs>
</svg>
