<svg width="24" height="25" viewBox="0 0 24 25" fill="none" xmlns="http://www.w3.org/2000/svg">
<path d="M12 5.75C8.27803 5.75 5.25 8.77803 5.25 12.5C5.25 16.222 8.27803 19.25 12 19.25C15.722 19.25 18.75 16.222 18.75 12.5C18.75 8.77803 15.722 5.75 12 5.75ZM15.0456 12.5L12 15.5456L8.95438 12.5L12 9.45438L15.0456 12.5Z" fill="white"/>
<path d="M19.4246 5.07535C17.4414 3.09221 14.8046 2 12 2C9.19535 2 6.55858 3.09221 4.57535 5.07535C2.59221 7.05858 1.5 9.69535 1.5 12.5C1.5 15.3046 2.59221 17.9414 4.57535 19.9246C6.55858 21.9078 9.19535 23 12 23C14.8046 23 17.4414 21.9078 19.4246 19.9246C21.4078 17.9414 22.5 15.3046 22.5 12.5C22.5 9.69535 21.4078 7.05858 19.4246 5.07535ZM12 20.5288C7.5729 20.5288 3.97119 16.9271 3.97119 12.5C3.97119 8.0729 7.5729 4.47119 12 4.47119C16.4271 4.47119 20.0288 8.0729 20.0288 12.5C20.0288 16.9271 16.4271 20.5288 12 20.5288Z" fill="white"/>
</svg>
