<svg width="16" height="17" viewBox="0 0 16 17" fill="none" xmlns="http://www.w3.org/2000/svg">
<g id="Twitter Line">
<path id="Vector" d="M10.2336 4.15023C9.17906 4.15023 8.31939 4.99559 8.30059 6.04791L8.28186 7.09795C8.27793 7.31883 8.09566 7.49469 7.87479 7.49076C7.85906 7.49049 7.84339 7.48929 7.82786 7.48716L6.78733 7.34523C5.71365 7.19883 4.67496 6.77966 3.66957 6.09967C3.28868 5.84205 2.75015 6.04397 2.74601 6.50379C2.73097 8.17412 3.53204 9.4068 5.10261 10.3942L6.26727 11.1264C6.45429 11.244 6.51059 11.4909 6.39301 11.6779C6.36607 11.7208 6.33123 11.7581 6.29035 11.788C5.9314 12.0502 6.09984 12.5897 6.54161 12.5399C6.68639 12.5236 6.8253 12.5023 6.95699 12.476C10.1021 11.8484 12.1935 9.48156 12.1935 5.57759C12.1935 5.25886 11.5186 4.15023 10.2336 4.15023ZM6.30454 5.90258C6.64934 6.0036 6.96869 5.70528 7.0485 5.35496C7.3796 3.90156 8.67992 2.81689 10.2336 2.81689C11.0514 2.81689 11.799 3.11743 12.3721 3.61409C12.4944 3.72012 12.6482 3.78733 12.81 3.79261C13.0185 3.79943 13.2333 3.80244 13.505 3.73142C13.8426 3.64321 14.2261 3.91213 14.139 4.24996C14.0203 4.71071 13.8867 5.04433 13.6388 5.41715C13.5684 5.52292 13.5273 5.64787 13.5252 5.77488C13.4454 10.736 10.3541 13.1577 7.21793 13.7836C5.59125 14.1082 3.41274 13.7924 2.0357 13.2167C1.56848 13.0214 1.72143 12.4771 2.21729 12.3743C2.66949 12.2805 3.1763 12.1427 3.64107 11.9421C4.02491 11.7765 4.01665 11.2871 3.68371 11.0343C2.44367 10.0927 0.523987 8.0243 1.87727 3.89195C2.01649 3.46681 2.56452 3.37546 2.87817 3.69446C3.79281 4.6247 4.71754 5.28169 5.65237 5.66544C5.93609 5.78191 6.14111 5.85469 6.30454 5.90258Z" fill="white"/>
</g>
</svg>
