<svg width="24" height="25" viewBox="0 0 24 25" fill="none" xmlns="http://www.w3.org/2000/svg">
<path d="M22.5 9.44054V13.288C22.5 13.6855 22.185 14.0005 21.7875 14.0005H18.66C18.3436 14.0015 18.0301 13.9399 17.7375 13.8193C17.445 13.6987 17.1792 13.5214 16.9554 13.2976C16.7317 13.0739 16.5544 12.8081 16.4337 12.5155C16.3131 12.223 16.2515 11.9095 16.2525 11.593V11.1355C16.2515 10.8191 16.3131 10.5056 16.4337 10.2131C16.5544 9.92052 16.7317 9.65473 16.9554 9.43097C17.1792 9.20722 17.445 9.02992 17.7375 8.90928C18.0301 8.78864 18.3436 8.72705 18.66 8.72804H21.7875C22.185 8.72804 22.5 9.04304 22.5 9.44054ZM9.5025 14.4505C9.5025 15.004 8.7525 15.4893 7.623 15.7563C6.92687 15.9191 6.2139 15.9989 5.499 15.994C4.7235 15.994 3.9945 15.907 3.38025 15.7563C2.25 15.4893 1.5 15.004 1.5 14.4505C1.5 13.5963 3.291 12.9018 5.499 12.9018C7.7115 12.9025 9.5025 13.5963 9.5025 14.4505ZM7.8825 16.8513C7.167 17.0253 6.33975 17.119 5.49825 17.119C4.66125 17.119 3.8355 17.0253 3.11175 16.849C2.40975 16.6833 1.89075 16.459 1.5 16.213V17.0665C1.5 17.62 2.24475 18.1008 3.369 18.3723C3.98325 18.5275 4.7175 18.6153 5.49825 18.6153C6.28425 18.6153 7.01325 18.5275 7.63275 18.3723C8.75775 18.1008 9.50175 17.62 9.50175 17.0665V16.2115C9.11025 16.459 8.58825 16.684 7.8825 16.8513ZM7.8975 19.4665C7.18575 19.645 6.3525 19.7403 5.49825 19.7403C4.641 19.7403 3.81 19.6443 3.09375 19.4635C2.40375 19.297 1.8885 19.078 1.5 18.8358V19.6833C1.5 20.2368 2.24475 20.7175 3.369 20.9935C3.98325 21.1443 4.7175 21.2313 5.49825 21.2313C6.28425 21.2313 7.01325 21.1435 7.63275 20.9935C8.75775 20.7168 9.50175 20.236 9.50175 19.6833V18.835C9.11175 19.078 8.5935 19.2985 7.8975 19.4665Z" fill="white"/>
<path d="M18.6604 7.6025H21.5929V6.1925C21.5929 4.7075 20.3854 3.5 18.9004 3.5H5.73791C4.25291 3.5 3.04541 4.7075 3.04541 6.1925V12.0605C3.80291 11.8707 4.65116 11.777 5.49866 11.777C7.92566 11.777 10.3909 12.5112 10.6279 14.1702V19.235H18.9004C20.3854 19.235 21.5929 18.0275 21.5929 16.5425V15.125H18.6604C17.7238 15.124 16.8259 14.7515 16.1637 14.0893C15.5014 13.427 15.1289 12.5291 15.1279 11.5925V11.135C15.1291 10.1985 15.5017 9.30067 16.1639 8.63846C16.8261 7.97625 17.7239 7.60369 18.6604 7.6025ZM10.5709 7.688H6.70316C6.52414 7.688 6.35245 7.61688 6.22586 7.4903C6.09928 7.36371 6.02816 7.19202 6.02816 7.013C6.02816 6.83398 6.09928 6.66229 6.22586 6.5357C6.35245 6.40912 6.52414 6.338 6.70316 6.338H10.5702C10.6588 6.33795 10.7466 6.35536 10.8285 6.38924C10.9104 6.42311 10.9849 6.47279 11.0476 6.53544C11.1103 6.59808 11.16 6.67247 11.194 6.75434C11.228 6.83622 11.2455 6.92398 11.2455 7.01262C11.2456 7.10127 11.2282 7.18905 11.1943 7.27097C11.1604 7.35288 11.1107 7.42732 11.0481 7.49003C10.9855 7.55275 10.9111 7.60251 10.8292 7.63648C10.7473 7.67044 10.6596 7.68795 10.5709 7.688Z" fill="white"/>
</svg>
