<svg width="25" height="25" viewBox="0 0 25 25" fill="none" xmlns="http://www.w3.org/2000/svg">
<path d="M12.5 3.22461C10.5716 3.22461 8.68657 3.79644 7.08319 4.86778C5.47982 5.93912 4.23013 7.46187 3.49218 9.24345C2.75422 11.025 2.56114 12.9854 2.93735 14.8767C3.31355 16.7681 4.24215 18.5053 5.60571 19.8689C6.96928 21.2325 8.70656 22.1611 10.5979 22.5373C12.4892 22.9135 14.4496 22.7204 16.2312 21.9824C18.0127 21.2445 19.5355 19.9948 20.6068 18.3914C21.6782 16.788 22.25 14.903 22.25 12.9746C22.2473 10.3896 21.2192 7.91122 19.3913 6.08333C17.5634 4.25544 15.085 3.22734 12.5 3.22461ZM16.0306 15.444C16.1003 15.5137 16.1556 15.5964 16.1933 15.6874C16.231 15.7785 16.2504 15.8761 16.2504 15.9746C16.2504 16.0732 16.231 16.1707 16.1933 16.2618C16.1556 16.3528 16.1003 16.4356 16.0306 16.5052C15.9609 16.5749 15.8782 16.6302 15.7872 16.6679C15.6961 16.7056 15.5986 16.725 15.5 16.725C15.4015 16.725 15.3039 16.7056 15.2128 16.6679C15.1218 16.6302 15.0391 16.5749 14.9694 16.5052L12.5 14.0349L10.0306 16.5052C9.96095 16.5749 9.87822 16.6302 9.78718 16.6679C9.69613 16.7056 9.59855 16.725 9.5 16.725C9.40146 16.725 9.30388 16.7056 9.21283 16.6679C9.12179 16.6302 9.03906 16.5749 8.96938 16.5052C8.8997 16.4356 8.84442 16.3528 8.80671 16.2618C8.769 16.1707 8.74959 16.0732 8.74959 15.9746C8.74959 15.8761 8.769 15.7785 8.80671 15.6874C8.84442 15.5964 8.8997 15.5137 8.96938 15.444L11.4397 12.9746L8.96938 10.5052C8.82865 10.3645 8.74959 10.1736 8.74959 9.97461C8.74959 9.77559 8.82865 9.58471 8.96938 9.44398C9.11011 9.30325 9.30098 9.22419 9.5 9.22419C9.69903 9.22419 9.8899 9.30325 10.0306 9.44398L12.5 11.9143L14.9694 9.44398C15.0391 9.3743 15.1218 9.31903 15.2128 9.28131C15.3039 9.2436 15.4015 9.22419 15.5 9.22419C15.5986 9.22419 15.6961 9.2436 15.7872 9.28131C15.8782 9.31903 15.9609 9.3743 16.0306 9.44398C16.1003 9.51367 16.1556 9.59639 16.1933 9.68744C16.231 9.77848 16.2504 9.87606 16.2504 9.97461C16.2504 10.0732 16.231 10.1707 16.1933 10.2618C16.1556 10.3528 16.1003 10.4356 16.0306 10.5052L13.5603 12.9746L16.0306 15.444Z" fill="#4E4D57"/>
</svg>
