<svg width="120" height="120" viewBox="0 0 120 120" fill="none" xmlns="http://www.w3.org/2000/svg">
<path d="M67.6348 92.9292C60.8714 96.834 49.9059 96.834 43.1426 92.9292C39.8862 91.0491 38.1977 88.6066 38.077 86.1433C38.0193 84.9645 38.0767 83.8981 38.0774 82.4711C38.078 81.0442 41.194 79.9137 43.1426 78.7887C49.9059 74.8838 60.8714 74.8838 67.6348 78.7887C69.8755 80.0824 72.7059 81.9585 72.7059 83.0533C72.7059 84.1481 72.6879 84.9111 72.7059 85.7321C72.7627 88.3331 71.0723 90.9446 67.6348 92.9292Z" fill="#2B176D"/>
<circle cx="14.1406" cy="14.1406" r="14.1406" transform="matrix(0.866025 0.5 -0.866025 0.5 55.3893 68.418)" fill="url(#paint0_linear_51_7375)"/>
<path d="M72.0278 86.6101C65.2645 90.5149 54.299 90.5149 47.5356 86.6101C44.2792 84.73 42.5907 82.2875 42.4701 79.8242C42.4124 78.6454 42.4698 77.579 42.4704 76.152C42.4711 74.7251 45.587 73.5946 47.5356 72.4696C54.299 68.5647 65.2645 68.5647 72.0278 72.4696C74.2686 73.7633 77.0989 75.6394 77.0989 76.7342C77.0989 77.8291 77.081 78.592 77.0989 79.413C77.1558 82.014 75.4654 84.6255 72.0278 86.6101Z" fill="#2B176D"/>
<circle cx="14.1406" cy="14.1406" r="14.1406" transform="matrix(0.866025 0.5 -0.866025 0.5 59.7823 62.0977)" fill="url(#paint1_linear_51_7375)"/>
<path d="M67.4232 80.1504C60.6599 84.0552 49.6944 84.0552 42.931 80.1504C39.6746 78.2703 37.9861 75.8278 37.8655 73.3645C37.8078 72.1857 37.8652 71.1192 37.8658 69.6923C37.8665 68.2654 40.9824 67.1349 42.931 66.0098C49.6944 62.105 60.6599 62.105 67.4232 66.0098C69.664 67.3036 72.4943 69.1797 72.4943 70.2745C72.4943 71.3693 72.4764 72.1323 72.4943 72.9533C72.5511 75.5543 70.8608 78.1657 67.4232 80.1504Z" fill="#2B176D"/>
<circle cx="14.1406" cy="14.1406" r="14.1406" transform="matrix(0.866025 0.5 -0.866025 0.5 55.1755 55.6392)" fill="url(#paint2_linear_51_7375)"/>
<path d="M77.2045 76.1231C70.4411 80.0279 59.4756 80.0279 52.7123 76.1231C49.4559 74.243 47.7674 71.8005 47.6467 69.3371C47.589 68.1583 47.6464 67.0919 47.6471 65.665C47.6477 64.238 50.7637 63.1075 52.7123 61.9825C59.4756 58.0777 70.4411 58.0777 77.2045 61.9825C79.4453 63.2762 82.2756 65.1523 82.2756 66.2472C82.2756 67.342 82.2577 68.1049 82.2756 68.9259C82.3324 71.527 80.642 74.1384 77.2045 76.1231Z" fill="#2B176D"/>
<circle cx="14.1406" cy="14.1406" r="14.1406" transform="matrix(0.866025 0.5 -0.866025 0.5 64.9568 51.6118)" fill="url(#paint3_linear_51_7375)"/>
<path d="M67.5459 44.5122C60.7826 48.417 49.817 48.417 43.0537 44.5122C39.7973 42.6321 38.1088 40.1896 37.9882 37.7263C37.9304 36.5475 37.9879 35.4811 37.9885 34.0541C37.9892 32.6272 41.1051 31.4967 43.0537 30.3717C49.817 26.4668 60.7826 26.4668 67.5459 30.3717C69.7867 31.6654 72.617 33.5415 72.617 34.6363C72.617 35.7312 72.5991 36.4941 72.617 37.3151C72.6738 39.9161 70.9835 42.5276 67.5459 44.5122Z" fill="#2B176D"/>
<circle cx="14.1406" cy="14.1406" r="14.1406" transform="matrix(0.866025 0.5 -0.866025 0.5 55.2982 20)" fill="url(#paint4_linear_51_7375)"/>
<defs>
<linearGradient id="paint0_linear_51_7375" x1="14.1406" y1="0.737989" x2="14.1406" y2="35.3514" gradientUnits="userSpaceOnUse">
<stop stop-color="#8779FF"/>
<stop offset="1" stop-color="#2B176D"/>
</linearGradient>
<linearGradient id="paint1_linear_51_7375" x1="14.1406" y1="0.737989" x2="14.1406" y2="35.3514" gradientUnits="userSpaceOnUse">
<stop stop-color="#8779FF"/>
<stop offset="1" stop-color="#2B176D"/>
</linearGradient>
<linearGradient id="paint2_linear_51_7375" x1="14.1406" y1="0.737989" x2="14.1406" y2="35.3514" gradientUnits="userSpaceOnUse">
<stop stop-color="#8779FF"/>
<stop offset="1" stop-color="#2B176D"/>
</linearGradient>
<linearGradient id="paint3_linear_51_7375" x1="14.1406" y1="0.737989" x2="14.1406" y2="35.3514" gradientUnits="userSpaceOnUse">
<stop stop-color="#8779FF"/>
<stop offset="1" stop-color="#2B176D"/>
</linearGradient>
<linearGradient id="paint4_linear_51_7375" x1="14.1406" y1="0.737989" x2="14.1406" y2="35.3514" gradientUnits="userSpaceOnUse">
<stop stop-color="#8779FF"/>
<stop offset="1" stop-color="#2B176D"/>
</linearGradient>
</defs>
</svg>
